<svg xmlns="http://www.w3.org/2000/svg" viewBox="0 0 820.06 223.15"><defs><style>.cls-1{fill:#fff;}</style></defs><g id="Layer_2" data-name="Layer 2"><g id="Camada_1" data-name="Camada 1"><polygon class="cls-1" points="55.04 30.5 114.65 30.5 122.16 2.5 30.7 2.5 0 116.5 31.85 116.5 42.79 75.5 96.68 75.5 103.7 49.51 49.81 49.51 55.04 30.5"/><path class="cls-1" d="M147.64,81.5h14l15.19,35h34.95L194.18,78c23.36-6.37,34.3-21.37,34.3-40.47,0-9.15-2.78-17.19-8.82-23.24C212,6.63,199.41,2.5,180.3,2.5H137.19l-30.71,114h31.85Zm14-52h17.15c6.7,0,11.43,1.42,14,4a11.3,11.3,0,0,1,2.94,7.91c0,9.8-9.31,16.06-23.52,16.06H154.17Z"/><path class="cls-1" d="M247.59,116.5l13.72-20H305.4l2.78,20H341.5L323.69,1.5h-31l-79.53,115Zm51.12-77.82,4.08,32.82H277.31Z"/><path class="cls-1" d="M453,97.5l-21.39-19c-7.35,7.35-14.54,11.6-24.5,11.6-13.23,0-22.86-9-22.86-23.52,0-19.92,15.18-37.72,34.13-37.72,11.27,0,18.46,5.39,23,14.69l27.43-14.69C462,11.27,445.86,0,422.5,0c-43.93,0-71.37,35.11-71.37,68.92,0,30.54,22.38,50,54.06,50C426.91,118.89,441.94,110.07,453,97.5Z"/><polygon class="cls-1" points="485.38 116.5 517.23 116.5 540.42 30.5 574.72 30.5 582.06 2.5 481.95 2.5 474.44 30.5 508.74 30.5 485.38 116.5"/><path class="cls-1" d="M575.37,116.5l13.72-20h44.09l2.78,20h33.32L651.47,1.5h-31l-79.54,115Zm51.12-77.82,4.08,32.82H605.09Z"/><polygon class="cls-1" points="716.97 88.5 740.16 2.5 708.31 2.5 677.61 116.5 764 116.5 771.51 88.5 716.97 88.5"/><polygon class="cls-1" points="52.32 181.22 38.78 144.5 24.92 144.5 4.07 221.5 17.71 221.5 32.57 166.09 46.88 202.5 47.32 202.5 81.49 165.86 66.51 221.5 80.38 221.5 101.23 144.5 85.59 144.5 52.32 181.22"/><path class="cls-1" d="M172.77,144.5l-11.87,44c-1.88,7.32-4.88,12.56-8.54,16.22a20,20,0,0,1-14.53,5.84c-10.76,0-16.3-6.23-16.3-15a31.8,31.8,0,0,1,1.11-8.39l11.42-42.67H120.42l-10.87,40.77a43.56,43.56,0,0,0-1.78,12.23c0,15.75,10.54,25.58,28.73,25.58,10.76,0,19.08-3.34,25.4-9.67,5.44-5.43,9.43-12.82,12.09-22.81l12.42-46.1Z"/><path class="cls-1" d="M226.9,143.07c-16.64,0-29.84,9.76-29.84,24.4,0,10.76,8.1,16.09,20,20.86,11.09,4.32,14.3,7.09,14.3,11.75,0,6.44-6.32,10.76-15,10.76-10,0-17.08-3.77-23.4-11l-10.32,8.54c7.1,9.43,18.3,14.53,32.94,14.53,16.42,0,30.28-9.65,30.28-24.84,0-10.76-7.43-16.2-19.3-20.86-11.2-4.43-15.08-6.87-15.08-11.86,0-5.22,5.32-10.21,14.42-10.21,8.09,0,14.08,3.11,20,8.88l9.54-9.32C249.08,147.73,239.76,143.07,226.9,143.07Z"/><polygon class="cls-1" points="256.29 221.5 270.04 221.5 290.89 144.5 277.14 144.5 256.29 221.5"/><path class="cls-1" d="M343.8,142.85c-26,0-46.92,22.29-46.92,47.25,0,20.41,15.08,33.05,35.05,33.05,13.42,0,22.52-5.21,29.84-12.31l-9-9.09c-6.1,5.32-11.87,8.87-20.63,8.87-12.31,0-21.07-8.32-21.07-21.07,0-18.19,14.53-34.17,31.17-34.17,10.2,0,15.86,4.66,20.52,11.76l11.31-7.65C368.31,149.39,358.44,142.85,343.8,142.85Z"/><polygon class="cls-1" points="518.82 144.5 484.88 201.68 481.11 143.5 469.57 143.5 435.3 201.68 432.09 144.5 417.89 144.5 423.99 222.5 436.3 222.5 469.8 167.38 473.79 222.5 486.32 222.5 534.35 144.5 518.82 144.5"/><polygon class="cls-1" points="557.86 156.5 601.23 156.5 604.56 144.5 547.55 144.5 526.7 221.5 584.26 221.5 587.59 209.5 543.55 209.5 549.1 188.5 587.59 188.5 590.92 176.5 552.43 176.5 557.86 156.5"/><path class="cls-1" d="M647.37,143.5l-55.13,78H607l13-18h36.72l3,18h14l-13.2-78Zm-19.08,47L650,159.12l5,31.38Z"/><path class="cls-1" d="M733.55,144.5H705.38l-20.86,77h13.76l7.21-27h16.19l13.31,27h15.64l-14.42-28.23c8.21-1.55,14.86-4.58,19.41-9.24a24.06,24.06,0,0,0,7.1-17.71,19.82,19.82,0,0,0-5.66-14.45C752.07,146.76,744.42,144.5,733.55,144.5Zm11.09,32.21c-3.66,3.77-10.09,5.79-18.3,5.79H708.7l7.1-26h17c6.21,0,10.43,1.39,13,3.83a9.93,9.93,0,0,1,2.77,7.08A12.76,12.76,0,0,1,744.64,176.71Z"/><path class="cls-1" d="M820.06,45.41c0,14.65-11.5,26.15-26.47,26.15-14.81,0-26.63-11.5-26.63-26.15,0-14.34,11.82-25.85,26.63-25.85C808.56,19.56,820.06,31.07,820.06,45.41Zm-46.48,0c0,11.5,8.51,20.64,20.17,20.64,11.34,0,19.7-9.14,19.7-20.49,0-11.5-8.36-20.8-19.86-20.8S773.58,34.06,773.58,45.41ZM789.49,59h-6V33.12a51.82,51.82,0,0,1,9.93-.79c4.89,0,7.09.79,9,1.89a7.18,7.18,0,0,1,2.52,5.67c0,2.84-2.21,5-5.36,6v.32c2.52.94,3.94,2.83,4.73,6.3.78,3.94,1.26,5.51,1.89,6.46h-6.46c-.79-1-1.26-3.31-2-6.3-.48-2.84-2.05-4.1-5.36-4.1h-2.84Zm.16-14.66h2.84c3.31,0,6-1.1,6-3.78,0-2.36-1.74-3.94-5.52-3.94a14.11,14.11,0,0,0-3.31.32Z"/></g></g></svg>