<svg xmlns="http://www.w3.org/2000/svg" viewBox="0 0 920.65 920.65"><defs><style>.cls-1{fill:#231f20;stroke:#fff;stroke-miterlimit:10;stroke-width:6px;}.cls-2{fill:#fff;}</style></defs><g id="Layer_2" data-name="Layer 2"><g id="Layer_1-2" data-name="Layer 1"><circle class="cls-1" cx="460.33" cy="460.33" r="457.33"/><path class="cls-2" d="M501.59,720.83H392.68V460.78H338.56V371.24H392.5c0-3.35,0-5.82,0-8.28.39-22.94-.05-45.93,1.51-68.79A131.87,131.87,0,0,1,402.06,258c12-32.64,37.63-49.16,70.66-54.8,13.82-2.36,28-2.78,42.1-3.15,19.36-.51,38.75-.13,58.12-.13h7.74v89.25c-2.47.13-4.88.33-7.3.37-16.41.34-32.85.16-49.22,1.1-14.3.82-21.87,8.28-22.37,22.41-.67,18.92-.17,37.88-.17,57.6H582c0,2.35.14,3.95,0,5.52-2.81,26.36-5.78,52.71-8.39,79.09-.45,4.51-2.25,5.55-6.35,5.52-19.16-.14-38.33-.06-57.5-.06h-8.19Z"/></g></g></svg>