<svg xmlns="http://www.w3.org/2000/svg" viewBox="0 0 920.65 920.65"><defs><style>.cls-1{fill:#231f20;stroke:#fff;stroke-miterlimit:10;stroke-width:6px;}.cls-2{fill:#fff;}</style></defs><g id="Layer_2" data-name="Layer 2"><g id="Layer_1-2" data-name="Layer 1"><circle class="cls-1" cx="460.33" cy="460.33" r="457.33"/><path class="cls-2" d="M336,216H581c3.8.46,7.6.85,11.39,1.39a121.66,121.66,0,0,1,54,21.11c36.52,25.88,56.06,61.32,56.36,106.16.52,77.13.14,154.28.15,231.42a122.87,122.87,0,0,1-3.17,27.81c-13.78,59.38-65.43,100.72-126.14,100.77q-115,.09-230,0a129.08,129.08,0,0,1-122.4-87.55c-1.25-3.72-2.34-7.49-3.51-11.23V314.77a6.62,6.62,0,0,0,.4-.91c8-30.76,24.87-55.52,50.72-74A125.41,125.41,0,0,1,327.36,217ZM674.14,460.5v-115A100.73,100.73,0,0,0,572.25,244.71c-75.8.2-151.6,0-227.39.06A106.78,106.78,0,0,0,322.53,247a100.48,100.48,0,0,0-79.48,98.15q0,115.2,0,230.38a99.29,99.29,0,0,0,8.33,39.94c15.31,35.3,50.82,60.6,93.5,60.49,75.79-.2,151.59-.06,227.38-.07a106.71,106.71,0,0,0,22.33-2.2,100.71,100.71,0,0,0,79.57-98.16Z"/><path class="cls-2" d="M573.6,460.38c0,63.41-51.85,115.19-115.11,115A115.14,115.14,0,0,1,343.54,459.91c.22-63.18,52-114.9,115.07-114.62A115.12,115.12,0,0,1,573.6,460.38Zm-115,86.17a86.31,86.31,0,0,0,86.15-86.38c-.08-46.2-37.24-86.05-86.27-86a86.21,86.21,0,0,0,.12,172.41Z"/><path class="cls-2" d="M616.63,330.93A28.78,28.78,0,1,1,588,302.21,28.75,28.75,0,0,1,616.63,330.93Z"/></g></g></svg>