<svg xmlns="http://www.w3.org/2000/svg" viewBox="0 0 170.74 170.05"><defs><style>.cls-1{fill:#fff;fill-rule:evenodd;}</style></defs><g id="Layer_2" data-name="Layer 2"><g id="Layer_1-2" data-name="Layer 1"><path class="cls-1" d="M85.2,0C87.07,2.14,87.68,5.54,89,8.24a29.74,29.74,0,0,0-3.09,5.16c-2.08-1.13-2.79-3.63-4.13-5.5A69.7,69.7,0,0,1,85.2,0Z"/><path class="cls-1" d="M76.27.69c2.25,1.75,3.19,4.82,5.15,6.87a51,51,0,0,1-2.75,6.18c-1.75-1.34-2.75-3.43-4.46-4.81C75.08,6.37,75.2,3.05,76.27.69Z"/><path class="cls-1" d="M67.68,2.06C70,3.84,71.61,6.37,73.52,8.59c0,2.47-1,4.07-1,6.53-1.92-.09-4-2.85-5.5-4.47A57.6,57.6,0,0,1,67.68,2.06Z"/><path class="cls-1" d="M59.09,4.12a63.71,63.71,0,0,1,7.56,7.22c.11,2.52-.88,3.93-.69,6.52-2.19-1-3.54-2.87-5.84-3.77C60.19,10.35,59.35,7.52,59.09,4.12Z"/><path class="cls-1" d="M111.31,4.12c.83,3-.72,6.62-1,9.62-2,1.09-3.47,2.72-5.5,3.78.19-2.48-.44-4.14-.69-6.18A98.36,98.36,0,0,1,111.31,4.12Z"/><path class="cls-1" d="M50.84,7.56c3.24,1.8,5.7,4.38,8.94,6.18.09,2.88.83,5.12,1,7.9a50.37,50.37,0,0,0-6.87-4.12C53.18,13.92,51.53,11.22,50.84,7.56Z"/><path class="cls-1" d="M42.26,11.68c1.42,1.24,2,3.27,3.09,5.15,1,1.72,2.77,3.34,3.09,5.16.39,2.21-.92,4.4-.69,7.21-.25,1.26-2-1.21-2.75-2.06-1-1.21-2-2.6-2.74-3.44Z"/><path class="cls-1" d="M114.4,25.08c.57-2.75,1.91-4.74,2.4-7.56,3.7-1.8,6.78-4.22,10.65-5.84-1.54,3.72-4,6.51-5.49,10.31C119.21,22.79,117.1,24.23,114.4,25.08Z"/><path class="cls-1" d="M128.14,11.68c0,4.08,1.24,8.14.34,11.68-.76,3-4.33,4.24-5.15,6.53-.27-2.78-1.36-5.27-1-7.56C122.81,18.79,127.12,15.07,128.14,11.68Z"/><path class="cls-1" d="M85.2,14.43c1.4.88,1.76,2.82,2.75,4.12-.35,1.72-1.81,2.31-2.41,3.78a40.22,40.22,0,0,1-2.75-3.44C83.36,17.17,84.56,16.08,85.2,14.43Z"/><path class="cls-1" d="M91.73,14.77a17.19,17.19,0,0,1,2.4,4.81c-1.09,1-1.93,2.19-3.43,2.75-.17-1.55-1.41-2-2.07-3.09C89.18,17.27,91.14,16.71,91.73,14.77Z"/><path class="cls-1" d="M78.67,15.12c1.34,1,2,2.52,3.44,3.43-.48,1.58-1.58,2.54-2.06,4.12a6.14,6.14,0,0,1-3.44-3.43C77.53,18.1,77.84,16.34,78.67,15.12Z"/><path class="cls-1" d="M72.14,16.49a7.94,7.94,0,0,1,3.78,4.12,21.62,21.62,0,0,0-1.71,3.44c-1.08-1-2.59-1.54-3.44-2.75C71.3,19.77,71.74,18.15,72.14,16.49Z"/><path class="cls-1" d="M97.91,16.49c1.39.9,1.49,3.09,1.72,5.15C98.38,22,97.75,23,96.88,23.7c-1.12-.93-1.61-2.51-2.06-4.12C95.68,18.39,97.2,17.84,97.91,16.49Z"/><path class="cls-1" d="M103.75,18.55c1.44.74.3,4.05,1,5.5-1,.77-2.28,1.15-3.09,2.06-.89-.95-.71-3-1.38-4.12C101,20.34,103,20.08,103.75,18.55Z"/><path class="cls-1" d="M66.3,18.89c1.72.58,2.63,2,4.13,2.75-.15,1.8-.88,3-1,4.81C68.13,26,67.6,24.81,66,24.74,65.72,22.43,66.31,21,66.3,18.89Z"/><path class="cls-1" d="M61.15,22a42.28,42.28,0,0,0,4.47,2.4c-.36,1.48-.14,3.53-.69,4.81-1.48-.24-2.11-1.32-3.44-1.72C61.73,25.3,60.91,24.17,61.15,22Z"/><path class="cls-1" d="M105.81,29.2c-.85-1,.09-3.76-.69-4.81,1.13-.93,2.81-1.32,3.78-2.4,1.84,1.27-.15,4.34-.34,5.84C107.68,28.32,106.38,28.4,105.81,29.2Z"/><path class="cls-1" d="M85.2,22.67a7.89,7.89,0,0,1,2.4,3.1c-1.16.43-1.3,1.9-2.74,2.06a4.89,4.89,0,0,0-1.72-1.72C83.67,24.81,84.66,24,85.2,22.67Z"/><path class="cls-1" d="M90.7,23a7.41,7.41,0,0,1,2.06,3.78c-2.06,1.94-3.66.81-4.47-1.72C89.55,24.85,90,23.81,90.7,23Z"/><path class="cls-1" d="M79.7,23.36c2.76,1.79,3.11,2.64.69,5.15A8.55,8.55,0,0,1,78,26.8C78.19,25.29,79.23,24.6,79.7,23.36Z"/><path class="cls-1" d="M95.85,24.39c1.4.43.86,2.8,2.06,3.44-1.66,2.55-4,1.1-4.47-1.72A3.13,3.13,0,0,0,95.85,24.39Z"/><path class="cls-1" d="M74.21,24.74c1.46.14,1.45,1.75,3.09,1.71a10,10,0,0,1-2.06,3.44c-.45-.82-1.54-1-2.41-1.38A12.13,12.13,0,0,1,74.21,24.74Z"/><path class="cls-1" d="M113.37,25.77c.61-.1.7.32.34.34-.45,2.07-1.27,3.77-1.72,5.84-1.37,0-2.06.69-3.43.69a18.34,18.34,0,0,0,.69-4.81C110.58,27.1,112.4,26.86,113.37,25.77Z"/><path class="cls-1" d="M56.68,26.45c1.21-.4,3.52,1.06,4.81,1.72-.26,1.87.43,2.78.35,4.47a18,18,0,0,1-3.44-1A14.34,14.34,0,0,0,56.68,26.45Z"/><path class="cls-1" d="M69.4,26.8a9.08,9.08,0,0,1,2.74,1.71c0,1.59-1.15,2-1.37,3.44-.86-.29-1.35-.94-2.41-1C68.5,29.34,69.18,28.3,69.4,26.8Z"/><path class="cls-1" d="M100.66,26.8c1.43.4,1.25,2.41,1.37,4.12-1.25-.23-1.32.74-2.4.69a8.45,8.45,0,0,0-1.38-3.1C98.82,27.7,100,27.54,100.66,26.8Z"/><path class="cls-1" d="M84.86,28.17c.9.81,2.07,1.36,2.4,2.75-.69.77-4,1.37-4.12-.34C83,29.43,85,29.67,84.86,28.17Z"/><path class="cls-1" d="M80.05,28.86c.92.56,2,.93,2.4,2.06-1.37,0-1.49,1.25-2.4,1.72-.55-.61-1.58-.72-1.72-1.72A2.78,2.78,0,0,0,80.05,28.86Z"/><path class="cls-1" d="M90,28.86c2.26.85,2.92,3,.34,3.78-1-.48-1.39-1.59-2.4-2.06C88.16,29.53,89.79,29.9,90,28.86Z"/><path class="cls-1" d="M104.78,29.54c.77.95.71,2.73.69,4.47-1-.09-1.06.78-2.06.69.11-1.6-.69-2.29-.69-3.78C103.3,30.35,104.26,30.17,104.78,29.54Z"/><path class="cls-1" d="M65.62,29.89a20.87,20.87,0,0,0,2.4,1,32.62,32.62,0,0,1-1,3.78c-.65-.15-.86-.74-1.72-.69C65,32.25,65.75,31.52,65.62,29.89Z"/><path class="cls-1" d="M75.24,30.23c1.14,0,1.17,1.12,2.4,1-.14,1.35-1.51,1.47-1.72,2.75a7.45,7.45,0,0,1-2.06-.69C73.84,31.82,75,31.48,75.24,30.23Z"/><path class="cls-1" d="M96.88,33.32c-1.22.3-.85,0-2.06.35-.64-.51-.52-1.78-1.72-1.72C93.91,29.09,97,30.65,96.88,33.32Z"/><path class="cls-1" d="M47.75,30.58c1.69,1.29,2.62,3.33,4.47,4.46a34.3,34.3,0,0,0-.69,3.44,12.79,12.79,0,0,1-4.12-3.1C47.39,33.64,48,32.54,47.75,30.58Z"/><path class="cls-1" d="M54.28,30.58c3.23.66,5.29,2.49,5.5,6.18C56.27,36.37,55.54,33.21,54.28,30.58Z"/><path class="cls-1" d="M116.12,30.58c-.28,2-1.63,5.92-5.16,5.84a21.51,21.51,0,0,1,1-4.13C113.19,31.54,115.1,31.51,116.12,30.58Z"/><path class="cls-1" d="M122.64,30.58c1.8,4.21-.18,6.65-3.43,7.9a34.3,34.3,0,0,0-.69-3.44A18.82,18.82,0,0,0,122.64,30.58Z"/><path class="cls-1" d="M53.25,30.92c1.77,1.78,3.88,4.48,2.4,7.56a15.92,15.92,0,0,1-3.09-3.1C52.65,33.76,53.35,32.74,53.25,30.92Z"/><path class="cls-1" d="M116.8,30.92c.63-.45,1.47,3.62,1.38,4.12-.29,1.64-2.21,2.13-2.75,3.44C113,35.83,116.12,33.43,116.8,30.92Z"/><path class="cls-1" d="M42.26,32.29c1.7,1.05,3.1,2.39,4.81,3.44,0,1.42-.6,2.15-.35,3.78a37.92,37.92,0,0,0-4.46-2.06Z"/><path class="cls-1" d="M71.11,32.29c.71.33,1.36.7,2.06,1-.34,1.15-1.37,1.6-1.71,2.75a2.23,2.23,0,0,0-1.72-.34A12.07,12.07,0,0,1,71.11,32.29Z"/><path class="cls-1" d="M98.94,32.29c1.18.54,1.6,1.84,2.06,3.09-.21.48-1.32.06-1.37.69-1.23-.37-1.15-2.06-2.06-2.75C97.42,32.37,98.85,33,98.94,32.29Z"/><path class="cls-1" d="M128.14,32.29c.79,1,.12,3.55.34,5.16a15,15,0,0,0-4.12,2.06c-.55-.93-.44-2.54-.68-3.78A31.48,31.48,0,0,0,128.14,32.29Z"/><path class="cls-1" d="M87.26,34a2.56,2.56,0,0,1-4.12.34C84,32.38,86.11,32.48,87.26,34Z"/><path class="cls-1" d="M92.07,35c-1.29,1.26-2.6.3-3.78-.34C88.9,32.4,91.66,33,92.07,35Z"/><path class="cls-1" d="M62.52,33.32a13.05,13.05,0,0,0,2.41.69,7.06,7.06,0,0,1-.69,3.44C62.15,37.6,62.62,35.17,62.52,33.32Z"/><path class="cls-1" d="M82.11,34c-.11,1.16-1.53,1-1.72,2.06-1.09.06-1.15-.91-2.41-.69C78.58,33.92,80.57,32.57,82.11,34Z"/><path class="cls-1" d="M107.87,33.32c1,.93-.19,2.54,0,3.78-1-.28-.89.49-1.72.35.27-1.53-.45-2.07-.34-3.44C106.8,34.08,107.56,33.92,107.87,33.32Z"/><path class="cls-1" d="M75.92,34.35c.54.15.3,1.08,1.38.69-.17,1.32-1.89,1.09-2.06,2.41-.51-.18-.87-.51-1.38-.69A10.64,10.64,0,0,1,75.92,34.35Z"/><path class="cls-1" d="M94.47,34.35c1.45.16,1.59,1.63,2.75,2.07-.31.6-1.2.62-1.72,1,0,1.4,1.7,1,1.72,2.4-1.71.34-2-.7-3.09-1-.3-1.1.89-.71,1-1.37-.4-.74-.74-1.55-1.72-1.72C93.14,34.63,94.33,35,94.47,34.35Z"/><path class="cls-1" d="M67,35c1.05-.25,1.25.35,2.06.34-.71,1.13-.25,3.42-2.4,3.1C66.74,37.31,67.19,36.5,67,35Z"/><path class="cls-1" d="M103.41,35a4.52,4.52,0,0,0,.68,2.41c.11.79-1,.38-1,1-.86-.63-.85-2.13-1.72-2.75C101.69,35.16,102.8,35.36,103.41,35Z"/><path class="cls-1" d="M36.76,35.38c2,.57,3.39,1.65,5.15,2.41v3.78c-1.63-.2-2.63-1-4.46-1C37.33,38.71,36.88,37.21,36.76,35.38Z"/><path class="cls-1" d="M133.29,40.54c-1.83,0-2.83.83-4.46,1V37.79c1.45-.84,3.21-1.37,4.46-2.41C134.87,36.08,133,38.87,133.29,40.54Z"/><path class="cls-1" d="M87.6,37.1c-1.63,1-2.82.95-4.81.35C83.89,35.81,86.12,35.94,87.6,37.1Z"/><path class="cls-1" d="M89.32,36.07c1.62.1,2,1.41,3.44,1.72-1.39,1.6-2.66.42-4.13-.34C88.64,36.76,89.57,37,89.32,36.07Z"/><path class="cls-1" d="M71.46,36.42c1-.29.89.48,1.71.34-.76,1-1.5,3.38-3.09,2.4C70.52,38.23,71.07,37.4,71.46,36.42Z"/><path class="cls-1" d="M82.11,37.1c-1.35,1-2.63,2.22-4.47,1C78.78,36.78,80.24,36.1,82.11,37.1Z"/><path class="cls-1" d="M99.63,36.42c-.15,1.29,1.66,1.66.68,2.74a2.88,2.88,0,0,1-2.4-2.4A2.23,2.23,0,0,1,99.63,36.42Z"/><path class="cls-1" d="M110.28,37.1c-.71,1.36-.59,3.53-1.72,4.47C107.27,40.67,107.7,36.33,110.28,37.1Z"/><path class="cls-1" d="M76.61,37.79c-.78,1.3-1.72,2.62-3.44,2.06A3.43,3.43,0,0,1,76.61,37.79Z"/><path class="cls-1" d="M105.47,37.79c.66.5,1.12,3,.34,3.78-1.28-.32-1-2.22-1.37-3.44C104.92,38.16,105.41,38.19,105.47,37.79Z"/><path class="cls-1" d="M64.93,38.13h1c.18.7.12,3.66-1.37,3.78C64.7,40.65,64.29,38.87,64.93,38.13Z"/><path class="cls-1" d="M87.6,39.51c-1.13,1.61-3.37.76-5.15.34C83.76,38.51,85.88,38.9,87.6,39.51Z"/><path class="cls-1" d="M101.69,38.82c1.45.27,1.83,1.6,2.06,3.09C102.3,41.65,101.92,40.31,101.69,38.82Z"/><path class="cls-1" d="M32,39.16c1.8.38,3.35,1,5.15,1.38-.27,1.76.48,2.49.35,4.12-1.87.26-2.79-.42-4.47-.34C32.6,42.64,32.23,40.94,32,39.16Z"/><path class="cls-1" d="M51.53,39.16c1.07,1.1,3.89,1.54,2.75,3.78-1.26-.11-1.9-.84-3.09-1C51.11,40.81,51.8,40.46,51.53,39.16Z"/><path class="cls-1" d="M81.42,39.85c-1.3.78-2.69,1.65-4.47,1C78,39.67,79.79,38.61,81.42,39.85Z"/><path class="cls-1" d="M93.1,40.19c-1.08,1.38-2,.62-3.78.35C89.78,38.23,91.71,39.81,93.1,40.19Z"/><path class="cls-1" d="M118.87,39.16c.54.61.46,1.83.68,2.75-1.19.19-1.83.92-3.09,1C115.22,40.68,118.16,40.53,118.87,39.16Z"/><path class="cls-1" d="M137.76,44.32c-1.68-.08-2.6.6-4.47.34-.13-1.63.62-2.36.35-4.12a22.38,22.38,0,0,0,4.46-1.38C139.58,39.86,137.71,42.78,137.76,44.32Z"/><path class="cls-1" d="M55.65,39.51c1.11,1.18,2.83,1.75,3.1,3.78-1.24.71-2.21-1.34-3.44-1.72A3,3,0,0,1,55.65,39.51Z"/><path class="cls-1" d="M101.69,41.91c-1,1.63-2.1-1.53-3.44-1.72C99.34,38.45,100.55,41.52,101.69,41.91Z"/><path class="cls-1" d="M114.74,39.51c2.17,1.66-1.59,4.34-2.75,3.78C112.09,41.21,114.1,41,114.74,39.51Z"/><path class="cls-1" d="M72.14,39.85c-.59,1.13-1.81,1.62-2.4,2.75C69,41.48,70.71,39.92,72.14,39.85Z"/><path class="cls-1" d="M46.72,40.19c1.82.13,2.68,1.21,4.12,1.72,0,.81-.59,1-.34,2.06-1.35-.25-2.49-.71-3.78-1Z"/><path class="cls-1" d="M98.94,42.26c-1.31,1.55-2.9-1.07-4.47-1.38C96.44,39.22,97,42,98.94,42.26Z"/><path class="cls-1" d="M124,40.19v2.75c-1.29.32-2.43.78-3.78,1,.25-1-.35-1.25-.34-2.06C121.34,41.4,122.2,40.32,124,40.19Z"/><path class="cls-1" d="M75.58,40.54C74.9,41.68,72.91,43,71.8,42.6,73,41.84,73.28,40.18,75.58,40.54Z"/><path class="cls-1" d="M87.6,41.91c-1.19,1-3.12.58-4.81.35C84.14,40.66,85.92,41,87.6,41.91Z"/><path class="cls-1" d="M109.93,41.23c.76,1.11-1.22,2.42-1.37,3.77-.9-.81.56-2.16.34-3.43C109.39,41.6,109.88,41.63,109.93,41.23Z"/><path class="cls-1" d="M59.43,41.57c1.28.79,1.7,2.42,2.41,3.78C61,44.13,58.52,43.51,59.43,41.57Z"/><path class="cls-1" d="M63.21,41.57a1.61,1.61,0,0,0,1,.34,6.41,6.41,0,0,1-.34,2.75A6.72,6.72,0,0,1,63.21,41.57Z"/><path class="cls-1" d="M80.39,41.91c-1.35,1-3.27,1.91-5.15,1.38C76.5,42.38,78.44,41.07,80.39,41.91Z"/><path class="cls-1" d="M94.82,43.29c-2,.91-3.25-1.12-5.5-1C90.69,40.79,93.92,42.13,94.82,43.29Z"/><path class="cls-1" d="M111,41.57c.38.08.24.68.69.69-.23,1.6-2,1.67-2.4,3.09C108.74,44.37,110.48,42.7,111,41.57Z"/><path class="cls-1" d="M42.26,41.91c1.16.67,3,.71,4.12,1.38-.48.44-.34,1.49-.35,2.4-1.62.25-2.36-.39-3.77-.34Z"/><path class="cls-1" d="M106.84,41.91c1.15.61,0,1.5.35,3.09A2.67,2.67,0,0,1,106.84,41.91Z"/><path class="cls-1" d="M128.14,41.91c.78.48.13,2.39.34,3.44-1.41-.05-2.15.59-3.77.34-.2-.6.41-2-.35-2.06C124.88,42.32,127.32,42.92,128.14,41.91Z"/><path class="cls-1" d="M54.28,43.63c1.28.56,2.92.74,3.44,2.06-.92.58-2.51-.54-3.78-.69A1.92,1.92,0,0,0,54.28,43.63Z"/><path class="cls-1" d="M115.77,43.63c1.22-.53.21,1.17,1,1-.75.76-2.94,1.44-3.77,1C113.22,44.28,115.2,44.66,115.77,43.63Z"/><path class="cls-1" d="M27.48,44c1.56.39,3.6.3,5.16.69.49,1.23.59,2.84,1,4.12-1.87-.26-2.79.43-4.47.35C28.84,47.2,27.89,45.86,27.48,44Z"/><path class="cls-1" d="M79,44a42.28,42.28,0,0,1-7.21,1.72A15.2,15.2,0,0,1,79,44Z"/><path class="cls-1" d="M98.94,45.35c-2.08.43-6.45-.91-7.21-1-.07,0-.68,0-.69,0-.18-.7,5-.11,2.06-.35C93.79,44,97.59,45.17,98.94,45.35Z"/><path class="cls-1" d="M143.26,44c-.41,1.89-1.36,3.23-1.72,5.16-1.68.08-2.6-.61-4.47-.35.19-1.3.83-2.14.69-3.78C139,44.09,141.57,44.47,143.26,44Z"/><path class="cls-1" d="M50.5,44.32c.89.48,2.27.47,3.09,1a1.92,1.92,0,0,0-.34,1.37c-.57-.57-2-.27-3.09-.34A2.93,2.93,0,0,0,50.5,44.32Z"/><path class="cls-1" d="M58.4,44.32c1.15.34,1.6,1.37,2.75,1.71C60.57,46.48,58.26,45.74,58.4,44.32Z"/><path class="cls-1" d="M112,44.32c1.07,1.19-1.47,1.71-2.4,2.06C110.16,45.46,111.33,45.14,112,44.32Z"/><path class="cls-1" d="M119.9,44.32c.95-.16-.27,1.87.68,1.71-.15,1-2.59-.3-2.74.69-.5-.08-.12-1-.69-1C117.37,44.54,119.3,45.09,119.9,44.32Z"/><path class="cls-1" d="M37.79,45.35c1.72-.23,2.66.32,4.12.34v2.75c-1.57-.19-2.14.61-3.78.34A8.47,8.47,0,0,0,37.79,45.35Z"/><path class="cls-1" d="M133,45.35a8.65,8.65,0,0,0-.34,3.43c-1.64.27-2.21-.53-3.78-.34V45.69C130.29,45.67,131.23,45.12,133,45.35Z"/><path class="cls-1" d="M46.38,46c.65.61,2.27.25,3.43.35.25,1-.59,1-.34,2.06H46C45.76,47.25,46.55,47.12,46.38,46Z"/><path class="cls-1" d="M124,46a3.1,3.1,0,0,1,.69,2.41h-3.44c.25-1-.59-1-.34-2.06C121.86,46.17,123.65,46.81,124,46Z"/><path class="cls-1" d="M60.81,47.07c-.86,1-2.09-.42-3.44,0C58,45.49,59.27,47.48,60.81,47.07Z"/><path class="cls-1" d="M113.37,46.72a7.15,7.15,0,0,1-3.44.69C110.89,47,112.49,46.09,113.37,46.72Z"/><path class="cls-1" d="M56.68,48.1c-1-.22-3,.44-3.43-.35C53.29,46.46,57,46.84,56.68,48.1Z"/><path class="cls-1" d="M117.49,47.41c.22,1.11-3.66,1.11-3.43,0C114.8,47.22,116.87,46.59,117.49,47.41Z"/><path class="cls-1" d="M66,48.44c12.25-.8,26-.12,38.82-.34a173.37,173.37,0,0,1-19.24,3.77c1.32.87,3.38,1,5.5,1-1.33,1.5-4.07,2-5.5,2.4.95,1.23,3.07,1.28,4.47,2.06C89,58.83,86.64,59,85.54,60.46c-1.7-1.16-4.18-1.54-5.15-3.43,1.92.2,3.34-1.54,4.47-1-1.23-1.53-3.69-1.81-5.85-2.41,1.4-1.12,4.15-.89,6.19-1.37C79.11,50.64,72.43,49.65,66,48.44Z"/><path class="cls-1" d="M52.56,48.44c.24,1.85-1.75,1.46-3.09,1.72C49.1,48.19,50.87,48.35,52.56,48.44Z"/><path class="cls-1" d="M118.18,48.44h2.75c-.14.83.62.75.34,1.72C119.93,49.9,117.94,50.29,118.18,48.44Z"/><path class="cls-1" d="M42.26,48.78h3.43c.46,2.52-1.81,2.31-3.43,2.75Z"/><path class="cls-1" d="M125.05,48.78h3.43v2.75C126.86,51.09,124.59,51.3,125.05,48.78Z"/><path class="cls-1" d="M34,49.13h4.12v3.09c-1.37-.12-1.9.61-3.43.34C34.77,51.11,34.17,50.34,34,49.13Z"/><path class="cls-1" d="M132.61,49.13h4.12c-.16,1.21-.76,2-.69,3.43-1.53.27-2.06-.46-3.43-.34Z"/><path class="cls-1" d="M23.7,49.81c1.16-.79,3.78-.12,5.5-.34.24,1.59,1.13,2.53,1.38,4.12a22.89,22.89,0,0,0-4.47.69A17.4,17.4,0,0,0,23.7,49.81Z"/><path class="cls-1" d="M56,49.47c-.45,1.38-2.35,1.32-3.78,1.72C52.3,49.43,54.46,49.77,56,49.47Z"/><path class="cls-1" d="M114.74,49.47c1.54.3,3.71,0,3.78,1.72C117.09,50.79,115.19,50.85,114.74,49.47Z"/><path class="cls-1" d="M141.54,49.47H147c-.63,1.78-1.94,2.87-2.41,4.81a22.79,22.79,0,0,0-4.46-.69C140.41,52,141.3,51.06,141.54,49.47Z"/><path class="cls-1" d="M65.27,49.81c2.37.85,3.24,3.18,5.84,3.78.16,1.08-.73,1.1-1.71,1a17.37,17.37,0,0,0,3.77,4.81c-.19.84-1.29.77-2.06,1-.67-2.07-2.18-3.31-2.75-5.49.28.06.35.34.69.34C68.47,52.8,66.23,52,65.27,49.81Z"/><path class="cls-1" d="M63.21,50.16c.76,4.19.9,10.74-2.06,12.36C61,58.9,62.73,54.26,63.21,50.16Z"/><path class="cls-1" d="M64.24,50.16a16.67,16.67,0,0,1,2.06,5.49c.66.65.63-.2,1.72,0,.67,1.85,2.18,2.86,2.41,5.16-.46.34-1.28.32-1.38,1-1.23-1.41-1.49-3.78-2.4-5.5a1.72,1.72,0,0,0-1,1C64.66,55.46,64.67,52.59,64.24,50.16Z"/><path class="cls-1" d="M106.15,50.16c.67,1.93-.67,4.82-.68,7.21a1.7,1.7,0,0,1-1-1c-1.33,1.31-1.59,3.68-2.41,5.5-.61-.31-1-.83-1.72-1,.23-2.3,1.74-3.31,2.41-5.16.72-.14.91.24,1.37.35A60.84,60.84,0,0,0,106.15,50.16Z"/><path class="cls-1" d="M107.19,50.16c1.41,3.62,1.8,8.26,2.74,12.36C106.32,61.1,107.24,55.14,107.19,50.16Z"/><path class="cls-1" d="M41.91,51.87v2.75c-1.36-.1-1.72.8-3.09.69V52.22C40.2,52.45,40.78,51.89,41.91,51.87Z"/><path class="cls-1" d="M54.62,51.87c1,1.65-2.44,1.9-3.09,3.1C50.27,53,53.92,53,54.62,51.87Z"/><path class="cls-1" d="M115.77,51.87c1.18,1.12,3.89.7,3.78,3.1C118.35,53.88,116.05,53.89,115.77,51.87Z"/><path class="cls-1" d="M128.83,51.87c1.13,0,1.71.58,3.09.35v3.09c-1.37.11-1.73-.79-3.09-.69Z"/><path class="cls-1" d="M34.7,53.25c0,1.37.68,2.06.68,3.43-1.44-.18-1.91.6-3.09.69a10.9,10.9,0,0,0-1.37-3.43A9.67,9.67,0,0,1,34.7,53.25Z"/><path class="cls-1" d="M136,53.25c1.57-.19,2.14.61,3.78.34a25.17,25.17,0,0,0-1.37,3.78c-1.18-.09-1.65-.87-3.09-.69C135.36,55.31,136,54.62,136,53.25Z"/><path class="cls-1" d="M45,56a8.92,8.92,0,0,1-2.74,1V54.62C43.73,54.28,45.63,53.13,45,56Z"/><path class="cls-1" d="M125.74,53.94c1,.18,1.78.5,2.74.68V57a9,9,0,0,1-2.74-1Z"/><path class="cls-1" d="M98.6,54.28c-1,1.81-3,2.76-4.47,4.12A21.86,21.86,0,0,0,91,57.72C93.35,56.36,94.84,54.19,98.6,54.28Z"/><path class="cls-1" d="M28.17,58.75c-1.53.29-2.62,1-4.47,1A20.87,20.87,0,0,0,21,56c1.28-.9,3.36-1,5.15-1.38C26.63,56.16,27.76,57.09,28.17,58.75Z"/><path class="cls-1" d="M144.63,54.62c1.88.19,3.33.8,5.15,1a19,19,0,0,1-3.09,4.13,27.26,27.26,0,0,1-4.12-1C143,57.09,144.11,56.16,144.63,54.62Z"/><path class="cls-1" d="M47.75,55c1,1.71-1.32,3-2.75,3.43-.27-1.19.52-1.32.35-2.4C46.23,55.73,47.3,55.65,47.75,55Z"/><path class="cls-1" d="M122.64,55a9.35,9.35,0,0,0,2.75,1c-.17,1.08.62,1.21.35,2.4C124.19,57.78,122.56,57.23,122.64,55Z"/><path class="cls-1" d="M38.48,55.65c.78.37.13,2.16.34,3.1-.53.49-1.6.45-2.06,1-.89-.38-.3-2.22-1-2.75C36.18,56.11,37.89,56.45,38.48,55.65Z"/><path class="cls-1" d="M131.92,55.65a18.07,18.07,0,0,0,3.09,1,13,13,0,0,0-.68,3.1,21,21,0,0,1-2.41-1Z"/><path class="cls-1" d="M112.68,57a1,1,0,0,1,.69,1A1,1,0,0,1,112.68,57Z"/><path class="cls-1" d="M32,57.72c.84.76,1,2.24,1.37,3.43a7.06,7.06,0,0,1-3.09,1c-.17-1.43-1.2-2-1.37-3.43C29.86,58.37,31.28,58.42,32,57.72Z"/><path class="cls-1" d="M41.57,57.72c.77.25.13,1.92.34,2.74-.86.29-1.35.94-2.4,1V58.75C40.06,58.27,41.28,58.46,41.57,57.72Z"/><path class="cls-1" d="M128.83,57.72a20.87,20.87,0,0,0,2.4,1v2.74c-1-.09-1.54-.74-2.4-1Z"/><path class="cls-1" d="M138.45,57.72a17.88,17.88,0,0,0,3.43,1c-.17,1.43-1.2,2-1.37,3.43a7.06,7.06,0,0,1-3.09-1C137.63,59.87,138.24,59,138.45,57.72Z"/><path class="cls-1" d="M64.93,58.06c1.22,2.72,2,6.89-.69,8.24C63.56,64,63.61,59.49,64.93,58.06Z"/><path class="cls-1" d="M105.47,58.06c2.09,1.11,1.18,5.23,1.37,8.24a9.28,9.28,0,0,1-2.4-2.4C104.88,62.06,105.11,60,105.47,58.06Z"/><path class="cls-1" d="M81.08,62.18C80.6,63.65,79,64,77.64,64.59a46.4,46.4,0,0,0-4.12-4.81C76.09,57.33,78.32,60.47,81.08,62.18Z"/><path class="cls-1" d="M96.88,59.78a53.69,53.69,0,0,1-3.78,4.81c-1.52-.09-2.06-1.15-3.44-1.38.75-2.23,3.23-2.73,4.47-4.46A9,9,0,0,1,96.88,59.78Z"/><path class="cls-1" d="M44.32,59.09c.85,1.44-.63,3.48-1.72,4.12-.78-.25-.14-1.93-.34-2.75A6.57,6.57,0,0,0,44.32,59.09Z"/><path class="cls-1" d="M126.08,59.09c.94.32,1.47,1,2.4,1.37v2.75C126.88,62.64,126.14,61.21,126.08,59.09Z"/><path class="cls-1" d="M36.07,60.12a7,7,0,0,1,.69,3.44c-1-.09-1.06.77-2.06.68a4.1,4.1,0,0,0-1-2.75C34,60.6,35.7,61,36.07,60.12Z"/><path class="cls-1" d="M134.33,60.12a8.92,8.92,0,0,0,2.74,1,7.24,7.24,0,0,0-1,3.09c-1,.09-1-.77-2.06-.68C133.74,62.05,134.57,61.62,134.33,60.12Z"/><path class="cls-1" d="M26.45,63.9c-3,3.28-5.28.58-7.56-1.72,1-1.07,3.29-.83,4.47-1.72C25,61,25.26,62.92,26.45,63.9Z"/><path class="cls-1" d="M46.38,60.46c1.47.8-.67,3.59-1.72,4.13C43.8,63.14,45.29,61.1,46.38,60.46Z"/><path class="cls-1" d="M123.68,60.81c1.49-.69,2.83,1.73,2.74,3.78C124.83,64,124.08,62.57,123.68,60.81Z"/><path class="cls-1" d="M146.69,60.46c1.8.38,3.35,1,5.16,1.38a24.13,24.13,0,0,1-3.78,3.78c-1.75,0-2.22-1.22-3.78-1.38C144.86,62.75,146.08,61.91,146.69,60.46Z"/><path class="cls-1" d="M89,62.87C88,64,86.47,64.72,85.54,66c-1.59-.69-2.44-2.14-4.12-2.75C83.72,60.73,86.44,60.6,89,62.87Z"/><path class="cls-1" d="M48.44,61.49c.73,1.32-.9,3.22-1.72,4.13C45.8,64.11,47.29,62.07,48.44,61.49Z"/><path class="cls-1" d="M122,61.49c1.66.51,2.41,1.95,2.4,4.13C122.92,64.88,122.24,63.39,122,61.49Z"/><path class="cls-1" d="M39.16,62.18c1.11,1.65.69,3.92-1.37,4.12.27-1.41-.53-1.76-.34-3.09C38,62.81,38.85,62.78,39.16,62.18Z"/><path class="cls-1" d="M68.71,62.18a27,27,0,0,1,2.4,6.18A14.76,14.76,0,0,0,68,70.43C67,67.89,65.68,63.21,68.71,62.18Z"/><path class="cls-1" d="M101.69,62.18c.85.64,1.94,1,2.4,2.06-.33,2.08-.7,4.11-1,6.19-1.29-.54-2.14-1.53-3.43-2.07C100.11,66.1,101.2,64.44,101.69,62.18Z"/><path class="cls-1" d="M131.23,62.18c.71.33,1.36.7,2.06,1,.19,1.33-.61,1.68-.34,3.09-1.06-.08-1.33-1-2.06-1.37C130.81,63.82,131.5,63.48,131.23,62.18Z"/><path class="cls-1" d="M32,66.3c-1.05,0-1.34.73-2.06,1-1.59-.24-1.65-2-2.75-2.74C29,62.29,32,62.78,32,66.3Z"/><path class="cls-1" d="M140.17,62.87a20.62,20.62,0,0,1,3.43,1.37,8.77,8.77,0,0,1-2.4,3.09c-1.15,0-1.18-1.11-2.41-1C138.81,64.72,139.77,64.07,140.17,62.87Z"/><path class="cls-1" d="M41.57,63.9c.86,1.33.37,4.26-1.38,4.12V64.93C41.05,65,41.27,64.4,41.57,63.9Z"/><path class="cls-1" d="M128.83,63.9c.81.1.64,1.19,1.72,1V68C128.7,67.92,128.71,66,128.83,63.9Z"/><path class="cls-1" d="M34.35,64.93c1.4.1.62,2.36,1.72,2.75-.73.42-1,1.29-2.06,1.37-.21-1.28-1.29-1.68-1.37-3.09C33.15,65.56,34,65.53,34.35,64.93Z"/><path class="cls-1" d="M135.7,64.93c1.06.09,1.54.74,2.4,1-.08,1.41-1.16,1.81-1.37,3.09-1.22.19-.84-1.21-2.06-1A7.19,7.19,0,0,0,135.7,64.93Z"/><path class="cls-1" d="M77.3,65.27c2,.49,2.25,2.79,3.78,3.78-.41,1.54-2.28,1.62-2.75,3.09-1.48-1.38-2.1-3.62-3.44-5.15C75.46,66.18,76.66,66,77.3,65.27Z"/><path class="cls-1" d="M92.76,71.8c-1.59-.36-2-1.91-3.44-2.4,1-1.42,2.27-2.54,3.09-4.13,1.51-.13,1.77,1,3.09,1C95.26,68.81,93.83,70.12,92.76,71.8Z"/><path class="cls-1" d="M43.63,65.62c.69,1.16-.14,3.74-1,4.46-.78-.47-.13-2.39-.34-3.43C43.12,66.71,43.33,66.12,43.63,65.62Z"/><path class="cls-1" d="M126.77,65.62c.81.1.64,1.19,1.71,1v3.43C126.91,69.59,127,67.42,126.77,65.62Z"/><path class="cls-1" d="M26.11,69.4a14.6,14.6,0,0,1-3.78,2.06c-1.22-1.3-3.24-1.8-4.12-3.44,1.34-.49,2.84-.82,3.78-1.72C24.19,66.5,24.46,68.64,26.11,69.4Z"/><path class="cls-1" d="M85.2,66.3c1.3.76,2.16,2,3.78,2.41-.54,2.33-2.56,3.17-3.44,5.15-1.46-1.17-2.28-3-3.78-4.12C82.38,68.06,84.14,67.54,85.2,66.3Z"/><path class="cls-1" d="M152.53,68c-.88,1.64-2.9,2.14-4.12,3.44-1.62-.22-2.11-1.56-3.78-1.72.83-1.35,2.27-2.09,3.09-3.44C149.69,66.52,150.7,67.68,152.53,68Z"/><path class="cls-1" d="M37.45,67c.78.87,1.75,3.82-.35,3.78.11-1.37-.79-1.73-.68-3.09A1,1,0,0,0,37.45,67Z"/><path class="cls-1" d="M77.3,72.14a33.33,33.33,0,0,1-4.13,1.38c-.4-1.89-1.35-3.23-1.71-5.16C74.5,65.14,76.19,69.55,77.3,72.14Z"/><path class="cls-1" d="M96.19,67c1.6-.11,1.91,1.07,3.09,1.37-.36,1.93-1.31,3.27-1.71,5.16a33.33,33.33,0,0,1-4.13-1.38C94,70.1,95.46,68.89,96.19,67Z"/><path class="cls-1" d="M133,67c.68,0,.44.94,1.38.69.1,1.36-.8,1.72-.69,3.09C131.47,70.67,132.76,68.44,133,67Z"/><path class="cls-1" d="M28.86,68c1.7.13,1.47,2.19,2.75,2.75a3.82,3.82,0,0,1-2.41,1.72,12.37,12.37,0,0,0-2.75-2.75C27.09,69,28.29,68.83,28.86,68Z"/><path class="cls-1" d="M141.2,68c1.44,0,1.64,1.33,3.09,1.38-.71,1.23-2,1.85-2.75,3.09-1.13-.13-1.52-1-2.41-1.38C139.81,70.07,140.52,69.06,141.2,68Z"/><path class="cls-1" d="M39.51,69.05c1.13.49,1.25,3.21.34,3.78C39,72,38.39,69.84,39.51,69.05Z"/><path class="cls-1" d="M130.55,69.05c.93-.25.69.68,1.37.69a21.85,21.85,0,0,1-.69,3.09C129.5,72.31,130.78,70.84,130.55,69.05Z"/><path class="cls-1" d="M33.67,69.74c1.24.14,1,1.7,1.71,2.4.17,1.08-.92.91-1,1.72-1-.49-1.32-1.65-2.06-2.4C32,70.17,33.61,70.71,33.67,69.74Z"/><path class="cls-1" d="M136.39,69.74a3.19,3.19,0,0,1,2.06,1.37c-.24,1.26-1.3,1.68-1.72,2.75-.7-.1-.67-.93-1.37-1C135.23,71.33,136.34,71.06,136.39,69.74Z"/><path class="cls-1" d="M67.33,70.77c.75,1.2.77,3.13,1,4.81-1.68.38-2.83,1.29-4.46,1.72V72.83A18.57,18.57,0,0,0,67.33,70.77Z"/><path class="cls-1" d="M103.06,70.77c1.39.56,2.4,1.5,3.78,2.06V77.3c-1.63-.43-2.78-1.34-4.46-1.72C102.42,73.79,103,72.56,103.06,70.77Z"/><path class="cls-1" d="M41.57,71.11c.64.78.47,3.66,0,4.47C40.83,74.65,40.45,71.91,41.57,71.11Z"/><path class="cls-1" d="M128.83,71.11c1.75.46.76,2.94.69,4.47C128.2,75.18,129.09,72.57,128.83,71.11Z"/><path class="cls-1" d="M17.18,74.21c-1.63,1.92-4.38,2.72-6.53,4.12Q5.57,77.22.34,76.27c2.94-2,7-2.85,10-4.81C12.73,72.24,14.7,73.48,17.18,74.21Z"/><path class="cls-1" d="M36.76,71.46c1,.69,2.07,3,1,3.78a6.15,6.15,0,0,1-1.72-2.41C35.82,71.89,36.75,72.14,36.76,71.46Z"/><path class="cls-1" d="M133.29,71.46c.86-.06,1.08.52,1.38,1-.08,1.3-1.08,1.67-1.38,2.75C131.32,74.55,133.47,73.24,133.29,71.46Z"/><path class="cls-1" d="M170.4,75.92a18.64,18.64,0,0,1-4.81,1.38c-4,.78-5.76,1.13-8.93-.69a9.42,9.42,0,0,1-3.1-2.4,29.33,29.33,0,0,0,6.19-2.75C163.44,72.8,166.68,74.6,170.4,75.92Z"/><path class="cls-1" d="M26.45,74.55c-1.88,3.34-5.47,1.18-8.24,0,1.21-1.08,3-1.6,4.12-2.75A27.61,27.61,0,0,1,26.45,74.55Z"/><path class="cls-1" d="M152.53,74.21c-2.32,1.68-6,3.44-8.24.68.79-1.5,2.67-1.9,3.78-3.09C149.68,72.48,150.71,73.74,152.53,74.21Z"/><path class="cls-1" d="M29.2,72.83c1,.93,2.31,1.59,2.75,3.09-1.81,2-2.77-.49-4.81-1C27.43,73.81,28.91,73.92,29.2,72.83Z"/><path class="cls-1" d="M141.2,72.83c.82.56,1.51,1.23,2.4,1.72-1.61,1-3.09,3.25-4.81,1.37C139.06,74.36,140.65,74.11,141.2,72.83Z"/><path class="cls-1" d="M38.82,73.86c1.25.47.93,2.5,1.37,3.78C39.21,76.91,39,75.44,38.82,73.86Z"/><path class="cls-1" d="M75.24,79.36c-2,.27-3.87.71-5.84,1-.05-1.79-.65-3-.69-4.81a14.69,14.69,0,0,0,3.78-1.72C74.22,74.88,74.31,77.53,75.24,79.36Z"/><path class="cls-1" d="M97.57,73.86c1.68.38,2.83,1.29,4.46,1.72,0,1.79-.64,3-.69,4.81-2-.32-3.82-.76-5.84-1C96.06,77.39,97,75.83,97.57,73.86Z"/><path class="cls-1" d="M131.23,73.86c1.68.51-.25,2.8-.34,3.78C130,76.71,131.57,75.36,131.23,73.86Z"/><path class="cls-1" d="M33.67,74.21c.81.8,2.61,2,1.71,3.43-1.35-.14-1.46-1.51-2.74-1.72C32.47,74.84,33.56,75,33.67,74.21Z"/><path class="cls-1" d="M85.54,84.85a38.18,38.18,0,0,1-3.78-6.52c.42-.14,2.65-4.11,3.44-4.12C87,74.17,87,77.48,89,78.33,88.15,80.82,86.47,82.46,85.54,84.85Z"/><path class="cls-1" d="M136.73,74.21c.59.44,1.35.71,1.37,1.71-1.28.21-1.39,1.58-2.74,1.72C134.32,76.18,136.4,75.39,136.73,74.21Z"/><path class="cls-1" d="M42.6,74.55c.33,0,.27.42.34.69-.21.94-.48,6.1-.68,3.09A8.36,8.36,0,0,1,42.6,74.55Z"/><path class="cls-1" d="M127.8,74.55c.3.15.61.3.68.69V79c-.28,1.86-.44-1-.34-1.71A6.43,6.43,0,0,1,127.8,74.55Z"/><path class="cls-1" d="M37.1,75.92c.85.77,2.15,2.48,1.38,3.78C37.79,78.59,35.56,77.22,37.1,75.92Z"/><path class="cls-1" d="M133.29,75.92c.46.12.54.61,1,.69-.14,1.47-1.53,1.69-1.72,3.09C131,78.84,133.05,77,133.29,75.92Z"/><path class="cls-1" d="M40.54,77c1.07.08.58,1.71.69,2.75A4.65,4.65,0,0,1,40.54,77Z"/><path class="cls-1" d="M129.86,77c1,.64-.4,1.64,0,2.75C129.15,79.41,129.5,77.31,129.86,77Z"/><path class="cls-1" d="M27.83,79a9.52,9.52,0,0,1-2.41,2.41c-2.06-.23-3.68-.9-5.84-1C21.48,77.61,24.85,76.63,27.83,79Z"/><path class="cls-1" d="M33.32,79c-.36,2.61-3.26.55-4.46,0C29.94,76.4,31.6,78,33.32,79Z"/><path class="cls-1" d="M141.88,78.67c-.74,1-4.17,2.89-4.46.34C139.19,78.09,140.43,76.49,141.88,78.67Z"/><path class="cls-1" d="M151.16,80.05c-2.78,1.16-6.81,2.1-8.25-.69C145.43,76.42,149,77.71,151.16,80.05Z"/><path class="cls-1" d="M34.7,78.33a4.4,4.4,0,0,1,2.75,2.75c-1.09.57-2.26-1.29-3.44-1.72C34.13,78.91,34.62,78.82,34.7,78.33Z"/><path class="cls-1" d="M136.73,79c-.78.94-2.41,2.48-3.44,2.07C133.85,79.76,135.4,77.49,136.73,79Z"/><path class="cls-1" d="M18.21,80.39c-1.68,1.64-3.75,2.89-5.5,4.46H0c3.52-2.08,7.28-3.94,10.65-6.18C13,79.46,15.91,79.6,18.21,80.39Z"/><path class="cls-1" d="M80.73,78.67c2.12,1.2,2.31,4.33,4.13,5.84-1.84.8-5.15.12-7.56.34a48.94,48.94,0,0,1-1.72-5.49C77.31,79.14,79.08,79,80.73,78.67Z"/><path class="cls-1" d="M89.32,78.67c2.08.09,3.83.52,5.84.69a48.94,48.94,0,0,1-1.72,5.49H85.89A57.4,57.4,0,0,0,89.32,78.67Z"/><path class="cls-1" d="M170.74,84.51c-3.55.8-8.59.12-12.71.34a45,45,0,0,0-5.5-4.12c1.61-1.48,5.23-1,7.22-2.06C163.57,80.46,166.6,83,170.74,84.51Z"/><path class="cls-1" d="M68.71,80.73c1.45.39.7,3,1.37,4.12H63.9V81.42A46.77,46.77,0,0,0,68.71,80.73Z"/><path class="cls-1" d="M101.34,80.73c1.88.19,3.62.51,5.5.69v3.43h-6.18A26.63,26.63,0,0,0,101.34,80.73Z"/><path class="cls-1" d="M36.07,82.45c-.68,2-2.79,0-4.81.34C31.79,79.87,34.24,82,36.07,82.45Z"/><path class="cls-1" d="M139.48,82.79c-2-.27-3.73,1.37-4.81,0C136,81.84,139.07,79.93,139.48,82.79Z"/><path class="cls-1" d="M30.23,82.79c-.73,2.6-4.56,2.08-7.9,2.06.47-1.47,2.49-1.4,2.75-3.09C26.86,82,28.55,82.41,30.23,82.79Z"/><path class="cls-1" d="M148.41,84.51c-2.53.81-7,.62-7.9-1.37,1.25-.53,3-1.53,4.12-1.38C146.31,82,147,83.92,148.41,84.51Z"/><path class="cls-1" d="M35,83.82c1.52.09,2.5.71,4.12.69-.81.79-3.08.12-4.46.34-.07-.29.13-.32.34-.34Z"/><path class="cls-1" d="M136,84.51c-.81.79-3.08.12-4.46.34C132.69,84.43,135.33,83.22,136,84.51Z"/><path class="cls-1" d="M0,85.54c4,0,8.41-1.14,12-.34,2.93.65,4,3.53,6.19,4.12-1.61,1.49-5.23,1-7.22,2.06C7.17,89.59,4.14,87,0,85.54Z"/><path class="cls-1" d="M22.33,85.54c2.53-.8,7-.61,7.9,1.38-.84,1.11-3.26.63-4.46,1.37C24.47,87.52,23.59,86.35,22.33,85.54Z"/><path class="cls-1" d="M34.7,85.54c.81-.79,3.08-.12,4.46-.34C38.05,85.62,35.41,86.84,34.7,85.54Z"/><path class="cls-1" d="M63.9,85.2h6.18a26.83,26.83,0,0,0-.68,4.12c-1.88-.18-3.62-.5-5.5-.69Z"/><path class="cls-1" d="M84.86,85.2a56.7,56.7,0,0,0-3.44,6.18c-2.08-.09-3.83-.52-5.84-.68a49.11,49.11,0,0,1,1.72-5.5Z"/><path class="cls-1" d="M89,91.73c-1.94.71-2,4-3.44,4.12s-2-3-3.78-3.78c.69-2.75,2.54-4.33,3.44-6.87A30.72,30.72,0,0,1,89,91.73Z"/><path class="cls-1" d="M85.89,85.54c1.83-.8,5.15-.12,7.55-.34a49.11,49.11,0,0,1,1.72,5.5c-2,.16-3.76.59-5.84.68A27.34,27.34,0,0,0,85.89,85.54Z"/><path class="cls-1" d="M100.66,85.2h6.18v3.43c-1.88.19-3.62.51-5.5.69A26.83,26.83,0,0,0,100.66,85.2Z"/><path class="cls-1" d="M131.58,85.54c.81-.79,3.08-.12,4.46-.34C135.6,87.27,133.31,85.26,131.58,85.54Z"/><path class="cls-1" d="M148.41,85.2c-.68,1.38-2.34,1.78-3.09,3.09-1.53-.42-3.28-.61-4.81-1C141.24,84.67,145.07,85.18,148.41,85.2Z"/><path class="cls-1" d="M170.74,85.2c-3.52,2.08-7.28,3.94-10.65,6.18-2.3-.79-5.26-.92-7.56-1.72,1.68-1.64,3.75-2.89,5.5-4.46Z"/><path class="cls-1" d="M36.07,87.26c-.93.9-2.44,1.22-3.78,1.72-.1-.81-1.19-.64-1-1.72C33.27,87.53,35,85.89,36.07,87.26Z"/><path class="cls-1" d="M139.48,87.26c.16,1.08-.93.91-1,1.72-1.42-.3-2.36-1.08-3.78-1.38C135.35,85.61,137.46,87.59,139.48,87.26Z"/><path class="cls-1" d="M27.83,90.7c-.72,1.22-2.72,1.17-3.78,2.06-2-.44-2.87-1.94-4.47-2.75C22.36,88.85,26.39,87.9,27.83,90.7Z"/><path class="cls-1" d="M36.76,88.63c1.57.93-.95,2.68-2.06,3.1-.15-.31-.3-.62-.69-.69C34.49,89.8,36.18,89.77,36.76,88.63Z"/><path class="cls-1" d="M136.73,90.7c-.93,2.19-3-.39-3.44-1.72C134.38,88.41,135.55,90.26,136.73,90.7Z"/><path class="cls-1" d="M151.16,89.66a13.43,13.43,0,0,1-4.12,3.1A41.53,41.53,0,0,1,142.91,91C144.14,87.7,147.75,89.11,151.16,89.66Z"/><path class="cls-1" d="M33.32,91c-1.4.2-1.62,1.58-3.09,1.72a3.1,3.1,0,0,0-1.37-1.38C29.6,90.33,33,88.5,33.32,91Z"/><path class="cls-1" d="M69.4,89.66c2,.32,3.82.76,5.84,1-.56,2-1.51,3.53-2.07,5.49-1.68-.38-2.83-1.29-4.46-1.72C68.75,92.69,69.35,91.45,69.4,89.66Z"/><path class="cls-1" d="M101.34,89.66c0,1.79.65,3,.69,4.81-1.63.43-2.78,1.34-4.46,1.72-.56-2-1.51-3.53-2.07-5.49C97.52,90.42,99.37,90,101.34,89.66Z"/><path class="cls-1" d="M141.88,91c-.57.69-.92,1.6-2.06,1.72a4.94,4.94,0,0,0-2.4-1.72C137.78,88.44,140.68,90.49,141.88,91Z"/><path class="cls-1" d="M38.13,90.35c1.67.86-.44,2.67-.68,3.78C35.17,93.17,37.89,91.8,38.13,90.35Z"/><path class="cls-1" d="M40.88,90.35c.71.3.36,2.39,0,2.75C39.83,92.46,41.28,91.47,40.88,90.35Z"/><path class="cls-1" d="M42.26,90.7c.48,0,.52,3.35.68,4.8C41.59,95,42.54,92.25,42.26,90.7Z"/><path class="cls-1" d="M128.14,90.7c.55-.43.55,4.08,0,4.8C127.14,94.26,128.62,92.56,128.14,90.7Z"/><path class="cls-1" d="M129.52,90.35a4.67,4.67,0,0,1,.68,2.75C129.13,93,129.62,91.39,129.52,90.35Z"/><path class="cls-1" d="M132.26,90.35c.69,1.12,2.92,2.48,1.38,3.78C132.79,93.36,131.49,91.65,132.26,90.35Z"/><path class="cls-1" d="M17.18,95.85A28.35,28.35,0,0,0,11,98.6C7.3,97.25,4.06,95.45.34,94.13c3.06-1.3,7.12-1.58,10.65-2.4C12.78,93.38,15.71,93.88,17.18,95.85Z"/><path class="cls-1" d="M170.4,93.79a93.07,93.07,0,0,1-10.65,4.81,28.35,28.35,0,0,0-6.19-2.75c1.47-2,4.4-2.47,6.19-4.12C163.37,92.34,166.77,93.17,170.4,93.79Z"/><path class="cls-1" d="M35.73,92.76c0,1.62-1.32,1.88-1.72,3.09-.59-.44-1.35-.71-1.37-1.72C34,94.05,34.39,91.76,35.73,92.76Z"/><path class="cls-1" d="M39.85,92.41c.48.73,0,3.41-1,3.78C38.79,94.55,39.46,93.63,39.85,92.41Z"/><path class="cls-1" d="M130.55,92.41c1,.73,1.23,2.2,1.37,3.78C130.67,95.72,131,93.69,130.55,92.41Z"/><path class="cls-1" d="M135.36,92.41c1.35.14,1.46,1.51,2.74,1.72.17,1.08-.92.91-1,1.72C136.26,95.05,134.46,93.83,135.36,92.41Z"/><path class="cls-1" d="M63.9,92.76c1.63.42,2.78,1.34,4.46,1.71,0,1.79-.64,3-.68,4.81-1.39-.56-2.4-1.49-3.78-2.06Z"/><path class="cls-1" d="M106.84,97.22a18.57,18.57,0,0,0-3.43,2.06c-.75-1.19-.77-3.12-1-4.81,1.34-.49,2.84-.82,3.77-1.71C107.64,93,106.47,95.88,106.84,97.22Z"/><path class="cls-1" d="M30.23,93.1c.61.31,1,.83,1.72,1-1.07,2.52-2.93,3.73-4.81,1.37C28,94.51,29.52,94.22,30.23,93.1Z"/><path class="cls-1" d="M140.17,93.1c1.2.62,2,1.67,3.43,2.06-1.5,2.83-3.82,1.58-4.81-1C139.25,93.79,140.07,93.81,140.17,93.1Z"/><path class="cls-1" d="M26.45,95.16c-.79,1.5-2.67,1.91-3.78,3.09-1.6-.68-2.64-1.94-4.46-2.4C20.54,94.16,24.22,92.4,26.45,95.16Z"/><path class="cls-1" d="M152.53,95.5c-1.21,1.08-3,1.6-4.12,2.75a26.86,26.86,0,0,1-4.12-2.75C146.17,92.16,149.77,94.33,152.53,95.5Z"/><path class="cls-1" d="M41.23,94.47c1.32.4.42,3,.68,4.47C40.16,98.49,41.15,96,41.23,94.47Z"/><path class="cls-1" d="M129.17,94.47c.74.94,1.12,3.67,0,4.47C128.53,98.16,128.7,95.28,129.17,94.47Z"/><path class="cls-1" d="M37.45,94.82c.45.12.54.6,1,.68a7,7,0,0,0-1,3.1c-.94.25-.7-.69-1.38-.69C36,96.31,37.14,96,37.45,94.82Z"/><path class="cls-1" d="M133,94.82a4.14,4.14,0,0,1,1.72,3.09c-.68,0-.44.94-1.38.69C133.45,96.82,131.59,95.85,133,94.82Z"/><path class="cls-1" d="M34,96.19a3.05,3.05,0,0,1,1.37,1.38c0,1.21-1,1.53-1,2.74a3.21,3.21,0,0,1-2.06-1.37C32.53,97.69,33.6,97.27,34,96.19Z"/><path class="cls-1" d="M85.2,96.19c1.39,1.59,3.06,2.9,3.78,5.16a7.66,7.66,0,0,0-3.44,2.4,14.75,14.75,0,0,1-3.78-3.09C82.73,99,84.3,97.93,85.2,96.19Z"/><path class="cls-1" d="M136.39,96.19c1,.5,1.32,1.65,2.06,2.41-.11,1.15-1.15,1.37-2.06,1.71C135.84,98.75,134.73,97.3,136.39,96.19Z"/><path class="cls-1" d="M73.17,96.54a33.31,33.31,0,0,1,4.13,1.37c-.59,2-2,3.25-2.75,5.15-1.6.11-1.91-1.06-3.09-1.37C71.82,99.76,72.77,98.42,73.17,96.54Z"/><path class="cls-1" d="M93.44,97.91a33.31,33.31,0,0,1,4.13-1.37c.4,1.88,1.35,3.22,1.71,5.15-1.18.31-1.49,1.48-3.09,1.37C95.46,101.16,94,100,93.44,97.91Z"/><path class="cls-1" d="M39.51,97.22c1.73.52.45,2,.68,3.78-.93.25-.69-.68-1.37-.69A21.85,21.85,0,0,1,39.51,97.22Z"/><path class="cls-1" d="M130.89,97.22c.84.83,1.8,3.78-.34,3.78C130.78,99.23,129.66,98.12,130.89,97.22Z"/><path class="cls-1" d="M29.2,97.57c1.13.13,1.52,1,2.41,1.37-.68,1-1.39,2-2.07,3.09-1.44,0-1.64-1.33-3.09-1.37C27.16,99.42,28.49,98.8,29.2,97.57Z"/><path class="cls-1" d="M140.85,97.57c1.68.38,2,2.08,3.44,2.74A8.45,8.45,0,0,1,141.2,102c-.75-.86-1.09-2.12-2.07-2.75C139.29,98.29,140.61,98.47,140.85,97.57Z"/><path class="cls-1" d="M78,97.91c1,1.12,2.5,1.63,3.1,3.09-1.23,1.07-2,2.59-3.1,3.78-1.4-.08-1.81-1.17-3.09-1.37C75.78,101.43,77.09,99.88,78,97.91Z"/><path class="cls-1" d="M95.5,103.75c-1.32,0-1.58,1.16-3.09,1A13.24,13.24,0,0,0,89.32,101c1.2-1,1.87-2.48,3.78-2.75C93.62,100.37,95.45,101.17,95.5,103.75Z"/><path class="cls-1" d="M26.11,100.31a19.31,19.31,0,0,1-3.44,3.44c-1.63-.43-2.78-1.34-4.46-1.72C20.2,99.32,23.08,97.8,26.11,100.31Z"/><path class="cls-1" d="M152.53,102a23.13,23.13,0,0,0-4.12,1.72c-1.8-.49-2.26-2.32-3.78-3.09C147.21,97.6,150.64,99.3,152.53,102Z"/><path class="cls-1" d="M37.1,99.28c.94-.25.69.69,1.38.69-.29,1-.4,2.12-.69,3.09-.68,0-.44-.93-1.37-.68C36.31,101,37.21,100.65,37.1,99.28Z"/><path class="cls-1" d="M133,99.28c1.17.32,1.07,1.92,1.38,3.1a1,1,0,0,0-1,.68C132.49,102.24,131.93,100,133,99.28Z"/><path class="cls-1" d="M67.68,99.63c1.3.53,2.14,1.52,3.43,2.06-.48,2.26-1.57,3.92-2.06,6.18-.85-.63-1.94-1-2.4-2.06C67,103.74,67.35,101.7,67.68,99.63Z"/><path class="cls-1" d="M102.72,99.63c1,2.53,2.34,7.21-.69,8.24a27,27,0,0,1-2.4-6.18A14.73,14.73,0,0,0,102.72,99.63Z"/><path class="cls-1" d="M42.26,100c1.57.49,1.46,2.66,1.71,4.47-.81-.11-.64-1.2-1.71-1Z"/><path class="cls-1" d="M128.14,100c.78.48.13,2.39.34,3.44-.85-.06-1.07.52-1.37,1C126.42,103.28,127.25,100.69,128.14,100Z"/><path class="cls-1" d="M34,101c1.22-.18.85,1.22,2.06,1a7.24,7.24,0,0,0-1,3.09c-1-.09-1.54-.74-2.4-1C32.72,102.69,33.8,102.28,34,101Z"/><path class="cls-1" d="M136,101c1.27.45,1.64,1.8,2.06,3.09-.86.29-1.34.94-2.4,1a4,4,0,0,0-1-2.74C135,101.77,135.93,101.81,136,101Z"/><path class="cls-1" d="M40.19,102c1.85.11,1.84,2.06,1.72,4.12-.81-.1-.64-1.19-1.72-1Z"/><path class="cls-1" d="M129.86,102c1.39-.13.38,2.14.69,3.09-.86-.05-1.08.53-1.38,1C128.26,105,129,102.53,129.86,102Z"/><path class="cls-1" d="M32,103.75c0,1.58-1,2.23-1.37,3.44a20.4,20.4,0,0,1-3.44-1.38C28.08,103.68,29.59,101.82,32,103.75Z"/><path class="cls-1" d="M143.6,105.47c-.63,1.09-2.24,1.2-3.43,1.72-.4-1.21-1.36-1.86-1.38-3.44C141.13,101.85,142.39,103.65,143.6,105.47Z"/><path class="cls-1" d="M37.79,103.75c1.22-.19.84,1.22,2.06,1,.18,1.33-.61,1.68-.34,3.09-.7-.33-1.36-.7-2.06-1C37.26,105.51,38.06,105.16,37.79,103.75Z"/><path class="cls-1" d="M63.9,103.75a9.44,9.44,0,0,1,2.4,2.4c-.44,1.85-.67,3.91-1,5.84C63.18,110.88,64.09,106.76,63.9,103.75Z"/><path class="cls-1" d="M106.5,103.75c.68,2.29.63,6.81-.69,8.24C104.59,109.28,103.79,105.1,106.5,103.75Z"/><path class="cls-1" d="M132.26,103.75c1.17.2.75,2,1,3.09-.51.4-1.4.43-1.71,1a6.72,6.72,0,0,1-.69-3.09C131.75,104.84,132,104.25,132.26,103.75Z"/><path class="cls-1" d="M85.2,104.09c1.44.74,2.22,2.14,3.78,2.75-.89,1.06-2.42,1.47-3.44,2.41-1.58-.48-2.54-1.58-4.12-2.06C82.5,106,84.11,105.3,85.2,104.09Z"/><path class="cls-1" d="M26.45,105.81c-.57,1.49-1.78,2.34-2.4,3.78-1.8-.37-3.35-1-5.16-1.37C20.61,105.68,23.18,103.2,26.45,105.81Z"/><path class="cls-1" d="M46.38,104.44c1.44.73,2.12,2.23,2.4,4.12C47.12,108.05,46.38,106.62,46.38,104.44Z"/><path class="cls-1" d="M124,104.44c.92,1.5-.57,3.54-1.72,4.12C121.57,107.24,123.2,105.34,124,104.44Z"/><path class="cls-1" d="M151.85,107.87c-1.27,1-3.44,1.14-5.16,1.72a22.22,22.22,0,0,0-2.4-3.44C147.27,102.87,149.57,105.57,151.85,107.87Z"/><path class="cls-1" d="M44.32,105.47c1.59.58,2.34,2,2.75,3.78C45.57,109.93,44.23,107.51,44.32,105.47Z"/><path class="cls-1" d="M77.64,105.47c1.35.6,3,.94,3.44,2.4-2.83,1.76-4.59,4.49-7.56,2.75C74.69,108.7,76.41,107.33,77.64,105.47Z"/><path class="cls-1" d="M96.88,109.93c-.41,1-1.7,1-2.75,1.38-1.24-1.74-3.72-2.24-4.47-4.47,1.21-.28,2-1,3.1-1.37C94.61,106.48,95.26,108.69,96.88,109.93Z"/><path class="cls-1" d="M126.08,105.47a3.1,3.1,0,0,1-2.4,4.12A5.48,5.48,0,0,1,126.08,105.47Z"/><path class="cls-1" d="M34.7,105.81c1-.09,1,.78,2.06.69.24,1.5-.59,1.93-.34,3.43a9.35,9.35,0,0,0-2.75-1A7.19,7.19,0,0,0,34.7,105.81Z"/><path class="cls-1" d="M135.36,105.81c1.39.1.62,2.36,1.71,2.75-.36.89-2,.48-2.4,1.37a7.11,7.11,0,0,1-.69-3.43A1.54,1.54,0,0,0,135.36,105.81Z"/><path class="cls-1" d="M42.26,106.84c1.6.57,2.34,2,2.4,4.12-.94-.32-1.46-1-2.4-1.37Z"/><path class="cls-1" d="M128.14,106.84c.78.26.14,1.93.34,2.75a6.74,6.74,0,0,0-2.06,1.37C125.57,109.52,127.05,107.48,128.14,106.84Z"/><path class="cls-1" d="M60.81,107.53c3.61,1.43,2.69,7.38,2.75,12.37C62.14,116.27,61.75,111.63,60.81,107.53Z"/><path class="cls-1" d="M109.59,107.53c.19,3.62-1.58,8.27-2.06,12.37C106.77,115.7,106.63,109.15,109.59,107.53Z"/><path class="cls-1" d="M30.23,107.87a7.19,7.19,0,0,1,3.09,1c-.21,1.28-.81,2.16-1,3.44a16.57,16.57,0,0,0-3.43-1C29,109.88,30.06,109.3,30.23,107.87Z"/><path class="cls-1" d="M140.51,107.87c.17,1.43,1.2,2,1.37,3.44-1,.37-2.42.32-3.09,1-.84-.77-1-2.24-1.37-3.44A7.19,7.19,0,0,1,140.51,107.87Z"/><path class="cls-1" d="M68.71,108.22c.51.51,1.45.61,1.72,1.37-.44,2-1.72,3.09-2.41,4.81-.72.15-.91-.24-1.37-.34-.67,2-1.55,3.72-2.06,5.84-.67-1.94.67-4.83.68-7.22a1.72,1.72,0,0,1,1,1C67.63,112.41,67.89,110,68.71,108.22Z"/><path class="cls-1" d="M101.69,108.22c1.23,1.4,1.49,3.78,2.4,5.49a1.7,1.7,0,0,0,1-1c1,1.91.95,4.78,1.38,7.22a16.73,16.73,0,0,1-2.06-5.5c-.66-.65-.62.2-1.72,0-.67-1.85-2.18-2.86-2.41-5.15C100.77,108.9,101.59,108.92,101.69,108.22Z"/><path class="cls-1" d="M39.51,108.56c1.05.09,1.54.74,2.4,1v2.75a19.25,19.25,0,0,0-2.4-1Z"/><path class="cls-1" d="M131.23,111.31c-.55.47-1.77.29-2.06,1-.77-.26-.13-1.93-.34-2.75C130.33,108.38,131.83,108.25,131.23,111.31Z"/><path class="cls-1" d="M71.11,109.59a7.34,7.34,0,0,1,2.06.69c-1.14,1.71-2.63,3.09-3.77,4.81.27.76,2.12-.07,1.71,1.37-2.45.64-3.53,2.65-5.49,3.78-.11-1.6,2.82-3.12,3.43-5.15C67.44,114.49,70.76,111.49,71.11,109.59Z"/><path class="cls-1" d="M90,112.34c-1,1.2-3.13,1.22-4.47,2.06,1,1.13,4.18,1,5.5,2.75-2.2-.14-3.62.5-5.5.69,6.14,1.53,12.77,2.57,19.24,3.77-12.25.81-26,.12-38.82.35a182,182,0,0,1,19.24-3.78c-1.51-1-4.35-.69-6.19-1.38,1.71-1,4.22-1.27,5.85-2.4-.75-.2-2.55-1.31-4.47-1.37.82-1.94,3.47-2,4.81-3.44C86.74,110.56,88.35,111.48,90,112.34Z"/><path class="cls-1" d="M28.17,111.31c-.41,1.65-1.54,2.58-2.06,4.12-1.88-.18-3.32-.8-5.15-1,.68-1.61,2.06-2.51,2.74-4.12C25.55,110.27,26.64,111,28.17,111.31Z"/><path class="cls-1" d="M36.42,110.28a19.92,19.92,0,0,1,2.4,1v3.09a18.66,18.66,0,0,0-3.09-1A13.24,13.24,0,0,0,36.42,110.28Z"/><path class="cls-1" d="M134,110.28c.89.37.3,2.22,1,2.75-.45.92-2.16.58-2.75,1.37-.78-.37-.13-2.16-.34-3.09C132.45,110.81,133.52,110.85,134,110.28Z"/><path class="cls-1" d="M149.78,114.06c-1.28.89-3.36,1-5.15,1.37-.52-1.54-1.65-2.47-2.06-4.12,1.66-.12,2.53-1.27,3.78-1C148.09,110.61,148.38,113.11,149.78,114.06Z"/><path class="cls-1" d="M45,111.65c1.56.63,3.18,1.17,3.1,3.44a9.08,9.08,0,0,0-2.75-1C45.52,113,44.73,112.84,45,111.65Z"/><path class="cls-1" d="M98.6,115.43c-3.27,1.2-5-2.13-7.56-2.75C94.29,110.19,96.55,113.77,98.6,115.43Z"/><path class="cls-1" d="M125.05,111.65c1.59,0,.07,1.56.34,2.41-.88.26-1.94.34-2.4,1C121.82,113.45,124.31,112.52,125.05,111.65Z"/><path class="cls-1" d="M57.37,112a1,1,0,0,1,.69,1A1,1,0,0,1,57.37,112Z"/><path class="cls-1" d="M32.29,112.68c1.18.09,1.65.87,3.09.69,0,1.37-.68,2.06-.68,3.43-1.57.2-2.14-.6-3.78-.34A25.17,25.17,0,0,0,32.29,112.68Z"/><path class="cls-1" d="M139.82,116.12a9.67,9.67,0,0,1-3.78.68c0-1.37-.68-2.06-.68-3.43a3.09,3.09,0,0,0,2.4-.69C139.27,113,138.81,115.3,139.82,116.12Z"/><path class="cls-1" d="M42.26,113a8.92,8.92,0,0,1,2.74,1v2.06c-1-.19-1.78-.51-2.74-.69Z"/><path class="cls-1" d="M127.8,113c1.3-.28.43,1.62.68,2.4-1,.18-1.78.5-2.74.69v-2.06C126.27,113.56,127.34,113.6,127.8,113Z"/><path class="cls-1" d="M38.82,114.74c1.37-.1,1.73.8,3.09.69v2.75c-1.13,0-1.71-.58-3.09-.34Z"/><path class="cls-1" d="M131.92,114.74v3.1c-1.38-.24-2,.32-3.09.34v-2.75C130.19,115.54,130.55,114.64,131.92,114.74Z"/><path class="cls-1" d="M51.19,115.09c1.2,1.08,3.5,1.07,3.78,3.09C53.79,117.07,51.08,117.49,51.19,115.09Z"/><path class="cls-1" d="M119.21,115.09c1.26,2-2.39,2-3.09,3.09C115.17,116.53,118.56,116.28,119.21,115.09Z"/><path class="cls-1" d="M26.11,115.77a22.16,22.16,0,0,0,4.47.69c-.25,1.59-1.14,2.53-1.38,4.12H23.7C24.33,118.81,25.64,117.71,26.11,115.77Z"/><path class="cls-1" d="M147,120.24c-1.16.79-3.78.12-5.5.34-.24-1.59-1.13-2.53-1.37-4.12a9.65,9.65,0,0,0,3.77-.69C145.57,116.66,145.77,119,147,120.24Z"/><path class="cls-1" d="M34.7,117.49c1.53-.27,2.06.46,3.43.35v3.09H34C34.17,119.71,34.77,118.94,34.7,117.49Z"/><path class="cls-1" d="M136,117.49c-.07,1.45.53,2.22.69,3.44h-4.12v-3.09C134,118,134.51,117.22,136,117.49Z"/><path class="cls-1" d="M42.26,118.52c1.62.44,3.89.23,3.43,2.75H42.26Z"/><path class="cls-1" d="M128.48,121.27h-3.43C124.36,118.39,129.94,117.21,128.48,121.27Z"/><path class="cls-1" d="M52.22,118.87c1.43.4,3.33.33,3.78,1.71C54.46,120.28,52.3,120.62,52.22,118.87Z"/><path class="cls-1" d="M118.52,118.87c-.07,1.75-2.24,1.41-3.78,1.71C115.19,119.2,117.09,119.27,118.52,118.87Z"/><path class="cls-1" d="M49.47,119.9c1.23.14,2.66.08,3.09,1,.21,1.35-1.88.4-2.75.68C50,120.79,49.19,120.87,49.47,119.9Z"/><path class="cls-1" d="M121.27,119.9c.28,1-.48.89-.34,1.71h-2.75C117.94,119.77,119.93,120.16,121.27,119.9Z"/><path class="cls-1" d="M29.2,120.93c1.68-.08,2.6.6,4.47.34-.19,1.3-.83,2.15-.69,3.78-1.26.91-3.81.54-5.5,1C27.89,124.19,28.84,122.86,29.2,120.93Z"/><path class="cls-1" d="M141.54,120.93c.36,1.93,1.31,3.26,1.72,5.15-1.69-.49-4.24-.12-5.5-1,.14-1.63-.5-2.48-.69-3.78C138.94,121.53,139.86,120.85,141.54,120.93Z"/><path class="cls-1" d="M38.13,121.27c1.64-.26,2.21.54,3.78.34v2.75c-1.46,0-2.4.58-4.12.35A8.52,8.52,0,0,0,38.13,121.27Z"/><path class="cls-1" d="M132.61,121.27a8.7,8.7,0,0,0,.34,3.44c-1.72.23-2.66-.32-4.12-.35v-2.75C130.4,121.81,131,121,132.61,121.27Z"/><path class="cls-1" d="M46,121.61h3.44c-.25,1,.59,1,.34,2.07-.93.21-2.72-.44-3.09.34A3.1,3.1,0,0,1,46,121.61Z"/><path class="cls-1" d="M121.27,121.61h3.44c.27,1.2-.52,1.32-.35,2.41-.65-.61-2.27-.25-3.43-.34C120.68,122.62,121.52,122.66,121.27,121.61Z"/><path class="cls-1" d="M56.68,122c.18,1.33-2.77,1.32-3.43.68C53.2,121.22,55.64,122.29,56.68,122Z"/><path class="cls-1" d="M114.06,122c1,.21,3-.44,3.43.34C117.45,123.59,113.77,123.22,114.06,122Z"/><path class="cls-1" d="M60.81,122.64c-1,.37-2.56,1.32-3.44.69A7.15,7.15,0,0,1,60.81,122.64Z"/><path class="cls-1" d="M109.93,123c.86-1,2.09.41,3.44,0C112.77,124.56,111.47,122.58,109.93,123Z"/><path class="cls-1" d="M52.91,123.33c.49.08.12,1,.68,1-.22,1.15-2.15.6-2.75,1.38-1,.15.27-1.88-.68-1.72C50.31,123,52.75,124.32,52.91,123.33Z"/><path class="cls-1" d="M117.49,123.33c.57.58,2,.28,3.09.35a2.91,2.91,0,0,0-.34,2.06c-.89-.49-2.27-.48-3.09-1A2,2,0,0,0,117.49,123.33Z"/><path class="cls-1" d="M61.15,123.68c-.57.92-1.74,1.23-2.4,2.06C57.68,124.54,60.22,124,61.15,123.68Z"/><path class="cls-1" d="M109.59,124c.58-.45,2.89.3,2.75,1.72C111.19,125.4,110.74,124.36,109.59,124Z"/><path class="cls-1" d="M57.72,125.05c-1.44.17-2,1.2-3.44,1.37,0-.48.06-1-.34-1C54.68,124.84,57.7,123.16,57.72,125.05Z"/><path class="cls-1" d="M116.8,125.05a2,2,0,0,0-.34,1.37c-1.27-.55-2.92-.74-3.43-2.06C113.94,123.78,115.53,124.9,116.8,125.05Z"/><path class="cls-1" d="M46,124.36c.2.61-.41,2,.35,2.06-.52,1.32-3,.71-3.78,1.72-.78-.47-.13-2.39-.34-3.43C43.67,124.75,44.41,124.11,46,124.36Z"/><path class="cls-1" d="M71.8,124.71c2.18-.81,4.46,1.26,7.21,1C76.5,126.87,74.22,124.81,71.8,124.71Z"/><path class="cls-1" d="M98.94,124.36a17.78,17.78,0,0,1-7.9,1.72A41.68,41.68,0,0,1,98.94,124.36Z"/><path class="cls-1" d="M124.71,124.36c1.62-.25,2.36.39,3.77.35v3.43a13,13,0,0,0-3.77-1C124.14,126.56,125,125.67,124.71,124.36Z"/><path class="cls-1" d="M61.49,124.71c.51,1-1.23,2.65-1.71,3.77C57.91,126.93,61.15,126.15,61.49,124.71Z"/><path class="cls-1" d="M108.9,124.71c.85,1.21,3.33,1.84,2.41,3.77C110,127.7,109.61,126.06,108.9,124.71Z"/><path class="cls-1" d="M106.84,125.05a4.25,4.25,0,0,1,.35,3.09C105.82,127.8,106.86,126.07,106.84,125.05Z"/><path class="cls-1" d="M108.22,125.05a9,9,0,0,1,2.06,3.78C108.51,128.65,108.53,126.68,108.22,125.05Z"/><path class="cls-1" d="M37.45,125.39c.13,1.63-.62,2.37-.35,4.13-1.8.37-3.35,1-5.15,1.37.28-1.78.65-3.47,1-5.15C34.66,125.82,35.58,125.13,37.45,125.39Z"/><path class="cls-1" d="M63.56,125.39c.9.35,1,2.81,0,3.09C62.53,127.77,64,126.68,63.56,125.39Z"/><path class="cls-1" d="M133.29,125.39c1.87-.26,2.79.43,4.47.35.38,1.68.75,3.37,1,5.15-1.8-.37-3.35-1-5.15-1.37C133.91,127.76,133.16,127,133.29,125.39Z"/><path class="cls-1" d="M50.84,128.14c-1.44.51-2.3,1.59-4.12,1.72v-2.75C48.53,126.7,51,125.05,50.84,128.14Z"/><path class="cls-1" d="M120.24,126.08c1.35.25,2.49.72,3.78,1v2.75c-1.82-.13-2.68-1.21-4.12-1.72C119.89,127.33,120.49,127.13,120.24,126.08Z"/><path class="cls-1" d="M58.06,126.42c.3.16.61.31.69.69-.67,1.37-2.2,3.41-3.44,3.09C54.87,127.58,57.19,127.73,58.06,126.42Z"/><path class="cls-1" d="M80.39,127.8c-1.45,1.69-3.55-.42-5.15-.69C76.72,125.65,78.61,127.54,80.39,127.8Z"/><path class="cls-1" d="M94.82,127.45c-2,.07-3.43,1.74-5.5.69C90.9,127.82,93.87,125.21,94.82,127.45Z"/><path class="cls-1" d="M115.43,130.2c-1.21.19-3.07-1.66-3.44-3.43C113.2,126.59,115.74,127.75,115.43,130.2Z"/><path class="cls-1" d="M53.59,127.11c.93-.24.67.71,1,1-.27,1.56-2.15,1.51-2.75,2.75-.54-.6-.46-1.83-.68-2.75A6.71,6.71,0,0,0,53.59,127.11Z"/><path class="cls-1" d="M75.58,129.52c-2.33.49-2.25-1.42-3.78-1.72C72.5,126.53,75,128.52,75.58,129.52Z"/><path class="cls-1" d="M98.94,127.45c-1.66.83-2.11,2.8-4.47,2.07C95.65,128.53,97.29,126.91,98.94,127.45Z"/><path class="cls-1" d="M116.46,127.11c1.26.11,1.9.85,3.09,1,.08,1.11-.6,1.46-.34,2.75-1.14-.58-1.86-1.58-3.09-2.06C115.83,127.86,116.6,127.94,116.46,127.11Z"/><path class="cls-1" d="M69.4,127.45c1.12.6,1.62,1.82,2.74,2.41C71,130.62,69.46,128.89,69.4,127.45Z"/><path class="cls-1" d="M87.6,127.8c-1.34,1.46-3,1.35-4.81.34C84,127.14,85.92,127.57,87.6,127.8Z"/><path class="cls-1" d="M101,127.45c1.38.61-1.63,3.55-2.75,2.75C99,129.14,100.23,128.52,101,127.45Z"/><path class="cls-1" d="M64.59,128.14c1.49.13,1.55,3.09,1.37,3.78C63.8,132.36,64.82,129.63,64.59,128.14Z"/><path class="cls-1" d="M103.75,128.14c-.23,1.49-.61,2.83-2.06,3.09C101.92,129.74,102.3,128.41,103.75,128.14Z"/><path class="cls-1" d="M41.91,132.26c-1.76.76-3.2,1.84-5.15,2.41.12-1.83.57-3.33.69-5.15a9.18,9.18,0,0,0,3.78-1C42.67,128.53,41.57,131.12,41.91,132.26Z"/><path class="cls-1" d="M105.12,128.48h1a13,13,0,0,1-.34,3.78,1.92,1.92,0,0,0-1.37-.34C104.44,130.55,105.12,129.86,105.12,128.48Z"/><path class="cls-1" d="M108.22,128.48c1.67.39,1.09,3,2.06,4.13C108.15,134.19,107.35,129.93,108.22,128.48Z"/><path class="cls-1" d="M128.83,128.48c1.63.2,2.63,1,4.46,1,.12,1.82.57,3.32.69,5.15-1.95-.57-3.39-1.65-5.15-2.41Z"/><path class="cls-1" d="M81.42,129.86c-1.17,1.9-3.15.37-4.47-.34C78.32,128,79.7,129.76,81.42,129.86Z"/><path class="cls-1" d="M93.1,129.52c-.92.89-3.41,2.27-3.78,0C91.15,129.21,91.57,128.69,93.1,129.52Z"/><path class="cls-1" d="M87.6,130.2c-1.31,1.26-3.36,1-5.15.35A4.77,4.77,0,0,1,87.6,130.2Z"/><path class="cls-1" d="M76.61,132.26c-1.87.15-2.5-.93-3.44-1.71C74.45,129.2,76,131,76.61,132.26Z"/><path class="cls-1" d="M97.22,130.2c-.07,1.19-1.39,1.13-1.72,2.06.24.68.92.92,1.72,1-.81.91-1.36,2.08-2.75,2.41-.14-.66-1.33-.27-1-1.37,1,0,1-1.05,1.72-1.38.26-1.17-1.39-.44-1-1.72C95.18,130.9,95.51,129.87,97.22,130.2Z"/><path class="cls-1" d="M46.38,130.55c.56.93.44,2.53.69,3.78a30.25,30.25,0,0,0-4.47,3.43c-.79-1-.12-3.54-.34-5.15A15.58,15.58,0,0,0,46.38,130.55Z"/><path class="cls-1" d="M73.17,133.29c-.82-.14-.74.63-1.71.35-.39-1-.94-1.81-1.38-2.75C71.67,129.92,72.41,132.34,73.17,133.29Z"/><path class="cls-1" d="M124,130.55a39.61,39.61,0,0,0,4.46,2.06v5.15c-1.7-1-3.1-2.39-4.8-3.43C123.63,132.91,124.27,132.17,124,130.55Z"/><path class="cls-1" d="M100.66,131.23c0,1.15-1.12,1.18-1,2.41a2.23,2.23,0,0,1-1.72-.35C98.21,132.08,99.37,130.37,100.66,131.23Z"/><path class="cls-1" d="M82.11,132.61c-1.42,1.65-3,.5-4.47-.35C79,130.38,80.46,132.14,82.11,132.61Z"/><path class="cls-1" d="M92.76,131.92A7.16,7.16,0,0,1,89.32,134a.93.93,0,0,0-.69-1C89.79,131.68,91,131,92.76,131.92Z"/><path class="cls-1" d="M50.84,131.58c1.41.2.78,2.42,1.38,3.43a18.67,18.67,0,0,0-4.12,4.47,21.17,21.17,0,0,1-.69-5.15C48.58,133.43,50,132.8,50.84,131.58Z"/><path class="cls-1" d="M55.31,131.58c2.2,2.55-.36,5.9-2.06,7.55C52.11,135.34,53,133.36,55.31,131.58Z"/><path class="cls-1" d="M66.65,131.58H68c.11,1.26.85,1.9,1,3.09-.81,0-1,.59-2.06.34C67.19,133.55,66.74,132.74,66.65,131.58Z"/><path class="cls-1" d="M102.72,131.58c.51.18.87.5,1.37.68a8.6,8.6,0,0,0-.68,2.75c-.81,0-1-.59-2.07-.34C101.75,133.59,102.5,132.85,102.72,131.58Z"/><path class="cls-1" d="M115.09,131.58a15.6,15.6,0,0,1,3.09,3.09c-.09,1.63-.79,2.65-.69,4.46C115.72,137.35,113.61,134.66,115.09,131.58Z"/><path class="cls-1" d="M119.21,131.58c1.7.59,2.6,2,4.12,2.75.11,1.93-.61,3-.34,5.15-1.69-1.29-2.62-3.33-4.47-4.47A34.09,34.09,0,0,0,119.21,131.58Z"/><path class="cls-1" d="M87.6,132.61c-1.09,1.64-3.32,1.51-4.81.34C84.37,131.66,85.55,132.24,87.6,132.61Z"/><path class="cls-1" d="M64.59,132.61c-.24,1.5.58,1.93.34,3.43-.6.32-1.71.12-2.06.69C62.18,135.46,62.25,132,64.59,132.61Z"/><path class="cls-1" d="M74.89,132.61c.72.77,1.66,1.32,2.41,2.06.13.82-1.57-.19-1,1-1.19-.31-1.46-1.52-2.41-2.06C73.76,132.85,74.85,133.26,74.89,132.61Z"/><path class="cls-1" d="M106.15,132.61c.83-.14.75.62,1.72.34,0,1.42.6,2.15.35,3.78-.75-.29-1.18-.89-2.41-.69C105.7,134.67,106.42,134.14,106.15,132.61Z"/><path class="cls-1" d="M59.43,133.29c.76,3.06-2,5.55-4.81,6.19-.46-1.73,2-3.51,2.41-5.5A4.42,4.42,0,0,0,59.43,133.29Z"/><path class="cls-1" d="M111,133.64c3.74,0,4.21,3.35,5.5,5.84-1.45-.84-3.58-1-4.81-2.06C111.76,135.82,111,135.12,111,133.64Z"/><path class="cls-1" d="M71.11,134c.92.57,1.24,1.74,2.06,2.41-.1.92-1.44.61-1.71,1.37-1.07-.65-1.33-2.11-1.72-3.43C70.28,134.3,71.05,134.49,71.11,134Z"/><path class="cls-1" d="M82.11,136c-1.54,1.45-3.53.09-4.13-1.37C80,133.74,81.21,134.28,82.11,136Z"/><path class="cls-1" d="M99.28,134c.45.35,1.27.34,1.72.69,0,1.44-1.33,1.65-1.37,3.09a7.34,7.34,0,0,1-2.06-.69A19.59,19.59,0,0,1,99.28,134Z"/><path class="cls-1" d="M92.07,135c-.21,1.05-1.14,1.38-1.72,2.06-.7-.33-1.36-.7-2.06-1A2.32,2.32,0,0,1,92.07,135Z"/><path class="cls-1" d="M87.26,135.7a12.16,12.16,0,0,1-1.72,1.72c-1.14,0-1.17-1.12-2.4-1C83.59,134.28,86,134.57,87.26,135.7Z"/><path class="cls-1" d="M66.65,135.36c1.12.59.82,2.61,1.37,3.77-.55.48-1.77.3-2.06,1a8.13,8.13,0,0,1-.69-4.13A1.51,1.51,0,0,0,66.65,135.36Z"/><path class="cls-1" d="M103.41,135.36c1-.09,1,.77,2.06.68.2,1.81-.26,3-.35,4.47a12.82,12.82,0,0,1-2.4-1.38C102.72,137.65,103.52,137,103.41,135.36Z"/><path class="cls-1" d="M75.24,136a4.62,4.62,0,0,1,2.4,2.75c-1.23-.09-1.26,1-2.4,1-.24-1.25-1.4-1.58-1.38-3.09C74.07,136.25,75.18,136.68,75.24,136Z"/><path class="cls-1" d="M96.88,136.73c.11,1.6-1.07,1.91-1.38,3.09-1.33.19-1.41-.87-2.4-1C94,137.16,95.13,135.84,96.88,136.73Z"/><path class="cls-1" d="M61.49,141.88a21.13,21.13,0,0,1-4.81,2.06,22.08,22.08,0,0,0,1.72-5.49c.89-.27,2.79-1.31,3.44-.69C61.81,139.22,61.26,140.16,61.49,141.88Z"/><path class="cls-1" d="M79.7,137.42c1.32.17,1.24,1.74,2.75,1.71-.21,1.17-1.52,1.23-2.06,2.07-.84-.54-.9-1.85-2.06-2.07C78.24,138,79.66,138.41,79.7,137.42Z"/><path class="cls-1" d="M90,137.42a12.78,12.78,0,0,1,2.4,1.37c-.55.82-1.23,1.52-1.71,2.41C89.55,141,89,140.13,88,139.82,88.42,138.81,89.53,138.43,90,137.42Z"/><path class="cls-1" d="M108.56,137.76c.81-.9,2.17.56,3.43.34.64,2,1,4.28,2.07,5.84-1.27.46-3.17-1.4-4.81-1.71A13.33,13.33,0,0,0,108.56,137.76Z"/><path class="cls-1" d="M70.43,138.1a8.18,8.18,0,0,1,1.71,3.1c-.17,1.31-1.81,1.16-2.4,2.06-.86-1-1-2.64-1.38-4.13A3.44,3.44,0,0,0,70.43,138.1Z"/><path class="cls-1" d="M87.26,139.13c-.16,1.45-1.62,1.59-2.06,2.75-.69-.68-1.12-1.62-2.06-2.06C84,137.8,85.58,138.12,87.26,139.13Z"/><path class="cls-1" d="M99.63,138.45c1.08-.06,1.15.91,2.4.68.18,1.79-.45,2.76-.69,4.13-1.4-.08-1.81-1.17-3.09-1.38A19.81,19.81,0,0,0,99.63,138.45Z"/><path class="cls-1" d="M47.41,140.17c.28,2.77,1.36,5.27,1,7.55-.51,3.54-4.82,7.26-5.84,10.65,0-4.08-1.24-8.13-.34-11.68C43,143.68,46.59,142.46,47.41,140.17Z"/><path class="cls-1" d="M74.89,140.17c1.41.53,1.74,2.16,2.41,3.43-1.64,0-1.63,1.58-3.09,1.72a12.28,12.28,0,0,1-1.38-3.78C73.39,141,75,141.41,74.89,140.17Z"/><path class="cls-1" d="M123,140.17a52.13,52.13,0,0,1,5.49,6.18v12c-1.46-1.32-1.94-3.15-3.09-5.15-.89-1.56-2.77-3.36-3.09-5.15C121.87,145.61,123.37,143.33,123,140.17Z"/><path class="cls-1" d="M95.5,140.51a12.87,12.87,0,0,0,2.41,1.37c-.83,1-.92,2.75-1.72,3.78-1-.48-1.3-1.68-2.75-1.72C93.44,142.11,95,141.85,95.5,140.51Z"/><path class="cls-1" d="M65.62,145.66a15.57,15.57,0,0,0-4.13,2.41c-1.05-1.53.44-3.45,0-5.5,1.39-.23,2.4-2.24,3.78-1.37C65.07,143,65.53,144.15,65.62,145.66Z"/><path class="cls-1" d="M105.47,140.85c3,.73,4.47,3.09,4.12,7.22a23.56,23.56,0,0,1-4.47-2.41C105.65,144.47,105.43,142.53,105.47,140.85Z"/><path class="cls-1" d="M80.05,141.54c2.52,1.93,2.7,3,0,5.15-1-.69-1.45-2-2.07-3.09C78.19,142.44,79.51,142.38,80.05,141.54Z"/><path class="cls-1" d="M90.35,141.88a13.15,13.15,0,0,0,2.41,1.38c-.16,1.67-1.3,2.36-1.72,3.78-1.17-.44-1.3-1.91-2.75-2.07C88.55,143.52,89.72,143,90.35,141.88Z"/><path class="cls-1" d="M87.6,144.29c-.32,1.39-1.59,1.84-2.06,3.09-1.12-.71-1.4-2.26-2.4-3.09C84.32,141.67,86.16,142.43,87.6,144.29Z"/><path class="cls-1" d="M69.05,143.6c.89,1,.71,3,1.38,4.12-.62,1.79-2.55,2.27-3.78,3.44-.71-1.46-.73-3.63-.69-5.84A5.2,5.2,0,0,0,69.05,143.6Z"/><path class="cls-1" d="M101.34,143.94c1.2.64,2.32,1.35,3.44,2.07a25.1,25.1,0,0,0-.34,5.49c-1.71-.7-2.74-2.07-4.13-3.09A45,45,0,0,0,101.34,143.94Z"/><path class="cls-1" d="M127.45,158.37c-3.87-1.62-7-4-10.65-5.84-.49-2.82-1.83-4.81-2.4-7.56,2.7.86,4.81,2.29,7.56,3.1C123.43,151.86,125.91,154.65,127.45,158.37Z"/><path class="cls-1" d="M73.86,146c1.12.71,1.15,2.51,2.06,3.43a10.25,10.25,0,0,1-3.43,4.12c-1.08-1-.84-3.28-1.72-4.46C71.12,147.39,73.22,147.42,73.86,146Z"/><path class="cls-1" d="M96.54,146.35c1.3.41,1.67,1.76,3.09,2.06.14,2.21-.89,3.23-1,5.15-1.63-.66-2.54-2-3.78-3.09C95.09,148.8,96,147.74,96.54,146.35Z"/><path class="cls-1" d="M79.36,147.38c1.56.73,1.91,2.67,2.75,4.12a15,15,0,0,0-3.1,3.44c-1.38-.79-1.31-3-2.4-4.12C77,149.16,78.58,148.66,79.36,147.38Z"/><path class="cls-1" d="M85.2,147.72A14.26,14.26,0,0,1,88,151.16a23.17,23.17,0,0,1-2.41,4.46c-1.25-1-1.71-2.86-2.75-4.12C83.16,149.8,84.79,149.37,85.2,147.72Z"/><path class="cls-1" d="M90.7,147.72c1.5.56,2.34,1.78,3.43,2.75-.48,1.81-1.55,3-2.06,4.81-1.08-1.55-2.7-2.57-3.44-4.46C89.29,149.76,90.53,149.28,90.7,147.72Z"/><path class="cls-1" d="M60.46,148.41c.71,2.2-.84,5.11-.68,7.9-3.08,1.85-5.76,4.09-8.59,6.19-.29-3.16,2.25-6.45,2.75-10C56.15,151.2,58.78,150.28,60.46,148.41Z"/><path class="cls-1" d="M65.62,152.19c.24,2.36,1.43,4.3,1,6.18-.73,3.37-6.29,5.58-7.56,7.22.37-3.19,1.07-6,1-9.62C62.26,155,63.82,153.49,65.62,152.19Z"/><path class="cls-1" d="M104.78,152.53c2,1.09,3.45,2.74,5.5,3.78a66.33,66.33,0,0,1,1.37,8.93c-.18,1-1.66-.35-2.06-.68-1.74-1.45-3.83-4.29-5.5-5.84C104.34,156.68,105,155,104.78,152.53Z"/><path class="cls-1" d="M71.8,154.59c.85,2,2.07,4.54,1.72,6.53s-4.67,5.79-5.84,6.53c-.08-3-1.26-5.61-.69-7.9C67.66,157.05,70.78,156.59,71.8,154.59Z"/><path class="cls-1" d="M78.33,156.31c1.63,1.35,1.91,4.05,3.09,5.84-1.69,2.43-2.94,5.31-5.15,7.22-1.07-2.37-1.19-5.68-2.06-8.25A35.9,35.9,0,0,0,78.33,156.31Z"/><path class="cls-1" d="M85.2,156.66c1.9,1.07,2.29,3.66,3.78,5.15-1,2.9-2.28,5.51-3.44,8.24-1.81-2-2.43-5.12-3.78-7.55C82.54,160.18,84.13,158.68,85.2,156.66Z"/><path class="cls-1" d="M94.47.34C95,3.3,96,5.67,96.54,8.59c-1.11,2.1-2.93,3.48-4.13,5.5-1.49-1.37-1.74-4-2.75-5.85,1-3,2.88-5.14,4.47-7.55"/><path class="cls-1" d="M1.37,102.72C4,102.29,7.59,99.78,11,98.94a45.84,45.84,0,0,0,6.19,2.75c-1.61,1.6-3.82,2.59-5.5,4.12-3.52-.72-6.36-2.12-10-2.75"/><path class="cls-1" d="M1.72,66.65c3.07.32,6.53-1.94,10-2.41A39.61,39.61,0,0,0,17.18,68c-1.72,1.38-4.33,1.86-6.19,3.09A80.9,80.9,0,0,1,1.37,67"/><path class="cls-1" d="M4.12,58.06c2.75,1,6-1.56,8.59-1s4,3.69,5.15,4.81c-2,.72-4.28,1.21-6.18,2.06C9,62.35,6.6,60.5,4.12,58.75"/><path class="cls-1" d="M7.21,49.81c2.68,1.07,5.78-.4,8.94,0,1.24,1.74,2.39,3.57,3.78,5.16-2.15.54-4.41,1.73-6.19,1.37-2.85-.58-4.5-4.84-6.87-5.84"/><path class="cls-1" d="M11.34,41.91c2.39,1,6,.88,8.93,1.38.52,2.34,2.22,3.5,2.75,5.84a40.68,40.68,0,0,1-6.87.34c-1.72-2.29-3.31-4.71-5.16-6.87"/><path class="cls-1" d="M16.15,34.35c2.22,1.56,5.79,1.77,8.59,2.75.31,2.55,1.69,4,2.06,6.53-2.21-.2-4.2-.61-6.53-.69q-2.16-3.86-4.12-7.9"/><path class="cls-1" d="M21.64,27.48a55.73,55.73,0,0,0,8.25,4.13,66.78,66.78,0,0,0,1.37,6.87c-2.35-.4-4.24-1.26-6.52-1.72-1-3-2.26-5.76-3.1-8.93"/><path class="cls-1" d="M27.83,21.3c2.43,2.26,5.38,4,7.9,6.18a34.51,34.51,0,0,0,.69,6.87c-2.18-.8-4.13-1.82-6.19-2.74L27.83,22"/><path class="cls-1" d="M34.7,15.8c2.27,2.88,4.88,5.43,7.21,8.25v6.87c-.42,1-1.86-.75-2.75-1.38a16.21,16.21,0,0,0-3.09-2.06c-.43-3.8-1-7.47-1.37-11.33"/><path class="cls-1" d="M3.78,112c1.89-2.57,5.25-3.68,7.56-5.84,2.3.68,4.43,1.53,6.87,2.07-1.41,1.91-3.48,3.16-5.16,4.81-2.83-.49-5.82-.82-8.58-1.38"/><path class="cls-1" d="M169.37,67.33c-2.67.43-6.22,3-9.62,3.78a45.84,45.84,0,0,0-6.19-2.75c1.61-1.6,3.82-2.59,5.5-4.12,3.52.72,6.36,2.12,10,2.75"/><path class="cls-1" d="M169,103.41c-3.07-.33-6.53,1.93-10,2.4a40.5,40.5,0,0,0-5.5-3.78c1.72-1.37,4.33-1.86,6.19-3.09a81.85,81.85,0,0,1,9.62,4.12"/><path class="cls-1" d="M166.62,112c-2.75-1-6,1.57-8.59,1s-4-3.69-5.15-4.81c2-.72,4.29-1.21,6.18-2.07,2.69,1.55,5.08,3.4,7.56,5.16"/><path class="cls-1" d="M163.53,120.24c-2.68-1.06-5.78.4-8.94,0-1.24-1.74-2.39-3.56-3.77-5.15,2.14-.54,4.4-1.74,6.18-1.38,2.85.58,4.5,4.84,6.87,5.84"/><path class="cls-1" d="M159.4,128.14c-2.39-1-6-.87-8.93-1.37-.52-2.34-2.22-3.5-2.75-5.84a39.61,39.61,0,0,1,6.87-.35c1.72,2.3,3.31,4.72,5.16,6.87"/><path class="cls-1" d="M154.59,135.7c-2.22-1.56-5.79-1.77-8.58-2.75-.32-2.55-1.7-4-2.07-6.53,2.21.21,4.2.61,6.53.69q2.16,3.86,4.12,7.9"/><path class="cls-1" d="M149.1,142.57a54.74,54.74,0,0,0-8.25-4.12,65.73,65.73,0,0,0-1.37-6.87c2.35.39,4.24,1.26,6.53,1.71,1,3,2.25,5.76,3.09,8.94"/><path class="cls-1" d="M142.91,148.75c-2.43-2.26-5.38-4-7.9-6.18a34.69,34.69,0,0,0-.68-6.87c2.17.8,4.12,1.83,6.18,2.75l2.4,9.62"/><path class="cls-1" d="M136,154.25c-2.27-2.88-4.88-5.43-7.21-8.24v-6.88c.42-1,1.86.75,2.75,1.38a15.75,15.75,0,0,0,3.09,2.06c.43,3.8,1,7.47,1.37,11.34"/><path class="cls-1" d="M119.9,163.18c-2.79-2.47-6-4.55-8.94-6.87a68.35,68.35,0,0,0-1-7.21,55.23,55.23,0,0,1,6.87,3.78c.88,3.48,2.18,6.53,3.1,10"/><path class="cls-1" d="M103.06,168.68c-.6-1.39-1.92-2.43-3.09-3.78-2.68-3.09-3.25-4.74-1.37-10a31.43,31.43,0,0,1,5.15,4.46c.2,3.29-.6,5.58-.34,8.94"/><path class="cls-1" d="M94.13,169.71c-1.36-2.53-3-4.74-4.47-7.21A32.09,32.09,0,0,1,92.07,156c1.74,1.47,2.87,3.54,4.47,5.15-.4,3-1.47,5.41-2.07,8.25"/><path class="cls-1" d="M34.35,153.91c1.1-3.26,1.07-7.64,1.72-11.34,2.14-.84,4.26-3.53,5.84-3.78-.35,2.83.51,5,0,6.87-.8,2.93-5.54,5.67-7.21,8.25"/><path class="cls-1" d="M27.83,148.41c.66-3.46,1.63-6.61,2.4-10,2.06-.92,4-1.95,6.19-2.75a34.66,34.66,0,0,0-.69,6.87,95.91,95.91,0,0,1-7.9,5.84"/><path class="cls-1" d="M21.3,142.23c1.46-2.66,2.23-6,3.44-8.94,2.28-.45,4.17-1.32,6.52-1.71a65.73,65.73,0,0,0-1.37,6.87c-3,1-5.23,2.79-8.25,3.78"/><path class="cls-1" d="M15.8,135c1.88-2.24,2.83-5.41,4.47-7.9,2.33-.08,4.32-.48,6.53-.69-.37,2.5-1.75,4-2.06,6.53-2.88.79-5.84,1.5-8.59,2.41"/><path class="cls-1" d="M10.65,127.45c2.35-1.76,3.6-4.64,5.5-6.87a39.61,39.61,0,0,1,6.87.35c-.53,2.34-2.23,3.5-2.75,5.84-3,.28-5.93.71-8.93,1"/><path class="cls-1" d="M6.87,119.55c2.19-1.93,4.31-3.93,6.53-5.84,2.3.22,4.31.73,6.53,1-1.1,2-2.59,3.6-3.78,5.5-3.29.2-5.58-.6-8.94-.34"/><path class="cls-1" d="M167,58.75a78.49,78.49,0,0,0-7.56,5.15c-2.3-.68-4.43-1.52-6.87-2.06,1.41-1.92,3.48-3.17,5.16-4.81,2.83.48,5.82.81,8.58,1.37"/><path class="cls-1" d="M103.75,1.72c-1.06,2.78.43,6,0,9.27-2,1.07-3,3.22-5.15,4.13,0-2.51-1.62-3.94-1.38-5.84.34-2.66,4.85-5.61,6.19-7.91"/><path class="cls-1" d="M120.24,7.21c-1.55,2.92-2.37,6.57-3.44,10A56.56,56.56,0,0,1,109.93,21a68.54,68.54,0,0,0,1-7.22c3-2.14,5.76-4.55,8.94-6.53"/><path class="cls-1" d="M136.39,16.15c-1.09,3.26-1.07,7.63-1.72,11.33-2.14.84-4.26,3.53-5.84,3.78.36-2.83-.51-5,0-6.87.8-2.93,5.54-5.67,7.21-8.24"/><path class="cls-1" d="M142.91,21.64c-.66,3.47-1.63,6.62-2.4,10-2.06.92-4,1.94-6.18,2.74a34.54,34.54,0,0,0,.68-6.87,95.91,95.91,0,0,1,7.9-5.84"/><path class="cls-1" d="M149.44,27.83c-1.46,2.66-2.23,6-3.43,8.93-2.29.46-4.18,1.32-6.53,1.72a66.78,66.78,0,0,0,1.37-6.87c3-1,5.23-2.79,8.25-3.78"/><path class="cls-1" d="M154.94,35c-1.88,2.25-2.83,5.41-4.47,7.9-2.33.08-4.32.49-6.53.69.37-2.5,1.75-4,2.07-6.53,2.88-.78,5.83-1.49,8.58-2.4"/><path class="cls-1" d="M160.09,42.6c-2.35,1.77-3.6,4.64-5.5,6.87a40.68,40.68,0,0,1-6.87-.34c.53-2.34,2.23-3.5,2.75-5.84,3-.29,5.93-.71,8.93-1"/><path class="cls-1" d="M163.87,49.47c-1.17,3.29-4.45,4.49-6.53,6.87-2.3-.22-4.31-.72-6.52-1,1.09-2,2.58-3.6,3.77-5.5,3.29-.19,5.58.61,8.94.35"/><path class="cls-1" d="M42.94,11.68c3.1,1,7,4.22,10.65,5.84.65,2.67,1.74,4.91,2.41,7.56-2.32-.89-4.57-1.85-6.87-2.75A115.7,115.7,0,0,0,42.94,11.68Z"/><path class="cls-1" d="M60.46,37.79c.37-1.36,1,.09,2.06,0-.19,1.57.61,2.14.35,3.78-.62,0-.73-.42-1.38-.34.25,1.59,1.14,2.53,1.38,4.12-1.23-.72-1.43-2.47-2.41-3.44C62.12,41.42,61.35,38.66,60.46,37.79Z"/><path class="cls-1" d="M66.65,42.26c.29-1.31,1-2.19,1.37-3.44a1.91,1.91,0,0,0,1.38.34c-.21,1.15-2.55,2.73-1,3.44-.55.93-.93,2-2.06,2.4.16-1.1,1.31-1.21,1.38-2.4C67.62,42.2,67.05,42.31,66.65,42.26Z"/><path class="cls-1" d="M65.62,41.91c1.46.46-.57,1.46-.35,2.75C64.52,44.21,65.68,42.8,65.62,41.91Z"/><path class="cls-1" d="M104.44,42.6c1.34-1.43.93,1.8,1.37,2.4C106,46,105,43,104.44,42.6Z"/><path class="cls-1" d="M100,42.6c1.62.22,2.11,1.56,3.09,2.4C102.49,45.1,100.64,43.54,100,42.6Z"/><path class="cls-1" d="M103.06,42.94c-.56-1.43,2,3.4.35,2.06C103.65,44,103.06,43.75,103.06,42.94Z"/><path class="cls-1" d="M70.08,43.29c-.66.82-1.83,1.14-2.4,2.06C67.43,45.07,69.12,42.4,70.08,43.29Z"/><path class="cls-1" d="M85.54,46.38c2,.81,5.35.38,7.56,1H100c.53.18,0,.36-.34.34h-24c-1-.06-5.5.22-3.78-.34H77a60.47,60.47,0,0,1,8.25-.69c-5.24-.88-10.85.64-15.8.35-.12-.82,3.6-.75,4.81-1.38-.09.61-.6.78-1.38.69,3.91.7,8.39-1,12.37-1.38a9.86,9.86,0,0,0-3.78-.68c1.73-1.79,5.37-1.45,7.56-.35a5.46,5.46,0,0,1-3.44.69c3.22,1.59,7.91,1.71,12.37,2.06,0-.63-1.16-.21-1.37-.69.93-.46,3.3.58,4.8.69C98.47,47.49,91.06,46.43,85.54,46.38Z"/><path class="cls-1" d="M73.17,43.29c-.84,1.33-3.24,1.11-4.12,2.4C69,44.82,71.46,43.52,73.17,43.29Z"/><path class="cls-1" d="M96.54,43.63c1.76-.84,4,.75,4.8,2.06A15.59,15.59,0,0,0,96.54,43.63Z"/><path class="cls-1" d="M58.75,48.78c-5.25-.67,3.3.27,0,0Z"/><path class="cls-1" d="M112,48.44h2.07C113.21,49,109.59,49.47,112,48.44Z"/><path class="cls-1" d="M104.44,48.78c-.92,1.95-5.58,3.13-7.56,5.16a12,12,0,0,0-4.12-.69C96.05,51.16,100.9,50.63,104.44,48.78Z"/><path class="cls-1" d="M77.64,52.91a6.22,6.22,0,0,1-3.43,1c1.21,1.64,3.59,2.12,5.49,3.09-.5,1.1-2.1,1.11-3.43,1.37C75,57.18,73.56,56.07,72.14,55c.07-1.12.6-.25,1.72-.69-2.22-2-5.43-3-7.9-4.81a39.13,39.13,0,0,1,10.31,3.44Z"/><path class="cls-1" d="M59.43,49.47a14.38,14.38,0,0,1-3.78,1.72C56.15,49.85,58.18,50.05,59.43,49.47Z"/><path class="cls-1" d="M111.65,49.81c-.5-.57,2.87.43,3.44,1C114.25,51.55,112.83,49.91,111.65,49.81Z"/><path class="cls-1" d="M60.46,51.19c.54.12-.3.6.35.68-.8-.07-2.15,1-2.75,2.07C57.4,52.92,59.63,51.86,60.46,51.19Z"/><path class="cls-1" d="M57,53.94c0,2-3.57,3.53-4.47,5.84C52.27,57.41,55.41,55.53,57,53.94Z"/><path class="cls-1" d="M49.81,60.12c-.48-1.87,2-3.74,3.78-4.47C53.17,58,50.88,58.44,49.81,60.12Z"/><path class="cls-1" d="M58.4,53.59c.75,1-1.5,1.92-1.72,3.09C56.1,55.85,57.88,54.46,58.4,53.59Z"/><path class="cls-1" d="M53.59,60.81c-.48,3.41-3.36,6.46-5.49,10.65C48.36,67.72,51.19,63.56,53.59,60.81Z"/><path class="cls-1" d="M47.41,68.36C47.15,66,49.1,63,50.84,61.49,51.19,63.9,48.71,66.45,47.41,68.36Z"/><path class="cls-1" d="M44.66,78.33c.12.45.61.54.69,1,3.95-5.79,7.28-12.45,11-18.9,1.14-2,3.3-3.75,3.09-6.18q-3.26,4.47-6.18,9.28c-.85-.55,1.72-2.37.69-3.1,1.22-1,5.3-7.39,6.18-7.55.94.9-1.36.32-.34,1.71a15,15,0,0,0,2.74-4.81c-1.13,5.74-4.19,12.53-6.18,18.55a31.16,31.16,0,0,0,3.78-4.46c.55,1.36-.49,4.08-.69,5.84,1,.22,2.69-1.89,3.78-2.75.8,1.27.12,4,.35,5.84a35.76,35.76,0,0,0-4.81,2.75c-.61-1.07.41-3.46.68-4.81-1.33.16-3.42,2.52-4.81,3.78-.45-1.61,1.3-4,1.72-5.84C52,73.53,47.71,78.4,43.63,83.48c-.25-.59.95-3.58,1.37-2.75-.06-1.3-1.44-1.3-1.37-2.75.33,0,.27.42.34.69.28-1.14,1.57-2.56,1-3.43-.51.29-.49,1.1-.68,1.71-.45-1.94.62-5.32,1.71-6.87C45.21,72.52,45.65,75.8,44.66,78.33Zm.69,1.72c.06-.86-.53-1.08-1-1.38C44.26,79.53,44.84,79.75,45.35,80.05Z"/><path class="cls-1" d="M104.78,49.81c.13,1.51-2.45,3.27-3.44,4.81,1.72,1.87-1.31,4.22-2.06,5.84-.65-.14-.86-.74-1.71-.68.65-2.1,2.23-3.27,3.43-4.81,0-.64-1.16-.21-1.37-.69C101.14,52.59,103.27,51.51,104.78,49.81Z"/><path class="cls-1" d="M109.93,53.59c.27-1.89,2.47.06,1,1.38,0,.8.94-.13.69-.69,2,1.34,3.62,4.85,4.81,5.84-.06,1,.29.44,1,1,2.18,1.73,4.41,6.08,5.5,9.62a.71.71,0,0,1-.35.69c.7,1.79,2.16,2.94,2.07,4.12.19,1,.53-.53,1-.34a13,13,0,0,0-1.38-4.81c1.6,0,1.94,4.24,2.41,6.52a1.67,1.67,0,0,1-.69-1.71c-1.39.7,1.7,3.41-.69,4.46.39.81,1.15-.88,1.38-1.37.91-.5-.64,1.66-1,2.06.63,0,.87,1.68,1.71,3.09-4.38-4.78-8.67-9.64-12.71-14.77-.31,1.46,1.46,3.8,1.72,5.84-1.88-1.22-3.27-2.91-5.15-4.12.38,1.68.75,3.37,1,5.15-1.84-.8-3.32-2-5.15-2.75V67c1.58.82,2.53,2.27,4.12,3.09-.33-2.07-.7-4.11-1-6.18a22.27,22.27,0,0,1,3.78,4.46c-1.27-5.6-4.33-12.38-6.19-18.55A14.18,14.18,0,0,1,109.93,53.59Zm1,1c.45-.45.22-1-.34-1.37C110.17,53.71,110.41,54.29,111,54.62Zm14.09,24.05a2.5,2.5,0,0,1,.69-1c.37.88-1.48,1.2-.35,1.72,1.23-.89.29-2.49-.34-3.44a1.68,1.68,0,0,1-.69,1.72c-.07-.65.39-.76.35-1.37-1.51-1.65-2-4.39-2.75-5.84-.55,2.21,2,4.12,2.4,6.52-3.9-6.06-7.61-12.31-11-18.89,1.7,1.5,2.42,4,4.12,5.5.71-.76-.17-1.85-.69-2.41-.32.64,1,1.15,0,1.37-.8-1.12-1.52-2.8-2.4-4.12s-1.89-3.14-3.09-3.09C115.76,63.22,120.17,71.18,125.05,78.67Zm-3.44-7.9c1.21-1.39-1.1-.81,0,0Zm-.34-.69c.08-1.86-2.2-4.16-3.09-6.18C118.1,65.76,120.38,68.06,121.27,70.08Zm-3.43-5.84c1.2-1.39-1.11-.81,0,0Z"/><path class="cls-1" d="M119.55,61.49c2.33,1.22,3.21,3.89,4.13,6.53C122,67.51,120.23,64.14,119.55,61.49Z"/><path class="cls-1" d="M114.4,56.34c-.67.31-2-1.71-2.41-2.75C113.18,54.12,113.61,55.41,114.4,56.34Z"/><path class="cls-1" d="M118.52,59.43c-1.4-.66-3.53-3.56-5.15-5.15C115.19,54.52,117.54,57.21,118.52,59.43Z"/><path class="cls-1" d="M117.15,56c1.5-.24,3.53,2,4.12,3.78C120.18,59.6,117.9,57.65,117.15,56Z"/><path class="cls-1" d="M113,53.59c-.71.91-1.78-2.54-2.75-1.37-.54-.12.3-.61-.35-.69C110.81,51,112.41,52.7,113,53.59Z"/><path class="cls-1" d="M48.78,52.56c-1.44-.18-1.92.6-3.09.69V51.19c1.37,0,2.06-.69,3.44-.69a2.93,2.93,0,0,0-.35,2.06c1.24.09,1.66-.63,2.75-.69.08,1.8-1.5,1.94-2.75,2.41Z"/><path class="cls-1" d="M121.61,50.84c.81-.89,2.17.56,3.44.35v2.06c-1.09,0-1.51-.78-2.75-.69-.74-.06-.15,1.22-.34,1.72-1.25-.47-2.83-.61-2.75-2.41,1,.06,1.43.63,2.4.69C122.18,52.72,122.18,50.69,121.61,50.84Z"/><path class="cls-1" d="M58.75,51.19c-1.12,1.4-3.15,1.9-4.13,3.43C54.17,53,57.11,51.85,58.75,51.19Z"/><path class="cls-1" d="M112,51.53c1.36-.32,3.65,1.39,4.47,2.75C115.34,54.36,113.66,52.05,112,51.53Z"/><path class="cls-1" d="M59.09,55c-3.51,7.48-9.2,15.76-13.4,23.7-1.85-.54,1.13-2.62,0-3.43,1-.54,2-3.35,3.09-4.81-.19,2.22-2.67,5.11-3.43,7.9,1.3-2.48,3.62-5.77,3.78-8.25,1.81-1.74,3.07-5,4.81-7.56S57.82,57.55,59.09,55Z"/><path class="cls-1" d="M47.75,57.37A7,7,0,0,1,50.5,56c-.3,1.76-1.63,2.49-2.75,3.43C47.09,59.39,48.16,58.28,47.75,57.37Z"/><path class="cls-1" d="M120.24,56.34c1.33-.74,2.93,1.18,3.09,2.75C122.32,59.52,120.71,57.59,120.24,56.34Z"/><path class="cls-1" d="M45.35,67.33c.25,1.18-.68,4.13-1.38,5.5C42.94,70.87,44.22,68.27,45.35,67.33Z"/><path class="cls-1" d="M125.05,67.68c1.35-.31,2.39,2.64,2.06,5.15C125.61,71.92,126,69.15,125.05,67.68Z"/><path class="cls-1" d="M44.32,84.17c1.68-2.78,6.33-5.58,8.93-8.59C53.9,80.69,47.25,81.49,44.32,84.17Z"/><path class="cls-1" d="M57.72,79.36c-2.11.53-3.8,1.47-5.85,2.06.59-3.19,4-3.54,5.85-5.5,1.05.86-.42,2.09,0,3.44,2-.59,3.73-1.53,5.84-2.06v4.12c-2.3.22-4.32.72-6.53,1A21.85,21.85,0,0,1,57.72,79.36Z"/><path class="cls-1" d="M118.87,81.42c-1.9-.63-3.71-1.33-5.5-2.06-.79.59.56,1.93.34,3.09-2.21-.31-4.23-.81-6.52-1V77.3a41,41,0,0,1,5.49,2.06c1-.86-.41-2.09,0-3.44C114.88,77.62,118.14,78.25,118.87,81.42Z"/><path class="cls-1" d="M117.15,75.58c3.38,2.57,6.23,5.68,9.62,8.24C123.77,82.24,117.55,80.9,117.15,75.58Z"/><path class="cls-1" d="M125.05,77c.41-.27.06.94,0,1C124.51,78.89,124.47,77.34,125.05,77Z"/><path class="cls-1" d="M39.51,78.33c.56.41,1.67,3.35,1,2.75C40.39,80,38.84,79.17,39.51,78.33Z"/><path class="cls-1" d="M130.89,78.33c1.38.37-.35,1.68-.69,2.4C129.42,82.26,130.8,79.14,130.89,78.33Z"/><path class="cls-1" d="M43.29,79.36Z"/><path class="cls-1" d="M127.45,79.36Z"/><path class="cls-1" d="M38.13,80.05c.83.66,1.14,1.83,2.06,2.4C39.82,82.8,37.41,80.84,38.13,80.05Z"/><path class="cls-1" d="M132.26,80.05c1.52.59-.77,1.81-1.37,2.4C130.11,82.91,132.22,81,132.26,80.05Z"/><path class="cls-1" d="M36.42,82.45c1-1.77,2.08,1,3.43,1C38.9,84.3,37.75,82.39,36.42,82.45Z"/><path class="cls-1" d="M50.84,83.82c-2.29.23-4.31.73-6.52,1,1.91-1.41,4.56-2.08,6.87-3.09.25,1-.59,1-.35,2.06,2.08-.33,4.11-.7,6.19-1,.25,1-.59,1-.35,2.06H50.5A1.57,1.57,0,0,0,50.84,83.82Z"/><path class="cls-1" d="M119.55,81.76c2.39.82,4.49,1.93,6.87,2.75-1.5.58-4.19-.6-6.18-.69.37,1.87-4,.72-6.18,1,.25-1-.6-1-.35-2.06,1.93.36,4,.59,5.84,1C120.6,83.4,119.18,82.64,119.55,81.76Z"/><path class="cls-1" d="M134.33,82.11c-.8.81-2.11,1.1-3.1,1.71C131.09,83.55,133.28,81.23,134.33,82.11Z"/><path class="cls-1" d="M56.68,85.2c-.24,1,.6,1,.35,2.06-1.93-.36-4-.58-5.84-1-1,.42.37,1.18,0,2.06-2.39-.82-4.49-1.93-6.87-2.75,1.5-.57,4.19.61,6.18.69C50.13,84.36,54.5,85.51,56.68,85.2Z"/><path class="cls-1" d="M119.9,86.23c-2.08.33-4.11.7-6.19,1-.25-1.05.6-1,.35-2.06h6.18a1.59,1.59,0,0,0-.34,1c2.29-.22,4.31-.73,6.52-1-1.91,1.41-4.56,2.08-6.87,3.09C119.3,87.24,120.15,87.28,119.9,86.23Z"/><path class="cls-1" d="M44,86.23c3,1.58,9.22,2.92,9.62,8.24C50.21,91.91,47.36,88.8,44,86.23Z"/><path class="cls-1" d="M57,87.6c2.21.31,4.23.81,6.53,1v4.13a42,42,0,0,1-5.5-2.06c-1.05.85.41,2.08,0,3.43-2.2-1.7-5.46-2.33-6.19-5.5,1.9.63,3.71,1.34,5.5,2.07C58.16,90.11,56.81,88.76,57,87.6Z"/><path class="cls-1" d="M126.42,85.89c-1.68,2.78-6.33,5.57-8.93,8.58C116.84,89.36,123.49,88.56,126.42,85.89Z"/><path class="cls-1" d="M113,90.7c-2,.58-3.74,1.53-5.84,2.06V88.63c2.29-.22,4.31-.72,6.52-1a23.51,23.51,0,0,1-.68,3.1c2.1-.54,3.79-1.48,5.84-2.07-.59,3.2-4,3.54-5.84,5.5C112,93.28,113.44,92.05,113,90.7Z"/><path class="cls-1" d="M39.85,86.23c-1,.58-2.11,2.52-3.43,1.72A9.46,9.46,0,0,1,39.85,86.23Z"/><path class="cls-1" d="M131.23,86.57c-.28-.88,2,1,3.1,1C133.55,89.25,132.16,86.92,131.23,86.57Z"/><path class="cls-1" d="M56,101.35c.31-1.47-1.46-3.81-1.72-5.85,1.88,1.22,3.28,2.91,5.15,4.13-.38-1.68-.75-3.38-1-5.16,1.84.8,3.32,2,5.16,2.75v5.84C62,102.24,61,100.79,59.43,100c.33,2.08.7,4.11,1,6.18a22.27,22.27,0,0,1-3.78-4.46c1.28,5.6,4.33,12.39,6.19,18.55a14.3,14.3,0,0,1-2.06-3.78c-.27,1.89-2.47-.06-1-1.37,0-.81-.94.12-.69.68-2-1.34-3.62-4.85-4.81-5.84.06-1-.29-.43-1-1-2.18-1.73-4.41-6.08-5.5-9.62a.69.69,0,0,1,.35-.68c-.7-1.8-2.16-2.94-2.07-4.13-.19-1-.53.53-1,.35a13.06,13.06,0,0,0,1.38,4.81c-1.6,0-1.94-4.25-2.41-6.53a1.68,1.68,0,0,1,.69,1.72c1.39-.7-1.7-3.41.69-4.47-.39-.8-1.15.88-1.38,1.38-.91.49.64-1.66,1-2.07-.63,0-.87-1.67-1.71-3.09C47.67,91.35,52,96.22,56,101.35Zm4.12,15.45c.45-.45.21-1-.34-1.37C59.33,115.89,59.57,116.47,60.12,116.8ZM58.75,113c-1.73-3.53-4.42-7-6.53-10.65-2.24-3.83-4-7.73-6.53-11a2.44,2.44,0,0,1-.69,1c-.37-.87,1.48-1.2.35-1.71-1.23.88-.29,2.48.34,3.43a1.69,1.69,0,0,1,.69-1.72c.08.65-.39.76-.35,1.38,1.51,1.64,2,4.38,2.75,5.84.55-2.22-2-4.12-2.4-6.53,3.9,6.06,7.61,12.32,11,18.89-1.7-1.5-2.42-4-4.12-5.49-.71.75.17,1.85.69,2.4.32-.64-1-1.15,0-1.37a59.13,59.13,0,0,0,5.15,7.56C59.64,114.26,59,113.53,58.75,113Zm-9.62-12.72c1.2-1.38-1.11-.81,0,0Zm.34-.34c-.08,1.86,2.2,4.17,3.09,6.18C52.64,104.3,50.36,102,49.47,100Zm3.44,6.87c1.2-1.39-1.11-.81,0,0Z"/><path class="cls-1" d="M47.07,102c1.67.51,3.44,3.89,4.12,6.53C48.86,107.34,48,104.67,47.07,102Z"/><path class="cls-1" d="M58.75,116.46c-1.19-.53-1.62-1.82-2.41-2.75C57,113.4,58.29,115.42,58.75,116.46Z"/><path class="cls-1" d="M52.22,110.62c1.4.67,3.53,3.57,5.15,5.15C55.55,115.53,53.2,112.84,52.22,110.62Z"/><path class="cls-1" d="M49.47,110.28c1.09.17,3.37,2.12,4.12,3.78C52.09,114.29,50.06,112.1,49.47,110.28Z"/><path class="cls-1" d="M60.46,117.84c.39.06.19.34,0,.34-.06.29.14.32.35.34-.88.52-2.48-1.17-3.09-2.06C58.42,115.55,59.49,119,60.46,117.84Z"/><path class="cls-1" d="M112.68,116.12c.66,1-1.57,2.08-2.4,2.75-.54-.13.3-.61-.35-.69.07-.39.35-.19.35,0C111.54,118,112,116.91,112.68,116.12Z"/><path class="cls-1" d="M113.71,116.12c0-2,3.57-3.53,4.47-5.84C118.47,112.64,115.33,114.53,113.71,116.12Z"/><path class="cls-1" d="M120.93,109.93c.48,1.87-2,3.75-3.78,4.47C117.57,112.07,119.86,111.62,120.93,109.93Z"/><path class="cls-1" d="M114.06,113.37c.58.83-1.2,2.22-1.72,3.09C111.59,115.47,113.84,114.54,114.06,113.37Z"/><path class="cls-1" d="M122.64,98.6c-.26,3.74-3.09,7.9-5.49,10.65C117.63,105.83,120.51,102.78,122.64,98.6Z"/><path class="cls-1" d="M123.33,101.69c.26,2.32-1.69,5.41-3.43,6.87C119.55,106.15,122,103.6,123.33,101.69Z"/><path class="cls-1" d="M126.08,91.73c-.12-.46-.6-.54-.69-1-4,5.78-7.28,12.45-11,18.89-1.14,2-3.3,3.76-3.09,6.18,2.17-3,4.23-6.07,6.18-9.27.86.54-1.72,2.36-.69,3.09-1.22,1-5.3,7.39-6.18,7.56-.94-.91,1.36-.32.34-1.72a15.21,15.21,0,0,0-2.74,4.81c1.13-5.74,4.19-12.53,6.18-18.55a31.16,31.16,0,0,0-3.78,4.46c-.55-1.36.49-4.08.69-5.84-1-.22-2.69,1.89-3.78,2.75-.8-1.26-.12-4-.34-5.84a36.27,36.27,0,0,0,4.8-2.75c.61,1.08-.41,3.47-.68,4.81,1.33-.16,3.42-2.52,4.81-3.78.45,1.61-1.3,4-1.72,5.85,4.34-4.82,8.63-9.69,12.71-14.78.25.59-1,3.58-1.37,2.75.07,1.31,1.44,1.3,1.37,2.75-.33,0-.27-.42-.34-.69-.28,1.15-1.57,2.57-1,3.44.51-.29.49-1.11.68-1.72.45,1.94-.62,5.32-1.71,6.87C125.53,97.53,125.09,94.25,126.08,91.73ZM125.39,90c-.06.86.53,1.07,1,1.37C126.48,90.52,125.9,90.31,125.39,90Z"/><path class="cls-1" d="M39.85,87.26c.66.68-1.4,1.56-1.37,2.75C36.84,89.24,39.64,88.32,39.85,87.26Z"/><path class="cls-1" d="M130.55,87.6c.37-.35,2.78,1.62,2.06,2.41C131.78,89.35,131.47,88.17,130.55,87.6Z"/><path class="cls-1" d="M39.85,91.73c-1.38-.38.35-1.69.69-2.41C41.32,87.8,39.94,90.92,39.85,91.73Z"/><path class="cls-1" d="M131.23,91.73c-.56-.42-1.67-3.36-1-2.75C130.35,90.06,131.9,90.89,131.23,91.73Z"/><path class="cls-1" d="M43.63,90.35c1.37-1.5-1.74,1.92,0,0Z"/><path class="cls-1" d="M127.11,90.35Z"/><path class="cls-1" d="M125.05,91.38a1,1,0,0,1,.69,1A40.42,40.42,0,0,1,122,99.63c.19-2.22,2.67-5.11,3.43-7.9-1.3,2.47-3.62,5.76-3.78,8.24-1.35.64-1.7,2.78-2.74,4.47a98.8,98.8,0,0,1-6.53,9.27c-2.12,2.69.27-.39,1-1.72C116.79,106.05,120.57,98.93,125.05,91.38Z"/><path class="cls-1" d="M45.69,91.73c.41-.28.06.93,0,1C45.15,93.66,45.11,92.11,45.69,91.73Z"/><path class="cls-1" d="M43.63,97.22c1.5.91,1.13,3.68,2.06,5.16C44.34,102.69,43.3,99.74,43.63,97.22Z"/><path class="cls-1" d="M126.77,97.22c1,2-.25,4.56-1.38,5.5C125.14,101.54,126.07,98.6,126.77,97.22Z"/><path class="cls-1" d="M99.63,116.12c.08-.61.59-.79,1.37-.69-.9-2-2.84-2.89-3.43-5.15a1.52,1.52,0,0,0,1.37-.69c1.57,1.06,2.28,3,3.09,4.81.13.58-.27.65-.69.69,1,1.92,2.6,3.13,3.78,4.81C103.52,119.78,101.62,117,99.63,116.12Z"/><path class="cls-1" d="M47.41,111c1-.42,2.62,1.5,3.09,2.75-.71.81-2-.73-2.75-1C47.56,112.18,48.15,110.91,47.41,111Z"/><path class="cls-1" d="M123,110.62c.65,1.35-.91,3.44-2.75,3.44C120.54,112.29,121.87,111.56,123,110.62Z"/><path class="cls-1" d="M73.86,116.12c-.44-.89-1.63-.16-1.72-.69,1-1.61,2.9-2.37,4.13-3.78a8.24,8.24,0,0,1,3.43,1c-1.49,1.37-3.93,1.8-5.49,3.09a10.15,10.15,0,0,0,3.43,1c-3.6,1.68-7.86,2.68-11.68,4.13C67.2,119.3,71.41,117.67,73.86,116.12Z"/><path class="cls-1" d="M54.28,115.77c1.12-.08,2.8,2.24,4.47,2.75C57.39,118.84,55.1,117.14,54.28,115.77Z"/><path class="cls-1" d="M116.12,115.43c.45,1.6-2.49,2.78-4.13,3.44C113.11,117.46,115.14,117,116.12,115.43Z"/><path class="cls-1" d="M48.78,115.77c1.25.47,2.83.61,2.75,2.41-1-.06-1.43-.63-2.4-.69-.56-.15-.56,1.87,0,1.72-.81.9-2.17-.56-3.44-.34V116.8c1.09.06,1.51.78,2.75.69C49.18,117.55,48.6,116.27,48.78,115.77Z"/><path class="cls-1" d="M122,117.49c-1.24-.09-1.66.64-2.75.69-.08-1.8,1.5-1.94,2.75-2.41v1.72c1.44.18,1.92-.6,3.09-.69v2.07c-1.37,0-2.06.68-3.44.68A2.91,2.91,0,0,0,122,117.49Z"/><path class="cls-1" d="M92.76,117.15c4.32-2.49,8.09,2,12,3.78C101.37,120.44,96.64,118.31,92.76,117.15Z"/><path class="cls-1" d="M55.65,119.21c.84-.71,2.26.93,3.44,1C59.59,120.81,56.22,119.81,55.65,119.21Z"/><path class="cls-1" d="M115.09,118.87c-.35,1.36-2.47,1-3.44,1.71C111.42,120,114.05,119.33,115.09,118.87Z"/><path class="cls-1" d="M58.75,121.27c3.3-.27-5.25.67,0,0Z"/><path class="cls-1" d="M112,121.27c.61.2,2-.41,2.07.34H112C111,121.29,111,120.46,112,121.27Z"/><path class="cls-1" d="M85.2,123.68c-2.19-.79-5.58-.38-7.9-1H71.8c-.61.1-.7-.32-.34-.34H99.63c.61-.1.7.33.34.34H93.44a60.65,60.65,0,0,1-7.9.69c5.08.71,10.85-.64,15.8-.34.12.81-3.6.74-4.8,1.37.08-.6.59-.78,1.37-.68-3.87-.67-8.73.66-12.37,1.37.84.53,2.24.51,3.44.69-1.73,1.79-5.38,1.45-7.56.34a7.49,7.49,0,0,1,3.78-.69c-3.52-1.29-7.92-1.7-12.37-2.06,0,.64,1.16.21,1.38.69-.94.46-3.31-.58-4.81-.69C72.46,122.51,79.22,123.81,85.2,123.68Z"/><path class="cls-1" d="M68.71,124.71c.92-.23,3,1.35,4.46,1.71C71.66,127.24,70.12,125.13,68.71,124.71Z"/><path class="cls-1" d="M101,124.36c.24,1.16-2.35,2.45-4.46,2.41C97.73,125.67,100,125.69,101,124.36Z"/><path class="cls-1" d="M60.46,128.48c.58-1.37,1.39-2.5,2.06-3.77.69.93-.82,2.59-1,3.77.23,1,.74-.32,1.38,0,.26,1.64-.54,2.22-.35,3.78-1-.09-1.33,1.1-2.06.35C60.83,131.69,62.57,128.72,60.46,128.48Z"/><path class="cls-1" d="M67.33,125.05c.34-.31,3.08,1.31,2.41,2.06C68.52,126.84,68.48,125.39,67.33,125.05Z"/><path class="cls-1" d="M102.72,124.71c.4.75-1.32,2.33-2.41,2.74C99.62,126.4,102.58,126.06,102.72,124.71Z"/><path class="cls-1" d="M103.75,124.71c.39.06.19.34,0,.34C103.29,128.64,102.42,127.3,103.75,124.71Z"/><path class="cls-1" d="M105.81,124.71c.25.16-.39,2.33-.69,3.09C103.79,127.72,105.69,125.56,105.81,124.71Z"/><path class="cls-1" d="M67.68,127.8c.13-1.39-.94-1.58-1.38-2.41.79-.88,1.33,1.41,2.06,1.72-1.29,1,.32,2.47,1,3.44-.08.49-1,.12-1,.68-1-.76-1.21-2.21-1.71-3.43Z"/><path class="cls-1" d="M64.93,125.39c.49.75,1.51,2.1,1,2.75C65.15,127.69,65.3,126.28,64.93,125.39Z"/><path class="cls-1" d="M56,145c-.67,2.65-1.76,4.89-2.41,7.56a84.37,84.37,0,0,0-10.3,6.19c1-3.27,4.19-7.26,5.84-11C51.43,146.82,53.68,145.86,56,145Z"/></g></g></svg>