<svg xmlns="http://www.w3.org/2000/svg" viewBox="0 0 605.39 563.26"><defs><style>.cls-1,.cls-6{fill:none;stroke:#231f20;stroke-miterlimit:10;}.cls-1{stroke-width:2px;}.cls-2,.cls-4{fill:#662d91;}.cls-3,.cls-5{fill:#fbb040;}.cls-4,.cls-5{font-size:26.5px;font-family:Gotham-Bold, Gotham;font-weight:700;}.cls-6{stroke-width:1.5px;}</style></defs><g id="Layer_2" data-name="Layer 2"><g id="Layer_1-2" data-name="Layer 1"><path class="cls-1" d="M1.38,104.78,131.59,40.7l49-18.39L239.84,1.12s44.18,32.94,120.77,0c0,0,76.6,4.34,118.21,34.73s125.11,75.31,125.11,75.31l-60.77,88.35S491.59,164,481.38,196.7s21.44,354.89,21.44,354.89-199.66,24-391.66,0L122.4,198.74s9-44.48-74.56-8.68Z"/><rect class="cls-2" x="300.12" y="34.53" width="3.54" height="320.04" transform="translate(496.44 -107.35) rotate(90)"/><polygon class="cls-2" points="461.72 194.55 461.72 184.09 470.78 189.32 479.84 194.55 470.78 199.78 461.72 205.01 461.72 194.55"/><polygon class="cls-2" points="142.43 194.55 142.43 184.09 133.37 189.32 124.31 194.55 133.37 199.78 142.43 205.01 142.43 194.55"/><rect class="cls-3" x="366.99" y="23.91" width="3.63" height="516.65"/><polygon class="cls-3" points="368.8 24.11 358.08 24.11 363.44 14.82 368.8 5.53 374.17 14.82 379.53 24.11 368.8 24.11"/><polygon class="cls-3" points="368.8 538.37 358.08 538.37 363.44 547.66 368.8 556.95 374.17 547.66 379.53 538.37 368.8 538.37"/><text class="cls-4" transform="translate(160.13 186.48)">LARGURA</text><text class="cls-5" transform="translate(358.67 404.04) rotate(-90)">ALTURA</text><path class="cls-6" d="M240.12,1.84S246,70.43,301.81,68.73,360.88,1.84,360.88,1.84"/></g></g></svg>