<svg xmlns="http://www.w3.org/2000/svg" viewBox="0 0 920.65 920.65"><defs><style>.cls-1{fill:#231f20;stroke:#fff;stroke-miterlimit:10;stroke-width:6px;}.cls-2{fill:#fff;}.cls-3{fill:#010101;}</style></defs><g id="Layer_2" data-name="Layer 2"><g id="Layer_1-2" data-name="Layer 1"><circle class="cls-1" cx="460.33" cy="460.33" r="457.33"/><rect class="cls-2" x="221.46" y="170.91" width="493.49" height="580.17"/><path class="cls-3" d="M525.61,518.54q-15,0-28.28,16.63V468.22H469.48v205h27.85v-15q13.73,17.06,28.28,17,17,0,22-17.46,2.91-8.75,2.91-30.36V566.75q0-22-2.91-30.76Q542.65,518.53,525.61,518.54Zm-2.5,111c0,13.6-4,20.37-12.06,20.37q-7.07,0-13.72-6.64V550.13c4.44-4.42,9-6.65,13.72-6.65q12,0,12.06,20.79Z"/><path class="cls-3" d="M613.74,518.54q-21.19,0-33.26,15.8-8.31,11.2-8.31,35.75v53.65q0,24.53,8.73,35.75,12,15.81,33.68,15.8,22,0,33.26-16.64A39,39,0,0,0,654.08,642a139.67,139.67,0,0,0,.83-17.89V620.4H626.63v8.93q0,4.35-.2,6.87c-.14,1.65-.21,2.63-.21,2.9-1.66,7.22-5.82,10.8-12.47,10.8q-14.14,0-14.13-21.19v-27h55.29V570.09q0-24.11-8.72-35.75Q635,518.56,613.74,518.54Zm13.31,60.28H599.61V564.68q0-21.21,13.72-21.2t13.72,21.2v14.14Z"/><path class="cls-3" d="M417.91,637q-9.14,12.88-17.46,12.88-5.82,0-6.23-6.24c-.28-.54-.42-4.15-.42-10.8V520.62H366.37V641.19q0,15.81,2.49,22.44,3.75,11.67,17.46,11.65,15.38,0,31.6-18.71V673.2h27.86V520.62H417.92V637Z"/><path class="cls-3" d="M454.1,363.87q13.29,0,13.3-21.21V277.79q0-21.62-13.3-21.62t-13.31,21.62v64.87Q440.79,363.86,454.1,363.87Z"/><polygon class="cls-3" points="265.75 497.33 298.18 497.33 298.18 673.2 328.94 673.2 328.94 497.33 362.2 497.33 362.2 468.22 265.75 468.22 265.75 497.33"/><path class="cls-3" d="M659.9,141H260.76q-49.48,0-84.61,35.13T141,260.76V659.9q0,49.47,35.14,84.59t84.61,35.15H659.9q49.47,0,84.61-35.15t35.13-84.59V260.76q0-49.48-35.13-84.62T659.9,141Zm-141.78,92.3H546V346.4c0,6.65.14,10.26.42,10.81.27,4.46,2.49,6.66,6.64,6.66q8.31,0,17.46-12.89V233.31h27.86V387.15H570.5V370.51q-17,18.72-32,18.72-13.32,0-17.88-11.23-2.49-7.47-2.49-22.86V233.31ZM412.93,283.2q0-24.09,8.73-36.16,11.22-15.78,32.43-15.8,20.36,0,32.42,15.8,8.75,12.06,8.73,36.16v54.05q0,24.94-8.73,36.17-12.06,15.81-32.42,15.8-21.19,0-32.43-15.8-8.73-12-8.73-36.17V283.2ZM338.09,180.51l22,81.08,21.2-81.08h31.19L375.1,303.59v83.56H344.33V303.59q-4.57-22.87-19.12-65.7-2.93-9.54-9.57-28.69t-10-28.68h32.43Zm342.6,501.83A58.46,58.46,0,0,1,663,712.7a54.5,54.5,0,0,1-31.39,14.55q-57,6.24-171.3,6.24T289,727.25a54.5,54.5,0,0,1-31.39-14.55A58.29,58.29,0,0,1,240,682.34q-8.31-34.9-8.31-108.1,0-71.91,8.31-108.1a57.56,57.56,0,0,1,17.67-30.55,55.49,55.49,0,0,1,31.81-14.35Q346,415,460.34,415q114.75,0,171.3,6.24a56.1,56.1,0,0,1,31.6,14.35,56.92,56.92,0,0,1,17.87,30.55q7.9,34.53,7.9,108.1Q689,647.42,680.69,682.34Z"/></g></g></svg>