<svg xmlns="http://www.w3.org/2000/svg" viewBox="0 0 820.06 223.15">
  <defs>
    <style>
      .cls-1{fill:#fff}
    </style>
  </defs>
  <g id="Layer_2" data-name="Layer 2">
    <g id="Camada_1" data-name="Camada 1">
      <path class="cls-1" d="M55.04 30.5h59.61l7.51-28H30.7L0 116.5h31.85l10.94-41h53.89l7.02-25.99H49.81l5.23-19.01zM147.64 81.5h14l15.19 35h34.95L194.18 78c23.36-6.37 34.3-21.37 34.3-40.47 0-9.15-2.78-17.19-8.82-23.24C212 6.63 199.41 2.5 180.3 2.5h-43.11l-30.71 114h31.85zm14-52h17.15c6.7 0 11.43 1.42 14 4a11.3 11.3 0 012.94 7.91c0 9.8-9.31 16.06-23.52 16.06h-18.04zM247.59 116.5l13.72-20h44.09l2.78 20h33.32l-17.81-115h-31l-79.53 115zm51.12-77.82l4.08 32.82h-25.48zM453 97.5l-21.39-19c-7.35 7.35-14.54 11.6-24.5 11.6-13.23 0-22.86-9-22.86-23.52 0-19.92 15.18-37.72 34.13-37.72 11.27 0 18.46 5.39 23 14.69l27.43-14.69C462 11.27 445.86 0 422.5 0c-43.93 0-71.37 35.11-71.37 68.92 0 30.54 22.38 50 54.06 50 21.72-.03 36.75-8.85 47.81-21.42zM485.38 116.5h31.85l23.19-86h34.3l7.34-28H481.95l-7.51 28h34.3l-23.36 86zM575.37 116.5l13.72-20h44.09l2.78 20h33.32l-17.81-115h-31l-79.54 115zm51.12-77.82l4.08 32.82h-25.48zM716.97 88.5l23.19-86h-31.85l-30.7 114H764l7.51-28h-54.54zM52.32 181.22L38.78 144.5H24.92l-20.85 77h13.64l14.86-55.41 14.31 36.41h.44l34.17-36.64-14.98 55.64h13.87l20.85-77H85.59l-33.27 36.72zM172.77 144.5l-11.87 44c-1.88 7.32-4.88 12.56-8.54 16.22a20 20 0 01-14.53 5.84c-10.76 0-16.3-6.23-16.3-15a31.8 31.8 0 011.11-8.39l11.42-42.67h-13.64l-10.87 40.77a43.56 43.56 0 00-1.78 12.23c0 15.75 10.54 25.58 28.73 25.58 10.76 0 19.08-3.34 25.4-9.67 5.44-5.43 9.43-12.82 12.09-22.81l12.42-46.1zM226.9 143.07c-16.64 0-29.84 9.76-29.84 24.4 0 10.76 8.1 16.09 20 20.86 11.09 4.32 14.3 7.09 14.3 11.75 0 6.44-6.32 10.76-15 10.76-10 0-17.08-3.77-23.4-11l-10.32 8.54c7.1 9.43 18.3 14.53 32.94 14.53 16.42 0 30.28-9.65 30.28-24.84 0-10.76-7.43-16.2-19.3-20.86-11.2-4.43-15.08-6.87-15.08-11.86 0-5.22 5.32-10.21 14.42-10.21 8.09 0 14.08 3.11 20 8.88l9.54-9.32c-6.36-6.97-15.68-11.63-28.54-11.63zM256.29 221.5h13.75l20.85-77h-13.75l-20.85 77zM343.8 142.85c-26 0-46.92 22.29-46.92 47.25 0 20.41 15.08 33.05 35.05 33.05 13.42 0 22.52-5.21 29.84-12.31l-9-9.09c-6.1 5.32-11.87 8.87-20.63 8.87-12.31 0-21.07-8.32-21.07-21.07 0-18.19 14.53-34.17 31.17-34.17 10.2 0 15.86 4.66 20.52 11.76l11.31-7.65c-5.76-10.1-15.63-16.64-30.27-16.64zM518.82 144.5l-33.94 57.18-3.77-58.18h-11.54l-34.27 58.18-3.21-57.18h-14.2l6.1 78h12.31l33.5-55.12 3.99 55.12h12.53l48.03-78h-15.53zM557.86 156.5h43.37l3.33-12h-57.01l-20.85 77h57.56l3.33-12h-44.04l5.55-21h38.49l3.33-12h-38.49l5.43-20zM647.37 143.5l-55.13 78H607l13-18h36.72l3 18h14l-13.2-78zm-19.08 47L650 159.12l5 31.38zM733.55 144.5h-28.17l-20.86 77h13.76l7.21-27h16.19l13.31 27h15.64l-14.42-28.23c8.21-1.55 14.86-4.58 19.41-9.24a24.06 24.06 0 007.1-17.71 19.82 19.82 0 00-5.66-14.45c-4.99-5.11-12.64-7.37-23.51-7.37zm11.09 32.21c-3.66 3.77-10.09 5.79-18.3 5.79H708.7l7.1-26h17c6.21 0 10.43 1.39 13 3.83a9.93 9.93 0 012.77 7.08 12.76 12.76 0 01-3.93 9.3zM820.06 45.41c0 14.65-11.5 26.15-26.47 26.15-14.81 0-26.63-11.5-26.63-26.15 0-14.34 11.82-25.85 26.63-25.85 14.97 0 26.47 11.51 26.47 25.85zm-46.48 0c0 11.5 8.51 20.64 20.17 20.64 11.34 0 19.7-9.14 19.7-20.49 0-11.5-8.36-20.8-19.86-20.8s-20.01 9.3-20.01 20.65zM789.49 59h-6V33.12a51.82 51.82 0 019.93-.79c4.89 0 7.09.79 9 1.89a7.18 7.18 0 012.52 5.67c0 2.84-2.21 5-5.36 6v.32c2.52.94 3.94 2.83 4.73 6.3.78 3.94 1.26 5.51 1.89 6.46h-6.46c-.79-1-1.26-3.31-2-6.3-.48-2.84-2.05-4.1-5.36-4.1h-2.84zm.16-14.66h2.84c3.31 0 6-1.1 6-3.78 0-2.36-1.74-3.94-5.52-3.94a14.11 14.11 0 00-3.31.32z"/>
    </g>
  </g>
</svg>
