<svg xmlns="http://www.w3.org/2000/svg" >
  <path fill="#fff" fill-opacity="1" d="M0,32L30,64C60,96,120,160,180,160C240,160,300,96,360,64C420,32,480,32,540,58.7C600,85,660,139,720,133.3C780,128,840,64,900,53.3C960,43,1020,85,1080,90.7C1140,96,1200,64,1260,53.3C1320,43,1380,53,1410,58.7L1440,64L1440,320L1410,320C1380,320,1320,320,1260,320C1200,320,1140,320,1080,320C1020,320,960,320,900,320C840,320,780,320,720,320C660,320,600,320,540,320C480,320,420,320,360,320C300,320,240,320,180,320C120,320,60,320,30,320L0,320Z"></path>
</svg>