<svg xmlns="http://www.w3.org/2000/svg" viewBox="0 0 170.74 170.05">
  <defs>
    <style>
      .cls-1{fill:#fff;fill-rule:evenodd}
    </style>
  </defs>
  <g id="Layer_2" data-name="Layer 2">
    <g id="Layer_1-2" data-name="Layer 1">
      <path class="cls-1" d="M85.2 0c1.87 2.14 2.48 5.54 3.8 8.24a29.74 29.74 0 00-3.09 5.16c-2.08-1.13-2.79-3.63-4.13-5.5A69.7 69.7 0 0185.2 0zM76.27.69c2.25 1.75 3.19 4.82 5.15 6.87a51 51 0 01-2.75 6.18c-1.75-1.34-2.75-3.43-4.46-4.81.87-2.56.99-5.88 2.06-8.24zM67.68 2.06c2.32 1.78 3.93 4.31 5.84 6.53 0 2.47-1 4.07-1 6.53-1.92-.09-4-2.85-5.5-4.47a57.6 57.6 0 01.66-8.59zM59.09 4.12a63.71 63.71 0 017.56 7.22c.11 2.52-.88 3.93-.69 6.52-2.19-1-3.54-2.87-5.84-3.77.07-3.74-.77-6.57-1.03-9.97zM111.31 4.12c.83 3-.72 6.62-1 9.62-2 1.09-3.47 2.72-5.5 3.78.19-2.48-.44-4.14-.69-6.18a98.36 98.36 0 017.19-7.22zM50.84 7.56c3.24 1.8 5.7 4.38 8.94 6.18.09 2.88.83 5.12 1 7.9a50.37 50.37 0 00-6.87-4.12c-.73-3.6-2.38-6.3-3.07-9.96zM42.26 11.68c1.42 1.24 2 3.27 3.09 5.15 1 1.72 2.77 3.34 3.09 5.16.39 2.21-.92 4.4-.69 7.21-.25 1.26-2-1.21-2.75-2.06-1-1.21-2-2.6-2.74-3.44zM114.4 25.08c.57-2.75 1.91-4.74 2.4-7.56 3.7-1.8 6.78-4.22 10.65-5.84-1.54 3.72-4 6.51-5.49 10.31-2.75.8-4.86 2.24-7.56 3.09z"/>
      <path class="cls-1" d="M128.14 11.68c0 4.08 1.24 8.14.34 11.68-.76 3-4.33 4.24-5.15 6.53-.27-2.78-1.36-5.27-1-7.56.48-3.54 4.79-7.26 5.81-10.65zM85.2 14.43c1.4.88 1.76 2.82 2.75 4.12-.35 1.72-1.81 2.31-2.41 3.78a40.22 40.22 0 01-2.75-3.44c.57-1.72 1.77-2.81 2.41-4.46zM91.73 14.77a17.19 17.19 0 012.4 4.81c-1.09 1-1.93 2.19-3.43 2.75-.17-1.55-1.41-2-2.07-3.09.55-1.97 2.51-2.53 3.1-4.47zM78.67 15.12c1.34 1 2 2.52 3.44 3.43-.48 1.58-1.58 2.54-2.06 4.12a6.14 6.14 0 01-3.44-3.43c.92-1.14 1.23-2.9 2.06-4.12zM72.14 16.49a7.94 7.94 0 013.78 4.12 21.62 21.62 0 00-1.71 3.44c-1.08-1-2.59-1.54-3.44-2.75.53-1.53.97-3.15 1.37-4.81zM97.91 16.49c1.39.9 1.49 3.09 1.72 5.15-1.25.36-1.88 1.36-2.75 2.06-1.12-.93-1.61-2.51-2.06-4.12.86-1.19 2.38-1.74 3.09-3.09zM103.75 18.55c1.44.74.3 4.05 1 5.5-1 .77-2.28 1.15-3.09 2.06-.89-.95-.71-3-1.38-4.12.72-1.65 2.72-1.91 3.47-3.44zM66.3 18.89c1.72.58 2.63 2 4.13 2.75-.15 1.8-.88 3-1 4.81-1.3-.45-1.83-1.64-3.43-1.71-.28-2.31.31-3.74.3-5.85zM61.15 22a42.28 42.28 0 004.47 2.4c-.36 1.48-.14 3.53-.69 4.81-1.48-.24-2.11-1.32-3.44-1.72.24-2.19-.58-3.32-.34-5.49zM105.81 29.2c-.85-1 .09-3.76-.69-4.81 1.13-.93 2.81-1.32 3.78-2.4 1.84 1.27-.15 4.34-.34 5.84-.88.49-2.18.57-2.75 1.37zM85.2 22.67a7.89 7.89 0 012.4 3.1c-1.16.43-1.3 1.9-2.74 2.06a4.89 4.89 0 00-1.72-1.72c.53-1.3 1.52-2.11 2.06-3.44zM90.7 23a7.41 7.41 0 012.06 3.78c-2.06 1.94-3.66.81-4.47-1.72 1.26-.21 1.71-1.25 2.41-2.06zM79.7 23.36c2.76 1.79 3.11 2.64.69 5.15A8.55 8.55 0 0178 26.8c.19-1.51 1.23-2.2 1.7-3.44zM95.85 24.39c1.4.43.86 2.8 2.06 3.44-1.66 2.55-4 1.1-4.47-1.72a3.13 3.13 0 002.41-1.72zM74.21 24.74c1.46.14 1.45 1.75 3.09 1.71a10 10 0 01-2.06 3.44c-.45-.82-1.54-1-2.41-1.38a12.13 12.13 0 011.38-3.77zM113.37 25.77c.61-.1.7.32.34.34-.45 2.07-1.27 3.77-1.72 5.84-1.37 0-2.06.69-3.43.69a18.34 18.34 0 00.69-4.81c1.33-.73 3.15-.97 4.12-2.06zM56.68 26.45c1.21-.4 3.52 1.06 4.81 1.72-.26 1.87.43 2.78.35 4.47a18 18 0 01-3.44-1 14.34 14.34 0 00-1.72-5.19zM69.4 26.8a9.08 9.08 0 012.74 1.71c0 1.59-1.15 2-1.37 3.44-.86-.29-1.35-.94-2.41-1 .14-1.61.82-2.65 1.04-4.15zM100.66 26.8c1.43.4 1.25 2.41 1.37 4.12-1.25-.23-1.32.74-2.4.69a8.45 8.45 0 00-1.38-3.1c.57-.81 1.75-.97 2.41-1.71zM84.86 28.17c.9.81 2.07 1.36 2.4 2.75-.69.77-4 1.37-4.12-.34-.14-1.15 1.86-.91 1.72-2.41zM80.05 28.86c.92.56 2 .93 2.4 2.06-1.37 0-1.49 1.25-2.4 1.72-.55-.61-1.58-.72-1.72-1.72a2.78 2.78 0 001.72-2.06zM90 28.86c2.26.85 2.92 3 .34 3.78-1-.48-1.39-1.59-2.4-2.06.22-1.05 1.85-.68 2.06-1.72zM104.78 29.54c.77.95.71 2.73.69 4.47-1-.09-1.06.78-2.06.69.11-1.6-.69-2.29-.69-3.78.58-.57 1.54-.75 2.06-1.38zM65.62 29.89a20.87 20.87 0 002.4 1 32.62 32.62 0 01-1 3.78c-.65-.15-.86-.74-1.72-.69-.3-1.73.45-2.46.32-4.09zM75.24 30.23c1.14 0 1.17 1.12 2.4 1-.14 1.35-1.51 1.47-1.72 2.75a7.45 7.45 0 01-2.06-.69c-.02-1.47 1.14-1.81 1.38-3.06zM96.88 33.32c-1.22.3-.85 0-2.06.35-.64-.51-.52-1.78-1.72-1.72.81-2.86 3.9-1.3 3.78 1.37zM47.75 30.58c1.69 1.29 2.62 3.33 4.47 4.46a34.3 34.3 0 00-.69 3.44 12.79 12.79 0 01-4.12-3.1c-.02-1.74.59-2.84.34-4.8zM54.28 30.58c3.23.66 5.29 2.49 5.5 6.18-3.51-.39-4.24-3.55-5.5-6.18zM116.12 30.58c-.28 2-1.63 5.92-5.16 5.84a21.51 21.51 0 011-4.13c1.23-.75 3.14-.78 4.16-1.71zM122.64 30.58c1.8 4.21-.18 6.65-3.43 7.9a34.3 34.3 0 00-.69-3.44 18.82 18.82 0 004.12-4.46z"/>
      <path class="cls-1" d="M53.25 30.92c1.77 1.78 3.88 4.48 2.4 7.56a15.92 15.92 0 01-3.09-3.1c.09-1.62.79-2.64.69-4.46zM116.8 30.92c.63-.45 1.47 3.62 1.38 4.12-.29 1.64-2.21 2.13-2.75 3.44-2.43-2.65.69-5.05 1.37-7.56zM42.26 32.29c1.7 1.05 3.1 2.39 4.81 3.44 0 1.42-.6 2.15-.35 3.78a37.92 37.92 0 00-4.46-2.06zM71.11 32.29c.71.33 1.36.7 2.06 1-.34 1.15-1.37 1.6-1.71 2.75a2.23 2.23 0 00-1.72-.34 12.07 12.07 0 011.37-3.41zM98.94 32.29c1.18.54 1.6 1.84 2.06 3.09-.21.48-1.32.06-1.37.69-1.23-.37-1.15-2.06-2.06-2.75-.15-.95 1.28-.32 1.37-1.03zM128.14 32.29c.79 1 .12 3.55.34 5.16a15 15 0 00-4.12 2.06c-.55-.93-.44-2.54-.68-3.78a31.48 31.48 0 004.46-3.44zM87.26 34a2.56 2.56 0 01-4.12.34c.86-1.96 2.97-1.86 4.12-.34zM92.07 35c-1.29 1.26-2.6.3-3.78-.34.61-2.26 3.37-1.66 3.78.34zM62.52 33.32a13.05 13.05 0 002.41.69 7.06 7.06 0 01-.69 3.44c-2.09.15-1.62-2.28-1.72-4.13zM82.11 34c-.11 1.16-1.53 1-1.72 2.06-1.09.06-1.15-.91-2.41-.69.6-1.45 2.59-2.8 4.13-1.37zM107.87 33.32c1 .93-.19 2.54 0 3.78-1-.28-.89.49-1.72.35.27-1.53-.45-2.07-.34-3.44.99.07 1.75-.09 2.06-.69zM75.92 34.35c.54.15.3 1.08 1.38.69-.17 1.32-1.89 1.09-2.06 2.41-.51-.18-.87-.51-1.38-.69a10.64 10.64 0 012.06-2.41zM94.47 34.35c1.45.16 1.59 1.63 2.75 2.07-.31.6-1.2.62-1.72 1 0 1.4 1.7 1 1.72 2.4-1.71.34-2-.7-3.09-1-.3-1.1.89-.71 1-1.37-.4-.74-.74-1.55-1.72-1.72-.27-1.1.92-.73 1.06-1.38zM67 35c1.05-.25 1.25.35 2.06.34-.71 1.13-.25 3.42-2.4 3.1.08-1.13.53-1.94.34-3.44zM103.41 35a4.52 4.52 0 00.68 2.41c.11.79-1 .38-1 1-.86-.63-.85-2.13-1.72-2.75.32-.5 1.43-.3 2.04-.66zM36.76 35.38c2 .57 3.39 1.65 5.15 2.41v3.78c-1.63-.2-2.63-1-4.46-1-.12-1.86-.57-3.36-.69-5.19zM133.29 40.54c-1.83 0-2.83.83-4.46 1v-3.75c1.45-.84 3.21-1.37 4.46-2.41 1.58.7-.29 3.49 0 5.16zM87.6 37.1c-1.63 1-2.82.95-4.81.35 1.1-1.64 3.33-1.51 4.81-.35zM89.32 36.07c1.62.1 2 1.41 3.44 1.72-1.39 1.6-2.66.42-4.13-.34.01-.69.94-.45.69-1.38zM71.46 36.42c1-.29.89.48 1.71.34-.76 1-1.5 3.38-3.09 2.4.44-.93.99-1.76 1.38-2.74zM82.11 37.1c-1.35 1-2.63 2.22-4.47 1 1.14-1.32 2.6-2 4.47-1zM99.63 36.42c-.15 1.29 1.66 1.66.68 2.74a2.88 2.88 0 01-2.4-2.4 2.23 2.23 0 011.72-.34zM110.28 37.1c-.71 1.36-.59 3.53-1.72 4.47-1.29-.9-.86-5.24 1.72-4.47zM76.61 37.79c-.78 1.3-1.72 2.62-3.44 2.06a3.43 3.43 0 013.44-2.06zM105.47 37.79c.66.5 1.12 3 .34 3.78-1.28-.32-1-2.22-1.37-3.44.48.03.97.06 1.03-.34zM64.93 38.13h1c.18.7.12 3.66-1.37 3.78.14-1.26-.27-3.04.37-3.78zM87.6 39.51c-1.13 1.61-3.37.76-5.15.34 1.31-1.34 3.43-.95 5.15-.34zM101.69 38.82c1.45.27 1.83 1.6 2.06 3.09-1.45-.26-1.83-1.6-2.06-3.09zM32 39.16c1.8.38 3.35 1 5.15 1.38-.27 1.76.48 2.49.35 4.12-1.87.26-2.79-.42-4.47-.34-.43-1.68-.8-3.38-1.03-5.16zM51.53 39.16c1.07 1.1 3.89 1.54 2.75 3.78-1.26-.11-1.9-.84-3.09-1-.08-1.13.61-1.48.34-2.78zM81.42 39.85c-1.3.78-2.69 1.65-4.47 1 1.05-1.18 2.84-2.24 4.47-1zM93.1 40.19c-1.08 1.38-2 .62-3.78.35.46-2.31 2.39-.73 3.78-.35zM118.87 39.16c.54.61.46 1.83.68 2.75-1.19.19-1.83.92-3.09 1-1.24-2.23 1.7-2.38 2.41-3.75zM137.76 44.32c-1.68-.08-2.6.6-4.47.34-.13-1.63.62-2.36.35-4.12a22.38 22.38 0 004.46-1.38c1.48.7-.39 3.62-.34 5.16zM55.65 39.51c1.11 1.18 2.83 1.75 3.1 3.78-1.24.71-2.21-1.34-3.44-1.72a3 3 0 01.34-2.06zM101.69 41.91c-1 1.63-2.1-1.53-3.44-1.72 1.09-1.74 2.3 1.33 3.44 1.72zM114.74 39.51c2.17 1.66-1.59 4.34-2.75 3.78.1-2.08 2.11-2.29 2.75-3.78zM72.14 39.85c-.59 1.13-1.81 1.62-2.4 2.75-.74-1.12.97-2.68 2.4-2.75zM46.72 40.19c1.82.13 2.68 1.21 4.12 1.72 0 .81-.59 1-.34 2.06-1.35-.25-2.49-.71-3.78-1zM98.94 42.26c-1.31 1.55-2.9-1.07-4.47-1.38 1.97-1.66 2.53 1.12 4.47 1.38zM124 40.19v2.75c-1.29.32-2.43.78-3.78 1 .25-1-.35-1.25-.34-2.06 1.46-.48 2.32-1.56 4.12-1.69zM75.58 40.54c-.68 1.14-2.67 2.46-3.78 2.06 1.2-.76 1.48-2.42 3.78-2.06zM87.6 41.91c-1.19 1-3.12.58-4.81.35 1.35-1.6 3.13-1.26 4.81-.35zM109.93 41.23c.76 1.11-1.22 2.42-1.37 3.77-.9-.81.56-2.16.34-3.43.49.03.98.06 1.03-.34zM59.43 41.57c1.28.79 1.7 2.42 2.41 3.78-.84-1.22-3.32-1.84-2.41-3.78zM63.21 41.57a1.61 1.61 0 001 .34 6.41 6.41 0 01-.34 2.75 6.72 6.72 0 01-.66-3.09zM80.39 41.91c-1.35 1-3.27 1.91-5.15 1.38 1.26-.91 3.2-2.22 5.15-1.38zM94.82 43.29c-2 .91-3.25-1.12-5.5-1 1.37-1.5 4.6-.16 5.5 1zM111 41.57c.38.08.24.68.69.69-.23 1.6-2 1.67-2.4 3.09-.55-.98 1.19-2.65 1.71-3.78zM42.26 41.91c1.16.67 3 .71 4.12 1.38-.48.44-.34 1.49-.35 2.4-1.62.25-2.36-.39-3.77-.34zM106.84 41.91c1.15.61 0 1.5.35 3.09a2.67 2.67 0 01-.35-3.09zM128.14 41.91c.78.48.13 2.39.34 3.44-1.41-.05-2.15.59-3.77.34-.2-.6.41-2-.35-2.06.52-1.31 2.96-.71 3.78-1.72zM54.28 43.63c1.28.56 2.92.74 3.44 2.06-.92.58-2.51-.54-3.78-.69a1.92 1.92 0 00.34-1.37zM115.77 43.63c1.22-.53.21 1.17 1 1-.75.76-2.94 1.44-3.77 1 .22-1.35 2.2-.97 2.77-2zM27.48 44c1.56.39 3.6.3 5.16.69.49 1.23.59 2.84 1 4.12-1.87-.26-2.79.43-4.47.35-.33-1.96-1.28-3.3-1.69-5.16zM79 44a42.28 42.28 0 01-7.21 1.72A15.2 15.2 0 0179 44zM98.94 45.35c-2.08.43-6.45-.91-7.21-1h-.69c-.18-.7 5-.11 2.06-.35.69 0 4.49 1.17 5.84 1.35zM143.26 44c-.41 1.89-1.36 3.23-1.72 5.16-1.68.08-2.6-.61-4.47-.35.19-1.3.83-2.14.69-3.78 1.24-.94 3.81-.56 5.5-1.03zM50.5 44.32c.89.48 2.27.47 3.09 1a1.92 1.92 0 00-.34 1.37c-.57-.57-2-.27-3.09-.34a2.93 2.93 0 00.34-2.03zM58.4 44.32c1.15.34 1.6 1.37 2.75 1.71-.58.45-2.89-.29-2.75-1.71zM112 44.32c1.07 1.19-1.47 1.71-2.4 2.06.56-.92 1.73-1.24 2.4-2.06zM119.9 44.32c.95-.16-.27 1.87.68 1.71-.15 1-2.59-.3-2.74.69-.5-.08-.12-1-.69-1 .22-1.18 2.15-.63 2.75-1.4zM37.79 45.35c1.72-.23 2.66.32 4.12.34v2.75c-1.57-.19-2.14.61-3.78.34a8.47 8.47 0 00-.34-3.43zM133 45.35a8.65 8.65 0 00-.34 3.43c-1.64.27-2.21-.53-3.78-.34v-2.75c1.41-.02 2.35-.57 4.12-.34zM46.38 46c.65.61 2.27.25 3.43.35.25 1-.59 1-.34 2.06H46c-.24-1.16.55-1.29.38-2.41zM124 46a3.1 3.1 0 01.69 2.41h-3.44c.25-1-.59-1-.34-2.06.95-.18 2.74.46 3.09-.35zM60.81 47.07c-.86 1-2.09-.42-3.44 0 .63-1.58 1.9.41 3.44 0zM113.37 46.72a7.15 7.15 0 01-3.44.69c.96-.41 2.56-1.32 3.44-.69zM56.68 48.1c-1-.22-3 .44-3.43-.35.04-1.29 3.75-.91 3.43.35zM117.49 47.41c.22 1.11-3.66 1.11-3.43 0 .74-.19 2.81-.82 3.43 0zM66 48.44c12.25-.8 26-.12 38.82-.34a173.37 173.37 0 01-19.24 3.77c1.32.87 3.38 1 5.5 1-1.33 1.5-4.07 2-5.5 2.4.95 1.23 3.07 1.28 4.47 2.06-1.05 1.5-3.41 1.67-4.51 3.13-1.7-1.16-4.18-1.54-5.15-3.43 1.92.2 3.34-1.54 4.47-1-1.23-1.53-3.69-1.81-5.85-2.41 1.4-1.12 4.15-.89 6.19-1.37-6.09-1.61-12.77-2.6-19.2-3.81zM52.56 48.44c.24 1.85-1.75 1.46-3.09 1.72-.37-1.97 1.4-1.81 3.09-1.72zM118.18 48.44h2.75c-.14.83.62.75.34 1.72-1.34-.26-3.33.13-3.09-1.72zM42.26 48.78h3.43c.46 2.52-1.81 2.31-3.43 2.75zM125.05 48.78h3.43v2.75c-1.62-.44-3.89-.23-3.43-2.75zM34 49.13h4.12v3.09c-1.37-.12-1.9.61-3.43.34.08-1.45-.52-2.22-.69-3.43zM132.61 49.13h4.12c-.16 1.21-.76 2-.69 3.43-1.53.27-2.06-.46-3.43-.34zM23.7 49.81c1.16-.79 3.78-.12 5.5-.34.24 1.59 1.13 2.53 1.38 4.12a22.89 22.89 0 00-4.47.69 17.4 17.4 0 00-2.41-4.47zM56 49.47c-.45 1.38-2.35 1.32-3.78 1.72.08-1.76 2.24-1.42 3.78-1.72zM114.74 49.47c1.54.3 3.71 0 3.78 1.72-1.43-.4-3.33-.34-3.78-1.72zM141.54 49.47H147c-.63 1.78-1.94 2.87-2.41 4.81a22.79 22.79 0 00-4.46-.69c.28-1.59 1.17-2.53 1.41-4.12zM65.27 49.81c2.37.85 3.24 3.18 5.84 3.78.16 1.08-.73 1.1-1.71 1a17.37 17.37 0 003.77 4.81c-.19.84-1.29.77-2.06 1-.67-2.07-2.18-3.31-2.75-5.49.28.06.35.34.69.34-.58-2.45-2.82-3.25-3.78-5.44zM63.21 50.16c.76 4.19.9 10.74-2.06 12.36-.15-3.62 1.58-8.26 2.06-12.36zM64.24 50.16a16.67 16.67 0 012.06 5.49c.66.65.63-.2 1.72 0 .67 1.85 2.18 2.86 2.41 5.16-.46.34-1.28.32-1.38 1-1.23-1.41-1.49-3.78-2.4-5.5a1.72 1.72 0 00-1 1c-.99-1.85-.98-4.72-1.41-7.15zM106.15 50.16c.67 1.93-.67 4.82-.68 7.21a1.7 1.7 0 01-1-1c-1.33 1.31-1.59 3.68-2.41 5.5-.61-.31-1-.83-1.72-1 .23-2.3 1.74-3.31 2.41-5.16.72-.14.91.24 1.37.35a60.84 60.84 0 002.03-5.9zM107.19 50.16c1.41 3.62 1.8 8.26 2.74 12.36-3.61-1.42-2.69-7.38-2.74-12.36zM41.91 51.87v2.75c-1.36-.1-1.72.8-3.09.69v-3.09c1.38.23 1.96-.33 3.09-.35zM54.62 51.87c1 1.65-2.44 1.9-3.09 3.1-1.26-1.97 2.39-1.97 3.09-3.1zM115.77 51.87c1.18 1.12 3.89.7 3.78 3.1-1.2-1.09-3.5-1.08-3.78-3.1zM128.83 51.87c1.13 0 1.71.58 3.09.35v3.09c-1.37.11-1.73-.79-3.09-.69zM34.7 53.25c0 1.37.68 2.06.68 3.43-1.44-.18-1.91.6-3.09.69a10.9 10.9 0 00-1.37-3.43 9.67 9.67 0 013.78-.69zM136 53.25c1.57-.19 2.14.61 3.78.34a25.17 25.17 0 00-1.37 3.78c-1.18-.09-1.65-.87-3.09-.69.04-1.37.68-2.06.68-3.43zM45 56a8.92 8.92 0 01-2.74 1v-2.38c1.47-.34 3.37-1.49 2.74 1.38zM125.74 53.94c1 .18 1.78.5 2.74.68V57a9 9 0 01-2.74-1zM98.6 54.28c-1 1.81-3 2.76-4.47 4.12a21.86 21.86 0 00-3.13-.68c2.35-1.36 3.84-3.53 7.6-3.44zM28.17 58.75c-1.53.29-2.62 1-4.47 1A20.87 20.87 0 0021 56c1.28-.9 3.36-1 5.15-1.38.48 1.54 1.61 2.47 2.02 4.13zM144.63 54.62c1.88.19 3.33.8 5.15 1a19 19 0 01-3.09 4.13 27.26 27.26 0 01-4.12-1c.43-1.66 1.54-2.59 2.06-4.13zM47.75 55c1 1.71-1.32 3-2.75 3.43-.27-1.19.52-1.32.35-2.4.88-.3 1.95-.38 2.4-1.03zM122.64 55a9.35 9.35 0 002.75 1c-.17 1.08.62 1.21.35 2.4-1.55-.62-3.18-1.17-3.1-3.4zM38.48 55.65c.78.37.13 2.16.34 3.1-.53.49-1.6.45-2.06 1-.89-.38-.3-2.22-1-2.75.42-.89 2.13-.55 2.72-1.35zM131.92 55.65a18.07 18.07 0 003.09 1 13 13 0 00-.68 3.1 21 21 0 01-2.41-1zM112.68 57a1 1 0 01.69 1 1 1 0 01-.69-1zM32 57.72c.84.76 1 2.24 1.37 3.43a7.06 7.06 0 01-3.09 1c-.17-1.43-1.2-2-1.37-3.43.95-.35 2.37-.3 3.09-1zM41.57 57.72c.77.25.13 1.92.34 2.74-.86.29-1.35.94-2.4 1v-2.71c.55-.48 1.77-.29 2.06-1.03zM128.83 57.72a20.87 20.87 0 002.4 1v2.74c-1-.09-1.54-.74-2.4-1zM138.45 57.72a17.88 17.88 0 003.43 1c-.17 1.43-1.2 2-1.37 3.43a7.06 7.06 0 01-3.09-1c.21-1.28.82-2.15 1.03-3.43zM64.93 58.06c1.22 2.72 2 6.89-.69 8.24-.68-2.3-.63-6.81.69-8.24zM105.47 58.06c2.09 1.11 1.18 5.23 1.37 8.24a9.28 9.28 0 01-2.4-2.4c.44-1.84.67-3.9 1.03-5.84zM81.08 62.18C80.6 63.65 79 64 77.64 64.59a46.4 46.4 0 00-4.12-4.81c2.57-2.45 4.8.69 7.56 2.4zM96.88 59.78a53.69 53.69 0 01-3.78 4.81c-1.52-.09-2.06-1.15-3.44-1.38.75-2.23 3.23-2.73 4.47-4.46a9 9 0 012.75 1.03zM44.32 59.09c.85 1.44-.63 3.48-1.72 4.12-.78-.25-.14-1.93-.34-2.75a6.57 6.57 0 002.06-1.37zM126.08 59.09c.94.32 1.47 1 2.4 1.37v2.75c-1.6-.57-2.34-2-2.4-4.12zM36.07 60.12a7 7 0 01.69 3.44c-1-.09-1.06.77-2.06.68a4.1 4.1 0 00-1-2.75c.3-.89 2-.49 2.37-1.37zM134.33 60.12a8.92 8.92 0 002.74 1 7.24 7.24 0 00-1 3.09c-1 .09-1-.77-2.06-.68-.27-1.48.56-1.91.32-3.41zM26.45 63.9c-3 3.28-5.28.58-7.56-1.72 1-1.07 3.29-.83 4.47-1.72 1.64.54 1.9 2.46 3.09 3.44zM46.38 60.46c1.47.8-.67 3.59-1.72 4.13-.86-1.45.63-3.49 1.72-4.13zM123.68 60.81c1.49-.69 2.83 1.73 2.74 3.78-1.59-.59-2.34-2.02-2.74-3.78zM146.69 60.46c1.8.38 3.35 1 5.16 1.38a24.13 24.13 0 01-3.78 3.78c-1.75 0-2.22-1.22-3.78-1.38.57-1.49 1.79-2.33 2.4-3.78zM89 62.87C88 64 86.47 64.72 85.54 66c-1.59-.69-2.44-2.14-4.12-2.75 2.3-2.52 5.02-2.65 7.58-.38zM48.44 61.49c.73 1.32-.9 3.22-1.72 4.13-.92-1.51.57-3.55 1.72-4.13zM122 61.49c1.66.51 2.41 1.95 2.4 4.13-1.48-.74-2.16-2.23-2.4-4.13zM39.16 62.18c1.11 1.65.69 3.92-1.37 4.12.27-1.41-.53-1.76-.34-3.09.55-.4 1.4-.43 1.71-1.03zM68.71 62.18a27 27 0 012.4 6.18A14.76 14.76 0 0068 70.43c-1-2.54-2.32-7.22.71-8.25zM101.69 62.18c.85.64 1.94 1 2.4 2.06-.33 2.08-.7 4.11-1 6.19-1.29-.54-2.14-1.53-3.43-2.07.45-2.26 1.54-3.92 2.03-6.18zM131.23 62.18c.71.33 1.36.7 2.06 1 .19 1.33-.61 1.68-.34 3.09-1.06-.08-1.33-1-2.06-1.37-.08-1.08.61-1.42.34-2.72zM32 66.3c-1.05 0-1.34.73-2.06 1-1.59-.24-1.65-2-2.75-2.74C29 62.29 32 62.78 32 66.3zM140.17 62.87a20.62 20.62 0 013.43 1.37 8.77 8.77 0 01-2.4 3.09c-1.15 0-1.18-1.11-2.41-1 .02-1.61.98-2.26 1.38-3.46zM41.57 63.9c.86 1.33.37 4.26-1.38 4.12v-3.09c.86.07 1.08-.53 1.38-1.03zM128.83 63.9c.81.1.64 1.19 1.72 1V68c-1.85-.08-1.84-2-1.72-4.1zM34.35 64.93c1.4.1.62 2.36 1.72 2.75-.73.42-1 1.29-2.06 1.37-.21-1.28-1.29-1.68-1.37-3.09.51-.4 1.36-.43 1.71-1.03zM135.7 64.93c1.06.09 1.54.74 2.4 1-.08 1.41-1.16 1.81-1.37 3.09-1.22.19-.84-1.21-2.06-1a7.19 7.19 0 001.03-3.09zM77.3 65.27c2 .49 2.25 2.79 3.78 3.78-.41 1.54-2.28 1.62-2.75 3.09-1.48-1.38-2.1-3.62-3.44-5.15.57-.81 1.77-.99 2.41-1.72zM92.76 71.8c-1.59-.36-2-1.91-3.44-2.4 1-1.42 2.27-2.54 3.09-4.13 1.51-.13 1.77 1 3.09 1-.24 2.54-1.67 3.85-2.74 5.53zM43.63 65.62c.69 1.16-.14 3.74-1 4.46-.78-.47-.13-2.39-.34-3.43.83.06 1.04-.53 1.34-1.03zM126.77 65.62c.81.1.64 1.19 1.71 1v3.43c-1.57-.46-1.48-2.63-1.71-4.43zM26.11 69.4a14.6 14.6 0 01-3.78 2.06c-1.22-1.3-3.24-1.8-4.12-3.44 1.34-.49 2.84-.82 3.78-1.72 2.2.2 2.47 2.34 4.12 3.1zM85.2 66.3c1.3.76 2.16 2 3.78 2.41-.54 2.33-2.56 3.17-3.44 5.15-1.46-1.17-2.28-3-3.78-4.12.62-1.68 2.38-2.2 3.44-3.44zM152.53 68c-.88 1.64-2.9 2.14-4.12 3.44-1.62-.22-2.11-1.56-3.78-1.72.83-1.35 2.27-2.09 3.09-3.44 1.97.24 2.98 1.4 4.81 1.72zM37.45 67c.78.87 1.75 3.82-.35 3.78.11-1.37-.79-1.73-.68-3.09a1 1 0 001.03-.69z"/>
      <path class="cls-1" d="M77.3 72.14a33.33 33.33 0 01-4.13 1.38c-.4-1.89-1.35-3.23-1.71-5.16 3.04-3.22 4.73 1.19 5.84 3.78zM96.19 67c1.6-.11 1.91 1.07 3.09 1.37-.36 1.93-1.31 3.27-1.71 5.16a33.33 33.33 0 01-4.13-1.38c.56-2.05 2.02-3.26 2.75-5.15zM133 67c.68 0 .44.94 1.38.69.1 1.36-.8 1.72-.69 3.09-2.22-.11-.93-2.34-.69-3.78zM28.86 68c1.7.13 1.47 2.19 2.75 2.75a3.82 3.82 0 01-2.41 1.72 12.37 12.37 0 00-2.75-2.75c.64-.72 1.84-.89 2.41-1.72zM141.2 68c1.44 0 1.64 1.33 3.09 1.38-.71 1.23-2 1.85-2.75 3.09-1.13-.13-1.52-1-2.41-1.38.68-1.02 1.39-2.03 2.07-3.09zM39.51 69.05c1.13.49 1.25 3.21.34 3.78-.85-.83-1.46-2.99-.34-3.78zM130.55 69.05c.93-.25.69.68 1.37.69a21.85 21.85 0 01-.69 3.09c-1.73-.52-.45-1.99-.68-3.78zM33.67 69.74c1.24.14 1 1.7 1.71 2.4.17 1.08-.92.91-1 1.72-1-.49-1.32-1.65-2.06-2.4-.32-1.29 1.29-.75 1.35-1.72zM136.39 69.74a3.19 3.19 0 012.06 1.37c-.24 1.26-1.3 1.68-1.72 2.75-.7-.1-.67-.93-1.37-1-.13-1.53.98-1.8 1.03-3.12zM67.33 70.77c.75 1.2.77 3.13 1 4.81-1.68.38-2.83 1.29-4.46 1.72v-4.47a18.57 18.57 0 003.46-2.06zM103.06 70.77c1.39.56 2.4 1.5 3.78 2.06v4.47c-1.63-.43-2.78-1.34-4.46-1.72.04-1.79.62-3.02.68-4.81zM41.57 71.11c.64.78.47 3.66 0 4.47-.74-.93-1.12-3.67 0-4.47zM128.83 71.11c1.75.46.76 2.94.69 4.47-1.32-.4-.43-3.01-.69-4.47zM17.18 74.21c-1.63 1.92-4.38 2.72-6.53 4.12Q5.57 77.22.34 76.27c2.94-2 7-2.85 10-4.81 2.39.78 4.36 2.02 6.84 2.75zM36.76 71.46c1 .69 2.07 3 1 3.78a6.15 6.15 0 01-1.72-2.41c-.22-.94.71-.69.72-1.37zM133.29 71.46c.86-.06 1.08.52 1.38 1-.08 1.3-1.08 1.67-1.38 2.75-1.97-.66.18-1.97 0-3.75zM170.4 75.92a18.64 18.64 0 01-4.81 1.38c-4 .78-5.76 1.13-8.93-.69a9.42 9.42 0 01-3.1-2.4 29.33 29.33 0 006.19-2.75c3.69 1.34 6.93 3.14 10.65 4.46zM26.45 74.55c-1.88 3.34-5.47 1.18-8.24 0 1.21-1.08 3-1.6 4.12-2.75a27.61 27.61 0 014.12 2.75zM152.53 74.21c-2.32 1.68-6 3.44-8.24.68.79-1.5 2.67-1.9 3.78-3.09 1.61.68 2.64 1.94 4.46 2.41zM29.2 72.83c1 .93 2.31 1.59 2.75 3.09-1.81 2-2.77-.49-4.81-1 .29-1.11 1.77-1 2.06-2.09zM141.2 72.83c.82.56 1.51 1.23 2.4 1.72-1.61 1-3.09 3.25-4.81 1.37.27-1.56 1.86-1.81 2.41-3.09zM38.82 73.86c1.25.47.93 2.5 1.37 3.78-.98-.73-1.19-2.2-1.37-3.78zM75.24 79.36c-2 .27-3.87.71-5.84 1-.05-1.79-.65-3-.69-4.81a14.69 14.69 0 003.78-1.72c1.73 1.05 1.82 3.7 2.75 5.53zM97.57 73.86c1.68.38 2.83 1.29 4.46 1.72 0 1.79-.64 3-.69 4.81-2-.32-3.82-.76-5.84-1 .56-2 1.5-3.56 2.07-5.53zM131.23 73.86c1.68.51-.25 2.8-.34 3.78-.89-.93.68-2.28.34-3.78zM33.67 74.21c.81.8 2.61 2 1.71 3.43-1.35-.14-1.46-1.51-2.74-1.72-.17-1.08.92-.92 1.03-1.71zM85.54 84.85a38.18 38.18 0 01-3.78-6.52c.42-.14 2.65-4.11 3.44-4.12 1.8-.04 1.8 3.27 3.8 4.12-.85 2.49-2.53 4.13-3.46 6.52zM136.73 74.21c.59.44 1.35.71 1.37 1.71-1.28.21-1.39 1.58-2.74 1.72-1.04-1.46 1.04-2.25 1.37-3.43zM42.6 74.55c.33 0 .27.42.34.69-.21.94-.48 6.1-.68 3.09a8.36 8.36 0 01.34-3.78zM127.8 74.55c.3.15.61.3.68.69V79c-.28 1.86-.44-1-.34-1.71a6.43 6.43 0 01-.34-2.74zM37.1 75.92c.85.77 2.15 2.48 1.38 3.78-.69-1.11-2.92-2.48-1.38-3.78zM133.29 75.92c.46.12.54.61 1 .69-.14 1.47-1.53 1.69-1.72 3.09-1.57-.86.48-2.7.72-3.78zM40.54 77c1.07.08.58 1.71.69 2.75a4.65 4.65 0 01-.69-2.75zM129.86 77c1 .64-.4 1.64 0 2.75-.71-.34-.36-2.44 0-2.75zM27.83 79a9.52 9.52 0 01-2.41 2.41c-2.06-.23-3.68-.9-5.84-1 1.9-2.8 5.27-3.78 8.25-1.41zM33.32 79c-.36 2.61-3.26.55-4.46 0 1.08-2.6 2.74-1 4.46 0zM141.88 78.67c-.74 1-4.17 2.89-4.46.34 1.77-.92 3.01-2.52 4.46-.34zM151.16 80.05c-2.78 1.16-6.81 2.1-8.25-.69 2.52-2.94 6.09-1.65 8.25.69zM34.7 78.33a4.4 4.4 0 012.75 2.75c-1.09.57-2.26-1.29-3.44-1.72.12-.45.61-.54.69-1.03zM136.73 79c-.78.94-2.41 2.48-3.44 2.07.56-1.31 2.11-3.58 3.44-2.07zM18.21 80.39c-1.68 1.64-3.75 2.89-5.5 4.46H0c3.52-2.08 7.28-3.94 10.65-6.18 2.35.79 5.26.93 7.56 1.72zM80.73 78.67c2.12 1.2 2.31 4.33 4.13 5.84-1.84.8-5.15.12-7.56.34a48.94 48.94 0 01-1.72-5.49c1.73-.22 3.5-.36 5.15-.69zM89.32 78.67c2.08.09 3.83.52 5.84.69a48.94 48.94 0 01-1.72 5.49h-7.55a57.4 57.4 0 003.43-6.18zM170.74 84.51c-3.55.8-8.59.12-12.71.34a45 45 0 00-5.5-4.12c1.61-1.48 5.23-1 7.22-2.06 3.82 1.79 6.85 4.33 10.99 5.84zM68.71 80.73c1.45.39.7 3 1.37 4.12H63.9v-3.43a46.77 46.77 0 004.81-.69zM101.34 80.73c1.88.19 3.62.51 5.5.69v3.43h-6.18a26.63 26.63 0 00.68-4.12zM36.07 82.45c-.68 2-2.79 0-4.81.34.53-2.92 2.98-.79 4.81-.34zM139.48 82.79c-2-.27-3.73 1.37-4.81 0 1.33-.95 4.4-2.86 4.81 0zM30.23 82.79c-.73 2.6-4.56 2.08-7.9 2.06.47-1.47 2.49-1.4 2.75-3.09 1.78.24 3.47.65 5.15 1.03zM148.41 84.51c-2.53.81-7 .62-7.9-1.37 1.25-.53 3-1.53 4.12-1.38 1.68.24 2.37 2.16 3.78 2.75zM35 83.82c1.52.09 2.5.71 4.12.69-.81.79-3.08.12-4.46.34-.07-.29.13-.32.34-.34zM136 84.51c-.81.79-3.08.12-4.46.34 1.15-.42 3.79-1.63 4.46-.34z"/>
      <path class="cls-1" d="M0 85.54c4 0 8.41-1.14 12-.34 2.93.65 4 3.53 6.19 4.12-1.61 1.49-5.23 1-7.22 2.06C7.17 89.59 4.14 87 0 85.54zM22.33 85.54c2.53-.8 7-.61 7.9 1.38-.84 1.11-3.26.63-4.46 1.37-1.3-.77-2.18-1.94-3.44-2.75zM34.7 85.54c.81-.79 3.08-.12 4.46-.34-1.11.42-3.75 1.64-4.46.34zM63.9 85.2h6.18a26.83 26.83 0 00-.68 4.12c-1.88-.18-3.62-.5-5.5-.69zM84.86 85.2a56.7 56.7 0 00-3.44 6.18c-2.08-.09-3.83-.52-5.84-.68a49.11 49.11 0 011.72-5.5zM89 91.73c-1.94.71-2 4-3.44 4.12s-2-3-3.78-3.78c.69-2.75 2.54-4.33 3.44-6.87A30.72 30.72 0 0189 91.73zM85.89 85.54c1.83-.8 5.15-.12 7.55-.34a49.11 49.11 0 011.72 5.5c-2 .16-3.76.59-5.84.68a27.34 27.34 0 00-3.43-5.84zM100.66 85.2h6.18v3.43c-1.88.19-3.62.51-5.5.69a26.83 26.83 0 00-.68-4.12zM131.58 85.54c.81-.79 3.08-.12 4.46-.34-.44 2.07-2.73.06-4.46.34zM148.41 85.2c-.68 1.38-2.34 1.78-3.09 3.09-1.53-.42-3.28-.61-4.81-1 .73-2.62 4.56-2.11 7.9-2.09zM170.74 85.2c-3.52 2.08-7.28 3.94-10.65 6.18-2.3-.79-5.26-.92-7.56-1.72 1.68-1.64 3.75-2.89 5.5-4.46zM36.07 87.26c-.93.9-2.44 1.22-3.78 1.72-.1-.81-1.19-.64-1-1.72 1.98.27 3.71-1.37 4.78 0zM139.48 87.26c.16 1.08-.93.91-1 1.72-1.42-.3-2.36-1.08-3.78-1.38.65-1.99 2.76-.01 4.78-.34zM27.83 90.7c-.72 1.22-2.72 1.17-3.78 2.06-2-.44-2.87-1.94-4.47-2.75 2.78-1.16 6.81-2.11 8.25.69zM36.76 88.63c1.57.93-.95 2.68-2.06 3.1-.15-.31-.3-.62-.69-.69.48-1.24 2.17-1.27 2.75-2.41zM136.73 90.7c-.93 2.19-3-.39-3.44-1.72 1.09-.57 2.26 1.28 3.44 1.72zM151.16 89.66a13.43 13.43 0 01-4.12 3.1 41.53 41.53 0 01-4.13-1.76c1.23-3.3 4.84-1.89 8.25-1.34zM33.32 91c-1.4.2-1.62 1.58-3.09 1.72a3.1 3.1 0 00-1.37-1.38c.74-1.01 4.14-2.84 4.46-.34zM69.4 89.66c2 .32 3.82.76 5.84 1-.56 2-1.51 3.53-2.07 5.49-1.68-.38-2.83-1.29-4.46-1.72.04-1.74.64-2.98.69-4.77zM101.34 89.66c0 1.79.65 3 .69 4.81-1.63.43-2.78 1.34-4.46 1.72-.56-2-1.51-3.53-2.07-5.49 2.02-.28 3.87-.7 5.84-1.04zM141.88 91c-.57.69-.92 1.6-2.06 1.72a4.94 4.94 0 00-2.4-1.72c.36-2.56 3.26-.51 4.46 0zM38.13 90.35c1.67.86-.44 2.67-.68 3.78-2.28-.96.44-2.33.68-3.78zM40.88 90.35c.71.3.36 2.39 0 2.75-1.05-.64.4-1.63 0-2.75zM42.26 90.7c.48 0 .52 3.35.68 4.8-1.35-.5-.4-3.25-.68-4.8zM128.14 90.7c.55-.43.55 4.08 0 4.8-1-1.24.48-2.94 0-4.8zM129.52 90.35a4.67 4.67 0 01.68 2.75c-1.07-.1-.58-1.71-.68-2.75zM132.26 90.35c.69 1.12 2.92 2.48 1.38 3.78-.85-.77-2.15-2.48-1.38-3.78zM17.18 95.85A28.35 28.35 0 0011 98.6C7.3 97.25 4.06 95.45.34 94.13c3.06-1.3 7.12-1.58 10.65-2.4 1.79 1.65 4.72 2.15 6.19 4.12zM170.4 93.79a93.07 93.07 0 01-10.65 4.81 28.35 28.35 0 00-6.19-2.75c1.47-2 4.4-2.47 6.19-4.12 3.62.61 7.02 1.44 10.65 2.06zM35.73 92.76c0 1.62-1.32 1.88-1.72 3.09-.59-.44-1.35-.71-1.37-1.72 1.36-.08 1.75-2.37 3.09-1.37zM39.85 92.41c.48.73 0 3.41-1 3.78-.06-1.64.61-2.56 1-3.78zM130.55 92.41c1 .73 1.23 2.2 1.37 3.78-1.25-.47-.92-2.5-1.37-3.78zM135.36 92.41c1.35.14 1.46 1.51 2.74 1.72.17 1.08-.92.91-1 1.72-.84-.8-2.64-2.02-1.74-3.44zM63.9 92.76c1.63.42 2.78 1.34 4.46 1.71 0 1.79-.64 3-.68 4.81-1.39-.56-2.4-1.49-3.78-2.06zM106.84 97.22a18.57 18.57 0 00-3.43 2.06c-.75-1.19-.77-3.12-1-4.81 1.34-.49 2.84-.82 3.77-1.71 1.46.24.29 3.12.66 4.46zM30.23 93.1c.61.31 1 .83 1.72 1-1.07 2.52-2.93 3.73-4.81 1.37.86-.96 2.38-1.25 3.09-2.37zM140.17 93.1c1.2.62 2 1.67 3.43 2.06-1.5 2.83-3.82 1.58-4.81-1 .46-.37 1.28-.35 1.38-1.06zM26.45 95.16c-.79 1.5-2.67 1.91-3.78 3.09-1.6-.68-2.64-1.94-4.46-2.4 2.33-1.69 6.01-3.45 8.24-.69zM152.53 95.5c-1.21 1.08-3 1.6-4.12 2.75a26.86 26.86 0 01-4.12-2.75c1.88-3.34 5.48-1.17 8.24 0zM41.23 94.47c1.32.4.42 3 .68 4.47-1.75-.45-.76-2.94-.68-4.47zM129.17 94.47c.74.94 1.12 3.67 0 4.47-.64-.78-.47-3.66 0-4.47zM37.45 94.82c.45.12.54.6 1 .68a7 7 0 00-1 3.1c-.94.25-.7-.69-1.38-.69-.07-1.6 1.07-1.91 1.38-3.09zM133 94.82a4.14 4.14 0 011.72 3.09c-.68 0-.44.94-1.38.69.11-1.78-1.75-2.75-.34-3.78zM34 96.19a3.05 3.05 0 011.37 1.38c0 1.21-1 1.53-1 2.74a3.21 3.21 0 01-2.06-1.37c.22-1.25 1.29-1.67 1.69-2.75zM85.2 96.19c1.39 1.59 3.06 2.9 3.78 5.16a7.66 7.66 0 00-3.44 2.4 14.75 14.75 0 01-3.78-3.09c.97-1.66 2.54-2.73 3.44-4.47zM136.39 96.19c1 .5 1.32 1.65 2.06 2.41-.11 1.15-1.15 1.37-2.06 1.71-.55-1.56-1.66-3.01 0-4.12zM73.17 96.54a33.31 33.31 0 014.13 1.37c-.59 2-2 3.25-2.75 5.15-1.6.11-1.91-1.06-3.09-1.37.36-1.93 1.31-3.27 1.71-5.15zM93.44 97.91a33.31 33.31 0 014.13-1.37c.4 1.88 1.35 3.22 1.71 5.15-1.18.31-1.49 1.48-3.09 1.37-.73-1.9-2.19-3.06-2.75-5.15zM39.51 97.22c1.73.52.45 2 .68 3.78-.93.25-.69-.68-1.37-.69a21.85 21.85 0 01.69-3.09zM130.89 97.22c.84.83 1.8 3.78-.34 3.78.23-1.77-.89-2.88.34-3.78zM29.2 97.57c1.13.13 1.52 1 2.41 1.37-.68 1-1.39 2-2.07 3.09-1.44 0-1.64-1.33-3.09-1.37.71-1.24 2.04-1.86 2.75-3.09zM140.85 97.57c1.68.38 2 2.08 3.44 2.74a8.45 8.45 0 01-3.09 1.69c-.75-.86-1.09-2.12-2.07-2.75.16-.96 1.48-.78 1.72-1.68zM78 97.91c1 1.12 2.5 1.63 3.1 3.09-1.23 1.07-2 2.59-3.1 3.78-1.4-.08-1.81-1.17-3.09-1.37.87-1.98 2.18-3.53 3.09-5.5zM95.5 103.75c-1.32 0-1.58 1.16-3.09 1a13.24 13.24 0 00-3.09-3.75c1.2-1 1.87-2.48 3.78-2.75.52 2.12 2.35 2.92 2.4 5.5zM26.11 100.31a19.31 19.31 0 01-3.44 3.44c-1.63-.43-2.78-1.34-4.46-1.72 1.99-2.71 4.87-4.23 7.9-1.72zM152.53 102a23.13 23.13 0 00-4.12 1.72c-1.8-.49-2.26-2.32-3.78-3.09 2.58-3.03 6.01-1.33 7.9 1.37zM37.1 99.28c.94-.25.69.69 1.38.69-.29 1-.4 2.12-.69 3.09-.68 0-.44-.93-1.37-.68-.11-1.38.79-1.73.68-3.1zM133 99.28c1.17.32 1.07 1.92 1.38 3.1a1 1 0 00-1 .68c-.89-.82-1.45-3.06-.38-3.78zM67.68 99.63c1.3.53 2.14 1.52 3.43 2.06-.48 2.26-1.57 3.92-2.06 6.18-.85-.63-1.94-1-2.4-2.06.35-2.07.7-4.11 1.03-6.18zM102.72 99.63c1 2.53 2.34 7.21-.69 8.24a27 27 0 01-2.4-6.18 14.73 14.73 0 003.09-2.06zM42.26 100c1.57.49 1.46 2.66 1.71 4.47-.81-.11-.64-1.2-1.71-1zM128.14 100c.78.48.13 2.39.34 3.44-.85-.06-1.07.52-1.37 1-.69-1.16.14-3.75 1.03-4.44zM34 101c1.22-.18.85 1.22 2.06 1a7.24 7.24 0 00-1 3.09c-1-.09-1.54-.74-2.4-1 .06-1.4 1.14-1.81 1.34-3.09zM136 101c1.27.45 1.64 1.8 2.06 3.09-.86.29-1.34.94-2.4 1a4 4 0 00-1-2.74c.34-.58 1.27-.54 1.34-1.35zM40.19 102c1.85.11 1.84 2.06 1.72 4.12-.81-.1-.64-1.19-1.72-1zM129.86 102c1.39-.13.38 2.14.69 3.09-.86-.05-1.08.53-1.38 1-.91-1.09-.17-3.56.69-4.09zM32 103.75c0 1.58-1 2.23-1.37 3.44a20.4 20.4 0 01-3.44-1.38c.89-2.13 2.4-3.99 4.81-2.06zM143.6 105.47c-.63 1.09-2.24 1.2-3.43 1.72-.4-1.21-1.36-1.86-1.38-3.44 2.34-1.9 3.6-.1 4.81 1.72zM37.79 103.75c1.22-.19.84 1.22 2.06 1 .18 1.33-.61 1.68-.34 3.09-.7-.33-1.36-.7-2.06-1-.19-1.33.61-1.68.34-3.09zM63.9 103.75a9.44 9.44 0 012.4 2.4c-.44 1.85-.67 3.91-1 5.84-2.12-1.11-1.21-5.23-1.4-8.24zM106.5 103.75c.68 2.29.63 6.81-.69 8.24-1.22-2.71-2.02-6.89.69-8.24zM132.26 103.75c1.17.2.75 2 1 3.09-.51.4-1.4.43-1.71 1a6.72 6.72 0 01-.69-3.09c.89.09 1.14-.5 1.4-1zM85.2 104.09c1.44.74 2.22 2.14 3.78 2.75-.89 1.06-2.42 1.47-3.44 2.41-1.58-.48-2.54-1.58-4.12-2.06 1.08-1.19 2.69-1.89 3.78-3.1zM26.45 105.81c-.57 1.49-1.78 2.34-2.4 3.78-1.8-.37-3.35-1-5.16-1.37 1.72-2.54 4.29-5.02 7.56-2.41zM46.38 104.44c1.44.73 2.12 2.23 2.4 4.12-1.66-.51-2.4-1.94-2.4-4.12zM124 104.44c.92 1.5-.57 3.54-1.72 4.12-.71-1.32.92-3.22 1.72-4.12zM151.85 107.87c-1.27 1-3.44 1.14-5.16 1.72a22.22 22.22 0 00-2.4-3.44c2.98-3.28 5.28-.58 7.56 1.72zM44.32 105.47c1.59.58 2.34 2 2.75 3.78-1.5.68-2.84-1.74-2.75-3.78zM77.64 105.47c1.35.6 3 .94 3.44 2.4-2.83 1.76-4.59 4.49-7.56 2.75 1.17-1.92 2.89-3.29 4.12-5.15zM96.88 109.93c-.41 1-1.7 1-2.75 1.38-1.24-1.74-3.72-2.24-4.47-4.47 1.21-.28 2-1 3.1-1.37 1.85 1.01 2.5 3.22 4.12 4.46zM126.08 105.47a3.1 3.1 0 01-2.4 4.12 5.48 5.48 0 012.4-4.12zM34.7 105.81c1-.09 1 .78 2.06.69.24 1.5-.59 1.93-.34 3.43a9.35 9.35 0 00-2.75-1 7.19 7.19 0 001.03-3.12zM135.36 105.81c1.39.1.62 2.36 1.71 2.75-.36.89-2 .48-2.4 1.37a7.11 7.11 0 01-.69-3.43 1.54 1.54 0 001.38-.69zM42.26 106.84c1.6.57 2.34 2 2.4 4.12-.94-.32-1.46-1-2.4-1.37zM128.14 106.84c.78.26.14 1.93.34 2.75a6.74 6.74 0 00-2.06 1.37c-.85-1.44.63-3.48 1.72-4.12zM60.81 107.53c3.61 1.43 2.69 7.38 2.75 12.37-1.42-3.63-1.81-8.27-2.75-12.37zM109.59 107.53c.19 3.62-1.58 8.27-2.06 12.37-.76-4.2-.9-10.75 2.06-12.37zM30.23 107.87a7.19 7.19 0 013.09 1c-.21 1.28-.81 2.16-1 3.44a16.57 16.57 0 00-3.43-1c.11-1.43 1.17-2.01 1.34-3.44zM140.51 107.87c.17 1.43 1.2 2 1.37 3.44-1 .37-2.42.32-3.09 1-.84-.77-1-2.24-1.37-3.44a7.19 7.19 0 013.09-1zM68.71 108.22c.51.51 1.45.61 1.72 1.37-.44 2-1.72 3.09-2.41 4.81-.72.15-.91-.24-1.37-.34-.67 2-1.55 3.72-2.06 5.84-.67-1.94.67-4.83.68-7.22a1.72 1.72 0 011 1c1.36-1.27 1.62-3.68 2.44-5.46zM101.69 108.22c1.23 1.4 1.49 3.78 2.4 5.49a1.7 1.7 0 001-1c1 1.91.95 4.78 1.38 7.22a16.73 16.73 0 01-2.06-5.5c-.66-.65-.62.2-1.72 0-.67-1.85-2.18-2.86-2.41-5.15.49-.38 1.31-.36 1.41-1.06zM39.51 108.56c1.05.09 1.54.74 2.4 1v2.75a19.25 19.25 0 00-2.4-1zM131.23 111.31c-.55.47-1.77.29-2.06 1-.77-.26-.13-1.93-.34-2.75 1.5-1.18 3-1.31 2.4 1.75zM71.11 109.59a7.34 7.34 0 012.06.69c-1.14 1.71-2.63 3.09-3.77 4.81.27.76 2.12-.07 1.71 1.37-2.45.64-3.53 2.65-5.49 3.78-.11-1.6 2.82-3.12 3.43-5.15-1.61-.6 1.71-3.6 2.06-5.5zM90 112.34c-1 1.2-3.13 1.22-4.47 2.06 1 1.13 4.18 1 5.5 2.75-2.2-.14-3.62.5-5.5.69 6.14 1.53 12.77 2.57 19.24 3.77-12.25.81-26 .12-38.82.35a182 182 0 0119.24-3.78c-1.51-1-4.35-.69-6.19-1.38 1.71-1 4.22-1.27 5.85-2.4-.75-.2-2.55-1.31-4.47-1.37.82-1.94 3.47-2 4.81-3.44 1.55.97 3.16 1.89 4.81 2.75zM28.17 111.31c-.41 1.65-1.54 2.58-2.06 4.12-1.88-.18-3.32-.8-5.15-1 .68-1.61 2.06-2.51 2.74-4.12 1.85-.04 2.94.69 4.47 1zM36.42 110.28a19.92 19.92 0 012.4 1v3.09a18.66 18.66 0 00-3.09-1 13.24 13.24 0 00.69-3.09zM134 110.28c.89.37.3 2.22 1 2.75-.45.92-2.16.58-2.75 1.37-.78-.37-.13-2.16-.34-3.09.54-.5 1.61-.46 2.09-1.03zM149.78 114.06c-1.28.89-3.36 1-5.15 1.37-.52-1.54-1.65-2.47-2.06-4.12 1.66-.12 2.53-1.27 3.78-1 1.74.3 2.03 2.8 3.43 3.75zM45 111.65c1.56.63 3.18 1.17 3.1 3.44a9.08 9.08 0 00-2.75-1c.17-1.09-.62-1.25-.35-2.44zM98.6 115.43c-3.27 1.2-5-2.13-7.56-2.75 3.25-2.49 5.51 1.09 7.56 2.75zM125.05 111.65c1.59 0 .07 1.56.34 2.41-.88.26-1.94.34-2.4 1-1.17-1.61 1.32-2.54 2.06-3.41zM57.37 112a1 1 0 01.69 1 1 1 0 01-.69-1zM32.29 112.68c1.18.09 1.65.87 3.09.69 0 1.37-.68 2.06-.68 3.43-1.57.2-2.14-.6-3.78-.34a25.17 25.17 0 001.37-3.78zM139.82 116.12a9.67 9.67 0 01-3.78.68c0-1.37-.68-2.06-.68-3.43a3.09 3.09 0 002.4-.69c1.51.32 1.05 2.62 2.06 3.44zM42.26 113a8.92 8.92 0 012.74 1v2.06c-1-.19-1.78-.51-2.74-.69zM127.8 113c1.3-.28.43 1.62.68 2.4-1 .18-1.78.5-2.74.69v-2.06c.53-.47 1.6-.43 2.06-1.03zM38.82 114.74c1.37-.1 1.73.8 3.09.69v2.75c-1.13 0-1.71-.58-3.09-.34zM131.92 114.74v3.1c-1.38-.24-2 .32-3.09.34v-2.75c1.36.11 1.72-.79 3.09-.69zM51.19 115.09c1.2 1.08 3.5 1.07 3.78 3.09-1.18-1.11-3.89-.69-3.78-3.09zM119.21 115.09c1.26 2-2.39 2-3.09 3.09-.95-1.65 2.44-1.9 3.09-3.09zM26.11 115.77a22.16 22.16 0 004.47.69c-.25 1.59-1.14 2.53-1.38 4.12h-5.5c.63-1.77 1.94-2.87 2.41-4.81zM147 120.24c-1.16.79-3.78.12-5.5.34-.24-1.59-1.13-2.53-1.37-4.12a9.65 9.65 0 003.77-.69c1.67.89 1.87 3.23 3.1 4.47zM34.7 117.49c1.53-.27 2.06.46 3.43.35v3.09H34c.17-1.22.77-1.99.7-3.44zM136 117.49c-.07 1.45.53 2.22.69 3.44h-4.12v-3.09c1.43.16 1.94-.62 3.43-.35zM42.26 118.52c1.62.44 3.89.23 3.43 2.75h-3.43zM128.48 121.27h-3.43c-.69-2.88 4.89-4.06 3.43 0zM52.22 118.87c1.43.4 3.33.33 3.78 1.71-1.54-.3-3.7.04-3.78-1.71zM118.52 118.87c-.07 1.75-2.24 1.41-3.78 1.71.45-1.38 2.35-1.31 3.78-1.71zM49.47 119.9c1.23.14 2.66.08 3.09 1 .21 1.35-1.88.4-2.75.68.19-.79-.62-.71-.34-1.68zM121.27 119.9c.28 1-.48.89-.34 1.71h-2.75c-.24-1.84 1.75-1.45 3.09-1.71zM29.2 120.93c1.68-.08 2.6.6 4.47.34-.19 1.3-.83 2.15-.69 3.78-1.26.91-3.81.54-5.5 1 .41-1.86 1.36-3.19 1.72-5.12zM141.54 120.93c.36 1.93 1.31 3.26 1.72 5.15-1.69-.49-4.24-.12-5.5-1 .14-1.63-.5-2.48-.69-3.78 1.87.23 2.79-.45 4.47-.37zM38.13 121.27c1.64-.26 2.21.54 3.78.34v2.75c-1.46 0-2.4.58-4.12.35a8.52 8.52 0 00.34-3.44zM132.61 121.27a8.7 8.7 0 00.34 3.44c-1.72.23-2.66-.32-4.12-.35v-2.75c1.57.2 2.17-.61 3.78-.34zM46 121.61h3.44c-.25 1 .59 1 .34 2.07-.93.21-2.72-.44-3.09.34a3.1 3.1 0 01-.69-2.41zM121.27 121.61h3.44c.27 1.2-.52 1.32-.35 2.41-.65-.61-2.27-.25-3.43-.34-.25-1.06.59-1.02.34-2.07zM56.68 122c.18 1.33-2.77 1.32-3.43.68-.05-1.46 2.39-.39 3.43-.68zM114.06 122c1 .21 3-.44 3.43.34-.04 1.25-3.72.88-3.43-.34zM60.81 122.64c-1 .37-2.56 1.32-3.44.69a7.15 7.15 0 013.44-.69zM109.93 123c.86-1 2.09.41 3.44 0-.6 1.56-1.9-.42-3.44 0zM52.91 123.33c.49.08.12 1 .68 1-.22 1.15-2.15.6-2.75 1.38-1 .15.27-1.88-.68-1.72.15-.99 2.59.33 2.75-.66zM117.49 123.33c.57.58 2 .28 3.09.35a2.91 2.91 0 00-.34 2.06c-.89-.49-2.27-.48-3.09-1a2 2 0 00.34-1.41zM61.15 123.68c-.57.92-1.74 1.23-2.4 2.06-1.07-1.2 1.47-1.74 2.4-2.06zM109.59 124c.58-.45 2.89.3 2.75 1.72-1.15-.32-1.6-1.36-2.75-1.72zM57.72 125.05c-1.44.17-2 1.2-3.44 1.37 0-.48.06-1-.34-1 .74-.58 3.76-2.26 3.78-.37zM116.8 125.05a2 2 0 00-.34 1.37c-1.27-.55-2.92-.74-3.43-2.06.91-.58 2.5.54 3.77.69zM46 124.36c.2.61-.41 2 .35 2.06-.52 1.32-3 .71-3.78 1.72-.78-.47-.13-2.39-.34-3.43 1.44.04 2.18-.6 3.77-.35zM71.8 124.71c2.18-.81 4.46 1.26 7.21 1-2.51 1.16-4.79-.9-7.21-1zM98.94 124.36a17.78 17.78 0 01-7.9 1.72 41.68 41.68 0 017.9-1.72zM124.71 124.36c1.62-.25 2.36.39 3.77.35v3.43a13 13 0 00-3.77-1c-.57-.58.29-1.47 0-2.78zM61.49 124.71c.51 1-1.23 2.65-1.71 3.77-1.87-1.55 1.37-2.33 1.71-3.77zM108.9 124.71c.85 1.21 3.33 1.84 2.41 3.77-1.31-.78-1.7-2.42-2.41-3.77zM106.84 125.05a4.25 4.25 0 01.35 3.09c-1.37-.34-.33-2.07-.35-3.09zM108.22 125.05a9 9 0 012.06 3.78c-1.77-.18-1.75-2.15-2.06-3.78zM37.45 125.39c.13 1.63-.62 2.37-.35 4.13-1.8.37-3.35 1-5.15 1.37.28-1.78.65-3.47 1-5.15 1.71.08 2.63-.61 4.5-.35zM63.56 125.39c.9.35 1 2.81 0 3.09-1.03-.71.44-1.8 0-3.09zM133.29 125.39c1.87-.26 2.79.43 4.47.35.38 1.68.75 3.37 1 5.15-1.8-.37-3.35-1-5.15-1.37.3-1.76-.45-2.52-.32-4.13zM50.84 128.14c-1.44.51-2.3 1.59-4.12 1.72v-2.75c1.81-.41 4.28-2.06 4.12 1.03zM120.24 126.08c1.35.25 2.49.72 3.78 1v2.75c-1.82-.13-2.68-1.21-4.12-1.72-.01-.78.59-.98.34-2.03zM58.06 126.42c.3.16.61.31.69.69-.67 1.37-2.2 3.41-3.44 3.09-.44-2.62 1.88-2.47 2.75-3.78zM80.39 127.8c-1.45 1.69-3.55-.42-5.15-.69 1.48-1.46 3.37.43 5.15.69zM94.82 127.45c-2 .07-3.43 1.74-5.5.69 1.58-.32 4.55-2.93 5.5-.69zM115.43 130.2c-1.21.19-3.07-1.66-3.44-3.43 1.21-.18 3.75.98 3.44 3.43zM53.59 127.11c.93-.24.67.71 1 1-.27 1.56-2.15 1.51-2.75 2.75-.54-.6-.46-1.83-.68-2.75a6.71 6.71 0 002.43-1zM75.58 129.52c-2.33.49-2.25-1.42-3.78-1.72.7-1.27 3.2.72 3.78 1.72zM98.94 127.45c-1.66.83-2.11 2.8-4.47 2.07 1.18-.99 2.82-2.61 4.47-2.07zM116.46 127.11c1.26.11 1.9.85 3.09 1 .08 1.11-.6 1.46-.34 2.75-1.14-.58-1.86-1.58-3.09-2.06-.29-.94.48-.86.34-1.69zM69.4 127.45c1.12.6 1.62 1.82 2.74 2.41-1.14.76-2.68-.97-2.74-2.41zM87.6 127.8c-1.34 1.46-3 1.35-4.81.34 1.21-1 3.13-.57 4.81-.34zM101 127.45c1.38.61-1.63 3.55-2.75 2.75.75-1.06 1.98-1.68 2.75-2.75zM64.59 128.14c1.49.13 1.55 3.09 1.37 3.78-2.16.44-1.14-2.29-1.37-3.78zM103.75 128.14c-.23 1.49-.61 2.83-2.06 3.09.23-1.49.61-2.82 2.06-3.09zM41.91 132.26c-1.76.76-3.2 1.84-5.15 2.41.12-1.83.57-3.33.69-5.15a9.18 9.18 0 003.78-1c1.44.01.34 2.6.68 3.74zM105.12 128.48h1a13 13 0 01-.34 3.78 1.92 1.92 0 00-1.37-.34c.03-1.37.71-2.06.71-3.44zM108.22 128.48c1.67.39 1.09 3 2.06 4.13-2.13 1.58-2.93-2.68-2.06-4.13zM128.83 128.48c1.63.2 2.63 1 4.46 1 .12 1.82.57 3.32.69 5.15-1.95-.57-3.39-1.65-5.15-2.41zM81.42 129.86c-1.17 1.9-3.15.37-4.47-.34 1.37-1.52 2.75.24 4.47.34zM93.1 129.52c-.92.89-3.41 2.27-3.78 0 1.83-.31 2.25-.83 3.78 0zM87.6 130.2c-1.31 1.26-3.36 1-5.15.35a4.77 4.77 0 015.15-.35zM76.61 132.26c-1.87.15-2.5-.93-3.44-1.71 1.28-1.35 2.83.45 3.44 1.71zM97.22 130.2c-.07 1.19-1.39 1.13-1.72 2.06.24.68.92.92 1.72 1-.81.91-1.36 2.08-2.75 2.41-.14-.66-1.33-.27-1-1.37 1 0 1-1.05 1.72-1.38.26-1.17-1.39-.44-1-1.72.99-.3 1.32-1.33 3.03-1zM46.38 130.55c.56.93.44 2.53.69 3.78a30.25 30.25 0 00-4.47 3.43c-.79-1-.12-3.54-.34-5.15a15.58 15.58 0 004.12-2.06zM73.17 133.29c-.82-.14-.74.63-1.71.35-.39-1-.94-1.81-1.38-2.75 1.59-.97 2.33 1.45 3.09 2.4zM124 130.55a39.61 39.61 0 004.46 2.06v5.15c-1.7-1-3.1-2.39-4.8-3.43-.03-1.42.61-2.16.34-3.78zM100.66 131.23c0 1.15-1.12 1.18-1 2.41a2.23 2.23 0 01-1.72-.35c.27-1.21 1.43-2.92 2.72-2.06zM82.11 132.61c-1.42 1.65-3 .5-4.47-.35 1.36-1.88 2.82-.12 4.47.35zM92.76 131.92a7.16 7.16 0 01-3.44 2.08.93.93 0 00-.69-1c1.16-1.32 2.37-2 4.13-1.08zM50.84 131.58c1.41.2.78 2.42 1.38 3.43a18.67 18.67 0 00-4.12 4.47 21.17 21.17 0 01-.69-5.15c1.17-.9 2.59-1.53 3.43-2.75zM55.31 131.58c2.2 2.55-.36 5.9-2.06 7.55-1.14-3.79-.25-5.77 2.06-7.55zM66.65 131.58H68c.11 1.26.85 1.9 1 3.09-.81 0-1 .59-2.06.34.25-1.46-.2-2.27-.29-3.43zM102.72 131.58c.51.18.87.5 1.37.68a8.6 8.6 0 00-.68 2.75c-.81 0-1-.59-2.07-.34.41-1.08 1.16-1.82 1.38-3.09zM115.09 131.58a15.6 15.6 0 013.09 3.09c-.09 1.63-.79 2.65-.69 4.46-1.77-1.78-3.88-4.47-2.4-7.55zM119.21 131.58c1.7.59 2.6 2 4.12 2.75.11 1.93-.61 3-.34 5.15-1.69-1.29-2.62-3.33-4.47-4.47a34.09 34.09 0 00.69-3.43zM87.6 132.61c-1.09 1.64-3.32 1.51-4.81.34 1.58-1.29 2.76-.71 4.81-.34zM64.59 132.61c-.24 1.5.58 1.93.34 3.43-.6.32-1.71.12-2.06.69-.69-1.27-.62-4.73 1.72-4.12zM74.89 132.61c.72.77 1.66 1.32 2.41 2.06.13.82-1.57-.19-1 1-1.19-.31-1.46-1.52-2.41-2.06-.13-.76.96-.35 1-1zM106.15 132.61c.83-.14.75.62 1.72.34 0 1.42.6 2.15.35 3.78-.75-.29-1.18-.89-2.41-.69-.11-1.37.61-1.9.34-3.43z"/>
      <path class="cls-1" d="M59.43 133.29c.76 3.06-2 5.55-4.81 6.19-.46-1.73 2-3.51 2.41-5.5a4.42 4.42 0 002.4-.69zM111 133.64c3.74 0 4.21 3.35 5.5 5.84-1.45-.84-3.58-1-4.81-2.06.07-1.6-.69-2.3-.69-3.78zM71.11 134c.92.57 1.24 1.74 2.06 2.41-.1.92-1.44.61-1.71 1.37-1.07-.65-1.33-2.11-1.72-3.43.54-.05 1.31.14 1.37-.35zM82.11 136c-1.54 1.45-3.53.09-4.13-1.37 2.02-.89 3.23-.35 4.13 1.37zM99.28 134c.45.35 1.27.34 1.72.69 0 1.44-1.33 1.65-1.37 3.09a7.34 7.34 0 01-2.06-.69 19.59 19.59 0 011.71-3.09zM92.07 135c-.21 1.05-1.14 1.38-1.72 2.06-.7-.33-1.36-.7-2.06-1a2.32 2.32 0 013.78-1.06zM87.26 135.7a12.16 12.16 0 01-1.72 1.72c-1.14 0-1.17-1.12-2.4-1 .45-2.14 2.86-1.85 4.12-.72zM66.65 135.36c1.12.59.82 2.61 1.37 3.77-.55.48-1.77.3-2.06 1a8.13 8.13 0 01-.69-4.13 1.51 1.51 0 001.38-.64zM103.41 135.36c1-.09 1 .77 2.06.68.2 1.81-.26 3-.35 4.47a12.82 12.82 0 01-2.4-1.38c0-1.48.8-2.13.69-3.77zM75.24 136a4.62 4.62 0 012.4 2.75c-1.23-.09-1.26 1-2.4 1-.24-1.25-1.4-1.58-1.38-3.09.21-.41 1.32.02 1.38-.66zM96.88 136.73c.11 1.6-1.07 1.91-1.38 3.09-1.33.19-1.41-.87-2.4-1 .9-1.66 2.03-2.98 3.78-2.09zM61.49 141.88a21.13 21.13 0 01-4.81 2.06 22.08 22.08 0 001.72-5.49c.89-.27 2.79-1.31 3.44-.69-.03 1.46-.58 2.4-.35 4.12zM79.7 137.42c1.32.17 1.24 1.74 2.75 1.71-.21 1.17-1.52 1.23-2.06 2.07-.84-.54-.9-1.85-2.06-2.07-.09-1.13 1.33-.72 1.37-1.71zM90 137.42a12.78 12.78 0 012.4 1.37c-.55.82-1.23 1.52-1.71 2.41-1.14-.2-1.69-1.07-2.69-1.38.42-1.01 1.53-1.39 2-2.4zM108.56 137.76c.81-.9 2.17.56 3.43.34.64 2 1 4.28 2.07 5.84-1.27.46-3.17-1.4-4.81-1.71a13.33 13.33 0 00-.69-4.47zM70.43 138.1a8.18 8.18 0 011.71 3.1c-.17 1.31-1.81 1.16-2.4 2.06-.86-1-1-2.64-1.38-4.13a3.44 3.44 0 002.07-1.03zM87.26 139.13c-.16 1.45-1.62 1.59-2.06 2.75-.69-.68-1.12-1.62-2.06-2.06.86-2.02 2.44-1.7 4.12-.69zM99.63 138.45c1.08-.06 1.15.91 2.4.68.18 1.79-.45 2.76-.69 4.13-1.4-.08-1.81-1.17-3.09-1.38a19.81 19.81 0 001.38-3.43zM47.41 140.17c.28 2.77 1.36 5.27 1 7.55-.51 3.54-4.82 7.26-5.84 10.65 0-4.08-1.24-8.13-.34-11.68.77-3.01 4.36-4.23 5.18-6.52zM74.89 140.17c1.41.53 1.74 2.16 2.41 3.43-1.64 0-1.63 1.58-3.09 1.72a12.28 12.28 0 01-1.38-3.78c.56-.54 2.17-.13 2.06-1.37zM123 140.17a52.13 52.13 0 015.49 6.18v12c-1.46-1.32-1.94-3.15-3.09-5.15-.89-1.56-2.77-3.36-3.09-5.15-.44-2.44 1.06-4.72.69-7.88zM95.5 140.51a12.87 12.87 0 002.41 1.37c-.83 1-.92 2.75-1.72 3.78-1-.48-1.3-1.68-2.75-1.72 0-1.83 1.56-2.09 2.06-3.43zM65.62 145.66a15.57 15.57 0 00-4.13 2.41c-1.05-1.53.44-3.45 0-5.5 1.39-.23 2.4-2.24 3.78-1.37-.2 1.8.26 2.95.35 4.46zM105.47 140.85c3 .73 4.47 3.09 4.12 7.22a23.56 23.56 0 01-4.47-2.41c.53-1.19.31-3.13.35-4.81zM80.05 141.54c2.52 1.93 2.7 3 0 5.15-1-.69-1.45-2-2.07-3.09.21-1.16 1.53-1.22 2.07-2.06zM90.35 141.88a13.15 13.15 0 002.41 1.38c-.16 1.67-1.3 2.36-1.72 3.78-1.17-.44-1.3-1.91-2.75-2.07.26-1.45 1.43-1.97 2.06-3.09zM87.6 144.29c-.32 1.39-1.59 1.84-2.06 3.09-1.12-.71-1.4-2.26-2.4-3.09 1.18-2.62 3.02-1.86 4.46 0zM69.05 143.6c.89 1 .71 3 1.38 4.12-.62 1.79-2.55 2.27-3.78 3.44-.71-1.46-.73-3.63-.69-5.84a5.2 5.2 0 003.09-1.72zM101.34 143.94c1.2.64 2.32 1.35 3.44 2.07a25.1 25.1 0 00-.34 5.49c-1.71-.7-2.74-2.07-4.13-3.09a45 45 0 001.03-4.47zM127.45 158.37c-3.87-1.62-7-4-10.65-5.84-.49-2.82-1.83-4.81-2.4-7.56 2.7.86 4.81 2.29 7.56 3.1 1.47 3.79 3.95 6.58 5.49 10.3zM73.86 146c1.12.71 1.15 2.51 2.06 3.43a10.25 10.25 0 01-3.43 4.12c-1.08-1-.84-3.28-1.72-4.46.35-1.7 2.45-1.67 3.09-3.09zM96.54 146.35c1.3.41 1.67 1.76 3.09 2.06.14 2.21-.89 3.23-1 5.15-1.63-.66-2.54-2-3.78-3.09.24-1.67 1.15-2.73 1.69-4.12zM79.36 147.38c1.56.73 1.91 2.67 2.75 4.12a15 15 0 00-3.1 3.44c-1.38-.79-1.31-3-2.4-4.12.39-1.66 1.97-2.16 2.75-3.44zM85.2 147.72a14.26 14.26 0 012.8 3.44 23.17 23.17 0 01-2.41 4.46c-1.25-1-1.71-2.86-2.75-4.12.32-1.7 1.95-2.13 2.36-3.78zM90.7 147.72c1.5.56 2.34 1.78 3.43 2.75-.48 1.81-1.55 3-2.06 4.81-1.08-1.55-2.7-2.57-3.44-4.46.66-1.06 1.9-1.54 2.07-3.1zM60.46 148.41c.71 2.2-.84 5.11-.68 7.9-3.08 1.85-5.76 4.09-8.59 6.19-.29-3.16 2.25-6.45 2.75-10 2.21-1.3 4.84-2.22 6.52-4.09zM65.62 152.19c.24 2.36 1.43 4.3 1 6.18-.73 3.37-6.29 5.58-7.56 7.22.37-3.19 1.07-6 1-9.62 2.2-.97 3.76-2.48 5.56-3.78zM104.78 152.53c2 1.09 3.45 2.74 5.5 3.78a66.33 66.33 0 011.37 8.93c-.18 1-1.66-.35-2.06-.68-1.74-1.45-3.83-4.29-5.5-5.84.25-2.04.91-3.72.69-6.19zM71.8 154.59c.85 2 2.07 4.54 1.72 6.53s-4.67 5.79-5.84 6.53c-.08-3-1.26-5.61-.69-7.9.67-2.7 3.79-3.16 4.81-5.16zM78.33 156.31c1.63 1.35 1.91 4.05 3.09 5.84-1.69 2.43-2.94 5.31-5.15 7.22-1.07-2.37-1.19-5.68-2.06-8.25a35.9 35.9 0 004.12-4.81zM85.2 156.66c1.9 1.07 2.29 3.66 3.78 5.15-1 2.9-2.28 5.51-3.44 8.24-1.81-2-2.43-5.12-3.78-7.55.78-2.32 2.37-3.82 3.44-5.84zM94.47.34C95 3.3 96 5.67 96.54 8.59c-1.11 2.1-2.93 3.48-4.13 5.5-1.49-1.37-1.74-4-2.75-5.85 1-3 2.88-5.14 4.47-7.55M1.37 102.72c2.63-.43 6.22-2.94 9.63-3.78a45.84 45.84 0 006.19 2.75c-1.61 1.6-3.82 2.59-5.5 4.12-3.52-.72-6.36-2.12-10-2.75M1.72 66.65c3.07.32 6.53-1.94 10-2.41A39.61 39.61 0 0017.18 68c-1.72 1.38-4.33 1.86-6.19 3.09A80.9 80.9 0 011.37 67M4.12 58.06c2.75 1 6-1.56 8.59-1s4 3.69 5.15 4.81c-2 .72-4.28 1.21-6.18 2.06C9 62.35 6.6 60.5 4.12 58.75M7.21 49.81c2.68 1.07 5.78-.4 8.94 0 1.24 1.74 2.39 3.57 3.78 5.16-2.15.54-4.41 1.73-6.19 1.37-2.85-.58-4.5-4.84-6.87-5.84M11.34 41.91c2.39 1 6 .88 8.93 1.38.52 2.34 2.22 3.5 2.75 5.84a40.68 40.68 0 01-6.87.34c-1.72-2.29-3.31-4.71-5.16-6.87M16.15 34.35c2.22 1.56 5.79 1.77 8.59 2.75.31 2.55 1.69 4 2.06 6.53-2.21-.2-4.2-.61-6.53-.69q-2.16-3.86-4.12-7.9M21.64 27.48a55.73 55.73 0 008.25 4.13 66.78 66.78 0 001.37 6.87c-2.35-.4-4.24-1.26-6.52-1.72-1-3-2.26-5.76-3.1-8.93M27.83 21.3c2.43 2.26 5.38 4 7.9 6.18a34.51 34.51 0 00.69 6.87c-2.18-.8-4.13-1.82-6.19-2.74L27.83 22M34.7 15.8c2.27 2.88 4.88 5.43 7.21 8.25v6.87c-.42 1-1.86-.75-2.75-1.38a16.21 16.21 0 00-3.09-2.06c-.43-3.8-1-7.47-1.37-11.33M3.78 112c1.89-2.57 5.25-3.68 7.56-5.84 2.3.68 4.43 1.53 6.87 2.07-1.41 1.91-3.48 3.16-5.16 4.81-2.83-.49-5.82-.82-8.58-1.38M169.37 67.33c-2.67.43-6.22 3-9.62 3.78a45.84 45.84 0 00-6.19-2.75c1.61-1.6 3.82-2.59 5.5-4.12 3.52.72 6.36 2.12 10 2.75M169 103.41c-3.07-.33-6.53 1.93-10 2.4a40.5 40.5 0 00-5.5-3.78c1.72-1.37 4.33-1.86 6.19-3.09a81.85 81.85 0 019.62 4.12M166.62 112c-2.75-1-6 1.57-8.59 1s-4-3.69-5.15-4.81c2-.72 4.29-1.21 6.18-2.07 2.69 1.55 5.08 3.4 7.56 5.16M163.53 120.24c-2.68-1.06-5.78.4-8.94 0-1.24-1.74-2.39-3.56-3.77-5.15 2.14-.54 4.4-1.74 6.18-1.38 2.85.58 4.5 4.84 6.87 5.84M159.4 128.14c-2.39-1-6-.87-8.93-1.37-.52-2.34-2.22-3.5-2.75-5.84a39.61 39.61 0 016.87-.35c1.72 2.3 3.31 4.72 5.16 6.87M154.59 135.7c-2.22-1.56-5.79-1.77-8.58-2.75-.32-2.55-1.7-4-2.07-6.53 2.21.21 4.2.61 6.53.69q2.16 3.86 4.12 7.9M149.1 142.57a54.74 54.74 0 00-8.25-4.12 65.73 65.73 0 00-1.37-6.87c2.35.39 4.24 1.26 6.53 1.71 1 3 2.25 5.76 3.09 8.94M142.91 148.75c-2.43-2.26-5.38-4-7.9-6.18a34.69 34.69 0 00-.68-6.87c2.17.8 4.12 1.83 6.18 2.75l2.4 9.62M136 154.25c-2.27-2.88-4.88-5.43-7.21-8.24v-6.88c.42-1 1.86.75 2.75 1.38a15.75 15.75 0 003.09 2.06c.43 3.8 1 7.47 1.37 11.34M119.9 163.18c-2.79-2.47-6-4.55-8.94-6.87a68.35 68.35 0 00-1-7.21 55.23 55.23 0 016.87 3.78c.88 3.48 2.18 6.53 3.1 10M103.06 168.68c-.6-1.39-1.92-2.43-3.09-3.78-2.68-3.09-3.25-4.74-1.37-10a31.43 31.43 0 015.15 4.46c.2 3.29-.6 5.58-.34 8.94M94.13 169.71c-1.36-2.53-3-4.74-4.47-7.21a32.09 32.09 0 012.41-6.5c1.74 1.47 2.87 3.54 4.47 5.15-.4 3-1.47 5.41-2.07 8.25M34.35 153.91c1.1-3.26 1.07-7.64 1.72-11.34 2.14-.84 4.26-3.53 5.84-3.78-.35 2.83.51 5 0 6.87-.8 2.93-5.54 5.67-7.21 8.25M27.83 148.41c.66-3.46 1.63-6.61 2.4-10 2.06-.92 4-1.95 6.19-2.75a34.66 34.66 0 00-.69 6.87 95.91 95.91 0 01-7.9 5.84M21.3 142.23c1.46-2.66 2.23-6 3.44-8.94 2.28-.45 4.17-1.32 6.52-1.71a65.73 65.73 0 00-1.37 6.87c-3 1-5.23 2.79-8.25 3.78M15.8 135c1.88-2.24 2.83-5.41 4.47-7.9 2.33-.08 4.32-.48 6.53-.69-.37 2.5-1.75 4-2.06 6.53-2.88.79-5.84 1.5-8.59 2.41M10.65 127.45c2.35-1.76 3.6-4.64 5.5-6.87a39.61 39.61 0 016.87.35c-.53 2.34-2.23 3.5-2.75 5.84-3 .28-5.93.71-8.93 1M6.87 119.55c2.19-1.93 4.31-3.93 6.53-5.84 2.3.22 4.31.73 6.53 1-1.1 2-2.59 3.6-3.78 5.5-3.29.2-5.58-.6-8.94-.34M167 58.75a78.49 78.49 0 00-7.56 5.15c-2.3-.68-4.43-1.52-6.87-2.06 1.41-1.92 3.48-3.17 5.16-4.81 2.83.48 5.82.81 8.58 1.37M103.75 1.72c-1.06 2.78.43 6 0 9.27-2 1.07-3 3.22-5.15 4.13 0-2.51-1.62-3.94-1.38-5.84.34-2.66 4.85-5.61 6.19-7.91M120.24 7.21c-1.55 2.92-2.37 6.57-3.44 10a56.56 56.56 0 01-6.87 3.79 68.54 68.54 0 001-7.22c3-2.14 5.76-4.55 8.94-6.53M136.39 16.15c-1.09 3.26-1.07 7.63-1.72 11.33-2.14.84-4.26 3.53-5.84 3.78.36-2.83-.51-5 0-6.87.8-2.93 5.54-5.67 7.21-8.24M142.91 21.64c-.66 3.47-1.63 6.62-2.4 10-2.06.92-4 1.94-6.18 2.74a34.54 34.54 0 00.68-6.87 95.91 95.91 0 017.9-5.84M149.44 27.83c-1.46 2.66-2.23 6-3.43 8.93-2.29.46-4.18 1.32-6.53 1.72a66.78 66.78 0 001.37-6.87c3-1 5.23-2.79 8.25-3.78M154.94 35c-1.88 2.25-2.83 5.41-4.47 7.9-2.33.08-4.32.49-6.53.69.37-2.5 1.75-4 2.07-6.53 2.88-.78 5.83-1.49 8.58-2.4M160.09 42.6c-2.35 1.77-3.6 4.64-5.5 6.87a40.68 40.68 0 01-6.87-.34c.53-2.34 2.23-3.5 2.75-5.84 3-.29 5.93-.71 8.93-1M163.87 49.47c-1.17 3.29-4.45 4.49-6.53 6.87-2.3-.22-4.31-.72-6.52-1 1.09-2 2.58-3.6 3.77-5.5 3.29-.19 5.58.61 8.94.35M42.94 11.68c3.1 1 7 4.22 10.65 5.84.65 2.67 1.74 4.91 2.41 7.56-2.32-.89-4.57-1.85-6.87-2.75a115.7 115.7 0 00-6.19-10.65zM60.46 37.79c.37-1.36 1 .09 2.06 0-.19 1.57.61 2.14.35 3.78-.62 0-.73-.42-1.38-.34.25 1.59 1.14 2.53 1.38 4.12-1.23-.72-1.43-2.47-2.41-3.44 1.66-.49.89-3.25 0-4.12zM66.65 42.26c.29-1.31 1-2.19 1.37-3.44a1.91 1.91 0 001.38.34c-.21 1.15-2.55 2.73-1 3.44-.55.93-.93 2-2.06 2.4.16-1.1 1.31-1.21 1.38-2.4-.1-.4-.67-.29-1.07-.34zM65.62 41.91c1.46.46-.57 1.46-.35 2.75-.75-.45.41-1.86.35-2.75zM104.44 42.6c1.34-1.43.93 1.8 1.37 2.4.19 1-.81-2-1.37-2.4zM100 42.6c1.62.22 2.11 1.56 3.09 2.4-.6.1-2.45-1.46-3.09-2.4zM103.06 42.94c-.56-1.43 2 3.4.35 2.06.24-1-.35-1.25-.35-2.06zM70.08 43.29c-.66.82-1.83 1.14-2.4 2.06-.25-.28 1.44-2.95 2.4-2.06zM85.54 46.38c2 .81 5.35.38 7.56 1h6.9c.53.18 0 .36-.34.34h-24c-1-.06-5.5.22-3.78-.34H77a60.47 60.47 0 018.25-.69c-5.24-.88-10.85.64-15.8.35-.12-.82 3.6-.75 4.81-1.38-.09.61-.6.78-1.38.69 3.91.7 8.39-1 12.37-1.38a9.86 9.86 0 00-3.78-.68c1.73-1.79 5.37-1.45 7.56-.35a5.46 5.46 0 01-3.44.69c3.22 1.59 7.91 1.71 12.37 2.06 0-.63-1.16-.21-1.37-.69.93-.46 3.3.58 4.8.69-2.92.8-10.33-.26-15.85-.31zM73.17 43.29c-.84 1.33-3.24 1.11-4.12 2.4-.05-.87 2.41-2.17 4.12-2.4zM96.54 43.63c1.76-.84 4 .75 4.8 2.06a15.59 15.59 0 00-4.8-2.06zM58.75 48.78c-5.25-.67 3.3.27 0 0zM112 48.44h2.07c-.86.56-4.48 1.03-2.07 0zM104.44 48.78c-.92 1.95-5.58 3.13-7.56 5.16a12 12 0 00-4.12-.69c3.29-2.09 8.14-2.62 11.68-4.47zM77.64 52.91a6.22 6.22 0 01-3.43 1c1.21 1.64 3.59 2.12 5.49 3.09-.5 1.1-2.1 1.11-3.43 1.37-1.27-1.19-2.71-2.3-4.13-3.37.07-1.12.6-.25 1.72-.69-2.22-2-5.43-3-7.9-4.81a39.13 39.13 0 0110.31 3.44zM59.43 49.47a14.38 14.38 0 01-3.78 1.72c.5-1.34 2.53-1.14 3.78-1.72zM111.65 49.81c-.5-.57 2.87.43 3.44 1-.84.74-2.26-.9-3.44-1zM60.46 51.19c.54.12-.3.6.35.68-.8-.07-2.15 1-2.75 2.07-.66-1.02 1.57-2.08 2.4-2.75zM57 53.94c0 2-3.57 3.53-4.47 5.84-.26-2.37 2.88-4.25 4.47-5.84zM49.81 60.12c-.48-1.87 2-3.74 3.78-4.47-.42 2.35-2.71 2.79-3.78 4.47z"/>
      <path class="cls-1" d="M58.4 53.59c.75 1-1.5 1.92-1.72 3.09-.58-.83 1.2-2.22 1.72-3.09zM53.59 60.81c-.48 3.41-3.36 6.46-5.49 10.65.26-3.74 3.09-7.9 5.49-10.65zM47.41 68.36C47.15 66 49.1 63 50.84 61.49c.35 2.41-2.13 4.96-3.43 6.87z"/>
      <path class="cls-1" d="M44.66 78.33c.12.45.61.54.69 1 3.95-5.79 7.28-12.45 11-18.9 1.14-2 3.3-3.75 3.09-6.18q-3.26 4.47-6.18 9.28c-.85-.55 1.72-2.37.69-3.1 1.22-1 5.3-7.39 6.18-7.55.94.9-1.36.32-.34 1.71a15 15 0 002.74-4.81c-1.13 5.74-4.19 12.53-6.18 18.55a31.16 31.16 0 003.78-4.46c.55 1.36-.49 4.08-.69 5.84 1 .22 2.69-1.89 3.78-2.75.8 1.27.12 4 .35 5.84a35.76 35.76 0 00-4.81 2.75c-.61-1.07.41-3.46.68-4.81-1.33.16-3.42 2.52-4.81 3.78-.45-1.61 1.3-4 1.72-5.84-4.35 4.85-8.64 9.72-12.72 14.8-.25-.59.95-3.58 1.37-2.75-.06-1.3-1.44-1.3-1.37-2.75.33 0 .27.42.34.69.28-1.14 1.57-2.56 1-3.43-.51.29-.49 1.1-.68 1.71-.45-1.94.62-5.32 1.71-6.87-.79 2.44-.35 5.72-1.34 8.25zm.69 1.72c.06-.86-.53-1.08-1-1.38-.09.86.49 1.08 1 1.38zM104.78 49.81c.13 1.51-2.45 3.27-3.44 4.81 1.72 1.87-1.31 4.22-2.06 5.84-.65-.14-.86-.74-1.71-.68.65-2.1 2.23-3.27 3.43-4.81 0-.64-1.16-.21-1.37-.69 1.51-1.69 3.64-2.77 5.15-4.47zM109.93 53.59c.27-1.89 2.47.06 1 1.38 0 .8.94-.13.69-.69 2 1.34 3.62 4.85 4.81 5.84-.06 1 .29.44 1 1 2.18 1.73 4.41 6.08 5.5 9.62a.71.71 0 01-.35.69c.7 1.79 2.16 2.94 2.07 4.12.19 1 .53-.53 1-.34a13 13 0 00-1.38-4.81c1.6 0 1.94 4.24 2.41 6.52a1.67 1.67 0 01-.69-1.71c-1.39.7 1.7 3.41-.69 4.46.39.81 1.15-.88 1.38-1.37.91-.5-.64 1.66-1 2.06.63 0 .87 1.68 1.71 3.09-4.38-4.78-8.67-9.64-12.71-14.77-.31 1.46 1.46 3.8 1.72 5.84-1.88-1.22-3.27-2.91-5.15-4.12.38 1.68.75 3.37 1 5.15-1.84-.8-3.32-2-5.15-2.75V67c1.58.82 2.53 2.27 4.12 3.09-.33-2.07-.7-4.11-1-6.18a22.27 22.27 0 013.78 4.46c-1.27-5.6-4.33-12.38-6.19-18.55a14.18 14.18 0 012.12 3.77zm1 1c.45-.45.22-1-.34-1.37-.42.49-.18 1.07.41 1.4zm14.09 24.05a2.5 2.5 0 01.69-1c.37.88-1.48 1.2-.35 1.72 1.23-.89.29-2.49-.34-3.44a1.68 1.68 0 01-.69 1.72c-.07-.65.39-.76.35-1.37-1.51-1.65-2-4.39-2.75-5.84-.55 2.21 2 4.12 2.4 6.52-3.9-6.06-7.61-12.31-11-18.89 1.7 1.5 2.42 4 4.12 5.5.71-.76-.17-1.85-.69-2.41-.32.64 1 1.15 0 1.37-.8-1.12-1.52-2.8-2.4-4.12s-1.89-3.14-3.09-3.09c4.49 7.91 8.9 15.87 13.78 23.36zm-3.44-7.9c1.21-1.39-1.1-.81 0 0zm-.34-.69c.08-1.86-2.2-4.16-3.09-6.18-.05 1.89 2.23 4.19 3.12 6.21zm-3.43-5.84c1.2-1.39-1.11-.81 0 0z"/>
      <path class="cls-1" d="M119.55 61.49c2.33 1.22 3.21 3.89 4.13 6.53-1.68-.51-3.45-3.88-4.13-6.53zM114.4 56.34c-.67.31-2-1.71-2.41-2.75 1.19.53 1.62 1.82 2.41 2.75zM118.52 59.43c-1.4-.66-3.53-3.56-5.15-5.15 1.82.24 4.17 2.93 5.15 5.15zM117.15 56c1.5-.24 3.53 2 4.12 3.78-1.09-.18-3.37-2.13-4.12-3.78z"/>
      <path class="cls-1" d="M113 53.59c-.71.91-1.78-2.54-2.75-1.37-.54-.12.3-.61-.35-.69.91-.53 2.51 1.17 3.1 2.06zM48.78 52.56c-1.44-.18-1.92.6-3.09.69v-2.06c1.37 0 2.06-.69 3.44-.69a2.93 2.93 0 00-.35 2.06c1.24.09 1.66-.63 2.75-.69.08 1.8-1.5 1.94-2.75 2.41zM121.61 50.84c.81-.89 2.17.56 3.44.35v2.06c-1.09 0-1.51-.78-2.75-.69-.74-.06-.15 1.22-.34 1.72-1.25-.47-2.83-.61-2.75-2.41 1 .06 1.43.63 2.4.69.57.16.57-1.87 0-1.72zM58.75 51.19c-1.12 1.4-3.15 1.9-4.13 3.43-.45-1.62 2.49-2.77 4.13-3.43zM112 51.53c1.36-.32 3.65 1.39 4.47 2.75-1.13.08-2.81-2.23-4.47-2.75zM59.09 55c-3.51 7.48-9.2 15.76-13.4 23.7-1.85-.54 1.13-2.62 0-3.43 1-.54 2-3.35 3.09-4.81-.19 2.22-2.67 5.11-3.43 7.9 1.3-2.48 3.62-5.77 3.78-8.25 1.81-1.74 3.07-5 4.81-7.56s3.88-5 5.15-7.55zM47.75 57.37A7 7 0 0150.5 56c-.3 1.76-1.63 2.49-2.75 3.43-.66-.04.41-1.15 0-2.06zM120.24 56.34c1.33-.74 2.93 1.18 3.09 2.75-1.01.43-2.62-1.5-3.09-2.75zM45.35 67.33c.25 1.18-.68 4.13-1.38 5.5-1.03-1.96.25-4.56 1.38-5.5zM125.05 67.68c1.35-.31 2.39 2.64 2.06 5.15-1.5-.91-1.11-3.68-2.06-5.15zM44.32 84.17c1.68-2.78 6.33-5.58 8.93-8.59.65 5.11-6 5.91-8.93 8.59zM57.72 79.36c-2.11.53-3.8 1.47-5.85 2.06.59-3.19 4-3.54 5.85-5.5 1.05.86-.42 2.09 0 3.44 2-.59 3.73-1.53 5.84-2.06v4.12c-2.3.22-4.32.72-6.53 1a21.85 21.85 0 01.69-3.06zM118.87 81.42c-1.9-.63-3.71-1.33-5.5-2.06-.79.59.56 1.93.34 3.09-2.21-.31-4.23-.81-6.52-1V77.3a41 41 0 015.49 2.06c1-.86-.41-2.09 0-3.44 2.2 1.7 5.46 2.33 6.19 5.5zM117.15 75.58c3.38 2.57 6.23 5.68 9.62 8.24-3-1.58-9.22-2.92-9.62-8.24zM125.05 77c.41-.27.06.94 0 1-.54.89-.58-.66 0-1zM39.51 78.33c.56.41 1.67 3.35 1 2.75-.12-1.08-1.67-1.91-1-2.75zM130.89 78.33c1.38.37-.35 1.68-.69 2.4-.78 1.53.6-1.59.69-2.4zM38.13 80.05c.83.66 1.14 1.83 2.06 2.4-.37.35-2.78-1.61-2.06-2.4zM132.26 80.05c1.52.59-.77 1.81-1.37 2.4-.78.46 1.33-1.45 1.37-2.4zM36.42 82.45c1-1.77 2.08 1 3.43 1-.95.85-2.1-1.06-3.43-1zM50.84 83.82c-2.29.23-4.31.73-6.52 1 1.91-1.41 4.56-2.08 6.87-3.09.25 1-.59 1-.35 2.06 2.08-.33 4.11-.7 6.19-1 .25 1-.59 1-.35 2.06H50.5a1.57 1.57 0 00.34-1.03zM119.55 81.76c2.39.82 4.49 1.93 6.87 2.75-1.5.58-4.19-.6-6.18-.69.37 1.87-4 .72-6.18 1 .25-1-.6-1-.35-2.06 1.93.36 4 .59 5.84 1 1.05-.36-.37-1.12 0-2zM134.33 82.11c-.8.81-2.11 1.1-3.1 1.71-.14-.27 2.05-2.59 3.1-1.71zM56.68 85.2c-.24 1 .6 1 .35 2.06-1.93-.36-4-.58-5.84-1-1 .42.37 1.18 0 2.06-2.39-.82-4.49-1.93-6.87-2.75 1.5-.57 4.19.61 6.18.69-.37-1.9 4-.75 6.18-1.06zM119.9 86.23c-2.08.33-4.11.7-6.19 1-.25-1.05.6-1 .35-2.06h6.18a1.59 1.59 0 00-.34 1c2.29-.22 4.31-.73 6.52-1-1.91 1.41-4.56 2.08-6.87 3.09-.25-1.02.6-.98.35-2.03zM44 86.23c3 1.58 9.22 2.92 9.62 8.24-3.41-2.56-6.26-5.67-9.62-8.24zM57 87.6c2.21.31 4.23.81 6.53 1v4.13a42 42 0 01-5.5-2.06c-1.05.85.41 2.08 0 3.43-2.2-1.7-5.46-2.33-6.19-5.5 1.9.63 3.71 1.34 5.5 2.07.82-.56-.53-1.91-.34-3.07zM126.42 85.89c-1.68 2.78-6.33 5.57-8.93 8.58-.65-5.11 6-5.91 8.93-8.58zM113 90.7c-2 .58-3.74 1.53-5.84 2.06v-4.13c2.29-.22 4.31-.72 6.52-1a23.51 23.51 0 01-.68 3.1c2.1-.54 3.79-1.48 5.84-2.07-.59 3.2-4 3.54-5.84 5.5-1-.88.44-2.11 0-3.46zM39.85 86.23c-1 .58-2.11 2.52-3.43 1.72a9.46 9.46 0 013.43-1.72zM131.23 86.57c-.28-.88 2 1 3.1 1-.78 1.68-2.17-.65-3.1-1z"/>
      <path class="cls-1" d="M56 101.35c.31-1.47-1.46-3.81-1.72-5.85 1.88 1.22 3.28 2.91 5.15 4.13-.38-1.68-.75-3.38-1-5.16 1.84.8 3.32 2 5.16 2.75v5.84c-1.59-.82-2.59-2.27-4.16-3.06.33 2.08.7 4.11 1 6.18a22.27 22.27 0 01-3.78-4.46c1.28 5.6 4.33 12.39 6.19 18.55a14.3 14.3 0 01-2.06-3.78c-.27 1.89-2.47-.06-1-1.37 0-.81-.94.12-.69.68-2-1.34-3.62-4.85-4.81-5.84.06-1-.29-.43-1-1-2.18-1.73-4.41-6.08-5.5-9.62a.69.69 0 01.35-.68c-.7-1.8-2.16-2.94-2.07-4.13-.19-1-.53.53-1 .35a13.06 13.06 0 001.38 4.81c-1.6 0-1.94-4.25-2.41-6.53a1.68 1.68 0 01.69 1.72c1.39-.7-1.7-3.41.69-4.47-.39-.8-1.15.88-1.38 1.38-.91.49.64-1.66 1-2.07-.63 0-.87-1.67-1.71-3.09C47.67 91.35 52 96.22 56 101.35zm4.12 15.45c.45-.45.21-1-.34-1.37-.45.46-.21 1.04.34 1.37zm-1.37-3.8c-1.73-3.53-4.42-7-6.53-10.65-2.24-3.83-4-7.73-6.53-11a2.44 2.44 0 01-.69 1c-.37-.87 1.48-1.2.35-1.71-1.23.88-.29 2.48.34 3.43a1.69 1.69 0 01.69-1.72c.08.65-.39.76-.35 1.38 1.51 1.64 2 4.38 2.75 5.84.55-2.22-2-4.12-2.4-6.53 3.9 6.06 7.61 12.32 11 18.89-1.7-1.5-2.42-4-4.12-5.49-.71.75.17 1.85.69 2.4.32-.64-1-1.15 0-1.37a59.13 59.13 0 005.15 7.56c.54-.77-.1-1.5-.35-2.03zm-9.62-12.72c1.2-1.38-1.11-.81 0 0zm.34-.34c-.08 1.86 2.2 4.17 3.09 6.18.08-1.82-2.2-4.12-3.09-6.12zm3.44 6.87c1.2-1.39-1.11-.81 0 0z"/>
      <path class="cls-1" d="M47.07 102c1.67.51 3.44 3.89 4.12 6.53-2.33-1.19-3.19-3.86-4.12-6.53zM58.75 116.46c-1.19-.53-1.62-1.82-2.41-2.75.66-.31 1.95 1.71 2.41 2.75zM52.22 110.62c1.4.67 3.53 3.57 5.15 5.15-1.82-.24-4.17-2.93-5.15-5.15zM49.47 110.28c1.09.17 3.37 2.12 4.12 3.78-1.5.23-3.53-1.96-4.12-3.78z"/>
      <path class="cls-1" d="M60.46 117.84c.39.06.19.34 0 .34-.06.29.14.32.35.34-.88.52-2.48-1.17-3.09-2.06.7-.91 1.77 2.54 2.74 1.38zM112.68 116.12c.66 1-1.57 2.08-2.4 2.75-.54-.13.3-.61-.35-.69.07-.39.35-.19.35 0 1.26-.18 1.72-1.27 2.4-2.06zM113.71 116.12c0-2 3.57-3.53 4.47-5.84.29 2.36-2.85 4.25-4.47 5.84zM120.93 109.93c.48 1.87-2 3.75-3.78 4.47.42-2.33 2.71-2.78 3.78-4.47z"/>
      <path class="cls-1" d="M114.06 113.37c.58.83-1.2 2.22-1.72 3.09-.75-.99 1.5-1.92 1.72-3.09zM122.64 98.6c-.26 3.74-3.09 7.9-5.49 10.65.48-3.42 3.36-6.47 5.49-10.65zM123.33 101.69c.26 2.32-1.69 5.41-3.43 6.87-.35-2.41 2.1-4.96 3.43-6.87z"/>
      <path class="cls-1" d="M126.08 91.73c-.12-.46-.6-.54-.69-1-4 5.78-7.28 12.45-11 18.89-1.14 2-3.3 3.76-3.09 6.18 2.17-3 4.23-6.07 6.18-9.27.86.54-1.72 2.36-.69 3.09-1.22 1-5.3 7.39-6.18 7.56-.94-.91 1.36-.32.34-1.72a15.21 15.21 0 00-2.74 4.81c1.13-5.74 4.19-12.53 6.18-18.55a31.16 31.16 0 00-3.78 4.46c-.55-1.36.49-4.08.69-5.84-1-.22-2.69 1.89-3.78 2.75-.8-1.26-.12-4-.34-5.84a36.27 36.27 0 004.8-2.75c.61 1.08-.41 3.47-.68 4.81 1.33-.16 3.42-2.52 4.81-3.78.45 1.61-1.3 4-1.72 5.85 4.34-4.82 8.63-9.69 12.71-14.78.25.59-1 3.58-1.37 2.75.07 1.31 1.44 1.3 1.37 2.75-.33 0-.27-.42-.34-.69-.28 1.15-1.57 2.57-1 3.44.51-.29.49-1.11.68-1.72.45 1.94-.62 5.32-1.71 6.87.8-2.47.36-5.75 1.35-8.27zm-.69-1.73c-.06.86.53 1.07 1 1.37.09-.85-.49-1.06-1-1.37zM39.85 87.26c.66.68-1.4 1.56-1.37 2.75-1.64-.77 1.16-1.69 1.37-2.75zM130.55 87.6c.37-.35 2.78 1.62 2.06 2.41-.83-.66-1.14-1.84-2.06-2.41zM39.85 91.73c-1.38-.38.35-1.69.69-2.41.78-1.52-.6 1.6-.69 2.41zM131.23 91.73c-.56-.42-1.67-3.36-1-2.75.12 1.08 1.67 1.91 1 2.75zM43.63 90.35c1.37-1.5-1.74 1.92 0 0z"/>
      <path class="cls-1" d="M125.05 91.38a1 1 0 01.69 1 40.42 40.42 0 01-3.74 7.25c.19-2.22 2.67-5.11 3.43-7.9-1.3 2.47-3.62 5.76-3.78 8.24-1.35.64-1.7 2.78-2.74 4.47a98.8 98.8 0 01-6.53 9.27c-2.12 2.69.27-.39 1-1.72 3.41-5.94 7.19-13.06 11.67-20.61zM45.69 91.73c.41-.28.06.93 0 1-.54.93-.58-.62 0-1zM43.63 97.22c1.5.91 1.13 3.68 2.06 5.16-1.35.31-2.39-2.64-2.06-5.16zM126.77 97.22c1 2-.25 4.56-1.38 5.5-.25-1.18.68-4.12 1.38-5.5zM99.63 116.12c.08-.61.59-.79 1.37-.69-.9-2-2.84-2.89-3.43-5.15a1.52 1.52 0 001.37-.69c1.57 1.06 2.28 3 3.09 4.81.13.58-.27.65-.69.69 1 1.92 2.6 3.13 3.78 4.81-1.6-.12-3.5-2.9-5.49-3.78zM47.41 111c1-.42 2.62 1.5 3.09 2.75-.71.81-2-.73-2.75-1-.19-.57.4-1.84-.34-1.75zM123 110.62c.65 1.35-.91 3.44-2.75 3.44.29-1.77 1.62-2.5 2.75-3.44zM73.86 116.12c-.44-.89-1.63-.16-1.72-.69 1-1.61 2.9-2.37 4.13-3.78a8.24 8.24 0 013.43 1c-1.49 1.37-3.93 1.8-5.49 3.09a10.15 10.15 0 003.43 1c-3.6 1.68-7.86 2.68-11.68 4.13 1.24-1.57 5.45-3.2 7.9-4.75zM54.28 115.77c1.12-.08 2.8 2.24 4.47 2.75-1.36.32-3.65-1.38-4.47-2.75zM116.12 115.43c.45 1.6-2.49 2.78-4.13 3.44 1.12-1.41 3.15-1.87 4.13-3.44zM48.78 115.77c1.25.47 2.83.61 2.75 2.41-1-.06-1.43-.63-2.4-.69-.56-.15-.56 1.87 0 1.72-.81.9-2.17-.56-3.44-.34v-2.07c1.09.06 1.51.78 2.75.69.74.06.16-1.22.34-1.72zM122 117.49c-1.24-.09-1.66.64-2.75.69-.08-1.8 1.5-1.94 2.75-2.41v1.72c1.44.18 1.92-.6 3.09-.69v2.07c-1.37 0-2.06.68-3.44.68a2.91 2.91 0 00.35-2.06zM92.76 117.15c4.32-2.49 8.09 2 12 3.78-3.39-.49-8.12-2.62-12-3.78zM55.65 119.21c.84-.71 2.26.93 3.44 1 .5.6-2.87-.4-3.44-1zM115.09 118.87c-.35 1.36-2.47 1-3.44 1.71-.23-.58 2.4-1.25 3.44-1.71zM58.75 121.27c3.3-.27-5.25.67 0 0zM112 121.27c.61.2 2-.41 2.07.34H112c-1-.32-1-1.15 0-.34zM85.2 123.68c-2.19-.79-5.58-.38-7.9-1h-5.5c-.61.1-.7-.32-.34-.34h28.17c.61-.1.7.33.34.34h-6.53a60.65 60.65 0 01-7.9.69c5.08.71 10.85-.64 15.8-.34.12.81-3.6.74-4.8 1.37.08-.6.59-.78 1.37-.68-3.87-.67-8.73.66-12.37 1.37.84.53 2.24.51 3.44.69-1.73 1.79-5.38 1.45-7.56.34a7.49 7.49 0 013.78-.69c-3.52-1.29-7.92-1.7-12.37-2.06 0 .64 1.16.21 1.38.69-.94.46-3.31-.58-4.81-.69 3.06-.86 9.82.44 15.8.31zM68.71 124.71c.92-.23 3 1.35 4.46 1.71-1.51.82-3.05-1.29-4.46-1.71zM101 124.36c.24 1.16-2.35 2.45-4.46 2.41 1.19-1.1 3.46-1.08 4.46-2.41zM60.46 128.48c.58-1.37 1.39-2.5 2.06-3.77.69.93-.82 2.59-1 3.77.23 1 .74-.32 1.38 0 .26 1.64-.54 2.22-.35 3.78-1-.09-1.33 1.1-2.06.35.34-.92 2.08-3.89-.03-4.13zM67.33 125.05c.34-.31 3.08 1.31 2.41 2.06-1.22-.27-1.26-1.72-2.41-2.06zM102.72 124.71c.4.75-1.32 2.33-2.41 2.74-.69-1.05 2.27-1.39 2.41-2.74zM103.75 124.71c.39.06.19.34 0 .34-.46 3.59-1.33 2.25 0-.34zM105.81 124.71c.25.16-.39 2.33-.69 3.09-1.33-.08.57-2.24.69-3.09zM67.68 127.8c.13-1.39-.94-1.58-1.38-2.41.79-.88 1.33 1.41 2.06 1.72-1.29 1 .32 2.47 1 3.44-.08.49-1 .12-1 .68-1-.76-1.21-2.21-1.71-3.43zM64.93 125.39c.49.75 1.51 2.1 1 2.75-.78-.45-.63-1.86-1-2.75zM56 145c-.67 2.65-1.76 4.89-2.41 7.56a84.37 84.37 0 00-10.3 6.19c1-3.27 4.19-7.26 5.84-11 2.3-.93 4.55-1.89 6.87-2.75z"/>
    </g>
  </g>
</svg>
