<svg xmlns="http://www.w3.org/2000/svg" viewBox="0 0 1352 1352"><defs><style>.cls-1{fill:#fff;fill-rule:evenodd;}</style></defs><g id="Layer_2" data-name="Layer 2"><g id="Camada_1" data-name="Camada 1"><rect width="1352" height="1352" rx="676"/><path class="cls-1" d="M675,258.94c9.36,10.29,12.24,27.06,18.61,40.33-5.25,8.32-11.15,16-15.12,25.59-10.16-5.61-13.82-17.72-20.16-27.14C663,283.87,669.05,271.44,675,258.94Z"/><path class="cls-1" d="M720,260.88c3.73,13.33,7.8,26.33,10.86,40.33-5.54,10.1-14.3,17-20.16,26.75-6-4.27-7.53-13.44-10.48-21.32-.83-2.26-3.05-5.4-3.1-7.37-.12-5.17,7.39-15.73,10.08-19.78C712.19,272,716,266.41,720,260.88Z"/><path class="cls-1" d="M631.21,262.43c8,5.45,13.47,17.2,20.17,26.76,1.39,2,4.93,6.17,5,7,.45,3.22-4.82,12.36-6.2,15.51-2.5,5.71-4.49,10-7,14.73-8.77-6.61-14.06-16.7-22.1-24C625.6,290.17,626,273.87,631.21,262.43Z"/><path class="cls-1" d="M765.38,266.31c1.11,2.9-.89,6.15-1.16,9.69-.88,11.43,3.84,24.46,1.94,36.45-9.34,5.91-14.42,16.09-25.21,20.55.39-12.78-8.1-17-7-28.3.77-7.76,8-14.59,13.58-20.17,6.27-6.28,12.52-12.33,16.67-18.61C764.85,265.81,764.89,266.28,765.38,266.31Z"/><path class="cls-1" d="M588.94,269.41c7.66,3.92,15.58,15.57,22.11,23.65,2.28,2.83,6.09,6.14,6.59,8.15,1.26,5.06-1.2,11.09-2.33,15.9-1.2,5.13-2.4,9.92-2.33,15.89-9.71-1.38-15.71-8.71-21.71-15.51-2-2.25-4.94-4.79-5.43-6.59-1.56-5.69.15-14.16.77-20.94C587.28,282.73,588.5,275.83,588.94,269.41Z"/><path class="cls-1" d="M547.06,279.49a365.45,365.45,0,0,1,29.08,26c2.42,2.41,7.59,7.27,8.15,9.7,2.13,9.22-5.55,19.56-3.49,31.41-10.95-4.83-17.57-14-28.7-18.62C552.45,309.78,548.34,296.05,547.06,279.49Z"/><path class="cls-1" d="M798.34,326.41c-9.79,5.33-17.19,13-26.75,18.62a156.85,156.85,0,0,0-3.88-29.86C778.09,301.9,790.88,291,803,279.49,807.55,295.74,799.46,310.87,798.34,326.41Z"/><path class="cls-1" d="M846,294.23c1.19,1.88-.82,3.84-1.55,5.43-5.79,12.59-9.79,28.8-14,43.43-11.28,6.3-21.3,13.85-34.12,18.61a299.35,299.35,0,0,0,5-35.29C816.52,315.89,829.69,303.47,846,294.23Z"/><path class="cls-1" d="M506.73,296.17c15.92,8.77,27.93,21.45,43.82,30.24.32,14,3.8,24.9,5,38-1.48.86-2.42-1.2-3.49-1.94-9-6.28-20.71-12.06-30.63-17.84C518.16,326.87,509.7,314.27,506.73,296.17Z"/><path class="cls-1" d="M490.83,404c-6.47-1.76-10.16-8.49-14.35-13.57-1.64-2-3.92-4.81-6.2-7.76s-5.24-5.46-5.82-7.75c-.94-3.74,0-9.59,0-14.35V317.11c-.11-.7.37-.8.39-.39,5.89,4.87,9.84,15.84,15.12,24.82,6.47,11,16.31,17.4,15.13,33-.55,7.16-3.48,14.58-3.88,22.1C491.08,399.19,491.88,401.47,490.83,404Z"/><path class="cls-1" d="M468,316.72C487,323,501.69,337,520.3,345c2.91,13.24,8.4,23.91,11.64,36.84-11.77-3.88-22.26-9-33.74-13.19C488.59,350.88,479.2,332.87,468,316.72Z"/><path class="cls-1" d="M882.11,316.33c-6.59,17.72-19.69,32.28-26.76,50.8-13.65,3.54-23.43,10.95-36.84,14.74,2.57-13.72,9.37-23.2,11.63-37.23C848.49,336.23,863.29,324.27,882.11,316.33Z"/><path class="cls-1" d="M885.21,317.11c.33-.08.36.15.39.38s.15.37.38.39c-.2,19,4.82,34.07,2.72,50-2.61,19.85-18.54,22.9-26.37,37.22-1.56-13.13-6.57-23.42-5.43-35.67C858.76,349.47,880.68,335,885.21,317.11Z"/><path class="cls-1" d="M675,329.9c7.21,4,8.85,13.65,13.57,20.17-1.6,8.48-9,11.18-11.63,18.61a132,132,0,0,1-13.57-17.06C666,343.15,671.94,337.93,675,329.9Z"/><path class="cls-1" d="M706.83,331.84c6.25,5.39,8.49,14.78,12,22.88a50.48,50.48,0,0,1-16.29,14c-1.63-6.9-6.82-10.24-10.47-15.12C694.27,343.58,704.05,341.21,706.83,331.84Z"/><path class="cls-1" d="M659.9,350.07c-2.22,7.85-7.69,12.47-10.08,20.16-8-3-13.14-8.83-16.67-16.28,3.65-6.44,6-14.18,9.69-20.56C650,337.47,653.16,345.57,659.9,350.07Z"/><path class="cls-1" d="M427.24,336.49c11.46,14,24.27,26.66,35.67,40.72-.49,11.4,1,24.78-.77,34.9-6.23-1-10.1-5.69-14.35-8.92-4.41-3.34-8.35-7-13.57-9.69C431.75,374.63,429.06,356,427.24,336.49Z"/><path class="cls-1" d="M925.15,338.05c2,.29.08,3.62-.39,5.42-3.62,14.06-4.12,34.3-7,49.64-4.9,3.29-9.48,6.45-14,10.08-4.31,3.5-8.66,7.27-14.35,9.31,1.42-12.76-3.33-24.94,0-34.9,5.29-15.79,26.86-25.94,34.91-39.55Z"/><path class="cls-1" d="M611.05,340c9,3.8,14.27,11.32,18.61,19.78-3.28,5.13-5.69,11.12-8.14,17.06-5.86-4.22-12.77-7.4-17.07-13.18C606.69,355.79,609.16,348.18,611.05,340Z"/><path class="cls-1" d="M746,365.19c-6.33,1.69-9.16,6.87-14,10.08a27.58,27.58,0,0,1-5.81-8.92c-1.46-3.18-4.25-7.73-3.88-10.85.27-2.27,4.71-5.52,7-7.37,3.69-3,6.5-4.72,8.14-8.15C744.57,344.12,744.66,355.28,746,365.19Z"/><path class="cls-1" d="M771.2,377.21c-5.12,3.28-10.82,6-15.51,9.7-4-4.82-3.1-14.48-6.59-19.78,2.88-8.36,13.17-9.32,16.67-17.06C773.56,353.14,767.72,369.83,771.2,377.21Z"/><path class="cls-1" d="M582.35,351.62c8.35,2.9,13.13,9.36,20.16,13.57-.19,9.12-4.36,14.25-4.65,23.27-5.94-.93-9.13-7.92-17.06-8.15C579.28,370.18,582.62,361.77,582.35,351.62Z"/><path class="cls-1" d="M435.77,427.62c-10.63-4.23-20.82-8.91-30.64-14-3.22-16.94-8.92-31.41-11.24-49.24-.11-.7.36-.8.38-.39,11.8,10.82,26.22,19,38,29.86A221.27,221.27,0,0,0,435.77,427.62Z"/><path class="cls-1" d="M957.72,365.19c-1.87,16.61-7.74,32.59-11.24,48.86-9.85,4.63-19.71,9.24-29.86,13.57.23-7.66,2.34-16,2.71-24.43.1-2.2-.72-6.09,0-8.53s6-5.41,8.92-7.75C937.76,379.32,948.73,371.2,957.72,365.19Z"/><path class="cls-1" d="M557.14,366.74c7.38,3.74,13.45,8.79,21.72,11.64-1.16,7.88-.69,17.4-3.1,24-7.22-1.32-10.43-6.63-17.07-8.53C560.24,384.29,555.86,376.17,557.14,366.74Z"/><path class="cls-1" d="M789.82,395.44c-4.5,2.35-10.36,3.35-14,6.59-3.69-5.95.9-17.92-3.1-23.27,5.38-4.83,14-6.47,18.61-12C799.94,373.63,791.42,387,789.82,395.44Z"/><path class="cls-1" d="M675,370.23c5.22,3.7,8.91,8.93,12,14.74-5.16,2.72-6.49,9.28-13.18,10.47-2.92-2.77-4.83-6.55-8.92-8.15C667.4,380.7,672.46,376.71,675,370.23Z"/><path class="cls-1" d="M701.79,371.78c5.2,4.36,8.41,10.72,10.47,18.23-7,10.64-20.54,2.93-22.11-7.76C696,380.68,698.92,376.28,701.79,371.78Z"/><path class="cls-1" d="M647.89,373.72c4.53,3,11.1,5.54,11.63,11.64.5,5.81-4.74,10.12-8.53,13.57a51,51,0,0,1-11.25-8.53C640.66,383,645.82,379.93,647.89,373.72Z"/><path class="cls-1" d="M737.46,395.44c-5.94,12.89-22.11,3.93-21.71-8.53A13.59,13.59,0,0,0,727,378.76C734.49,380.32,731.56,392.29,737.46,395.44Z"/><path class="cls-1" d="M636.25,388.85c-2.4,6.38-5.39,12.18-9.69,16.67-2.76-3.45-7.61-4.8-12-6.59.52-7.88,4.26-12.54,6.59-18.62C628.37,381,628.51,388.7,636.25,388.85Z"/><path class="cls-1" d="M815.8,385.74c-2.43,8.95-6.79,19.33-8.92,29.86-6.62.24-10.19,3.52-17.06,3.49,1.78-7.13,3.3-14.53,3.1-23.65,6.82-3.39,15.52-4.91,20.55-10.08A3.3,3.3,0,0,1,815.8,385.74Z"/><path class="cls-1" d="M535.43,388.46c10.67-.08,15.82,5.37,23.26,8.53-.76,8.78,2,14,1.94,22.1-6-1.39-12.16-2.57-17.06-5C542.41,404,538.93,396.2,535.43,388.46Z"/><path class="cls-1" d="M597.47,390.4c2.84,1.9,12.69,5.27,13.58,8.53,1.78,6.58-6.33,9.88-6.6,16.67-4.52-1.16-6.9-4.47-12-5C593.25,403,596.54,397.86,597.47,390.4Z"/><path class="cls-1" d="M757.63,410.56c-6-.85-6.44,3.9-12,3.49-1-3.61-2-7.78-3.49-10.86-.17-.35-3.13-3.74-3.1-4.26.11-2.94,10.1-5.42,12-8.53C757.89,392.46,757.27,402,757.63,410.56Z"/><path class="cls-1" d="M363.25,393.89c12.87,7.43,26.13,14.45,40.72,20.16.76,12.68,4.7,22.19,6.59,33.74-11.57-1.75-20.33-6.29-31.8-8.14C373.58,424.41,366.79,410.78,363.25,393.89Z"/><path class="cls-1" d="M989.52,395.44c.69,1.56-.87,3.2-1.55,4.65-5.37,11.44-9.44,26.64-14.35,39.17-11.18,2.38-20.54,6.6-32.18,8.53,1.86-11.58,5.74-21.15,6.59-33.74C963.23,409.21,973.86,399.81,989.52,395.44Z"/><path class="cls-1" d="M673.48,397.38c2.71,2.3,7.48,5.09,9.69,8.14.77,1.05,2.14,3.53,1.94,4.65-.8,4.57-21.06,7.58-20.16-1.94C665.5,402.38,673.72,405.34,673.48,397.38Z"/><path class="cls-1" d="M649.82,400.48c4.4,2.84,10.17,4.31,11.64,10.08-6,.57-7.36,5.83-11.25,8.53-3.26-2.55-8-3.65-8.92-8.53C646.07,409.13,648.4,405.26,649.82,400.48Z"/><path class="cls-1" d="M688.6,408.23c1.89-4.05,9-2.88,10.09-7.75,4.63,1.75,11.39,6.13,9.69,12.8-.58,2.27-4.73,6-7.76,5.81-3.25-.15-5.26-4.45-7.75-7C691.28,410.5,689.64,410.15,688.6,408.23Z"/><path class="cls-1" d="M774.69,425.68c-4.78-.25-5.1,3.95-10.08,3.5,1.17-7.15-4.94-12.31-3.49-17.84,1.09-4.17,7.72-3.3,9.69-7.37C775.35,408,774.53,417.31,774.69,425.68Z"/><path class="cls-1" d="M579.25,405.91c3.74,1.68,7.73,3.13,11.63,4.65-1.76,6.12-2.54,13.23-5,18.62-3.3-.72-4.59-3.43-8.53-3.49C576.1,418.48,579.39,413.25,579.25,405.91Z"/><path class="cls-1" d="M626.94,407.46c5.13.3,5.64,5.22,11.25,5-1.18,6.19-7.12,7.61-8.92,13.19-4-.28-6.56-2-9.69-3.11C619.65,415.16,624.53,412.54,626.94,407.46Z"/><path class="cls-1" d="M732.42,422.58c-3.28.73-7.11.91-10.47,1.55-2.59-3-2.55-8.56-8.14-8.53C716.46,402.66,734.9,409.46,732.42,422.58Z"/><path class="cls-1" d="M491.61,409c8,6.6,13.1,16.12,21.71,22.1-1,5.48-2.84,10.09-3.1,16.29-3.7-.76-7.59-3.43-11.24-6.2-2.33-1.77-8.49-5.59-9.31-8.92C488,425.34,493.61,418.53,491.61,409Z"/><path class="cls-1" d="M523.41,409.4c15.53,1.91,26.08,12.18,27.14,29.86C533.06,437.75,530,421.86,523.41,409.4Z"/><path class="cls-1" d="M858.45,409c9.72,16.4-1.18,35.86-16.67,38.78,1.07-6.77-4.13-11.33-3.11-16.29.51-2.43,8.64-8.09,10.47-10.08A87.35,87.35,0,0,0,858.45,409Z"/><path class="cls-1" d="M801.45,437.71a121.24,121.24,0,0,1,5-20.56c5.83-3.21,14.6-3.49,19.39-7.75.45-.06.69.08.77.39C823.49,424.33,818.3,436.85,801.45,437.71Z"/><path class="cls-1" d="M518.36,410.56c8.31,7.67,18.81,21.76,12,37.23-6.18-4-10.88-9.55-15.52-15.12C515.54,424.8,518.83,419.55,518.36,410.56Z"/><path class="cls-1" d="M830.14,410.56h1.17c2.65,5.6,6.26,13.19,5.81,19.78-.59,8.8-11.27,10.39-13.57,17.45C812,436,826.77,421.6,830.14,410.56Z"/><path class="cls-1" d="M464.46,417.54c8.58,5,15.64,11.51,23.66,17.06.15,6.37-3.16,11.33-1.55,17.84-6.86-2.19-14.18-7.28-22.11-9.69Z"/><path class="cls-1" d="M616.09,422.19c-1.23,6-6.6,7.89-8.15,13.58a15.56,15.56,0,0,0-8.53-1.55c.8-7,4.1-11.42,6.59-16.68C609.67,418.79,612.42,421,616.09,422.19Z"/><path class="cls-1" d="M752.59,433.05c-1.88,1.35-6.08.39-7,2.72-3.33.3-5.16-6.59-7-9.7-.83-1.4-3.06-3.2-2.72-4.65.76-3.25,5.14-.67,6.6-3.88C748.58,420,750.69,426.42,752.59,433.05Z"/><path class="cls-1" d="M887.54,442.75c-7.13,3-14.76,5.41-20.17,10.08-2.5-2.92-2.24-9.49-2.71-13.57-.15-1.24-1-3.25-.78-4.27.62-2.59,7.6-6.08,10.47-8.14,5-3.6,8.39-6.16,10.86-9.31C890.54,422.61,885.84,434.66,887.54,442.75Z"/><path class="cls-1" d="M685.11,425.68c-2.05,7.53-16.05,7.76-20.16,1.94C666.56,419,681.56,418.12,685.11,425.68Z"/><path class="cls-1" d="M690.15,429.17c.75-6.92,10.69-9.65,15.9-4.26,3.06,3.16,3.69,7.82-1.55,8.92C698.18,435.16,693.72,430.61,690.15,429.17Z"/><path class="cls-1" d="M563.74,422.58a76.46,76.46,0,0,0,12,3.11c-.24,6.61-.7,13-3.49,17.06C561.67,443.78,564.93,431,563.74,422.58Z"/><path class="cls-1" d="M785.94,422.58c5.57,4-.38,12.2.38,18.62-3.63-1.75-4.61,2.3-8.53,1.55,1.69-6.42-2.23-10.39-1.55-17.06C779.75,426.34,784.92,425.67,785.94,422.58Z"/><path class="cls-1" d="M659.9,426.07c-.6,5.6-7.55,4.85-8.52,10.09-4.75-.18-6.69-4.76-11.64-3.49C641.27,425.5,653.58,418.93,659.9,426.07Z"/><path class="cls-1" d="M336.49,427.62c11.05,7.32,28.05,8.67,41.88,13.19,1.69,12.4,8.58,19.61,10.09,32.19-10.62-1-20.61-2.66-31.41-3.5-5.6-8.39-10.71-18.38-15.9-28.3C338.82,436.76,336.81,433.26,336.49,427.62Z"/><path class="cls-1" d="M636.25,431.11c-.89,6.35-9.15,5.33-10.08,11.64-2.43-.81-3.79-2.67-6.59-3.1a27.6,27.6,0,0,1,10.85-12c.93,1.41,1.62,3,3.11,3.88C634.76,431.69,634.91,430.8,636.25,431.11Z"/><path class="cls-1" d="M734,438.09c-1.67,2.59-5.85,2.68-8.14,4.66-.32,7,8.62,4.82,8.14,12-7.85,1-10.31-3.39-15.12-5.43v-3.1c1.34-1.37,4.17-1.26,5-3.1a13.93,13.93,0,0,0-8.53-9.31c-.83-4.71,4.32-3.44,5.43-6.21C727.81,428.49,728.93,435.25,734,438.09Z"/><path class="cls-1" d="M1016.67,430c-.31,3.7-3.55,6.16-5.43,9.31-5.65,9.44-9.46,21.32-15.9,30.24-11.17.73-21.24,2.55-32.19,3.5,1.92-12.05,8.67-19.26,10.08-31.8,13.71-4.27,28.67-7.27,41.89-12,1.06-.29.78.77,1.55.77Z"/><path class="cls-1" d="M585.84,430.73c4.68-.68,6.47,1.54,10.08,1.94-3.37,5.54-1.27,16.56-11.63,15.12C584.44,441.63,587,437,585.84,430.73Z"/><path class="cls-1" d="M764.61,431.11c-.23,5.79,2.34,8.78,3.1,13.58-1.75,1-4.51.91-5,3.1-4-3.35-4.61-10.13-8.14-14C756.71,431.74,761.22,432,764.61,431.11Z"/><path class="cls-1" d="M437.71,432.66c9.62,2.66,16.44,8.12,25.2,11.64v18.61c-8.23-.81-13-5.06-22.1-5C440.5,448.74,437.76,442,437.71,432.66Z"/><path class="cls-1" d="M911.19,457.87c-9.11-.06-13.92,4.18-22.1,5V444.3c7.44-3.54,16-8,22.49-11.25C918.53,438.9,909.19,449.69,911.19,457.87Z"/><path class="cls-1" d="M695.58,436.15c8.13.15,9.71,6.84,16.68,8.15-4.31,7.36-16.17,2.25-20.17-1.94C692.27,439.3,696.28,440.08,695.58,436.15Z"/><path class="cls-1" d="M687.05,440.81c-5,5-16.42,4.91-23.65,1.94C666.69,434.8,681.33,435.58,687.05,440.81Z"/><path class="cls-1" d="M616.09,439.26c-3.76,4.86-5.73,15.35-15.13,12,2.1-4.89,4.8-9.16,7-14C612.09,436.54,612.25,439.74,616.09,439.26Z"/><path class="cls-1" d="M746,437.71c-.67,6.1,7.49,7.77,3.49,13.57-6.89-1.13-10.48-5.56-12-12A10.63,10.63,0,0,1,746,437.71Z"/><path class="cls-1" d="M659.9,440.81c-4.43,4.74-14,10.93-21.71,5.43C641.39,439.75,652.3,436.28,659.9,440.81Z"/><path class="cls-1" d="M798,440.81c-2.77,7.18-3,16.89-7.76,22.1C782.71,457.71,786.05,437.15,798,440.81Z"/><path class="cls-1" d="M563.74,444.3c-.43,7.28,2.8,10.9,1.93,18.61-2.95.37-3.41-1.75-6.2-1.55-.2,7.44,5.42,12.42,6.2,20.17-6.27-3.3-6.91-12.22-12-16.68,8.23-2.94,4.3-16.52,0-20.94C555.84,438.75,559.58,444.58,563.74,444.3Z"/><path class="cls-1" d="M633.15,444.3c-3.47,5.52-7.21,12.59-17.06,10.47C619,448.52,623.81,444.14,633.15,444.3Z"/><path class="cls-1" d="M776.63,462.91c-6.83-1.06-5.28-10.49-7-16.67,2,0,4.2.07,4.65-1.55C778.69,447.23,779.29,458,776.63,462.91Z"/><path class="cls-1" d="M580.8,446.24c.73,7.53.16,16.91-6.59,18.22C575,457.41,569.94,444.15,580.8,446.24Z"/><path class="cls-1" d="M590.88,449.34c1.56,1.28,3.87,1.82,6.59,1.94-1.11,6.25-11.21,11-5,17.45-3.12,3.86-4.15,9.8-10.08,10.86.86-5.1,7.25-6.69,6.59-12-.47-1.47-2.73-1.15-4.65-1.17C585.35,459.58,589.17,455.52,590.88,449.34Z"/><path class="cls-1" d="M756.08,449.34c7,1.39,9,7.81,10.08,15.12C758.74,463.48,757.06,456.76,756.08,449.34Z"/><path class="cls-1" d="M686.66,452.44c-3.35,8.37-17.39,4-24.81,2.33C665.66,448,679.57,450,686.66,452.44Z"/><path class="cls-1" d="M414.05,451.28c9,1.59,16.47,4.73,25.21,6.59-1.6,7.39,2.37,12.29,1.55,20.17-7.92,1.67-13.63-2.11-21.72-1.55A215.74,215.74,0,0,1,414.05,451.28Z"/><path class="cls-1" d="M509.83,451.67c5.22,3.54,18.37,7.06,14,17.83-6.84.12-9.2-4.24-15.52-4.65C507.64,459.55,511.45,456.65,509.83,451.67Z"/><path class="cls-1" d="M843.72,464.85c-6.35.37-8.68,4.76-15.52,4.65-4.9-10.79,8.37-12.24,12-18.22C843.18,454,842.48,460.4,843.72,464.85Z"/><path class="cls-1" d="M935.23,451.28c5.87,7.13-2.32,16.61-2.32,25.21-8.09-.56-13.8,3.22-21.72,1.55-1.23-6.82,3.14-13,1.55-20.17C920.44,455.88,928.2,453.94,935.23,451.28Z"/><path class="cls-1" d="M656.41,454a23.24,23.24,0,0,1-21.71,5.82C638,453.71,648.84,448.91,656.41,454Z"/><path class="cls-1" d="M713.81,455.93c-2.64,6.8-12.52,3.24-18.61,1.94C696.59,447.5,707.82,453.86,713.81,455.93Z"/><path class="cls-1" d="M530,452.83c5.87,5.51,14,8.7,15.51,18.61-8.21,2.52-10.67-6.72-17.06-8.53C528.34,458.93,528.3,455,530,452.83Z"/><path class="cls-1" d="M820.06,452.83c9.34,6.27-4.16,20.74-13.57,18.61C807,461.2,816.65,460.15,820.06,452.83Z"/><path class="cls-1" d="M756.08,464.46c-6.36,7.6-10-7.41-16.68-8.14C745.22,447.67,750.7,463.31,756.08,464.46Z"/><path class="cls-1" d="M611.05,454.38c-2.54,5.87-8.88,7.93-11.64,13.57C596.1,460.55,604.14,455.36,611.05,454.38Z"/><path class="cls-1" d="M486.57,456.32c9,.53,13.33,5.8,20.16,8.53-.35,3.53-2.61,5.15-1.94,9.7-6.85-.78-11.77-3.48-18.22-4.66Z"/><path class="cls-1" d="M865.43,456.32v13.57c-6.5,1.12-11.34,3.91-18.22,4.66.55-4.31-1.47-6-1.94-9.31C851.58,461.86,856.42,457,865.43,456.32Z"/><path class="cls-1" d="M742.51,466.4c-8.18,6.85-14.08-5.51-21.72-6.59C729.19,451.7,734.74,465.34,742.51,466.4Z"/><path class="cls-1" d="M627.72,457.87c-3.78,5.65-8.64,10.23-17.84,10.47,0-1.49,2-2.29,3.1-3.49C616.26,461.41,620,456,627.72,457.87Z"/><path class="cls-1" d="M687.05,464.46c-4.14,4.68-16,3.16-22.88,1.94-.26-1.65,2.23-3.34,4.27-4.26C674.53,459.37,682.84,462.13,687.05,464.46Z"/><path class="cls-1" d="M796.41,461.36c2.77,8-5.81,11.2-6.59,18.23-4.41-5,2.61-10.09,1.54-16.68C793.66,463,796,463.13,796.41,461.36Z"/><path class="cls-1" d="M567.23,462.91c1.59.61,2.52,1.88,5,1.55,1.13,4.82-.64,9.57-1.55,13.58C568,474.59,567.83,468.51,567.23,462.91Z"/><path class="cls-1" d="M801.45,462.91c1.76.83,2.2,3,3.49,4.27-1.85,6.81-9.76,7.56-11.64,14.35C791.39,473.69,799.28,469.22,801.45,462.91Z"/><path class="cls-1" d="M651.38,464.46c-5.72,4.79-14.79,9.38-25.21,7C632,467,641.08,460.76,651.38,464.46Z"/><path class="cls-1" d="M722,471.83c-11,3.16-15.61-5.84-26.37-5.43C702.72,459.24,719.68,465.7,722,471.83Z"/><path class="cls-1" d="M356.27,471.06c3.11,11.24,11.13,17.57,14,29.08-5.41.24-10.94,1.29-16.67,1.55-5.1.23-12.25,1.45-16.68,0-2.28-.75-4.6-5.75-6.59-8.53-6.09-8.48-13.23-17.67-19-25.21.35-1.09,1.18-3.7,1.94-3.1C325.16,469.33,341.64,469.27,356.27,471.06Z"/><path class="cls-1" d="M464.46,464.46c5.6,3.33,14.14,3.71,20.17,6.6-2,2.53-1.55,7.5-1.55,12-6.85,1.61-11.79-1.87-18.62-1.55Z"/><path class="cls-1" d="M781.28,464.46c5.3,2.46.55,9.07,1.55,15.13C779.59,477.33,778.36,468.15,781.28,464.46Z"/><path class="cls-1" d="M887.54,481.53c-6.83-.32-11.78,3.16-18.62,1.55-.28-4.62,1.26-8.72-1.55-10.86,3.33-5.34,14.5-2.82,18.23-7.76C890,467.59,886.11,476,887.54,481.53Z"/><path class="cls-1" d="M579.25,464.85c1.5-.34,1.38.95,2.32,1.17,0,5.44-4.64,6.21-4.26,12C574.13,474,579,469.2,579.25,464.85Z"/><path class="cls-1" d="M776.24,480.75c-2.31-4.28-4.11-9.08-6.59-13.18C776.06,462.55,774.43,476.3,776.24,480.75Z"/><path class="cls-1" d="M1042.26,467.57c-10.76,9.53-17.54,23.05-26.76,34.12a240.93,240.93,0,0,1-33.73-1.55c2.59-11.49,10.82-17.35,13.57-28.7,13-1.19,27.17-3.69,39.94-4.65C1037.7,466.61,1040.15,466.06,1042.26,467.57Z"/><path class="cls-1" d="M747.55,468.34c7.44-.2,10.47,7.37,15.12,11.25C756.47,478.55,751.81,472.61,747.55,468.34Z"/><path class="cls-1" d="M762.28,468.34c2.37,3.45,4.49,7.14,5,12.41-3.17.72-2.79-2.12-2.71-4.65A37.65,37.65,0,0,1,762.28,468.34Z"/><path class="cls-1" d="M601,471.06c-2.7,4.66-9.19,5.54-11.63,10.47C589.82,476.56,594.8,469.11,601,471.06Z"/><path class="cls-1" d="M693.64,474.55c-3.36,3.23-9.5,3.68-16.28,3.49,15.41,8,38.37,8.41,60.1,10.08-.24-3.12-6.07-.65-6.59-3.49,8.84-1.44,15,3.05,23.27,3.49-24.45,4.07-50.71-1.87-76.4-1.55,5.28,2.46,11.71,2.32,18.23,2.71,6,.37,12.18,1.69,18.23,2.33,8.43.89,17.9,0,26.75,0,2.46,0,5.91-1,7.76,1.16-46.15.65-95,.65-141.15,0,7.54-2.62,17.86-.5,27.14-1.16,12.4-.89,25.44-3.91,38.39-3.49-25.42-3.91-49.31,2.94-75.62,1.94,4.18-5.9,17.14-3,23.27-7,.85,1.76-1.31,3.85-3.88,3.49,21.35,2.92,38.08-5.31,57.78-6.59-3.87-3-10.74-3-17.06-3.49-.21-1.61,2.61-3.4,4.65-4.27C670.72,468.58,687.1,470.61,693.64,474.55Z"/><path class="cls-1" d="M615.31,471.44c.59,1.42-1.73,2.67-3.1,3.49-4.63,2.78-13.29,3.38-15.9,8.15C598,476.11,607.45,473.54,615.31,471.44Z"/><path class="cls-1" d="M754.14,483.08c-6.9-4-13.75-8-22.88-9.7C740,468.5,750.73,477,754.14,483.08Z"/><path class="cls-1" d="M828.2,473c.14,2.19-.54,5.2,1.94,5.05-4,3.55-11.6,7.06-18.61,5,1.13-7,11.24-5.05,14-10.47C826.52,472.61,827.7,472.46,828.2,473Z"/><path class="cls-1" d="M523.41,473c6.11,2.94,14.88,3.22,16.67,10.48-7.42,1.68-11.7-3-18.23-3.49C522.7,478,523.75,476.19,523.41,473Z"/><path class="cls-1" d="M392,474.55c7.5,2.19,17.77,1.61,25.59,3.49,1.9,6.37,3,13.58,4.65,20.16-8.65-.77-13.81,2-21.71,1.94C398.56,490.68,393.93,483.94,392,474.55Z"/><path class="cls-1" d="M644.78,474.55a173.75,173.75,0,0,1-34.9,8.53A72.23,72.23,0,0,1,644.78,474.55Z"/><path class="cls-1" d="M741.73,481.14c-13.81,2.66-24.78-4.15-38-4.65,2-2.36,7.19-2.21,10.09-1.94C723,475.39,732.5,480.57,741.73,481.14Z"/><path class="cls-1" d="M959.28,474.93c.46,3.81-1.86,8.35-3.5,12.41s-3.58,8.3-4.26,12.8c-7.91,0-13.08-2.69-21.72-1.94.51-6.73,4-10.52,3.11-18.61C939.19,475.53,950.93,476.92,959.28,474.93Z"/><path class="cls-1" d="M504.79,476.48c4.59,2,10.78,2.41,15.13,4.66-.65,2.19-1.79,3.9-1.56,7-3-2.55-9.88-1.23-15.12-1.55C505.05,484.43,505.43,479.91,504.79,476.48Z"/><path class="cls-1" d="M543.57,476.48c6,1.21,7.65,6.83,13.57,8.15C550.88,486.7,543.79,483,543.57,476.48Z"/><path class="cls-1" d="M846.82,476.48c1.59,2.5-2,8.14,1.94,8.54-2.46,4.47-11.57-1.35-14.35,3.1-1.1-1.49-.28-4.89-2.72-5,1.06-5.54,10.42-2.77,13.19-6.59Z"/><path class="cls-1" d="M462.91,483.08v13.57c-7.42-.7-10.85,2.59-18.22,1.94-.37-5.58-.83-13.13-1.56-17.06C450.2,480,455.94,483.18,462.91,483.08Z"/><path class="cls-1" d="M909.25,481.53c-1.89,4.44-1.19,11.47-1.94,17.06-7.39.67-10.82-2.63-18.22-1.94V483.08C896.16,483.14,902,480,909.25,481.53Z"/><path class="cls-1" d="M484.63,485c3.76,2.44,11.12,1.29,17.06,1.55.74,4.74-2.68,5.33-1.94,10.08-5.57-.25-12.13.5-17.06-.39C481.92,491.1,485.26,490,484.63,485Z"/><path class="cls-1" d="M868.92,496.65H852.25c.68-4.69-2.79-5.22-1.94-10.08,4.9-1.36,12.09,2.13,15.12-1.55C868.38,487.11,869.1,491.43,868.92,496.65Z"/><path class="cls-1" d="M555.2,490.06c-4.4,4.27-10.12-1.48-16.28-.39C542.33,482.82,548.57,491.65,555.2,490.06Z"/><path class="cls-1" d="M813.08,487.73c-3.11,3.61-10,3.41-16.28,3.88C801.17,489.47,806.32,486.2,813.08,487.73Z"/><path class="cls-1" d="M535.43,495.1c-5-1.56-14.15,2.25-17.07-1.94C520.13,487.07,535.46,488.12,535.43,495.1Z"/><path class="cls-1" d="M833.63,491.61c-.74,5.63-16.3,5.55-17.06,0C820.86,490.33,830.13,487.73,833.63,491.61Z"/><path class="cls-1" d="M770,495.1c-28.64,8.33-60.65,13.29-92.68,18.22,5.74,4.48,15.51,4.91,25.59,5,.25,1.64-2.19,3.21-3.88,4.27-5.57,3.49-14.34,5.65-21.71,7.37,2.8,6.12,14.45,6.74,21.33,10.08-4.76,7.4-16.83,9.54-22.11,15.12-8.56-5.14-20.26-7.14-24.82-16.28,9.06.52,13-6.14,20.94-5.43-4.62-6.75-17.21-8.9-27.53-11.25,5.84-6.3,19.8-4.5,29.47-7-29.26-7.83-61.44-12.75-93.07-18.22C641.11,492.27,707.14,496.08,770,495.1Z"/><path class="cls-1" d="M515.26,496.65c1,9-8.91,7.11-15.51,8.53C497.89,495.2,507.68,496,515.26,496.65Z"/><path class="cls-1" d="M816.57,496.65c-3.63,1.93-8.2,2.92-14,2.71C804.23,495.43,811.31,497,816.57,496.65Z"/><path class="cls-1" d="M836.74,496.65h13.57c-.25,3.74,2.83,4.14,1.94,8.53C845.71,503.7,835.62,505.78,836.74,496.65Z"/><path class="cls-1" d="M464.46,498.2h17.07c1.93,12.15-8.71,11.72-17.07,13.57Z"/><path class="cls-1" d="M887.54,498.2v13.57c-8.35-1.87-19.09-1.33-17.07-13.57Z"/><path class="cls-1" d="M768.49,498.59c.66-.14.73.3.77.77C762.57,507.58,751.18,511,741,517.2c-2.23,1.36-6.6,5.89-8.92,6.21s-6.06-1.82-9.3-2.33a71.4,71.4,0,0,0-10.47-.77C727.88,509.94,751.53,507.62,768.49,498.59Z"/><path class="cls-1" d="M424.13,500.14H444.3v15.12c-6.65-.6-10.64,3.2-17.06,1.56C428.06,510.83,424.66,506,424.13,500.14Z"/><path class="cls-1" d="M907.7,500.14h20.17c-.74,6-3.54,9.9-3.49,16.68-6.23,1.62-10.15-2.22-16.68-1.56Z"/><path class="cls-1" d="M400.48,501.69c1.11,7.81,5.7,12.14,6.59,20.16-8.14.26-14.8,2-21.71,3.49-2.24-8.88-8.83-15.46-11.64-22.49C381.07,499.7,391.93,502.73,400.48,501.69Z"/><path class="cls-1" d="M531.16,501.69c1.18,0-.17,2.43-.38,2.72-2.74,3.77-11.92,4-17.07,5.81C512.66,502.06,524,503,531.16,501.69Z"/><path class="cls-1" d="M580.8,502.08c12.6,1.52,27.42,6,39.16,10.86,5.86,2.4,9.28,6.23,17.84,5.42-3.75,3.23-8.92,5-15.89,5,4.2,8.07,17.13,10.78,26.36,15.12-.72,3-3.72,4.07-7,5-2.71.81-7.17,2.44-9.69,1.94s-8.34-7.14-10.47-8.92c-3.81-3.17-11-6.71-9.7-10.47,2.44-1.12,5.34.59,7.37-.78C609.6,515.68,592.82,510.22,580.8,502.08Z"/><path class="cls-1" d="M820.06,501.69c7.6,1.45,18.3-.2,18.61,8.53C831.76,508.09,822.13,508.67,820.06,501.69Z"/><path class="cls-1" d="M978.28,501.69c-2.74,9-9.37,14.16-11.64,23.65-7-1.44-13.57-3.22-21.71-3.49.86-8.05,5.42-12.41,6.59-20.16Z"/><path class="cls-1" d="M821.61,508.67c-6.79,2.18-10.53-4.82-17.06-5.43C810.16,502.08,817.94,505.33,821.61,508.67Z"/><path class="cls-1" d="M336.49,503.24c5.76,8.85,12,17.18,18.23,25.59-9.77,1.68-16.84,7.33-27.15,7-18.23-.61-22.59-23.27-36.45-29.09.06-1.37,1.11-1.73,1.17-3.1C304.9,507.83,321.89,501.85,336.49,503.24Z"/><path class="cls-1" d="M770.81,503.63c-.88,10.62-11.36,15-16.28,22.88,7,12.15-6.17,20.84-10.48,29.08-3.08-.78-4.37-3.38-8.14-3.49,2.85-10.72,11.45-15.7,16.68-24-1.07-1.9-5-1-6.59-2.33C752.64,516.74,763.63,512.09,770.81,503.63Z"/><path class="cls-1" d="M777.79,505.18c3.52,12.07-3.41,22.67-3.1,35.29-2.79-.57-3.88-2.85-5.43-4.65-6.21,6.32-7.65,17.42-11.24,26.36-3.43-1.09-5.42-3.63-8.53-5,.75-11.53,8.43-16.12,11.63-25.2,2.89-.31,4.51.66,6.2,1.55A165.88,165.88,0,0,0,777.79,505.18Z"/><path class="cls-1" d="M782.83,505.18c7.3,17.39,9,40.36,13.58,60.49C778.48,558.92,783.66,529,782.83,505.18Z"/><path class="cls-1" d="M567.23,505.57c3.8,20.05,4.62,52.54-10.09,59.72C557.2,542.08,564.74,526.35,567.23,505.57Z"/><path class="cls-1" d="M498.2,506.73c-1.69,2-2.46,6.69-1.55,10.09,5.68.24,8.09-2.77,12.8-3.5,1.94,8.54-6.9,9.65-12.41,12-.9-1.94-.14-5.55-.39-8.14-6.37-1.69-9.81,2.84-15.51,3.11V510.22C487.76,510,491.35,506.73,498.2,506.73Z"/><path class="cls-1" d="M870.47,510.22v10.09c-5.43-.52-7.86-4-14.35-3.49-1.78,1.95-.11,5.66-.38,8.52-6.55-2.11-14.13-3.19-14-12,4.92.38,7.27,3.33,12.41,3.5,2.53-1.29,1.79-7.47,0-8.92C860.31,505.1,864,510.84,870.47,510.22Z"/><path class="cls-1" d="M544.35,510.22c1,0,.47.29.38.78-5.57,6.19-14.8,8.71-19.39,15.9C524.85,516.06,537.21,514.72,544.35,510.22Z"/><path class="cls-1" d="M541.63,523.41c-.37-7.56,7.64-9.89,12.8-13.19.82.86-.41,1.87,0,3.49C547.89,514.68,545.35,519.63,541.63,523.41Z"/><path class="cls-1" d="M796.8,511.77c7.49-.64,11.48,5.58,14.73,10.47-5.46.79-6-6.67-10.47-8.14-2.1-.54-2.06,1-3.49,1.16C796.43,514.41,798.65,512.21,796.8,511.77Z"/><path class="cls-1" d="M806.88,512.16c10.56-.87,17.54,7.27,21.32,13.18C819,523,815.77,514.78,806.88,512.16Z"/><path class="cls-1" d="M462.14,513.32h.77V526.9c-6.59-.4-8.55,3.86-15.12,3.49V515.26C453.74,515.78,457.51,514.12,462.14,513.32Z"/><path class="cls-1" d="M889.09,513.32c5.17.52,8.83,2.54,15.12,1.94v15.13c-6.73.52-8.47-3.94-15.12-3.49Z"/><path class="cls-1" d="M525,513.71c4,6.33-6,8.36-11.25,11.63-2,1.27-2.74,2.8-4.26,2.72C506.16,517.77,521,519.31,525,513.71Z"/><path class="cls-1" d="M825.1,513.71c6.21,4.91,18.89,3.35,18.62,14.74C837.46,523.59,826.69,523.25,825.1,513.71Z"/><path class="cls-1" d="M943,521.85c-1.83,6.58-5.36,11.45-6.59,18.62-5.78-.42-8.29-4.12-15.13-3.49-.34-6.94,3.42-9.77,3.11-16.67C930.94,518.84,936.22,523.53,943,521.85Z"/><path class="cls-1" d="M427.24,520.31c.38,6.33,3.53,9.9,3.49,16.67-6.84-.63-9.35,3.07-15.13,3.49A73.29,73.29,0,0,0,409,523.41C413.81,521.09,420.31,520.49,427.24,520.31Z"/><path class="cls-1" d="M543.57,521.85c2.61,7.35-7.05,8.92-8.14,15.13C533.31,530.16,541.34,526.9,543.57,521.85Z"/><path class="cls-1" d="M874,523.41c4.48,1.2,8.85,2.53,13.58,3.49v12c-5.28-.93-9.25-3.17-13.58-5Z"/><path class="cls-1" d="M536.59,523.8c-1.9,13.09-17,16.37-21.33,28.3C515.28,537.13,529,532.46,536.59,523.8Z"/><path class="cls-1" d="M477.26,525c1.81,1.45,1.24,6.37.78,8.92-4.23,1.84-8.22,3.93-13.19,5-.9-3.24-.13-8.14-.39-12C468.45,526.2,472.4,523.49,477.26,525Z"/><path class="cls-1" d="M741,525.34c-5.3,8.8-14.46,13.72-22.1,20.17-5.27-.81-9.26-2.89-14.74-3.49C715.16,535.23,722.49,524.73,741,525.34Z"/><path class="cls-1" d="M813.47,525.73c12.53,2.47,19.11,14.24,25.2,24.43C828.53,545.32,822.25,533.24,813.47,525.73Z"/><path class="cls-1" d="M395.44,547.45c-8,1-12.64,5.2-22.11,4.65-3.4-7.19-9-12.2-13.18-18.61,6.23-4.24,16.37-4.57,24.82-6.59C388,534.19,393.42,539.13,395.44,547.45Z"/><path class="cls-1" d="M991.85,531.94a73.43,73.43,0,0,1-15.12,20.16c-8.26,0-12.82-3.73-20.17-4.65,1.77-8.44,7.57-12.85,10.08-20.55C975.79,527.84,982.86,530.84,991.85,531.94Z"/><path class="cls-1" d="M491.22,528.83c4.79,9-6.05,14.53-13.18,16.68-1.78-4.8,2.44-6.82,1.55-12C484.15,532.62,488.83,531.87,491.22,528.83Z"/><path class="cls-1" d="M858.84,528.83c4.29,1.66,7.84,4.06,13.18,4.66-.5,3.74,3.42,7.37,1.94,12C866.38,542.5,858.39,539.88,858.84,528.83Z"/><path class="cls-1" d="M447.79,547.06c-2.86,2.45-7.61,3-10.86,5-2.66-1.67-1.8-6.72-2.71-10.08-.52-1.92-1.81-2.53-1.56-3.88,2.73-3.73,10.5-2.43,13.19-6.2C450,534.19,446.23,542.79,447.79,547.06Z"/><path class="cls-1" d="M519.53,531.94c-.66,11.1-12.65,14.24-18.23,21.71C501.36,540.4,511.41,537.14,519.53,531.94Z"/><path class="cls-1" d="M904.21,531.94a95.75,95.75,0,0,0,15.12,5,82,82,0,0,0-3.1,15.12,110.63,110.63,0,0,1-12-4.65Z"/><path class="cls-1" d="M832.08,533.49c11.16,1.64,16.14,9.45,19.78,18.61A34.37,34.37,0,0,1,832.08,533.49Z"/><path class="cls-1" d="M504.79,533.88c-1.62,8.71-7.67,13-14.35,16.67-.24-4.19,2.49-6.36,1.17-10.47C496.06,538.08,498.72,534.27,504.79,533.88Z"/><path class="cls-1" d="M862.33,549c-9.16-.28-11.64-7.23-15.12-13.18C855.17,531.45,861.22,542.18,862.33,549Z"/><path class="cls-1" d="M344.64,562.57c-9.9,3.42-21,5.62-29.86,10.09-10.31-6-20.15-12.73-29.86-19.78-2.82-2-7.93-4.28-7.37-8.92,15.82,3.91,26.45-7.16,41.11-5.43C332.49,540.16,336.84,553.93,344.64,562.57Z"/><path class="cls-1" d="M1076,547.06c-12.78,8-25.1,16.52-36.84,25.6-11.18-3.44-21.54-7.68-33.74-10.09,6.7-9.59,16.81-15.76,25.21-23.65C1045.81,541.57,1063,542.22,1076,547.06Z"/><path class="cls-1" d="M420.64,559.08c-4.53,2.19-8.74,4.71-15.12,5-.79-7.09-6.19-9.57-6.59-17.06,4.86-1.73,11.76-1.42,14.73-5C418.1,545.6,418.73,553,420.64,559.08Z"/><path class="cls-1" d="M462.14,542.41c2.11,3.17-.45,9.34.77,12.79-3.85,2-6.63,5-12,5.43V547.06c2.81-2.23,8.79-1.29,10.08-5A1.8,1.8,0,0,0,462.14,542.41Z"/><path class="cls-1" d="M901.11,547.06v13.57c-5.47-.22-7.8-3.57-12-5V542.8c1.07-.6,3.39,1.15,5.43,1.94C896.78,545.61,899.29,546.26,901.11,547.06Z"/><path class="cls-1" d="M936.4,542.41a124.36,124.36,0,0,0,16.67,4.65c-.48,7.4-5.8,10-6.59,17.06-6.44-.28-10.61-2.83-15.12-5C932.2,552.69,935.13,548.38,936.4,542.41Z"/><path class="cls-1" d="M575.37,544c6.42,9.54,9.88,35.09-2.72,40.33C568.76,573,569.23,552.21,575.37,544Z"/><path class="cls-1" d="M774.3,544c10.81,5.56,5.85,24.65,7,39.55-1.73.31-4.32-2.42-6.2-4.26a40.32,40.32,0,0,1-5.43-6.59C771.28,563.17,773.1,553.87,774.3,544Z"/><path class="cls-1" d="M732.42,552.1c-5.4,8.69-12,16.2-18.61,23.66-7.57-.19-10-5.52-16.68-6.6,3.54-11.19,15.77-13.7,22.11-22.1A57.75,57.75,0,0,1,732.42,552.1Z"/><path class="cls-1" d="M654.87,564.12c-2.21,7.1-9.91,8.71-16.29,11.64-7.13-7.48-13.12-16.1-20.55-23.27C630.54,539.4,645.6,558.76,654.87,564.12Z"/><path class="cls-1" d="M465.63,569.16c-3-3-.17-9.36-1.17-13.57,3.64-1.79,7.26-3.59,9.7-6.59C478.65,557.22,471.65,566.39,465.63,569.16Z"/><path class="cls-1" d="M875.51,549c5.08,1.13,7.2,5.21,12,6.59v13.57C879.4,566.57,876.12,559.12,875.51,549Z"/><path class="cls-1" d="M433.83,554c3.12,3.6,3.54,9.9,3.49,16.68-4.6-.08-5.09,3.95-10.08,3.49a21.13,21.13,0,0,0-4.66-13.58C424,556.11,432.31,558.47,433.83,554Z"/><path class="cls-1" d="M916.23,554a59.44,59.44,0,0,0,13.18,5c-2,4.72-4.55,8.89-5,15.13-4.85.32-5.27-3.79-10.09-3.49C913.51,563.73,917,561,916.23,554Z"/><path class="cls-1" d="M386.52,572.66c-2.39,2.81-4.9,5.42-8.15,6.59-12.77,4.61-22.38-9.52-28.3-15.51,5-5,16-3.92,21.71-8.15C379.71,558,382.16,568,386.52,572.66Z"/><path class="cls-1" d="M476.1,575.76c-3.5-8.68,3.41-17.67,8.92-19.78,1.45-.29.84,1.48,1.93,1.55C487.15,567.42,481.76,571.73,476.1,575.76Z"/><path class="cls-1" d="M1001.93,562.18c-5,7.27-11.49,13.07-18.22,18.62-8.85.44-11-5.81-18.62-6.59,2.51-7.58,8.72-11.45,11.64-18.62C985.65,557.27,993,560.55,1001.93,562.18Z"/><path class="cls-1" d="M877.45,575.76c-8-2.58-11.49-9.71-13.57-18.23C873.69,555.26,877,566.11,877.45,575.76Z"/><path class="cls-1" d="M693.64,567.23c-4.44,6.28-12.5,8.95-16.67,15.51-7.82-3.43-12.14-10.35-20.17-13.58C662.79,557.66,685.78,556.81,693.64,567.23Z"/><path class="cls-1" d="M485.79,580.41c-2.76-9.37,3.26-15.93,8.53-19.78C498.49,568.26,490.25,577.67,485.79,580.41Z"/><path class="cls-1" d="M506.34,560.63c1,16.11-10.5,23.11-16.28,33.74C489.21,578.4,498.52,569.23,506.34,560.63Z"/><path class="cls-1" d="M843.72,560.63c11.38,6.07,15.85,19,20.16,32.19C852.63,586.62,847.68,574.12,843.72,560.63Z"/><path class="cls-1" d="M855.35,560.63c8.42,2.31,11.8,9.66,12,20.17C859.85,577.59,856.94,569.77,855.35,560.63Z"/><path class="cls-1" d="M449,564.12c5.86,5.67,3.43,20.79-6.2,20.17.73-6.55-2.67-9-1.94-15.51C443.52,567.22,447.68,567.11,449,564.12Z"/><path class="cls-1" d="M606,594.37c-5.59,2.56-11,7.38-15.51,9.7-4.54-10.45-11-36,3.88-40C599.65,572.81,602.85,583.56,606,594.37Z"/><path class="cls-1" d="M756.08,564.12c3.56,3.51,10.6,4.45,11.63,9.7.77,3.92-1.47,10.3-2.33,15.51-.88,5.42-1.82,10.65-2.71,15.12-6.23-2.82-11-7.09-16.67-10.47C748.4,583.07,753.48,574.84,756.08,564.12Z"/><path class="cls-1" d="M901.11,564.12l10.08,5c.52,6.21-2.77,8.62-1.94,15.13-5.09-.6-6.85-4.52-10.08-7C899.15,572.25,901.87,569.93,901.11,564.12Z"/><path class="cls-1" d="M961.6,573.82c-2.54,3.49-6.57,14.81-12,15.51-5.25.68-5.28-5.69-11.63-5,.07-7.68,4.77-10.74,6.59-16.67C951.39,568.52,955.68,572,961.6,573.82Z"/><path class="cls-1" d="M414.05,584.29c-5.81-.75-6.32,4.61-10.08,5-7.62.88-7.83-10.2-13.57-13.18C396.62,564.45,416.06,567.85,414.05,584.29Z"/><path class="cls-1" d="M461,572.66c4.25,6.22,2.62,20.41-6.59,20.16V577.7C458.11,577.55,459.64,575.2,461,572.66Z"/><path class="cls-1" d="M889.09,572.66c4.28.24,3.39,5.65,8.53,5v15.12C888.44,592.44,888.84,582.47,889.09,572.66Z"/><path class="cls-1" d="M341.54,592.43c-8.35,7.16-21.36,9.67-31,15.51C294,602.2,279.18,594.81,264,587.78c1.54-2.89,3.3-1.39,5.43-1.55,15.42-1.19,29.84-9.81,43.82-12,3.17-.51,11.48,7.93,14,9.69A92.73,92.73,0,0,0,341.54,592.43Z"/><path class="cls-1" d="M1088,588.94c-17.1,4.88-29.75,14.2-46.92,19-9.63-4.85-19.27-9.69-30.25-13.18,2.5-4.33,7.75-7,12.41-10.08a131.25,131.25,0,0,0,14-10.47c8.69,1.28,17.6,4.71,26,7.36S1080,585.74,1088,588.94Z"/><path class="cls-1" d="M426.07,577.7c6.5.61,2.7,11.52,8.15,13.18-3.23,2.47-5.07,6.31-10.09,7-1.3-6.19-6.49-8.5-7-15.51C420.37,581,423.72,579.87,426.07,577.7Z"/><path class="cls-1" d="M922.82,577.7c5.3.26,7.85,3.26,11.64,5-.33,7-5.4,9.34-7,15.12-5.24.51-4.76-6.51-9.7-5C919.64,588,922.71,584.3,922.82,577.7Z"/><path class="cls-1" d="M654.87,597.86c-1.84,7.6-11.22,7.66-13.19,15.12-7.54-6.67-10.79-17.64-17.06-25.59,3.08-3.63,8.46-5,12-8.14C646.28,581.89,647.7,592.75,654.87,597.86Z"/><path class="cls-1" d="M725.83,584.29c-1.43,12-8.08,18.81-13.57,26.76-8.14-1.18-9.39-9.23-16.68-11.25,4.24-7.65,10.89-12.9,15.13-20.55C718.07,578.6,719.39,584,725.83,584.29Z"/><path class="cls-1" d="M471.06,580.8c2.34,3.86,1.67,9.68-.39,15.12-.64,1.67-3.31,7-4.27,7-4.3-.1-.8-13.22-1.94-17.06C468.68,586.17,469.83,583.46,471.06,580.8Z"/><path class="cls-1" d="M879,580.8c3.89.64,3.2,5.85,8.54,5V602.9C879.72,600.51,880.28,589.73,879,580.8Z"/><path class="cls-1" d="M385,599c-1.87,2.56-4.9,3.85-8.15,5.82-2.44,1.49-6.54,4.84-9.3,4.65-2.47-.16-9.07-6.33-11.25-7.75-4.25-2.77-8.33-5.14-9.69-9.31,7-1.93,13.69-4.14,18.61-8.14C375.91,585.07,376.94,595.55,385,599Z"/><path class="cls-1" d="M693.64,595.92c-2.42,11.53-12.28,15.64-16.67,25.21-7.57-5.36-11.53-14.33-18.61-20.17,2.89-8.22,11.61-10.62,16.67-16.67C681.67,587.73,685.55,593.93,693.64,595.92Z"/><path class="cls-1" d="M1005.42,592.43c-2.69,6.07-9.37,9.12-15.12,13.19-1.39,1-4.31,3.7-5.43,3.87-7.22,1.12-9.69-8.94-18.23-8.14,3.88-7,11-10.7,15.52-17.06C991.69,585.22,996.19,591.2,1005.42,592.43Z"/><path class="cls-1" d="M440.81,587.78c3.9,3.15,8.77,18.52-1.55,18.22.27-6.47-4-8.4-3.49-15.12C438.82,591.22,439.89,589.57,440.81,587.78Z"/><path class="cls-1" d="M744.06,594.76c-1.52,9.47-6.36,15.61-8.15,24.82a111.31,111.31,0,0,1-20.16-6.6c2.6-10.32,9.54-16.31,13.57-25.2C737,587.31,739,592.59,744.06,594.76Z"/><path class="cls-1" d="M909.25,587.78c3.19.18,3.75,4.58,7,3.49.35,6.43-3.9,8.25-3.49,14.73C902.24,606.14,908.44,593.75,909.25,587.78Z"/><path class="cls-1" d="M636.25,613a120.28,120.28,0,0,1-20.16,6.6c-2.16-9-6.37-15.87-8.53-24.82,2.81-3.39,5.92-6.49,12.79-5.82C629,593.61,632.43,603.5,636.25,613Z"/><path class="cls-1" d="M479.2,589.33c1.7,9.64-3.09,19.37-6.21,26.76C467.93,606.66,473.81,594.43,479.2,589.33Z"/><path class="cls-1" d="M870.47,591.27c9.79.43,10.55,13.23,10.47,24.82C873,612.32,875.46,598,870.47,591.27Z"/><path class="cls-1" d="M412.11,606.78a20.66,20.66,0,0,1-11.24,7.76c-4.6-4.45-8.27-9.84-14-13.19,3.19-3.3,8.79-5.79,12-8.53.05,0,.32,0,.39,0C406.3,592,406.67,603.82,412.11,606.78Z"/><path class="cls-1" d="M965.09,599.41c-3.47,6.09-10,9.13-13.57,15.13-5.61-.47-7.46-4.7-11.64-6.6,2.9-5.38,6.68-9.87,9.7-15.12C957.21,592.56,957.75,599.39,965.09,599.41Z"/><path class="cls-1" d="M897.62,597.47c4.15-.66,3.84,3.14,6.59,3.88.12,6.07-2.54,9.35-3.1,14.74C892.69,615,898.64,604.59,897.62,597.47Z"/><path class="cls-1" d="M452.83,616.09c-4.13-2.45-7.65-15.6-1.16-18.23C456,600.37,457.41,612.64,452.83,616.09Z"/><path class="cls-1" d="M422.19,601c4.24.14,4.9,4.39,6.6,8.53,1,2.54,2.17,3.78,1.94,5.43-.48,3.29-4.37,3.08-5.05,6.21-2.46-.57-4.35-3.47-6.2-6.21-1.51-2.23-4.76-5.22-3.88-8.14C416.56,603.61,422,605.59,422.19,601Z"/><path class="cls-1" d="M926.31,601c4.27,1.43,8.09,3.29,10.09,7-1.24,6.14-6.45,8.29-8.53,13.58-3.12-.9-3.7-4.32-6.6-5.43C920.6,608.69,926,607.35,926.31,601Z"/><path class="cls-1" d="M762.67,606c6.73,2.84,11.7,7.44,18.61,10.09v22.1c-8.1-1.85-13.3-6.61-21.71-8.14C759.25,620.69,762.76,615.14,762.67,606Z"/><path class="cls-1" d="M592.43,630.05c-8.45,1.5-13.66,6.25-21.71,8.14v-22.1a74.05,74.05,0,0,0,16.28-9.7C591.73,611.36,591.19,621.59,592.43,630.05Z"/><path class="cls-1" d="M461.36,629.66c-4.35-4.3-5.3-17-.77-21.72C465,612.24,463.17,623.93,461.36,629.66Z"/><path class="cls-1" d="M889.09,607.94c8.45,1.52,3.95,14.79,3.49,21.72C885.53,627,890.88,615.09,889.09,607.94Z"/><path class="cls-1" d="M341.15,622.68c-4.49,6.9-14.25,11.44-23.27,15.9-2.4,1.18-6.46,4.39-8.53,4.65-3.11.4-8.5-1.91-12.41-2.71-12.71-2.6-25.56-4.93-38-7.37,14.24-9.93,34.36-14,48.86-23.66C319.6,613.2,328.85,619.47,341.15,622.68Z"/><path class="cls-1" d="M437.32,609.49c4.71,2.83,10.19,12.44,5.43,18.62-2.19-1.25-9.29-9.3-8.92-13.19C434.1,612,437.17,612.8,437.32,609.49Z"/><path class="cls-1" d="M911.19,609.49c12.3,1.88,2.87,13.35,0,18.62C901.84,625.05,911.88,616.66,911.19,609.49Z"/><path class="cls-1" d="M1093.06,631.21a134.29,134.29,0,0,1-41.88,10.08c-11.47.72-18.79-2.7-26.37-7-5.54-3.13-11.78-6.44-14-11.63,10.87-3.61,21.38-7.57,30.25-13.19C1059,616.15,1074.7,625,1093.06,631.21Z"/><path class="cls-1" d="M386.91,624.62c-6.49,15.82-29.8,5.75-40.33.39,5.5-5.75,14.35-8.14,20.16-13.57C374.53,614.77,380.43,620,386.91,624.62Z"/><path class="cls-1" d="M1005,622.68c-7.38,8.74-31.21,16.62-39.95,3.88,3.45-7.67,12.81-9.42,18.23-15.12C991.69,614.05,995.93,620.8,1005,622.68Z"/><path class="cls-1" d="M400.09,616.47c5.79,3.78,11.17,8,14,14.74-7.32,9.61-16.17-2.69-23.65-4.65C391.33,620.9,398.94,621.92,400.09,616.47Z"/><path class="cls-1" d="M949.58,616.47c4.58,2.15,7.49,6,12,8.15C956.11,628.93,945,641,938,630.82,939.84,624.06,946.8,622.36,949.58,616.47Z"/><path class="cls-1" d="M447.79,621.52c6.13,2.14,4.36,12.18,6.59,18.22C449.38,636.47,448.24,629.34,447.79,621.52Z"/><path class="cls-1" d="M626.17,648.27c-9.82,1.43-18.81,3.68-28.7,5,.07-9-3.33-14.5-3.1-23.65,6.42-2.37,13.08-4.5,18.23-8.14C621.5,626.06,621.76,639.24,626.17,648.27Z"/><path class="cls-1" d="M757.63,629.66c.16,9.08-3.28,14.56-3.1,23.65-9.91-1.34-18.92-3.57-28.7-5,2.26-9.88,7.35-16.95,9.69-26.75C744.29,622.83,749.45,627.76,757.63,629.66Z"/><path class="cls-1" d="M901.11,621.52c7.38,3.89-.9,13.08-1.94,18.22C895.41,633.57,902.26,628.86,901.11,621.52Z"/><path class="cls-1" d="M422.19,623.07c4.26,3.91,11.89,8.08,8.92,16.67-7.18-.31-7.74-7.25-14-8.53C416.6,626.26,421.62,626.89,422.19,623.07Z"/><path class="cls-1" d="M693.64,644c-4.42,11.6-12.37,19.68-16.67,31.41-7.45-9.35-13-20.6-18.61-31.8,4.92-5.09,9.81-16.73,15.89-20.55.43-.27,3,.07,3.88.38,4.59,1.68,6.22,10.15,9.7,14.74C689.75,640.73,691.66,641.56,693.64,644Z"/><path class="cls-1" d="M927.87,623.07c2.85,1.93,6.48,3.08,6.59,7.75-5.38,2.12-6.61,8.39-13.57,8.92C916.83,631.93,926.13,628.82,927.87,623.07Z"/><path class="cls-1" d="M466,624.62c.63-.11.67.37,1.17.39,1.1,6.66-.89,15.89-1.94,22.88C463.62,640.94,463.58,630.64,466,624.62Z"/><path class="cls-1" d="M884.05,624.62c6.31,2.49,3.05,18.19,2.71,24.82A181.45,181.45,0,0,1,884.05,624.62Z"/><path class="cls-1" d="M446.24,649.82c-3.71-4.35-13.69-11.15-7.37-18.22C443.65,635,448.81,641.62,446.24,649.82Z"/><path class="cls-1" d="M541.25,632c2.86,5.07-2,9.3-1.17,15.9,9.54-1.71,18.5-7.35,28.7-9.7v20.17c-11,1.27-20.84,3.72-31.8,5-.09-6,2.57-9.33,3.1-14.74-10.6,2.07-18.12,7.22-28.31,9.7,2.67-15.69,19.49-17.23,28.31-26.76C540.71,631.49,540.75,632,541.25,632Z"/><path class="cls-1" d="M810,631.6c10.88,8.12,26.81,11.19,30.25,26.76-9.52-2.9-18.27-6.56-27.15-10.09-2.93,4.84,2.84,8.7,1.94,15.13-11.1-1.31-21-3.85-32.19-5V638.19a156.34,156.34,0,0,1,26.76,10.08C815.31,644.61,807.71,637.64,810,631.6Z"/><path class="cls-1" d="M910.8,631.6c2.73.25,3.24,2.71,5.43,3.49-1,6.77-7.29,8.22-8.53,14.73C899.93,645,909.69,637.15,910.8,631.6Z"/><path class="cls-1" d="M455.93,636.64c5.58,0,2.81,8.3,3.49,13.18C456.6,647.08,456.45,641.68,455.93,636.64Z"/><path class="cls-1" d="M893.74,636.64c5.89,2.34-1.5,8.85.39,13.18C890.61,647.68,892.48,639.76,893.74,636.64Z"/><path class="cls-1" d="M420.64,646.72c-1.69,11.92-17.17,3.16-21.71-.39C401.68,634.86,415.74,641.93,420.64,646.72Z"/><path class="cls-1" d="M953.07,644.78c-2.78,5.64-19.34,13.63-21.71,2.33C935.86,642.39,948.7,635.12,953.07,644.78Z"/><path class="cls-1" d="M393.5,646.33c-2.45,3.23-6.72,11-11.63,12-3.82.76-9.32-1.69-14-2.72-4.9-1.09-9.48-1.63-14-2.33-.38-1.11,1.92-3.89,3.49-5.42C365.9,639.65,384.35,636.7,393.5,646.33Z"/><path class="cls-1" d="M998.44,651.76c-8.05,3.7-25.24,9-34.9,2.33-1.65-1.14-5.45-4-5.43-5.43,0-3.18,9.33-8,13.58-8.53C984.58,638.45,993.82,646.45,998.44,651.76Z"/><path class="cls-1" d="M427.24,643.23c6.63,2.42,11.47,6.63,13.57,13.57-8.15,1.28-10.75-6.3-16.68-8.53C424.28,645.71,427.13,645.84,427.24,643.23Z"/><path class="cls-1" d="M450.89,643.23c3.19,3.54,5.24,8.21,6.21,14-1.81-.43-1.24-1.83-1.94-3.1C453.1,650.36,448.59,647.79,450.89,643.23Z"/><path class="cls-1" d="M899.17,643.23a3.54,3.54,0,0,1,2.71,1.94c-.67,5.4-5.32,6.83-6.59,11.63C895.28,652.52,898.67,648.3,899.17,643.23Z"/><path class="cls-1" d="M927.87,646.33c-4,4.76-8.56,11.09-16.68,10.47C913.39,650.38,920.27,640.09,927.87,646.33Z"/><path class="cls-1" d="M345.8,653.31c.85,1.41-1.45,2-2.33,2.72-7.12,6.32-16.65,13.09-24,19.39H305.08c21.89-.82,26.75,15.39,41.5,21.71-7.74,7.39-25.46,4.8-35.29,10.09-19.08-8.33-33.44-21.37-53.9-28.31,13.48-.74,25.64-2.8,39.55-3.1-12.41-.91-26.5-.13-39.55-.39,16.92-10.35,36.23-20.38,52.35-30.25C321,648.68,335,649.35,345.8,653.31Z"/><path class="cls-1" d="M673.09,673.87c-10.06,3.5-25.32.1-36.84,1.55a209,209,0,0,1-8.14-27.15c8.34-.83,18-2.45,25.2-3.1C663.46,650.93,665.68,666.67,673.09,673.87Z"/><path class="cls-1" d="M723.89,648.27a233.94,233.94,0,0,1-8.14,27.15H678.52c5.7-10.2,12-19.78,17.06-30.64C705.36,645.61,714.2,647.37,723.89,648.27Z"/><path class="cls-1" d="M1094.61,673.48c-12.2,2.84-28.27,2.19-42.27,1.55-5.89-.27-14,1.45-19.39.39-3.8-.75-10.4-7.9-13.57-10.47-5-4.1-9.11-7.48-14-9.7,7.59-7.4,26.57-5.49,35.68-10.08C1059.88,653.67,1074.41,666.41,1094.61,673.48Z"/><path class="cls-1" d="M443.91,651.76c4.7,2.67,5.73,9,10.47,11.64C449.29,662.89,443.24,658,443.91,651.76Z"/><path class="cls-1" d="M905.76,651.76a3.56,3.56,0,0,1,2.72,1.94c-1.15,5.58-6.33,7.12-10.09,10.08C900.58,659.51,904.85,657.32,905.76,651.76Z"/><path class="cls-1" d="M601,675.42H570.72V658.36c8.26-.52,17.8-2.59,23.65-3.11C600.87,654.68,598,670.43,601,675.42Z"/><path class="cls-1" d="M781.28,658.36v17.06H751c1.05-6.71,3-12.53,3.11-20.17C763.8,655.67,771.91,657.64,781.28,658.36Z"/><path class="cls-1" d="M941.44,665.34c-8.29-2-17.81,6.48-23.66,0C922.68,660.37,939.94,651.62,941.44,665.34Z"/><path class="cls-1" d="M434.22,663.4c-3.35,9.85-15.22-.12-23.27,1.94C410,652,427.45,661,434.22,663.4Z"/><path class="cls-1" d="M985.26,673.48c-12.24,4-33.34,3.54-38.78-6.21,6.84-2.92,14.73-9.79,23.26-6.59C976.24,663.12,978.83,671,985.26,673.48Z"/><path class="cls-1" d="M405.52,665c-3.1,13.32-22.81,10-38.78,10.47,1.89-7.55,12.12-6.75,13.19-15.13C389.27,661,396.82,663.56,405.52,665Z"/><path class="cls-1" d="M508.28,660.29c1.44,3.81-2.47,5.17-1.94,9.31,10.05,0,20.13-3.39,30.64-4.26.85,4.85-2.62,5.39-1.94,10.08H505.18c.43-1.64,1.24-2.9,1.55-4.65-10.87-.15-21.52,3.29-32.18,4.65C483.75,668.34,496.6,664.9,508.28,660.29Z"/><path class="cls-1" d="M843.33,660.29c12.24,3.4,22,9.28,33.74,13.19-10.54,2.71-19.29-2.89-29.48-3.1-.55,1-.67,2.43-1.16,3.49-7.69,3.91-20-.15-29.86,1.55,1.85-4.17-3.25-6.07-1.55-10.08,10.29.6,21.1,4.7,30.25,3.87C846.25,666,842.63,664.48,843.33,660.29Z"/><path class="cls-1" d="M452.44,668.44c-6.34,3.5-9.79-5.28-16.67-5C441.48,655.8,446.08,668.15,452.44,668.44Z"/><path class="cls-1" d="M915.84,661.46c-3.08,4.67-9.85,5.66-14.73,8.53C903.58,665.07,909.17,659.64,915.84,661.46Z"/><path class="cls-1" d="M429.17,670.38c7.78,0,12,3.5,20.17,3.1-4.53,4.23-15.53.36-22.1,1.94C427.36,673.21,430.2,673.72,429.17,670.38Z"/><path class="cls-1" d="M924.38,673.09c-3.39,4.69-14,1.25-20.56,1.94C908.65,672.64,919.21,668,924.38,673.09Z"/><path class="cls-1" d="M405.52,685.89c-4.65,4.66-15.81,2.8-21.72,6.2-6.73-3.34-10.62-9.53-17.06-13.18C378.76,674.85,401.37,675,405.52,685.89Z"/><path class="cls-1" d="M449,677c-5.49,2.37-16.34,7.66-21.71,1.94C431.74,674.37,442.2,678.19,449,677Z"/><path class="cls-1" d="M535.43,677c-1.64,4,2.63,5.34,1.55,10.08-4.89-1-10.5-1.44-15.9-2.32-5.07-.84-10.45-3.38-14.35-1.56-1.06,3.08,2.54,4.65,1.94,8.54-11.7-2.4-22-9.52-34.12-12.8,9.93-3.23,19.73,2.75,29.85,3.1.73-.82.25-2.85,1.17-3.49C513.08,674.21,526,678.55,535.43,677Z"/><path class="cls-1" d="M715.75,677a213,213,0,0,1,8.14,27.14c-10.16.44-18.2,3-28.69,3.11a176,176,0,0,0-16.29-28.7C689,674.53,703.9,678.24,715.75,677Z"/><path class="cls-1" d="M924.38,677c-2.42,9.86-13.8.62-21.33,1.55C907.83,674.46,917.78,678.27,924.38,677Z"/><path class="cls-1" d="M985.26,677c-3.59,6.62-11.24,9.18-15.52,15.12-7.36-2.06-16-2.85-23.26-5C950.06,674.08,969.67,676.9,985.26,677Z"/><path class="cls-1" d="M601,677c-1.41,6.47-2.61,13.15-3.49,20.16-9.34-.61-17.26-2.64-26.75-3.1V677Z"/><path class="cls-1" d="M673.48,677c-6,9.79-11.76,19.78-17.07,30.25-10.32-.14-18.25-2.69-28.3-3.11,2.49-9.4,4.41-19.37,8.53-27.14Z"/><path class="cls-1" d="M675,677c7.45,9.22,13.27,20.08,18.61,31.41-1.67,2-3.93,2.78-5.42,4.65-4,5-5.18,15.77-11.25,16.29-8.3.71-11.06-16.6-18.61-19C661.68,697,670.76,689.38,675,677Z"/><path class="cls-1" d="M751,677h30.25V694c-9.62.46-17.63,2.54-27.14,3.1C754.05,689.47,752.08,683.68,751,677Z"/><path class="cls-1" d="M1094.61,677c-17,10.36-35.48,19.33-52,30.25-11.28-3.59-25.38-4.35-36.45-8.15-.75-1.3,1.3-2.11,1.94-2.71,6.93-6.57,17-13,24.43-19.39Z"/><path class="cls-1" d="M876.29,680.85c1,0,.47.28.39.77-11.86,15.68-30.38,26.76-43,40.33C832.64,694.59,862.45,694.68,876.29,680.85Z"/><path class="cls-1" d="M916.23,688.6c-4.59,7.55-11.76-2.89-15.51-5.81C906.28,682.8,909.66,688.31,916.23,688.6Z"/><path class="cls-1" d="M434.22,686.66c-3.94,5.12-12,6.12-18.23,8.92-1.17-3.48-6-3.26-5.43-8.53C419.66,688.27,427.77,681,434.22,686.66Z"/><path class="cls-1" d="M941.44,687.05c.4,5.19-4.1,5.47-5.82,8.53-6.32-1.82-10.94-5.34-17.84-6.59C921.05,679,933.51,689,941.44,687.05Z"/><path class="cls-1" d="M452.44,687.05c.35.17.7.34.78.78-.66,6.06-6.89,6.55-7.37,12.79-1-.25-1.48-1.11-2.33-1.55C443.74,692.31,451.31,692.9,452.44,687.05Z"/><path class="cls-1" d="M537,688.6c10.61,1.67,20.43,4.13,31.8,5v20.17c-9.81-2.35-18.17-6.14-26.76-9.7-5,3.87,2,10.36,0,15.9-2.32.15-4-2.21-6.21-3.49-9.39-5.56-21.47-9.68-24-22.49,9.58,2.57,17.84,6.46,26.76,9.7C542.08,699,535.69,694.89,537,688.6Z"/><path class="cls-1" d="M814.63,688.6c.9,5.43-2.24,10.17-3.1,15.13,10.42-2.38,18.74-6.86,28.31-10.09-1.5,15.57-19.49,18-28.7,27.15-3.88-4.81,1.65-9.76.78-16.29-9.78,1.47-18.65,7.2-28.7,9.7-.9-6.08-.13-13.83-.39-20.56C794.28,692.81,804.12,690.37,814.63,688.6Z"/><path class="cls-1" d="M897.62,689c5.3.17,10.88,5.35,10.47,11.25C903.65,699,902.42,691.18,897.62,689Z"/><path class="cls-1" d="M437.32,693.64c7.29,6.39-4.66,12.87-9.7,15.52-.72-1.87-2.66-2.51-3.49-4.27C426.85,699.46,434.92,699.39,437.32,693.64Z"/><path class="cls-1" d="M393.89,703.73c-3.31,6.38-13.59,5.8-18.62,10.47-9.45-2.44-14.7-9.09-21.71-14C364.77,695,388.1,690.74,393.89,703.73Z"/><path class="cls-1" d="M927.87,703.73c-4.9,10.21-15.56-1.78-16.68-8.53C919.17,694.14,921.53,701.87,927.87,703.73Z"/><path class="cls-1" d="M894.9,695.2c.63-.12.67.36,1.17.38.47,5.44,7.54,7.66,5,13.58A26.83,26.83,0,0,1,894.9,695.2Z"/><path class="cls-1" d="M998.44,698.69c-4.41,7.35-12.82,10.7-19.77,15.51-7.37-2.33-13.74-5.66-20.56-8.53C961.48,690.27,985.19,695.91,998.44,698.69Z"/><path class="cls-1" d="M597.47,699.07c10.2.92,18.43,3.81,28.7,4.66-2.37,10-7.28,17.54-10.08,27.14-8.31-1.65-13.54-6.36-21.72-8.14C594.15,713.59,597.51,708,597.47,699.07Z"/><path class="cls-1" d="M754.53,699.07c-.14,9.06,3.28,14.55,3.1,23.66-8.32,1.76-13.51,6.66-22.11,8.14-2.23-10-7.56-17-9.69-27.14C736.08,702.86,744.31,700,754.53,699.07Z"/><path class="cls-1" d="M420.64,705.67c-6.67,1.08-8.08,7.42-14.73,8.53-2.18-2.35-3.69-5.36-7-6.6C401.28,701.7,419,693.72,420.64,705.67Z"/><path class="cls-1" d="M953.07,705.28c-2,4-4.62,7.53-9.31,8.92-4.18-2.8-6.67-7.29-12.4-8.53C933,693.52,947.73,702.77,953.07,705.28Z"/><path class="cls-1" d="M444.3,702.18c7.55,5-1.88,13.18-3.49,18.61a10,10,0,0,1-4.27-3.1C436.58,710,443,708.62,444.3,702.18Z"/><path class="cls-1" d="M457.87,702.18c3.38,2.45,1.8,10.61,0,13.57C452.84,712.69,459.47,706.69,457.87,702.18Z"/><path class="cls-1" d="M905.76,702.18c3.47,4.78,13.72,11.27,7.37,18.61C908.33,717.26,903.11,710.64,905.76,702.18Z"/><path class="cls-1" d="M892.58,702.56c2.92,2.64,2.82,8.3,3.49,13.19C890.62,715.63,893.15,707.55,892.58,702.56Z"/><path class="cls-1" d="M886,703.73c3.38,5.56,1.93,17.64,0,23.65C880.78,721.06,888.17,712,886,703.73Z"/><path class="cls-1" d="M464.46,704.11c3.69,5.23,1.93,15.91,3.49,23.27C460.65,724.45,466.19,711.49,464.46,704.11Z"/><path class="cls-1" d="M341.54,728.93c-7.49,3.6-15.77,5.64-23.66,9.7-2.32,1.19-5.13,3.76-7,3.88-3.21.2-9.83-3.61-13.18-5-12.62-5.41-25.35-12-38.4-16.28,13.86-6.87,34.54-8.47,50.42-12,1.62-.37,6.09,3.22,8.53,4.65C326.63,718.7,335.49,721.86,341.54,728.93Z"/><path class="cls-1" d="M1093.06,718.85c-11,7.38-24.67,12.41-38.78,18.22-3.55,1.47-10.11,5.58-13.18,5.44-1.71-.09-5.15-2.76-7.37-3.88-7.45-3.78-15-6.31-23.27-9.31,7-9.77,21.39-12.22,30.25-20.16C1059,711.57,1074.8,716.43,1093.06,718.85Z"/><path class="cls-1" d="M934.85,720.79c.62,5.14-4.67,4.38-5.05,8.53-4.18-3.83-12.54-8.82-8.53-17.06C927.8,713.1,928.46,719.8,934.85,720.79Z"/><path class="cls-1" d="M432.28,713.81c.58,8.47-6.38,9.39-8.15,15.51-3.06-2.11-6.75-3.59-7-8.53C423.82,720.45,425.05,709.89,432.28,713.81Z"/><path class="cls-1" d="M452.44,712.65c2.93,6.08-.29,15.26-4.26,18.22C446.64,723.38,451,718.42,452.44,712.65Z"/><path class="cls-1" d="M897.62,712.65c5,3.22,6.09,10.45,6.59,18.22C898.22,728.59,899.7,718.83,897.62,712.65Z"/><path class="cls-1" d="M570.72,714.2c8.2,1.75,13.43,6.47,21.71,8.14.21,9.13-3.22,14.62-3.1,23.66-7.2-2.24-11.36-7.51-18.61-9.7Z"/><path class="cls-1" d="M781.28,736.3c-6.53,2.39-11.6,6.24-17.06,9.7-3.27-6.17-3.87-15-4.65-23.66a61.77,61.77,0,0,0,18.22-8.14,1,1,0,0,1,.39,0C785.49,714.44,779.25,730,781.28,736.3Z"/><path class="cls-1" d="M414.05,720.79c-2.44,5.44-5.56,10.21-10.86,12.79-6.94.75-9.93-2.46-12.79-5.81,3.5-5.42,11.63-6.2,14.73-12C408.63,716.9,410.35,719.83,414.05,720.79Z"/><path class="cls-1" d="M944.54,715.75c6.27,2.78,9.93,8.16,17.06,10.08-2,3.12-3.91,6.92-7.37,7.75-8.87,2.16-13.55-6.92-16.28-12.4C939.48,718.71,944.47,719.69,944.54,715.75Z"/><path class="cls-1" d="M386.91,726.22c-4.42,6.83-12.88,9.62-19,14.73-7.46-3.52-12.56-9.41-21.32-11.63C354.32,721.22,378.75,712.51,386.91,726.22Z"/><path class="cls-1" d="M1005.42,727.38c-5.68,5.57-14.52,8-20.16,13.57-7.6-3.52-13.63-8.6-20.17-13.18C971.25,711.8,995.33,721.84,1005.42,727.38Z"/><path class="cls-1" d="M459.42,722.34c6.64,2.56,1.76,15.37,3.49,22.1C454.54,742.78,458.85,729.38,459.42,722.34Z"/><path class="cls-1" d="M890.64,722.34c4.12,4,5.32,18,.39,22.1C887.25,739.49,888.7,728.18,890.64,722.34Z"/><path class="cls-1" d="M440.81,724.28c2.47.24,2.57,2.86,5,3.1-1.93,4.92-4.78,8.92-5,15.51-4.27.79-3.78-3.2-6.59-3.87C433.61,731.3,439.31,729.89,440.81,724.28Z"/><path class="cls-1" d="M917.78,738.63c-2.32,1.29-2.52,4.71-6.59,4.26.86-7.54-7.66-12.64-2.33-18.61C913.87,727,917,731.71,917.78,738.63Z"/><path class="cls-1" d="M423.75,730.87c2.92,1.65,6.46,3.5,7,6.59.79,4.79-5.2,8.54-5.05,13.58a14.34,14.34,0,0,1-10.08-6.6C416.49,738.09,422.07,736.44,423.75,730.87Z"/><path class="cls-1" d="M675,730.87c7,7.72,15.32,14.16,18.61,25.6A32.24,32.24,0,0,0,677,768.1c-7.44-3.81-13.19-9.3-18.61-15.12C662.76,744.45,670.79,739.55,675,730.87Z"/><path class="cls-1" d="M936.4,742.89c-.85,5.36-5.49,6.92-10.48,8.15-1.19-5.28-4.57-8.36-3.87-15.51a16.23,16.23,0,0,1,3.87-4.66C931.16,733.13,932.81,739,936.4,742.89Z"/><path class="cls-1" d="M616.09,732.42c6.94,2.11,14.07,4,20.16,7-2.53,10.27-9.9,15.69-13.18,25.21-8.12.75-9.4-5.34-15.51-6.59C609.45,748.54,614.14,741.85,616.09,732.42Z"/><path class="cls-1" d="M735.52,732.42c2.45,8.67,6.65,15.58,8.53,24.82-4.6,2.64-7.19,7.28-14.34,7.37-4.59-8.6-11.28-15.1-14-25.59C722.22,736.69,728.79,734.47,735.52,732.42Z"/><path class="cls-1" d="M450.89,735.91c8.15,1.4,2.63,11.33,3.49,18.62-4.26.77-4.29-2.69-6.59-3.88C447.63,744.55,450.4,741.37,450.89,735.91Z"/><path class="cls-1" d="M471.06,735.91c7.43,4.46,6.06,17.72,10.08,25.6C471.5,759.25,471,747.9,471.06,735.91Z"/><path class="cls-1" d="M897.62,754.53c.78-6.94-3.6-14.56,1.16-18.62C903.69,738.39,907.72,754.74,897.62,754.53Z"/><path class="cls-1" d="M878.62,736.3c5.59,8.62-.14,22.46-6.6,26.37C872.08,751.74,875.66,744.33,878.62,736.3Z"/><path class="cls-1" d="M412.11,744.05c-2.92,5.62-6.64,10.43-10.08,15.52-7.07-.17-7.88-6.6-15.12-6.59,3.3-6.4,10.09-9.3,13.57-15.52C405.79,738.22,407.67,742.42,412.11,744.05Z"/><path class="cls-1" d="M948,737.46c8.19,1.76,9.78,10.13,16.68,13.19a30.61,30.61,0,0,1-14.35,8.92c-4.38-3.77-6.08-10.21-10.48-14C940.83,741.12,947.15,742,948,737.46Z"/><path class="cls-1" d="M639.74,739.4c4.84,5.12,11.93,8,15.13,14.74-5.63,5.88-9.74,13.27-15.52,19-6.52-.59-8.36-5.86-14.73-6.59C628.69,756.53,635.33,749.08,639.74,739.4Z"/><path class="cls-1" d="M725.83,768.1c-6.72-.68-8.71,6.86-14.74,5-2.68-.81-6.82-10-8.91-12.41a43.86,43.86,0,0,0-6.6-5.82c5-5.63,9.08-12.11,17.84-14C716.85,750.71,725.18,755.56,725.83,768.1Z"/><path class="cls-1" d="M340.76,757.63c.34,1.87-3.25,3.79-5.43,5.43-6.45,4.85-14.95,9.76-20.94,15.12C301.2,775.41,289,770.42,276,766.94c-4-1.07-9.17-.83-12-4.27,16.71-3.8,31.36-13.93,46.15-18.23a2.21,2.21,0,0,1,.77,0C320.35,747.71,330.08,754.76,340.76,757.63Z"/><path class="cls-1" d="M1088,764.61c-1.59,2.66-5,1.4-7,1.55-10.93.85-21.63,6-32.19,9.31-3.22,1-8.38,3-10.85,2.71-1.67-.22-5-3.1-7-4.65-6.64-5-13-10.22-20.55-14,8.32-6.81,21.08-9.17,30.25-15.13C1058,749.61,1072.64,757.5,1088,764.61Z"/><path class="cls-1" d="M367.91,768.1c-7.41-2.55-13.46-6.46-21.33-8.53,5.53-10,20.37-18.92,33.73-11.64,2.09,1.14,4.91,2.16,5.05,3.11.24,1.72-6.64,7.8-8.15,9.3A46.59,46.59,0,0,1,367.91,768.1Z"/><path class="cls-1" d="M1005,760c-7.75,1.7-13.66,5.22-20.17,8.15-8.44-2.68-10.76-11.48-18.23-15.12C975.85,737.33,1001.58,748,1005,760Z"/><path class="cls-1" d="M439.26,746c4.21-.71,3.94,3,6.59,3.88-1.19,4.76-2,9.87-3.1,14.74-3.55.06-2.52-4.47-7-3.49C435.38,754.52,439.63,752.57,439.26,746Z"/><path class="cls-1" d="M916.23,760.73c-1.92,1-4.88,1.07-5,3.88-4-3.33-6.86-14.33-1.94-18.61C915.27,747.22,914.41,755.32,916.23,760.73Z"/><path class="cls-1" d="M588.94,747.93c6.84,2.21,10.86,7.24,17.06,10.09-2.37,10.81-7.3,19.06-10.08,29.47-1.68.36-4-1.92-6.2-3.49s-4.92-3-5.43-5.43c-.73-3.4,1.37-9.28,2.32-14.74C587.65,757.93,588.32,752.62,588.94,747.93Z"/><path class="cls-1" d="M757.63,788.26c-5.28-8.55-8.32-19.34-11.63-29.86,4.54-3.85,10.62-6.18,14.73-10.47C766.46,757.56,772.36,784.17,757.63,788.26Z"/><path class="cls-1" d="M464.46,749.48c7.88,2.21,7.07,13.1,8.53,21.72-4.27-.24-3.39-5.66-8.53-5Z"/><path class="cls-1" d="M887.54,766.16c-3.82.06-5.38,2.38-6.6,5-3.75-7.17.46-17.57,4.66-21.71C890.1,752.32,886.05,760.92,887.54,766.16Z"/><path class="cls-1" d="M434.22,759.57c-2.11,4.61-5,8.43-5.05,15.12-5.47-.22-7.67-3.7-12-5,.74-6.63,5.54-9.19,7-15.12C430.12,753.58,428.3,760.45,434.22,759.57Z"/><path class="cls-1" d="M924.38,754.53c6.29,2,8.21,8.33,10.08,14.73-3.54,2.15-6.42,5-11.64,5.43a23.88,23.88,0,0,0-5-14C919.67,758.35,924,758.43,924.38,754.53Z"/><path class="cls-1" d="M861.94,758c.42,15.54-8,25.58-16.67,33.35C845.42,774.84,855.82,768.57,861.94,758Z"/><path class="cls-1" d="M454.38,759.57c9.34.22,8.69,10.44,8.53,20.16-4.26-.26-3.35-5.69-8.53-5Z"/><path class="cls-1" d="M488.12,759.57c11.43,5.88,15.88,18.76,20.16,31.8C496.6,785.73,492.51,772.5,488.12,759.57Z"/><path class="cls-1" d="M896.84,760c2.8,3.69-.64,10.16.78,14.74-4.09-.21-5.33,2.43-6.59,5C886.54,774.38,888.72,758.58,896.84,760Z"/><path class="cls-1" d="M414.05,768.1c-.46,7.42-4.62,11.14-7,16.67-6.24-1.51-11.36-4.15-16.67-6.59C392.33,768.21,405.14,758.61,414.05,768.1Z"/><path class="cls-1" d="M961.6,776.24c-3,5.58-10.82,6.24-17.06,8.53-.68-4-4.6-7.64-5.82-11.24-.43-1.29-1.14-3.69-.77-5,1-3.73,8.9-5.64,13.18-3.88C956.15,766.67,958.61,772.87,961.6,776.24Z"/><path class="cls-1" d="M443.13,767.71c5.19-.14,4,6.12,9.7,5.43.52,6.21-2.76,8.61-1.94,15.12l-10.08-5C440.48,776.94,443.12,773.64,443.13,767.71Z"/><path class="cls-1" d="M570.72,768.1c2.57,2.07,11,7.77,11.63,11.63.62,3.59-2,9.28-2.72,14-.81,5-1.25,9.74-1.93,14.35C567,803.88,571.48,782.88,570.72,768.1Z"/><path class="cls-1" d="M776.63,808.43c-6.34-9.39-10.1-35.32,2.71-40.33C783.28,779.54,782.59,799.94,776.63,808.43Z"/><path class="cls-1" d="M911.19,782.84c-2.51,2.14-6.41,2.89-8.92,5-2.3-3.64-2.41-9.47-3.1-14.73,3.91,0,5.4-2.36,6.59-5C912.13,768.46,909.34,778,911.19,782.84Z"/><path class="cls-1" d="M693.64,782.84c-4,5.68-11.73,7.65-17.06,12-7.66-2.17-11.93-7.72-19.78-9.7,4.57-6.68,13.17-9.33,18.23-15.51C682.32,773,685.67,780.21,693.64,782.84Z"/><path class="cls-1" d="M484.63,771.2c7.16,3.44,10.17,11,12,19.78C488.31,790.26,484.64,781.53,484.63,771.2Z"/><path class="cls-1" d="M856.9,791.37c-2.51-8.92,4.5-14.49,8.14-19.78C871,776.57,862.57,790.1,856.9,791.37Z"/><path class="cls-1" d="M1001.93,788.65c-6.49,4.49-16.83,5.14-24.82,8.15a139.25,139.25,0,0,0-12-16.68c3.41-4.8,8.46-8.53,15.51-7.76C990.28,773.42,996.74,783.56,1001.93,788.65Z"/><path class="cls-1" d="M386.91,778.18c-2.62,7.47-8.89,11.28-11.64,18.62-8.81-1.79-16-5.17-25.2-6.6C354.39,778.29,374.78,765.22,386.91,778.18Z"/><path class="cls-1" d="M474.55,776.24c7.8,3.06,11.74,10,13.57,19C477.75,796.23,475.05,786.39,474.55,776.24Z"/><path class="cls-1" d="M732.42,798.73c-2.28,4.19-8,4.89-13.18,6.21-6.61-8.13-18.8-10.68-22.11-22.1,6-1.1,9.52-4.71,14.74-6.6C721.18,781.27,724.85,792,732.42,798.73Z"/><path class="cls-1" d="M654.87,788.26c-10.34,5.78-21,21.89-36.84,13.58,5.35-9.78,13.76-16.48,20.16-25.21C645,779.22,652.64,781.05,654.87,788.26Z"/><path class="cls-1" d="M864.27,796.8c.07-8.6,5.16-17.59,11.63-19.78C878.64,787.25,872.59,795.07,864.27,796.8Z"/><path class="cls-1" d="M427.24,778.18c5.14-.79,6.16,4.31,10.47,3.1.75,7.09-2.73,9.94-1.94,17.07-4.1-2.12-8.21-4.21-13.58-5C424.29,788.68,427.28,785,427.24,778.18Z"/><path class="cls-1" d="M929.41,791.75c-2,4.06-9.31,2.84-12,6.21-2.25-4.35-2.74-10.45-3.11-16.68,3.78.29,5.39-1.59,7.37-3.1C927.83,779.12,924.6,789.46,929.41,791.75Z"/><path class="cls-1" d="M346.58,789.82c-6.93,9.48-16.95,15.88-25.6,23.65-9.61-1.76-20.94-3-31.41-4.65-5.34-.87-9.86-3.11-14-.39,9.35-12.63,25.77-18.18,37.23-28.7C324.17,783,334.54,787.25,346.58,789.82Z"/><path class="cls-1" d="M1074.45,808.43c-13.14-4.57-26.86,6.67-40.33,5.43-14.41-1.33-19.15-15.59-26.76-24,9.72-3.6,20.8-5.84,29.86-10.09h.78c9.7,6.3,19.37,12.74,29.08,19.78C1069.92,801.57,1075.1,803.64,1074.45,808.43Z"/><path class="cls-1" d="M464.46,783.22c7.93,2.68,11.73,9.47,11.64,20.17-4.42-1.66-7-5.16-11.64-6.59Z"/><path class="cls-1" d="M886.37,783.22c2.78,2.83,0,9.87,1.17,13.58a26.91,26.91,0,0,0-10.09,6.59C873.87,794.48,880.08,786.05,886.37,783.22Z"/><path class="cls-1" d="M555.59,786.71c17.65,6.49,13.21,36.83,13.19,59.72C561.89,829,560,806.64,555.59,786.71Z"/><path class="cls-1" d="M784.77,846.82c-3.67-20.09-4.92-51.35,9.7-60.11C795.35,809.32,786.91,826,784.77,846.82Z"/><path class="cls-1" d="M420.64,793.31c-1,6.27-3.91,10.55-5,16.67a82.2,82.2,0,0,0-16.67-4.65c.35-7.54,5.72-10.05,6.59-17.07C412.29,788.22,416,791.21,420.64,793.31Z"/><path class="cls-1" d="M946.48,788.26c.75,7.14,6.27,9.5,6.59,17.07-5.56,1.15-11.42,2-15.51,4.65-3.44-4.32-4.69-10.82-6.2-17.06C936.5,791.47,939.61,788,946.48,788.26Z"/><path class="cls-1" d="M594,789.82c2.78,2.13,6.68,3.14,8.53,6.2-1.6,10.55-8.29,16-12,24.43a8.26,8.26,0,0,1-5.81-1.94c-4.07,9-7.93,18.19-10.47,28.7-3.56-12.06,3.24-22.87,3.1-35.29,2.63.6,4.07,2.4,5,4.65C589,810.44,590.29,798.92,594,789.82Z"/><path class="cls-1" d="M462.91,796.8V810c-3.82-1.86-8.26-3.12-12-5V791.75C456.51,791.82,458.75,795.27,462.91,796.8Z"/><path class="cls-1" d="M901.11,805.33c-3.67,1.49-8.24,2.1-10.86,4.65-2.77-2.83,0-9.87-1.16-13.57,3.13-1.77,8-5.91,11.24-2.72C902.71,796.07,901.1,801,901.11,805.33Z"/><path class="cls-1" d="M616.09,799.9c-5.2,8.89-13.23,15-18.23,24,1.36,2.26,6.13,1.11,8.14,2.71a7.19,7.19,0,0,1,.39,3.11c-11.33,3.92-17.67,12.83-26.76,19,.65-11.25,12.93-14.22,15.9-24.43.14-1.37-1.75-1.73-1.93-3.49-.35-3.34,3.3-7.7,5.81-11.64,3-4.61,5.65-8.26,6.59-12.4C610.27,796.92,612.83,798.76,616.09,799.9Z"/><path class="cls-1" d="M698.69,810c-4.52,6.08-15,6.23-21.72,10.08,6.7,6.35,22.39,5.79,26.37,13.57-9.94-.36-17,2.17-25.21,3.5,29.24,7.73,61.32,12.62,92.68,18.22-60.38,4.69-126.93.61-189.62,1.94C610,848.71,643,844.4,674.64,838.67c-7.21-4.93-21-3.3-29.86-6.59,8.06-5.26,20.34-6.29,28.31-11.63-6.39-3.05-12.67-6.21-21.33-7,3.63-9.69,16.73-9.9,23.27-16.67C683,801.12,690.38,806,698.69,810Z"/><path class="cls-1" d="M757.63,822c-.28,1.27-1.59,1.51-3.1,1.55,4.37,9.46,12.43,15.23,18.22,23.27-11.28-2.16-16.56-13.69-26.75-18.23.12-3.1,2.86-3.59,6.2-3.49-3.22-9.06-14-13.92-16.29-25.2,2.84-.26,5.48-.73,6.21-3.1C750.58,801.65,755.12,812.48,757.63,822Z"/><path class="cls-1" d="M849.92,798.73c.45-.06.69.09.78.39-.8,12.52-9.91,16.73-19,20.94C833.94,809.12,844.65,806.65,849.92,798.73Z"/><path class="cls-1" d="M395.44,804.94c-1.89,8.19-7.45,12.71-10.08,20.16-9.58-.37-15.95-4-25.21-4.65,3-8.41,10-12.77,13.57-20.55C382.44,800.1,387.92,803.54,395.44,804.94Z"/><path class="cls-1" d="M435.77,799.9c3.85,1.84,8.46,2.91,12,5v15.12c-5.21-1.38-9.4-3.79-15.13-4.65A100.13,100.13,0,0,0,435.77,799.9Z"/><path class="cls-1" d="M499.75,800.28c8.87,2.38,16,9.86,20.17,18.23C508.13,817.5,504.19,808.65,499.75,800.28Z"/><path class="cls-1" d="M919.33,814.24c-3.42,3.17-10.11,3.08-14,5.82-2.82-3.34.15-10.9-1.16-15.12,2.68-2.36,7.95-2.13,10.08-5C918.63,802,916.45,810.67,919.33,814.24Z"/><path class="cls-1" d="M991.85,818.9c-6.69,3.77-16.05,4.89-25.21,6.2-2.61-7.46-8.27-11.89-10.08-20.16,8.22.06,11.47-6.46,19-5C984.5,801.57,985,814.31,991.85,818.9Z"/><path class="cls-1" d="M836.74,800.28c-.11,14.64-14.25,20.66-21.72,27.92C818.3,814.93,832,812.1,836.74,800.28Z"/><path class="cls-1" d="M513.32,802.22c-.07-.33.15-.36.39-.38s.37.15.39.38c8.34,5.3,15,14.45,21.71,22.11.77.86,2.74,1.39,1.94,2.71C525.74,822.64,519.28,812.69,513.32,802.22Z"/><path class="cls-1" d="M847.21,818.51c1.1-8.59,8.12-13.33,13.57-16.29C862.11,812,856,817.62,847.21,818.51Z"/><path class="cls-1" d="M490.06,803.39c8,0,12.22,7.16,14.73,14-5.84,2.15-9.31-3.9-13.57-5.82C490.66,808.69,493.24,804.12,490.06,803.39Z"/><path class="cls-1" d="M478,806.88c7.81,2.78,15.46,5.73,15.12,16.67-4.23-2-8.35-4.06-13.57-5C480.34,813.59,476.37,811.43,478,806.88Z"/><path class="cls-1" d="M647.89,811.53c-6.51,7.32-18.75,8.92-26.37,15.12,4,3.21,10.43,4.05,16.28,5.43-17.08,8.39-38.2,12.72-56.23,20.17-.34-1.78,4.68-5.27,7.37-7,9.24-5.88,21.39-10.59,30.25-16.68-.45-3.17-5.48-1.75-8.14-2.71,4.45-8.6,14-12.09,20.16-19A37.91,37.91,0,0,1,647.89,811.53Z"/><path class="cls-1" d="M874,807.65c1.1,4-2.47,7.82-1.94,11.25-5,.19-9.39,3-12,4.26-4-8.7,6.43-11.51,10.09-16.28A5.42,5.42,0,0,1,874,807.65Z"/><path class="cls-1" d="M740.56,825.49c-17.4,4.87-23.55-10.55-36.84-13.57C718.06,799.64,733.11,817.41,740.56,825.49Z"/><path class="cls-1" d="M430.34,815c1.11,6.29-3,10.68-3.1,17.06-7.34.61-10.81-2.63-18.23-1.94,1.94-6.33,5.16-11.38,6.59-18.22C421.31,811.89,424.53,816.44,430.34,815Z"/><path class="cls-1" d="M943,829c-5.13,2.11-11.74,2.74-18.61,3.1.33-7.06-3.54-9.91-3.11-17.06,7.35,2.13,9.9-4.88,14.35-2.33C940.37,815.42,938.37,824.7,943,829Z"/><path class="cls-1" d="M464.46,813.47c5.37.83,9.48,2.93,13.58,5v10.08c-5-.54-8.53-2.59-13.58-3.1Z"/><path class="cls-1" d="M886.76,813.47c2.36,2.89-.45,8.18.78,12-5.11.45-8.56,2.56-13.58,3.1V818.12C878.47,816.81,881.68,814.2,886.76,813.47Z"/><path class="cls-1" d="M545.12,830.14c-5.88-2.39-7.66-8.87-11.63-13.18C539.69,817.48,542.38,824.87,545.12,830.14Z"/><path class="cls-1" d="M1060.87,845.66c0,1.36-1.1,1.73-1.16,3.1-13.58-4.64-27.89,1.52-43.82.39-6.19-8.3-12.83-18.19-18.61-25.6,9.84-2,18.07-8.27,29.08-7C1043.16,818.54,1047.55,840.17,1060.87,845.66Z"/><path class="cls-1" d="M354.72,822c-5.26,9.87-12.27,18-18.61,26.76-12.46,1.37-25.94-2.24-38-1.94-2.39.06-5.26,1.27-7-.78,4.38-5.43,10-9.69,15.13-14.35,5.5-5,10.78-10.11,16.67-14.73C334.36,817.8,344.12,820.32,354.72,822Z"/><path class="cls-1" d="M447.79,822c6.45-.76,9.28,4.16,14.73,3.1.91,3.75.14,9.18.39,13.57-5.69.28-9.49-3-15.12-1.54Z"/><path class="cls-1" d="M904.21,822v15.13c-5.64-1.47-9.43,1.82-15.12,1.54V825.1C894.86,826.32,897.56,821.19,904.21,822Z"/><path class="cls-1" d="M508.28,823.55c6,5.24,17.12,5.38,18.62,15.12C520.94,833.39,507.64,835.44,508.28,823.55Z"/><path class="cls-1" d="M841.78,823.55c4.18,4.76-.83,8.26-6.21,10.47-3.85,1.58-7.53,3.05-9.3,4.27C825,828.43,838.51,830.15,841.78,823.55Z"/><path class="cls-1" d="M826.65,825.49c.06,10.78-12.23,12.59-20.16,16.67C811.89,835.29,821.7,832.82,826.65,825.49Z"/><path class="cls-1" d="M407.07,830.14c-.85,8.21-5.5,12.6-6.59,20.56H373.72C376.08,841.42,383.24,837,385,827,392.44,828,398.35,830.46,407.07,830.14Z"/><path class="cls-1" d="M496.26,827c6.34,2.07,14.11,2.7,13.57,11.63-5.17,0-6.84-3.49-12.41-3.1-1.22,1.13-1.56,3.78-1.16,5.82s2,2.1,1.55,3.1c-6.17,2.73-9.76-3.27-16.67-2.33V832.08c5.92,0,9,4.6,15.12,3.1C497.32,832.67,496,830,496.26,827Z"/><path class="cls-1" d="M523.41,827.43c9.26.69,12.85,10.41,21.71,12.8C534.49,840.91,528.79,833.3,523.41,827.43Z"/><path class="cls-1" d="M855.35,835.18c6.12,1.58,9.49-2.89,15.12-3.1v10.08c-6.61.11-10.19,3.26-16.67,3.5A13.28,13.28,0,0,0,855,835.18c-5.4.17-7.7,3.42-13.18,3.49-.22-8.36,7.07-9.21,12.79-11.63C856.32,828.27,854.88,832.69,855.35,835.18Z"/><path class="cls-1" d="M978.28,849.15c-6.69,3.5-18.62.09-26.76,1.55-1.1-8-5.89-12.21-6.59-20.56a53.79,53.79,0,0,0,19-3.1C971,832.15,972.89,842.38,978.28,849.15Z"/><path class="cls-1" d="M540.47,829.76c6.06.39,5.85,7.07,10.86,8.53,1.69.29,2.12-1.95,3.49-.78.33,1.25-.6,1.22-1.17,1.55.34.57.31,1.5,1.55,1.17C548.42,841.67,543.24,834.9,540.47,829.76Z"/><path class="cls-1" d="M770.81,851.86c-21.14-2.77-38.47-12.71-58.55-17.84,3.91-3.07,9.72-4.45,15.9-3.88C745.28,831.74,756.76,846.82,770.81,851.86Z"/><path class="cls-1" d="M444.3,837.12v15.13H424.13c.77-6,3.54-11.54,3.49-17.07C434.63,834.38,437.82,837.4,444.3,837.12Z"/><path class="cls-1" d="M924.38,835.18c-.12,7,2.77,10.94,3.49,17.07H907.7V837.13C914.18,837.4,917.37,834.38,924.38,835.18Z"/><path class="cls-1" d="M464.46,840.62c8.49,1.6,18.86,1.3,17.07,13.18H464.46Z"/><path class="cls-1" d="M887.54,853.8H870.47C867.48,838.14,895.55,836.38,887.54,853.8Z"/><path class="cls-1" d="M513.32,842.16c7.21,1.85,16.53,1.58,18.62,8.54C524.66,848.93,513.56,851,513.32,842.16Z"/><path class="cls-1" d="M821.22,842.16c-.21,6.38-11.44,5.1-16.28,8.15C808,845.24,816.07,845.16,821.22,842.16Z"/><path class="cls-1" d="M838.67,842.16c-.25,8.66-11.1,6.74-18.22,8.54C821.17,844.05,831.71,843.87,838.67,842.16Z"/><path class="cls-1" d="M547.45,849.15c-6.76.93-12.42-2.58-17.06-5C536.63,840.73,541.26,848.63,547.45,849.15Z"/><path class="cls-1" d="M499.75,847.21c6.73.7,16.41.3,15.12,7.75-3.16,2.41-8.71-.53-12.79.78C501.64,852.45,498.68,850.86,499.75,847.21Z"/><path class="cls-1" d="M851.47,847.21c2.67,2.87-1.7,5.21-1.16,8.53H836.74C835.65,846.89,844.88,848.37,851.47,847.21Z"/><path class="cls-1" d="M370.23,852.25c-2.73,11.36-10.92,17.26-13.57,28.7-7.87.7-16.2,1.7-24.43,2.71-7.8,1-16.18,3.35-22.88.78,11.52-8.78,17.53-23.06,27.14-33.74C347.88,849.57,359.77,851.17,370.23,852.25Z"/><path class="cls-1" d="M1039.55,887.15c-11.67-3.59-29.59-4.28-44.21-6.2-2.64-11.46-10.94-17.24-13.57-28.7,10.34-1,22.11-2.69,33.35-1.55,7.18,8,13.46,18.26,20.55,27.14C1037.58,880.23,1042,883.43,1039.55,887.15Z"/><path class="cls-1" d="M421.81,853.8c.67,6.05-4.22,11.72-2.72,18.61-6.17,4.56-18.65,2.81-27.14,5,2.1-9.14,6.57-15.91,8.53-25.2C408.4,851.7,414.1,855.42,421.81,853.8Z"/><path class="cls-1" d="M802.61,852.25c2.36-.16,3,1.36,4.65,1.94,2.85.37,9-2.24,9.31,1.55C811.06,855.43,803.52,857.16,802.61,852.25Z"/><path class="cls-1" d="M951.52,852.25c2,9.15,6.16,16.07,8.53,24.82-7.8-1.12-20.56-.64-27.14-4.27.87-8.24-2.64-12.1-3.11-19C937.68,855.45,943.49,851.73,951.52,852.25Z"/><path class="cls-1" d="M444.3,853.8c7.66-.81,11.28,2.41,18.61,1.94v13.18c-6.73.72-13,2.77-20.16,1.94C444.17,866.08,444.54,860.24,444.3,853.8Z"/><path class="cls-1" d="M907.7,853.8c-.2,6.41,0,12.38,1.55,17.06-7.16.86-13.44-1.21-20.16-1.94V855.74C896.44,856.23,900,852.93,907.7,853.8Z"/><path class="cls-1" d="M483.08,855.74h16.67c-.68,4.69,2.79,5.22,1.94,10.08-6,.06-13.08-1-15.9,1.16C483.76,864.36,482.76,860.71,483.08,855.74Z"/><path class="cls-1" d="M852.25,855.74h16.67c1.7,4.48-2.81,7.58-1.55,11.63-4.24-2.77-10.48-1.15-17.06-1.55C849.43,860.94,852.89,860.39,852.25,855.74Z"/><path class="cls-1" d="M535.43,857.29c.07,6.93-13.52,6.71-17.07,3.1C519.58,853.45,530.13,859.17,535.43,857.29Z"/><path class="cls-1" d="M833.63,859.23c-2.07,5.88-16.69,4.88-17.06-1.94C821.88,858.65,830.69,854.65,833.63,859.23Z"/><path class="cls-1" d="M748.71,860.39c-25.05-.49-46.76,2.36-70.19,3.49,25.2,3.75,49.37-2.92,76-1.55-4.56,5.53-16.88,3.29-23.66,6.59-.14-2.59,2.15-2.76,3.88-3.49-20.91-2.15-39.52,3.64-57.39,7,3.41,2.92,10.43,2.23,15.51,3.49.4,1.53-3.3,3.32-5.82,4.27-8.45,3.18-24.12,2.08-30.25-3.1,4.58-2.15,10.77-2.68,17.07-3.11-16.78-6.23-37.72-8.3-59.33-9.69.43,2.93,6.14.58,6.59,3.49-8.73,1.2-14.84-3.15-23.27-3.49,24.52-4.38,50.17,2.56,76.39,1.55-19.75-4.55-43.78-4.82-67.47-5.43v-1.16c.31-.08.39-.39.78-.39H741.34C743.53,858.84,747.3,857.68,748.71,860.39Z"/><path class="cls-1" d="M813.47,862.33a7.58,7.58,0,0,1-2.33,3.1c-6,.12-8.71-4.5-14.73-3.1C800.75,857.3,807.35,864.44,813.47,862.33Z"/><path class="cls-1" d="M554.82,860.78c-4.26,2-10.15,5.83-16.29,3.49C542.32,861.47,548.17,860.73,554.82,860.78Z"/><path class="cls-1" d="M516.81,863.88c2.12.72.92,4.77,3.11,5.43-.84,4.6-7.36,3.5-11.25,5-1.44.24-1.45,1.91-3.49,1.55-1.28-3.18,1.42-8.07-1.94-9.3C506,863.25,515.16,868.52,516.81,863.88Z"/><path class="cls-1" d="M556.37,865.82c1,0,.47.29.39.78-3,3.87-8.3,5.41-11.25,9.3C540.81,869.72,551.78,867.68,556.37,865.82Z"/><path class="cls-1" d="M808.43,875.9c-5.46-1.91-8.64-6.09-13.19-8.92C801.75,866.45,808,869.12,808.43,875.9Z"/><path class="cls-1" d="M540.47,872.41c-6.79,1.1-10.13,5.65-16.67,7-1.07-1.27.52-5.17-1.95-5C525.35,871.36,538.07,863.4,540.47,872.41Z"/><path class="cls-1" d="M830.14,872.41a10,10,0,0,0-1.55,6.59c-6.79-2.12-14.17-3.66-17.06-9.69C817.69,866.19,823.88,871.9,830.14,872.41Z"/><path class="cls-1" d="M483.08,868.92c.41,4.41-1.61,9,1.55,10.86-3.41,5.51-14.29,3.55-19,7.76-3.13-4-.09-11.5-1.17-16.68C471.13,870.67,475.49,868.19,483.08,868.92Z"/><path class="cls-1" d="M868.92,868.92c7.62-.77,11.89,1.81,18.62,1.94v16.68c-5.9-2.12-11.85-4.18-19-5C867,877.82,870.51,873.63,868.92,868.92Z"/><path class="cls-1" d="M741.73,869.31c-9.89,5.24-22.21,8-37.23,8.14C715.42,873.25,728.34,871,741.73,869.31Z"/><path class="cls-1" d="M752.2,869.31c.38,0,.3.48.39.78-2.77,8.09-11.73,10-21.72,10.86C736.25,875.33,747.72,875.81,752.2,869.31Z"/><path class="cls-1" d="M644.4,875.9c-12.87,5.19-22.85-4.4-34.91-5C622.27,867.19,630.7,876.74,644.4,875.9Z"/><path class="cls-1" d="M558.69,870.86c1.84,7.76-6.14,12.13-8.14,18.62C541.86,881.89,556.78,877.46,558.69,870.86Z"/><path class="cls-1" d="M563.74,870.86c3.92,7.42-6,12.47-4.27,20.17,2.85.13,2.86-2.58,6.2-1.94.9,7.75-2.3,11.39-1.93,18.61-4.12-.31-5.9,4.77-9.7,2.33.91-4.89,9.74-18,0-20.94C556.42,882.15,560.75,877.18,563.74,870.86Z"/><path class="cls-1" d="M594.76,871.25c8.56-.42,13.28,6.36,21.33,7.75C606.87,882.91,602.09,873,594.76,871.25Z"/><path class="cls-1" d="M765.77,870.86c.81-.16,1,.27,1.55.39-2.72,2.84-1,10.08-4.65,12C762.37,877.8,764.61,874.87,765.77,870.86Z"/><path class="cls-1" d="M776.24,870.86c.58,5.24-1.86,10.81-3.49,15.12-3.81-.54-1.88-4.66-.77-7C773.37,876.08,775.58,873.79,776.24,870.86Z"/><path class="cls-1" d="M760.73,871.25c.45-.06.69.08.78.39-1.5,6.52-7.4,10.7-12.41,12.41C748.57,876.91,759.64,878.05,760.73,871.25Z"/><path class="cls-1" d="M587.78,872.8c5.24.08,12.11,3.9,11.63,9.69C593.19,881.6,593.4,874.28,587.78,872.8Z"/><path class="cls-1" d="M781.28,872.8c2.71,2.77,2.69,9.72,1.94,14.74C776.49,886.34,781,877.82,781.28,872.8Z"/><path class="cls-1" d="M585.06,873.19a22.76,22.76,0,0,1,3.88,4.65c.43.65,3.47,4.38,3.49,4.65.08,1.11-2.24,3.07-2.32,3.88-.64,5.86,5.39,7.73,7.36,14-1.36,1-4.45.2-4.65,2.33-5.19-3.21-6.29-10.51-8.53-16.68,1.65-.15,4,.38,5-.38.55-6.52-6.09-7.85-6.59-12A3.26,3.26,0,0,1,585.06,873.19Z"/><path class="cls-1" d="M440.81,874c.84,8-3.12,13.08-1.55,20.56-9,1.56-16.25,5-25.21,6.59.88-9.08,3.35-16.56,4.65-25.21C426.88,876.07,432,873.14,440.81,874Z"/><path class="cls-1" d="M932.91,875.9a225.24,225.24,0,0,1,5,25.21c-8.91-1.69-16.26-4.94-25.21-6.59C914.33,887.1,910,881,911.19,874,919.84,873.2,925,876,932.91,875.9Z"/><path class="cls-1" d="M569.16,874.35c4.55,2.19,4.58,13,0,15.13C564.13,885.79,570.9,879.56,569.16,874.35Z"/><path class="cls-1" d="M847.21,877.45c6.36,1.39,12,3.47,18.22,5v13.58c-8.89-.68-13.29-5.84-20.16-8.53C845.52,883.78,847.88,882.14,847.21,877.45Z"/><path class="cls-1" d="M504,879c1.94,1.81,3,4.53,2.71,8.54-7,2.55-11.21,7.92-20.16,8.53V882.49C492.24,881.37,497.08,877.6,504,879Z"/><path class="cls-1" d="M388.46,879.39c-1.36,12.48-8.6,19.07-9.7,31.8-10.64,2.91-22.41,5.9-33.73,9.31-3,.91-9.07,3.47-10.09,1.55-.58-1.1,4.4-7.55,5.43-9.31,5.72-9.71,10.48-21.23,16.29-30.25C368.2,882.4,377.36,879.93,388.46,879.39Z"/><path class="cls-1" d="M545.51,882.11c-4,7-7.11,14.86-17.06,15.9C526,886.25,537,885,542,879.39,543.89,879.6,544.48,881.07,545.51,882.11Z"/><path class="cls-1" d="M963.15,879.78c10.59-.5,20.64,2.89,32.19,2.71,3.68,6.82,7.48,13.34,10.86,20.17s8,13,9.3,21.33c-1.3.22-2.89-.86-4.26-1.55-10.09-5.09-26.19-7.34-38-11.25C971.8,898.79,965.34,891.42,963.15,879.78Z"/><path class="cls-1" d="M651,885.6c-5,8.39-17.32-1.26-24.43-2.72C633.29,875.27,643.15,884.75,651,885.6Z"/><path class="cls-1" d="M722.34,884.43c-9.63.27-17.12,8-26.76,3.49C702.82,885.53,716.37,873.78,722.34,884.43Z"/><path class="cls-1" d="M806.49,880.94c10.86.14,17.78,6.25,16.67,17.07C813.56,896.37,809.36,889.31,806.49,880.94Z"/><path class="cls-1" d="M522.63,882.49c7.55,10-7.35,12.52-10.86,18.62-2.91-2.78-2.36-9-3.49-13.57C514.13,886.92,516.82,883.15,522.63,882.49Z"/><path class="cls-1" d="M828.59,882.49c6.14.59,9.15,4.3,15.13,5,.22,5.39-2.71,7.63-1.94,13.57-5.55-2.85-9-7.77-15.13-10.08C825.76,886.64,828.84,886.24,828.59,882.49Z"/><path class="cls-1" d="M742.51,884.05c-6.59,3.51-10.29,13.55-21,10.47-.34-1.61,3.23-3.78,5.43-5.43C730.91,886.14,735.27,882.74,742.51,884.05Z"/><path class="cls-1" d="M627.72,894.52c-9.9,2.41-11.26-6.76-18.23-8.54.39-.51.37-1.44,1.17-1.54C619.21,883.39,624.1,889.34,627.72,894.52Z"/><path class="cls-1" d="M597.47,884.43c6,2.44,8,8.81,13.58,11.64C602.93,898.81,598.77,891.08,597.47,884.43Z"/><path class="cls-1" d="M685.89,886c.36,2-4.59,5-8.53,5.43-5.32.57-10.55-2-14-3.49C667.43,882.81,679.1,884.49,685.89,886Z"/><path class="cls-1" d="M739.4,898c2.88-5.91,9.59-8,12.8-13.57C759,888.54,745.36,900.72,739.4,898Z"/><path class="cls-1" d="M574.21,887.54c6.55,1.64,7.44,10.83,6.59,18.61C570.83,908.67,574.52,895.12,574.21,887.54Z"/><path class="cls-1" d="M765.38,887.54c1,5.54-2.24,14.52-9.3,15.12C756.88,895.32,759.26,889.55,765.38,887.54Z"/><path class="cls-1" d="M461.75,889.86c3.6,4.28-.58,12.37,1.16,18.23-8.78,3.37-15.68,8.62-24.82,11.63-.88-8.63,2.59-16.28,2.72-25.2C449.29,894.69,454.55,889.68,461.75,889.86Z"/><path class="cls-1" d="M772.75,889.48c1.77.16,4.27-.4,5.43.38.36,6.95-.91,12.27-1.94,17.84a12.39,12.39,0,0,0-6.59-1.55C769.21,899.12,773,896.28,772.75,889.48Z"/><path class="cls-1" d="M787.87,889.48c8.5,1.71,5.88,14.54,10.09,20.55C786.9,915.55,784.16,897.63,787.87,889.48Z"/><path class="cls-1" d="M889.09,889.48c8.33.71,13.22,4.86,22.1,5,.3,9.13,2.92,16,3.1,25.2-9.55-2.72-16.28-8.28-25.2-11.63Z"/><path class="cls-1" d="M656.41,896.07c-4.28,8.87-16.47,2-21.71-1.55C640.25,887.36,649.32,895.41,656.41,896.07Z"/><path class="cls-1" d="M713.81,894.13c-2.79,5-16.88,10.34-18.61.77C700.16,892.69,708.75,890.83,713.81,894.13Z"/><path class="cls-1" d="M687.05,897.62c-4.65,6-18.09,5.28-25.2,1.94C666.27,894.14,680.67,893.38,687.05,897.62Z"/><path class="cls-1" d="M632.76,908.09c-8.7.3-12.14-4.67-16.67-8.53C622.8,893.28,631,902.05,632.76,908.09Z"/><path class="cls-1" d="M734,897.62c0,6.07-6.56,5.59-8.14,10.08,1,3.41,4.18,4.61,8.14,5-3.37,4.9-6.63,9.91-12.79,12-1.52-2.62-6.6-1.67-5.82-6.59,4.77-.92,6.23-5.15,8.92-8.14-.66-2.19-2.89-2.81-5-3.49a9.5,9.5,0,0,1-.39-3.88C724,901.06,726,896.38,734,897.62Z"/><path class="cls-1" d="M488.12,918.17c-8,4.68-15.77,11.63-22.49,16.29-3.22-6.81,0-17.11-1.17-25.21,7.25-2.58,14.65-5,19.78-9.69C488.07,903.23,486.55,912.24,488.12,918.17Z"/><path class="cls-1" d="M865.43,900c7,1.89,13.78,7.42,22.11,9.3v25.6c-8.44-5.14-15.59-11.56-23.66-17.07C863.51,911.21,867.06,906.49,865.43,900Z"/><path class="cls-1" d="M616.09,912.35c-2.78.59-4.13,2.6-7.37,2.72-3.37-3.74-4.83-9.39-7.76-13.57C609.12,896.37,612.22,908.19,616.09,912.35Z"/><path class="cls-1" d="M751,902.66c.14,5.82-5.53,5.84-5,12-3.59.23-6.63-.1-8.54-1.55C738.94,907,743.64,899.22,751,902.66Z"/><path class="cls-1" d="M659.9,909.25c-4.17,8-17.07,2.7-21.71-1.16C642.76,899.14,653.72,907.26,659.9,909.25Z"/><path class="cls-1" d="M712.26,906.15c-5,4.09-9.12,9-17.06,10.08.17-2.76-.85-4.33-3.11-4.65C694.64,905.63,705.12,901.62,712.26,906.15Z"/><path class="cls-1" d="M409.79,904.6c.31,5-1.41,10.73-2.72,16.29s-3.14,11.24-3.1,17.45c-15.54,4.36-25.39,14.42-41.49,18.22-.68-1.56.86-3.21,1.55-4.65,5.42-11.4,9.46-26.59,14.34-39.17C389.68,910.87,398.44,906.44,409.79,904.6Z"/><path class="cls-1" d="M507.12,904.6c6.24,1.52,3.58,11.93,6.2,17.06C504.7,927,499.53,935.79,492.77,943c-2.16-7-2.15-16.2-3.1-24.43C495,913.44,502.29,910.24,507.12,904.6Z"/><path class="cls-1" d="M518,941.05c-5.11-14.87.23-30.7,10.08-36.45C539.4,916.07,526.44,936.24,518,941.05Z"/><path class="cls-1" d="M584.29,904.6h6.59c.67,6,4.22,9.22,5,15.12-3.77-.11-6,3.25-10.08,1.55C586.92,915.25,584.51,910.49,584.29,904.6Z"/><path class="cls-1" d="M761.12,904.6c2.65.58,4,2.44,6.59,3.1-1.18,4.38-3.07,8-3.1,13.57-4.06.33-6.08-3.07-10.08-1.55C756.2,914.16,759.87,910.59,761.12,904.6Z"/><path class="cls-1" d="M821.61,904.6c6.07,3.89,10.72,9.19,15.13,14.73.15,8.31-3.6,12.7-3.11,21.33-1.32.55-3.16-2.13-4.65-3.88C822.92,929.72,815.28,917,821.61,904.6Z"/><path class="cls-1" d="M841.78,904.6c8.67,2.7,13.14,9.61,20.55,13.57.08,9-2.69,15.15-1.94,24.82-8.4-6.08-12.91-16-21.72-21.72C839.55,915.55,841.53,910.94,841.78,904.6Z"/><path class="cls-1" d="M941.44,904.6c11.73,1.58,20.46,6.16,31.79,8.14,5.25,14.93,11.59,28.75,15.52,45-1.63.8-3-1.24-4.27-1.94A280.69,280.69,0,0,0,948,938.34C947.2,925.73,943.34,916.14,941.44,904.6Z"/><path class="cls-1" d="M686.66,909.25c-2.32,8.27-18,7.29-23.26,2.33C667.48,905.22,679.13,907.74,686.66,909.25Z"/><path class="cls-1" d="M573.82,909.25c-.59,7.06,2.76,10.17,1.94,17.45-3.66.49-8.81,1.53-10.47,2.72C562.5,921.9,562.4,907.31,573.82,909.25Z"/><path class="cls-1" d="M624.62,909.64c3.36,4.39,9.84,5.67,11.63,11.63-2.1-.29-3.14.48-5,.39-.92.91.06,1.91,0,3.1-5.52-2.11-8.21-7-11.63-11.24C620.05,911,624.35,912.34,624.62,909.64Z"/><path class="cls-1" d="M777.79,910c3.33-1.76,5.12,3,8.53,1.16.07,6.78,2.67,11,1.94,18.61-3.83-1.34-6.11-4.22-12-3.49C775.56,920,779.42,916.06,777.79,910Z"/><path class="cls-1" d="M525,943.38c-.12-13.17,9.76-16.35,12-27.15,4.07-.71,8.95-.61,11.24-3.1.45-.06.7.08.78.39C553.33,929.38,536.65,940.61,525,943.38Z"/><path class="cls-1" d="M801.45,914.68c18.3.05,20.81,15.9,26.75,28.31-7.3-3.69-17.27-4.7-23.26-9.7C805.39,925.47,801.51,922,801.45,914.68Z"/><path class="cls-1" d="M606,916.23c4.52,3,6.57,8.43,10.09,12.41-.88,3.91-7.08,2.49-8.15,6.21-5.48-3.05-7-10.09-8.53-17.07C601.73,918.14,605.55,918.78,606,916.23Z"/><path class="cls-1" d="M752.59,919.33c.26,7.63-6.57,8.17-6.59,15.52-4.1-.31-6.64-2.15-10.09-3.11,2-5.89,5.13-10.63,8.14-15.51C746.48,917.69,749.88,918.16,752.59,919.33Z"/><path class="cls-1" d="M659.9,926.7c-7.11,6.22-18.56.17-20.16-7.37C648.1,915.06,658.2,918.74,659.9,926.7Z"/><path class="cls-1" d="M708.77,921.27c-.95,5.38-5.3,7.38-8.92,10.09-3.12-1.8-6.41-3.42-9.7-5.05C691.47,919.1,703.34,915.44,708.77,921.27Z"/><path class="cls-1" d="M685.11,924.38c-2,3.83-5.33,6.3-8.53,8.91-5.27-.28-5.57-5.54-11.63-5C665.27,918.59,680.16,919.08,685.11,924.38Z"/><path class="cls-1" d="M764.61,922.82c4.53,0,5.14,3.91,10.08,3.49.49,8.5-1,15-1.94,22.11-4.1-2.1-8.36-4-11.63-7C761,934,764.94,930.53,764.61,922.82Z"/><path class="cls-1" d="M590.88,941.83c-3,2-8.46,1.36-10.08,4.65-3.15-4.74-3.55-12.22-3.49-20.17,3.2,0,5.35-1.1,6.59-3.1C590,925.68,588.16,936,590.88,941.83Z"/><path class="cls-1" d="M393.89,986.81c2.87-17.29,7.93-32.4,11.63-48.86,10.18-4.17,19.44-9.26,29.86-13.19.18,4.42-2.32,15.15-2.72,22.88-.15,3,.54,8.1-.38,10.47s-6.47,5.52-9.31,7.76C413.68,973.22,403.71,981.13,393.89,986.81Z"/><path class="cls-1" d="M916.23,924.76c10.72,3.76,19.9,9.06,30.25,13.19,3.68,16.74,9,31.87,11.63,49.63-1.7.32-3.44-1.67-4.65-2.71-10.38-8.86-23.75-17.46-34.13-26.76C919.77,945.52,917.8,935.35,916.23,924.76Z"/><path class="cls-1" d="M638.19,939.5c-5.59.22-6.29,5.34-12,5.43-1.15-6.22-7-7.71-6.59-15.51,1.49-1.74,6.29-.17,6.59-3.11C632.53,928.36,635.1,934.19,638.19,939.5Z"/><path class="cls-1" d="M732.42,929.8c.7,7.94-5.25,9.24-6.59,15.13-6.71,1-7.1-4.27-12-5C716.92,933.82,723.33,925,732.42,929.8Z"/><path class="cls-1" d="M661.46,941.44c-.87,6-7.1,6.6-10.47,10.08-3.29-3.43-4.8-8.65-9.7-10.47.81-4.57,5.89-4.13,7.76-7.76C654.6,934.6,654.48,941.56,661.46,941.44Z"/><path class="cls-1" d="M710.32,939.89a115.47,115.47,0,0,1-8.53,11.63c-5.62-1-8.12-5.07-13.19-6.59,2.35-4.89,7.58-6.9,10.09-11.64A38.74,38.74,0,0,1,710.32,939.89Z"/><path class="cls-1" d="M806.49,936.4c3.21,9.84,5.24,20.87,10.08,29.08-10.75-.11-14.79-6.92-23.65-8.92a68.22,68.22,0,0,0-3.1-22.1C795.35,930.87,800.75,937.77,806.49,936.4Z"/><path class="cls-1" d="M560.63,934.85c-.53,7-2.51,12.48-1.94,20.55-6.92,4.06-14.93,7-23.26,9.69,2.83-8.8,7-16.24,8.14-26.75C548.5,936.7,555,932.14,560.63,934.85Z"/><path class="cls-1" d="M599,961.6c-4.1-4.81-4.79-13-6.59-20.16,4.49-.55,7.83-2.26,10.08-5,2.64,2.56,8.89,11.91,8.54,15.9C610.53,958.09,602.22,957.63,599,961.6Z"/><path class="cls-1" d="M685.11,941.83c-.45,7.17-8,7.27-9.69,13.18-4-2.89-5.72-8-10.47-10.08C666.37,936.12,680.1,936.12,685.11,941.83Z"/><path class="cls-1" d="M757.24,941.44c2.26,7-2,13.66-2.71,20.16-7.28,0-9.13-5.35-15.13-6.59,1.91-5.71,5.08-10.18,6.21-16.67C751.11,937.49,752.25,943.06,757.24,941.44Z"/><path class="cls-1" d="M462.14,939.89h.77c-2.5,13.19,3.6,25.77-.77,36.45-4.48,10.94-18.1,20.23-26.76,28.31-3.29,3.06-5.33,7.12-8.92,9.3-.24-3.79,1.49-7.79,2.33-12.4,2.35-12.94,2.77-29.53,5.43-42.66C444.53,953.56,451.17,944.56,462.14,939.89Z"/><path class="cls-1" d="M917.78,958.5c2.11,18.84,5.31,36.58,6.6,56.23-1.48.28-2.41-2.49-3.88-4.27-9.58-11.54-22-23.25-31.41-35.28.51-11.26-1-24.55.77-34.52,4.61-1.27,9.82,5.21,14.74,8.92C909.28,953.11,913.34,956.62,917.78,958.5Z"/><path class="cls-1" d="M624.62,946.48c6.79,2.78,8.65,10.48,11.63,17.06-7.81,0-8,7.56-14.73,8.53-2.8-5.86-6.44-10.89-7-19C617.67,950.65,625,952.41,624.62,946.48Z"/><path class="cls-1" d="M860.39,946.87c10.56,8.57,18.54,19.72,27.15,30.24v58.17c-1.38.48-3.41-2.48-4.66-4.26-4.13-5.92-6.59-13.41-10.47-20.17s-13.07-15.21-15.12-23.65C854.12,974.14,863,961,860.39,946.87Z"/><path class="cls-1" d="M489.28,947.26c.33-.08.37.15.39.38,1.28,12.17,6.59,22.41,5.43,34.9-2,21.38-23.85,34-28.7,53.13-.91-25.54-9.68-52.68,4.66-69C477.59,959.19,485.66,956,489.28,947.26Z"/><path class="cls-1" d="M725.44,948.42c4,2.24,7.72,4.69,12,6.59-3.76,5.16-4.67,13.17-8.14,18.61-5.42-1.94-6.58-8.15-13.57-8.53C715.25,955.8,723.48,955.25,725.44,948.42Z"/><path class="cls-1" d="M774.69,950c15,3.51,21.63,15.34,20.16,35.29-8.87-2.37-14.76-7.73-22.1-11.64C775.43,967.77,774.54,958.35,774.69,950Z"/><path class="cls-1" d="M577.31,951.52c-.45,8.33.88,14.89,1.94,21.72-7.13,3.73-14.6,7.12-20.56,12-4.56-7.74,2.18-17.39,0-26.37C565.24,957.2,568.67,948.56,577.31,951.52Z"/><path class="cls-1" d="M649.43,978.66a35.11,35.11,0,0,1-5.81-7c-1.26-2.22-3.94-6.57-3.88-8.54.18-5.25,7.56-5.25,9.69-9.69,4.54,3.06,10.32,6.7,10.09,12.79C659.29,972.16,653.43,975.38,649.43,978.66Z"/><path class="cls-1" d="M700.23,955c3.86,2.35,7.44,5,12,6.59-.51,8.41-6.49,11.35-8.15,18.62-6.39-1.63-6.67-9.36-14-10.09C691.53,963.11,697.29,960.46,700.23,955Z"/><path class="cls-1" d="M687.05,967.42c-2,6.24-8,8.57-10.08,14.74-5.74-3.31-6.88-11.23-12-15.13C667.23,955,684,958,687.05,967.42Z"/><path class="cls-1" d="M583.9,1000.38c-3.3-7.3-3.25-17.94-3.1-28.69,7.16-.47,10.85-4.41,14.73-8.15,2.62,1,3.2,5.48,4.27,10.47,1.68,7.82,4.22,10.18,0,15.12C595.74,993.89,588.39,996.53,583.9,1000.38Z"/><path class="cls-1" d="M754.14,965.09a115.29,115.29,0,0,1,17.06,10.47c-1.11,8.11-2.66,17.7-1.55,26.76C761,999.06,756.23,992,749.1,987.2,750.63,979.68,753.52,973.53,754.14,965.09Z"/><path class="cls-1" d="M531.55,970.13c-2,12.59-8.67,23.91-11.25,37.23-17.47,9.42-35.24,18.53-50.41,30.25,5.93-19.93,20.14-34.93,28.31-53.9C509.24,979.1,520.53,974.76,531.55,970.13Z"/><path class="cls-1" d="M629.66,992.62c-3.68,8.48-10.2,14.11-16.68,19.78-4.52-3.25-4.24-10.92-6.2-17.06-.64-2-2.36-4-2.33-5.43.19-8,12.67-7.37,14.74-14.35C625.47,978.46,625.3,987.81,629.66,992.62Z"/><path class="cls-1" d="M746,987.2c.64,10.73-4.5,15.66-5,25.2-8.08-3.29-12.92-9.83-18.61-15.51,1.2-8.11,5.74-12.87,8.14-19.78C737.39,978.74,739,985.67,746,987.2Z"/><path class="cls-1" d="M659.9,1001.93c-5.36,5.24-10.9,10.29-14.73,17.07-5.72-1.88-6.53-10.21-9.31-15.9-.73-1.5-2.64-3.62-2.71-4.66-.41-6.13,10.91-11.16,13.18-16.28C654.26,985.34,655.7,995,659.9,1001.93Z"/><path class="cls-1" d="M675,983.71c5.87,4.21,9.43,10.73,13.57,16.67-2.42,8.83-7.77,14.72-11.63,22.11-4.54-3.43-7.09-9.47-10.47-15.13-.81-1.36-3-4.42-3.1-5.43C663,995.74,674.3,990.86,675,983.71Z"/><path class="cls-1" d="M702.18,983.71c3.18,1.48,16.07,9.53,16.67,14,.43,3.15-3.46,8.1-5,11.24a57.12,57.12,0,0,0-4.65,11.64c-3.35-2.92-5.74-6.27-9.31-10.09-2.38-2.54-7.92-7.42-7.76-11.24.14-3.19,5-5.28,7.37-8.53C701,988.58,701.5,986,702.18,983.71Z"/><path class="cls-1" d="M550.55,1026c-15.25,8.53-28.71,20.92-42.27,29.85.17-20.39,10.65-30.45,13.57-48.08,9.91-7.41,23.7-11,31.42-20.55C558.09,997.16,549.21,1012.62,550.55,1026Z"/><path class="cls-1" d="M796.41,990.3c12.37,5.33,23.1,12.31,34.12,19,3.76,17.57,11,31.68,14.74,49.25-2.16.21-3.45-2.16-5-3.49-11.88-9.89-26.87-19.35-38.78-29.47A331.08,331.08,0,0,0,796.41,990.3Z"/><path class="cls-1" d="M547.06,1071c1.78-15.54,5.28-29.37,5-46.92,10.54-4.46,17.91-12.09,26.76-18.23.5,10.71,8.15,19,5.43,30.64C580.31,1053.49,556.68,1060.65,547.06,1071Z"/><path class="cls-1" d="M771.2,1007.36c10,5.21,17.09,13.41,27.14,18.62,1.92,14.64,7.25,30,5.82,45.36-9.14-2.06-14.3-9.58-19.78-15.51s-10.7-12.57-16.67-18.22C769.19,1027.84,771.89,1019.29,771.2,1007.36Z"/><path class="cls-1" d="M609.11,1017.44c.33-.07.36.16.38.39,3.32,9.62,12.71,23.08,7.37,35.29-5,11.34-19.45,21.71-27.53,27.92-1.2-18.43-9.65-35.93,1.16-47.31C596.3,1027.62,605.47,1025.26,609.11,1017.44Z"/><path class="cls-1" d="M763.06,1086.47c-7.14-14-25.54-22.1-27.54-39.94-1.08-9.7,2.62-19,5-27.15,10.14,5.64,17.86,13.68,25.6,21.72.85,10.8-1.48,21.69-1.94,31.8C764,1077.1,765.37,1083.67,763.06,1086.47Z"/><path class="cls-1" d="M708.77,1024c8.55,7.47,14.68,17.37,22.1,26-1.76,11.2-5.39,21.5-8.14,31.8-.88,3.27-1.27,7-3.49,9.69-5.18-8.27-10.86-17.15-16.68-26.37-1.75-2.77-5.14-6.46-5.43-8.92-.53-4.52,3-11.07,5-16.29C704.52,1033.8,706.43,1028.73,708.77,1024Z"/><path class="cls-1" d="M656.41,1054.28c-7.74,12.17-14.67,27.21-25.2,35.29-5.36-11.19-5.49-27.6-10.08-39.55,6.88-7.85,14.1-15.37,20.16-24C649.59,1032.15,650.76,1045.46,656.41,1054.28Z"/><path class="cls-1" d="M693.64,1052.73c-4.64,14.36-11.07,26.93-16.67,40.33-6.92-6.51-10-17.29-14.35-27.53-1.16-2.75-4.23-7.53-4.26-9.7-.07-3.8,5-10.95,7.36-14.34,3.71-5.43,7-9.11,9.31-14C684.52,1032.64,686.34,1045.43,693.64,1052.73Z"/><path class="cls-1" d="M548.61,462.91c6.27,3.43,8.1,11.3,11.64,17.45C556.35,476.52,545,473,548.61,462.91Z"/><path class="cls-1" d="M806.88,476.48c3.09,7.4-7.19,7.69-11.64,10.09C796.64,482.27,803.51,480.1,806.88,476.48Z"/><path class="cls-1" d="M548.22,501.69c-3.25,3.85-11.83,5.74-17.44,8.53C531.24,503.58,542.74,504.61,548.22,501.69Z"/><path class="cls-1" d="M577.31,503.63c11.17,2.92,16,15.52,28.69,18.22a9.69,9.69,0,0,1-.38,3.88c-1.54,1.44-4.75,1.2-7.76,1.17,3.85,10.36,12.34,16.1,18.23,24.43-1.69,3.1-6.37,3.2-10.09,4.26-3.44-9.86-10.31-16.31-13.57-26.37,1.32-1.29,1.87,1.47,3.49,1.17C593,518.22,582.25,513.81,577.31,503.63Z"/><path class="cls-1" d="M996.89,530.39c5.65-9.74,12.61-18.16,19-27.15,15.5-1,29.25,3.83,43.82,1.17-3.14,9.38-13.93,16.23-22.88,23.65-2.19,1.82-6.51,6.94-8.53,7.37-3.49.74-12-1.63-15.9-2.33C1007.17,532.16,1002.25,530.91,996.89,530.39Z"/><path class="cls-1" d="M867.37,640.13c.73,0,.27,1.28,1.16,1.16-.54-1.11,1.06-2,0-2.32,0,.73-1.28.27-1.16,1.16Zm3.1-3.49c-.56-.59.37-3,0-4.65,3.59,3,7.1,12.51,1.94,16.28-.81-.22-1.25-.81-1.94-1.16.43-3.19,4.23-3,3.88-7-2.11.6-2.79,2.64-3.49,4.65-2.73-2,1.68-4.37.77-8.14-.08-.49-1.15-.51-1.16,0ZM854.19,606c.12-1.42,1.53-1.56,1.16-3.49-2.82-1.85-4.35,3.27-1.16,3.49Zm-1.94-4.26c-5-8.11-12.88-16.59-15.51-28.31,4.83,8.22,12.86,16.61,15.51,28.31Zm-16.68-27.92a9.91,9.91,0,0,0,1.55-3.1c-2.09-2.45-5.33,2.6-1.55,3.1Zm-22.1-30.25c-.27-2.44-1.19-4.24-3.49-4.65-.18,3,1.44,4.24,3.49,5a928.59,928.59,0,0,0,53.9,92.29c-2.19-12.06-12.93-17.53-12-31.41,4.79,9.3,6.93,21.25,13.57,28.7.05,2.38-1.68,3-1.55,5.43-23.26-34.14-42.9-71.89-64-108.19,7.77,1.32,11.51,9.17,15.51,15.51,2,3.23,4,6.71,5.81,10.08s3,7.31,6.21,9.3c3.21-1.46-1.87-4.17-.78-5.81.74-.66,2.63,2,3.49,3.88,1,2.16,1.81,4.46.39,6.59-8.64-5.59-12.37-19.43-20.55-26.76ZM801.83,526.9c1.6-2.54.26-6-2.32-6.59-1.6,2.53-.26,6,2.32,6.59ZM786.32,504c3.74,3.76,7.61,10.75,10.09,17.06.43-4.43,6.34-3.46,7.37.39s-2.22,6.17-1.95,8.53c2.7.11,3.09-2.09,3.11-4.66,10.29,7,14.7,19.94,23.65,28.31v2.72c12.09,5.74,21.13,21.84,27.15,36.45,2.39,5.81,6.78,13.32,3.1,17.06,2.91,7.69,9.58,11.62,10.47,21.33,2.62,0,1.77-3.4,4.65-3.1a70.74,70.74,0,0,0-6.59-23.66c10.09,4.39,8.52,20.44,11.63,31.8-2.86-.88-3.3-4.19-3.49-7.75-4.34,4.51,3.28,12.16,1.17,17.83-.66,1.78-2.57,2.41-4.27,3.88,4.63,2.47,4.11-6.68,8.15-7.37-1.1,4.33-3.76,7.11-6.21,10.09,4.15,3.35,4.54,10.45,7.76,14.73-21.31-21.61-42.24-46.95-62.05-71.35.22,12.06,7.07,17.49,8.53,28.31-9.52-5.48-15.85-14.14-25.2-19.78,1.82,8,3.28,16.37,5,24.43-9-2.21-16.21-9.64-25.6-12.8V587.78c8.16,3.48,12.28,11,20.17,14.73-1.31-9.93-3.25-19.23-4.66-29.08.17-1,2.12.66,2.72,1.17,5.37,4.51,10.39,13.43,15.51,19C808.33,561.89,796,534.34,786.32,504Z"/><path class="cls-1" d="M583.9,533.1c2.57-.14,3.74-1.69,7-1.16,3.12,9.28,11,13.79,11.63,25.59-2.29,1.46-5.9,1.59-6.59,4.65-6.11-6.68-7.43-18.15-11.63-26.75-2.43.93-4.35,2.37-5,5-5.13-8.84-4.57-23.35-7-34.9.07-.44.39-.22.38,0a72.7,72.7,0,0,1,6.21,13.18C580.57,523.58,581,529.1,583.9,533.1Z"/><path class="cls-1" d="M479.59,651.38c.08-3.83-2.44-5.06-5-6.21.09,3.65,2.26,5.23,5,6.21Zm52.73-93.85c4.92-10.73,16.65-16.7,15.9-31.8-7.17,10.67-15.78,22.57-22.88,33.74-.27.44-3.2,4.64-1.16,3.1,6.68-10.26,14.47-19.4,20.94-29.86-3.81,8.22-9.71,18.46-12.8,24.82ZM482.69,602.9c-2.34,7.35-2.13,20.72-3.88,31-1.05,6.17-3.94,10.62.78,14,17.81-25.24,32.23-53.86,47.7-81.44q-23.59,38.65-46.15,78.33c-7.9-4,4.89-11.57.39-17.06,5.5-4.32,7.58-12.06,11.63-17.84,2.64-23.6,15.13-37.34,26.37-52.35-2.74,20-16.7,32.16-24.43,48.47.79-.1.77-1,1.16-1.55-1.84,14.07-11.78,23.38-15.9,36.46,5.27-8.19,10.65-16.4,14.74-26.76,1.37-3.49,1.59-7.32,3.1-10.86,1.08-2.52,3.92-4.66,5.82-7.37,5.21-7.44,9.3-17.13,14.34-24.43,0-1.2-1.22-1.1-.77-2.71,1.22-3.95,4-6.38,5.43-10.09.37-1.92-1-2.06-1.17-3.49,10-9,16.81-23.93,26.76-34.12,1-1.06,3-3.56,4.66-1.55.1,3.08-4,1.9-4.27,4.65.37.8.79,1.54,1.16,2.33A58.11,58.11,0,0,0,563,505.57c-5.87,31.62-19.71,58.62-29.08,88,7-4.68,12-14.59,18.61-20.94,1.45,10.74-2.49,19.13-3.88,28.3,8.75-.44,12.14-9.56,19-13.18,3.17,7.61.6,19,1.17,28.69-8.38,3.9-16,8.58-23.66,13.19-2.28-8.4,2.27-15.87,3.49-23.27-10.7,3.26-15.57,12.35-23.65,18.23-.4-12.42,5.81-18.23,8.53-27.53-21.37,21.28-42.4,48.34-62.43,71,.95-5.9,1.66-12,7-13.57-1-5.56-7-6.2-7-12.8,1.7-.28,1.55,1.29,1.55,2.72,1.81-5,6.59-9.16,5.43-15.9-2,.07-2.82,4.67-3.11,7.75C472.36,623.05,478.06,611.48,482.69,602.9Z"/><path class="cls-1" d="M806.49,522.24c5.34,1.12,8.92,9.44,11.63,13.19C811.36,533.92,810,527,806.49,522.24Z"/><path class="cls-1" d="M518.36,630.44c.75,27.5-29.57,27.29-43.43,41.49C485.3,655.79,505.47,644,518.36,630.44Z"/><path class="cls-1" d="M831.69,630.44c8.73,4.66,15.72,12.52,23.27,19.38s15.55,13.67,23.66,19.78c-.08.44-.39.22-.39,0C858.56,660.7,835.46,655.23,831.69,630.44Z"/><path class="cls-1" d="M815,687.05c-1.71-3.8,3.12-6.07,1.55-9.69,9.31-.91,20.29-.13,30.25-.39-.31,1.75-1.55,2.59-1.55,4.65,10.5-.1,21.15-3.4,31.8-4.65-9.08,6.83-22.7,11.17-33.74,14.74-.48-4.1,2.4-4.84,2.32-8.54-.07-.31-.39-.38-.38-.77C835.94,683.15,825.09,685.74,815,687.05Z"/><path class="cls-1" d="M452.05,682c-3.68,2.61-8.21,11.57-16.28,8.53C440.15,686.65,446,684.18,452.05,682Z"/><path class="cls-1" d="M473,682.4c18.53,8.62,43.74,13.91,46.93,39.16-1.81.46-3.77-2.2-5.82-3.87C500.65,706.68,487.2,692.92,473,682.4Z"/><path class="cls-1" d="M877.45,707.22c0-3.88-2.64-5.11-5-6.6-.32,4.2,2.5,5.26,5,6.6Zm-5-3.11c-19.83,28.58-35.34,60.33-53.12,90.75-5.81,9.93-15.29,18.38-16.29,31.41,7.74-8.55,15-20.9,22.1-31.41-6.83,8.67-13.22,17.8-20.16,26.36,22.71-35.58,43.19-76.76,65.53-114,7.41,2.61-.62,15.23-3.1,20.16a121.06,121.06,0,0,1-8.53,14.74c-2.77,23.72-15.08,37.92-26.76,52.74,3.5-20,17.16-33.26,25.6-49.64-.71-1.28-1.89,3.8-2.33,1.55,3.52-13.93,12.16-22.75,16.28-36.06-6.63,12.23-15.21,22.53-17.83,38.78-9.81,7.25-11.23,22.89-19.78,31.4,0,1.28.66,1.94.39,3.49a69.83,69.83,0,0,0-5.43,8.93c-.11,1.52.15,2.69,1.16,3.1-7.66,8.86-15.32,19.78-22.88,29.47-2.16,2.78-4.28,8-8.53,7-.43-3,3.14-2,3.88-3.88a4.24,4.24,0,0,0-.78-3.1,55,55,0,0,0-13.18,21.71c6.15-31.72,19.74-59.36,29.47-88.8-7,4.64-12.28,14.35-18.61,20.94-1.73-11,2.84-18.81,3.49-28.69-9,1.76-11.9,9.56-18.62,13.57-3.47-7.38-.11-19.87-1.55-28.7,8.58-3.83,16-8.8,24-13.18,2.09,8.15-2.15,15.68-3.49,22.88,10.07-2.2,15.46-12.46,23.65-17.84.34,12.36-6,18-8.53,27.53,21.28-21.77,41.88-47.56,62.43-71.35-.68,5.92-2.15,13.08-7,13.57.64,6,7.17,6,6.6,13.19-1.24-.06-.86-1.73-1.56-2.33-1.89,4.83-6,9.07-5.42,15.12,2.55.3,3.08-4.62,3.49-7.75,2.52,13.19-3,24.83-7.76,33.35,2.73-8.37,2.09-25.65,4.65-35.68.39-1.52,1.69-3,1.55-4.26C875.27,706.89,872.36,706.05,872.41,704.11Z"/><path class="cls-1" d="M552.49,831.69a4.13,4.13,0,0,0-2.33-6.2c-1.59,2.08-.46,6.15,2.33,6.2ZM514.87,779c-2-12.59-10.09-19.12-15.12-28.7,2.34,12.27,10.33,18.88,15.12,28.7ZM498.2,751c-2.29-.81-1.78-4.6,1.55-3.88.35,2.16-.85,2.77-1.55,3.88ZM518,779c1.07,1.45-.39,3-1.17,3.88-2.62-.41-1.53-4.45,1.17-3.88Zm-38-67.87c-.76.59-1.44,3.87,0,4.27,2-.88,2.19-3.5,2.33-6.2-.33-1.44-2.62,1.17-1.55,0,.94-3.06,3.75,2.2,4.65,3.49,10.57,15,18.51,32.76,28.31,49.24,8.28,13.92,17.76,26.5,26,40.72,2.68,4.64,6,9.83,7.76,14.35a8.5,8.5,0,0,1,0,6.2c-9.27-8.93-15.76-20.92-22.88-32.57-.82-1.34-1.9-3.76-3.88-3.88-2.37,1.82,1.48,3.19,1.16,5.43-1.94.43-6.38-6.33-3.87-10.47,9.06,6.71,12,19.53,20.55,26.76.05,2.66,1.14,4.28,3.1,5,1.11-2.28-1-4.72-3.1-5-16.23-32.5-34.86-62.61-53.51-92.68.83,11.76,12.65,17.79,11.63,31.41-4.94-9.15-7.18-21-13.57-28.7,0-2.33,1.92-2.73,1.55-5.43-2.36-.41-3.32,3.92-3.49,7-3.55-1.84-7.48-18.15.39-14.73-.55,3-4.12,2.86-3.88,6.59.92,1.71,2.2-2.89,2.32-.78Zm-10.08-26.36c21.41,21.38,41.95,47,62.05,71-.4-11.88-7.25-17.32-8.53-28.31,9.16,6,16,14.24,25.2,20.17-1.85-8-3.34-16.31-5-24.43,8.88,2.23,16.41,9.18,25.21,12.79v28.7c-7.44-3.94-12-10.7-19.39-14.74.12,9.44,3.21,19.28,4.26,29.09-1.8.21-3.09-2.32-4.65-3.88a129.05,129.05,0,0,1-13.57-16.68c8,32.06,20.65,59.5,30.24,90a54.54,54.54,0,0,1-10.08-17.45c-.67,1-.74,2.61-1.94,3.1-2.83.23-4.84-1-5.43-3.1-1-3.5,1.8-6.57,1.94-8.53-2-1-3.81,2.82-3.1,4.65-10.24-7.21-15-19.92-23.65-28.69,0-1,.14-2.22-.39-2.72-16.41-8.47-25-31.3-31.8-50,.09-1.59,1.32-2.05,1.55-3.49-2.51-7.83-9.39-11.29-10.08-20.94-1.89-.62-2.42,3.18-4.65,3.49a71.75,71.75,0,0,0,6.59,23.26c-9.94-4.41-8.55-20.14-11.64-31.41,1.75-1.16,3.69,4,3.49,7.37,4.54-5.94-7.34-18.33,3.11-22.1-4.54-1.14-4.55,5.51-7.37,7.37-1.19-3.3,3.68-7.16,5.43-10.09C473.29,696.06,473.15,688.84,469.89,684.73Z"/><path class="cls-1" d="M452.83,708.77c-1.69.39-1.78-.8-2.72-1.17.24-5.83,4.95-7.2,6.6-11.63C456.8,698.55,453.31,704.19,452.83,708.77Z"/><path class="cls-1" d="M767.71,818.9c-2.11.6-3.46,2-6.59,1.55-3.36-9.05-10.52-14.3-12-25.21,2.15-2,5.94-2.33,7.36-5,5.53,7,7,18.07,11.25,26.37,2.73-.5,4-2.47,5-4.65,5.16,8.67,4.4,23.26,7,34.51-2.81-2.71-4.8-7.75-6.59-12.8S770.93,822.51,767.71,818.9Z"/><path class="cls-1" d="M816.57,815.41c3.79,4.12-6.2,10.17-7,12.79-.19.65.81,2.69.78,3.11-.54,6.17-8.76,7-12.8,10.85-.14-1.35-.35-3.51-.77-3.87.15-1.93,1.32.34,1.93.38,4.69-1.26,7.11-4.78,9.7-8.14C805.68,823,815.45,821.6,816.57,815.41Z"/><path class="cls-1" d="M547.45,853.8c-.14.52-3.87.77-5.82.78A19,19,0,0,1,547.45,853.8Z"/><path class="cls-1" d="M831.69,870.86a9.78,9.78,0,0,0,1.94-6.59c3.2,2.23,9.45,1.41,14.74,1.55-.94,2.43-2.33,6.45-1.16,9.69C843.23,874.32,835.87,873.15,831.69,870.86Z"/><path class="cls-1" d="M791.36,871.25c3.65,4.51,15.67,7.68,12,18.23C797,885.8,795.15,877.55,791.36,871.25Z"/><path class="cls-1" d="M787.87,872.8c4.6,3.29,8,11.12,10.47,17.84C789.81,891.29,789.59,880.26,787.87,872.8Z"/><path class="cls-1" d="M581.19,887.54c-4.8-1.15-3.31-8.58-5.43-12.41,1-.61,1.67,1.78,2.71,3.49C580,881,581.79,882.81,581.19,887.54Z"/><path class="cls-1" d="M830.14,1007.36c-2.37-13.91-9.2-23.37-11.63-37.23,13.06,4.27,23.41,11.24,36.84,15.13,7.44,18.41,19.22,32.48,27.14,50.41C864,1028.88,848.24,1015.89,830.14,1007.36Z"/></g></g></svg>